<?xml version="1.0" encoding="UTF-8"?>
<svg width="129px" height="255px" viewBox="0 0 129 255" version="1.1" xmlns="http://www.w3.org/2000/svg" xmlns:xlink="http://www.w3.org/1999/xlink">
    <!-- Generator: Sketch 57.1 (83088) - https://sketch.com -->
    <title>001-return-on-investment</title>
    <desc>Created with Sketch.</desc>
    <g id="Page-1" stroke="none" stroke-width="1" fill="none" fill-rule="evenodd">
        <g id="Final-design" transform="translate(-220.000000, -2955.000000)" fill="#FFFFFF" fill-rule="nonzero">
            <g id="HOW-WE-INVEST" transform="translate(-455.000000, 2238.000000)">
                <g id="PROOF" transform="translate(599.000000, 717.000000)">
                    <g id="Group-17">
                        <g id="001-return-on-investment" transform="translate(76.000000, -24.000000)">
                            <path d="M141.495176,283 C63.473119,283 0,219.524221 0,141.5 C0,140.168644 1.09020557,138.740813 2.42160706,138.740813 L26.5411993,138.740813 C27.8726008,138.740813 28.9531586,139.821334 28.9531586,141.15269 C28.9435107,203.562419 79.4354652,254.057476 141.495176,254.057476 C203.559711,254.057476 254.056489,203.562419 254.056489,141.5 C254.056489,79.437581 203.559711,28.942524 141.495176,28.942524 C110.926005,28.942524 81.4808066,41.6097021 60.2893328,63.789323 L77.4431869,77.6093782 C78.1474789,78.1785812 78.4755054,79.0950944 78.2921965,79.9778414 C78.1088876,80.8605884 77.4431869,81.574504 76.5748815,81.8156917 L15.0023864,98.7953058 C14.2450312,98.9930797 13.4539086,98.8338958 12.8509188,98.3466967 C12.243105,97.8546738 11.9150786,97.1069919 11.9536699,96.3351912 L15.4751304,32.569987 C15.5233696,31.6631213 16.0732963,30.8623781 16.9030103,30.4957728 C17.7327242,30.138815 18.692684,30.2545851 19.3969761,30.8189643 L37.7568097,45.6134179 C64.5440289,16.5985375 102.218832,0 141.495176,0 C219.522057,0 283,63.475779 283,141.5 C283,219.524221 219.522057,283 141.495176,283 Z M4.85286196,143.564567 C6.12637644,218.163922 66.9366925,278.176246 141.495176,278.176246 C216.859254,278.176246 278.176082,216.861509 278.176082,141.5 C278.176082,66.1384912 216.859254,4.82375401 141.495176,4.82375401 C102.83147,4.82375401 65.7693042,21.4850003 39.8069751,50.533647 C38.9483176,51.4887503 37.4963181,51.6141679 36.4929431,50.8086009 L20.0289094,37.5288062 L16.9560734,93.2479887 L70.752412,78.4149451 L55.2435141,65.9165985 C54.7273549,65.4969319 54.3993284,64.8843151 54.3462653,64.2186371 C54.2980261,63.552959 54.5247503,62.9017522 54.9733747,62.4097293 C77.1875192,38.0787141 108.726298,24.11877 141.495176,24.11877 C206.222514,24.11877 258.880408,76.7748688 258.880408,141.5 C258.880408,206.225131 206.222514,258.88123 141.495176,258.88123 C77.4624825,258.88123 25.2387413,207.339418 24.1388879,143.564567 L4.85286196,143.564567 Z" id="Shape"></path>
                            <path d="M132.004814,203 C98.3684003,203 71,175.634254 71,142 C71,108.365746 98.3684003,81 132.004814,81 C165.636414,81 193,108.365746 193,142 C193,175.634254 165.636414,203 132.004814,203 Z M132.004814,85.8145225 C101.020993,85.8145225 75.8141425,111.018548 75.8141425,142 C75.8141425,172.981452 101.020993,198.185478 132.004814,198.185478 C162.983821,198.185478 188.185857,172.981452 188.185857,142 C188.185857,111.018548 162.979007,85.8145225 132.004814,85.8145225 L132.004814,85.8145225 Z" id="Shape"></path>
                            <path d="M154,153.176033 C153.397128,133.267213 122.375754,139.469669 122.375754,128.351693 C122.375754,124.655378 125.568563,122.149237 131.655157,122.149237 C137.833388,122.149237 141.527787,125.458504 141.932917,130.257908 L153.300669,130.257908 C152.774964,120.668776 146.500274,114.340528 136.646936,112.874581 L136.646936,103 L127.661734,103 L127.661734,112.835876 C117.2634,114.253443 110.901896,120.697804 110.901896,128.458132 C110.901896,148.671753 142.825167,142.469297 142.825167,153.272795 C142.825167,157.090063 139.32851,159.876814 132.74515,159.876814 C126.460813,159.876814 122.168366,156.190175 121.772882,151.676219 L110,151.676219 C110.434068,160.292892 117.355037,167.259769 127.661734,169.045032 L127.661734,181 L136.646936,181 L136.646936,169.291775 C147.435931,168.087086 154,161.555638 154,153.176033 L154,153.176033 Z" id="Path"></path>
                            <path d="M136.167957,183 L127.145031,183 C125.809019,183 124.724719,181.927103 124.724719,180.60514 L124.724719,170.719159 C114.496477,168.247664 107.467889,160.809229 107.003189,151.699182 C106.969304,151.042991 107.206495,150.401168 107.666354,149.926986 C108.126214,149.452804 108.760336,149.184579 109.418661,149.184579 L121.234628,149.184579 C122.48835,149.184579 123.538765,150.132944 123.645259,151.368692 C123.950218,154.80771 127.571006,157.303154 132.247051,157.303154 C135.969492,157.303154 139.943645,156.211098 139.943645,153.160047 C139.943645,150.664603 135.780707,149.380958 129.420125,147.690187 C120.339112,145.285748 107.903545,141.990421 107.903545,128.593575 C107.903545,120.024766 114.578768,113.189836 124.724719,111.111098 L124.724719,103.39486 C124.724719,102.072897 125.809019,101 127.145031,101 L136.163117,101 C137.499129,101 138.583429,102.072897 138.583429,103.39486 L138.583429,111.178154 C148.550277,113.371846 154.746278,120.374416 155.293269,130.246028 C155.331994,130.90222 155.094803,131.544042 154.634944,132.023014 C154.175084,132.501986 153.540962,132.77021 152.877797,132.77021 L141.468442,132.77021 C140.20988,132.77021 139.159464,131.817056 139.057811,130.576519 C138.74317,126.874065 135.858157,124.74264 131.153069,124.74264 C129.081282,124.74264 124.260019,125.106659 124.260019,128.488201 C124.260019,131.189603 128.239013,132.473248 134.79322,134.269393 C143.569274,136.673832 155.598228,139.964369 156,152.987617 L156,153.064252 C156,162.289252 149.242487,169.191238 138.583429,171.087967 L138.583429,180.60514 C138.58827,181.927103 137.50397,183 136.167957,183 L136.167957,183 Z M129.565344,178.21028 L133.742804,178.21028 L133.742804,169.014019 C133.742804,167.79264 134.667363,166.76764 135.896882,166.633528 C145.152158,165.618107 151.135171,160.311098 151.154534,153.10257 C150.864096,144.318224 143.651564,141.66472 133.500773,138.886682 C126.573838,136.989953 119.419393,135.026168 119.419393,128.488201 C119.419393,124.364252 122.502871,119.952921 131.153069,119.952921 C137.465245,119.952921 142.083202,123.0375 143.482142,127.980491 L150.152524,127.980491 C148.831034,121.179089 143.724174,116.695911 135.809751,115.532009 C134.623798,115.359579 133.742804,114.353738 133.742804,113.165888 L133.742804,105.78493 L129.565344,105.78493 L129.565344,113.12757 C129.565344,114.325 128.669828,115.340421 127.469353,115.498481 C118.523877,116.700701 112.74417,121.84007 112.74417,128.588785 C112.74417,137.612617 120.174531,140.280491 130.673847,143.058528 C137.615304,144.89778 144.784271,146.799299 144.784271,153.150467 C144.784271,157.269626 141.497486,162.083294 132.247051,162.083294 C125.915512,162.083294 120.808653,158.778388 119.259652,153.96472 L112.187499,153.96472 C113.66873,160.253621 119.433915,165.019393 127.551644,166.403621 C128.713394,166.60479 129.560503,167.601051 129.560503,168.764953 L129.560503,178.21028 L129.565344,178.21028 Z" id="Shape"></path>
                        </g>
                    </g>
                </g>
            </g>
        </g>
    </g>
</svg>