<?xml version="1.0" encoding="UTF-8"?>
<svg width="169px" height="255px" viewBox="0 0 169 255" version="1.1" xmlns="http://www.w3.org/2000/svg" xmlns:xlink="http://www.w3.org/1999/xlink">
    <!-- Generator: Sketch 57.1 (83088) - https://sketch.com -->
    <title>002-growth</title>
    <desc>Created with Sketch.</desc>
    <g id="Page-1" stroke="none" stroke-width="1" fill="none" fill-rule="evenodd" opacity="0.7">
        <g id="Final-design" transform="translate(-417.000000, -2955.000000)" fill="#FFFFFF" fill-rule="nonzero">
            <g id="HOW-WE-INVEST" transform="translate(-455.000000, 2238.000000)">
                <g id="PROOF" transform="translate(599.000000, 717.000000)">
                    <g id="Group-17-Copy" transform="translate(237.000000, 0.000000)">
                        <g id="002-growth" transform="translate(176.000000, 127.985680) scale(-1, 1) translate(-176.000000, -127.985680) translate(36.000000, -6.000000)">
                            <path d="M139.0446,267.454504 C129.292213,267.454504 119.545048,265.488887 110.518347,261.562873 L67.3556833,242.799448 C51.7403787,236.007235 35.2297136,231.705325 18.2831146,230.011187 L4.10874138,228.59375 C1.77505967,228.361426 0,226.398419 0,224.054296 L0,179.591662 C0,178.604937 0.321077136,177.644317 0.913633986,176.855982 C1.97344869,175.438544 27.377685,142.250149 66.1836214,150.885292 C88.0090246,155.735382 105.582115,164.811679 116.48046,171.572569 C124.392527,176.480087 133.667214,179.072196 143.302133,179.072196 L186.464797,179.072196 C193.904385,179.072196 200.443392,183.008652 204.100537,188.913335 L241.274985,146.0848 C248.48225,136.460322 260.273344,130.56608 272.61784,130.56608 L275.395286,130.56608 C276.938022,130.56608 278.373732,131.343974 279.214275,132.633502 C280.057429,133.923031 280.190558,135.55452 279.571897,136.964126 L245.950179,213.375224 C238.599344,230.086889 223.631414,242.710695 205.914753,247.140513 L199.999627,248.617989 L165.589574,262.382533 C157.121495,265.768198 148.081742,267.454504 139.0446,267.454504 L139.0446,267.454504 Z M9.12589499,219.924672 L19.1915274,220.932279 C37.0804742,222.720391 54.5099937,227.265066 70.9971662,234.433174 L114.15722,253.196599 C129.333979,259.795644 146.83659,260.054072 162.203908,253.906623 L196.895883,240.029833 C197.089052,239.954132 197.28483,239.891483 197.48583,239.841885 L203.701149,238.286098 C218.703013,234.534979 231.376417,223.848076 237.596957,209.699806 L268.263723,140.00522 C260.411695,141.16162 253.186158,145.393049 248.372613,151.809368 L207.191229,199.27133 C207.19645,199.448837 207.19906,199.623732 207.19906,199.803849 C207.19906,211.23471 197.89827,220.535501 186.467407,220.535501 L126.245898,220.535501 C118.417363,220.535501 110.680191,221.791095 103.253655,224.265737 L101.577789,220.010815 L100.160352,215.674971 L100.392676,215.599269 C108.727625,212.821823 117.433249,211.409606 126.245898,211.409606 L186.467407,211.409606 C192.865453,211.409606 198.075776,206.201894 198.075776,199.801238 C198.075776,193.400582 192.868064,188.19287 186.467407,188.19287 L143.304743,188.19287 C131.967855,188.19287 121.030355,185.125671 111.674746,179.322792 C101.3794,172.935188 84.7825926,164.365305 64.2101734,159.789305 C34.822494,153.271181 13.6757907,175.824881 9.1285052,181.204878 L9.1285052,219.924672 L9.12589499,219.924672 Z" id="Shape"></path>
                            <path d="M179.672584,129.534979 C172.655877,129.534979 164.788186,127.368362 156.126939,123.037739 C155.077566,122.510442 154.268347,121.596808 153.871569,120.492617 C153.519168,119.503282 145.366945,96.0542212 158.32227,78.7134543 C167.737917,66.1079205 185.441527,60.4303404 210.971062,61.8529984 C213.299523,61.9809069 215.155504,63.8473301 215.270361,66.1810112 C215.361725,67.9926165 217.24381,110.753282 195.43929,124.990304 C190.803252,128.020958 185.535501,129.534979 179.672584,129.534979 L179.672584,129.534979 Z M161.94548,115.715617 C173.929744,121.335769 183.509845,121.88656 190.453461,117.352327 C203.382682,108.907741 206.178401,83.840245 206.246271,70.7935561 C186.242915,70.3054145 172.624552,74.8135442 165.63134,84.171763 C157.309442,95.315483 160.543706,110.643645 161.94548,115.715617 Z" id="Shape"></path>
                            <path d="M109.902297,69.7598449 C101.812724,69.7598449 92.4806086,68.0265513 84.3362172,62.0618289 C70.5220764,51.9387677 64.1736277,32.6663183 65.4631567,4.78221957 C65.5727924,2.45114874 67.4209427,0.576894224 69.7520136,0.438544153 C71.7254622,0.326297566 118.435636,-2.16661728 134.152745,21.4260143 C141.472255,32.407891 140.871868,46.7910947 132.375075,64.1840692 C131.858219,65.2412737 130.955027,66.0583231 129.850835,66.4629324 C129.237395,66.6900358 120.672733,69.7598449 109.902297,69.7598449 Z M74.4428703,9.41564754 C74.0487024,31.7500747 79.1833237,46.9738218 89.7266556,54.7005521 C102.350462,63.9491345 119.586814,60.0178998 125.005967,58.4386189 C131.205624,44.9847105 131.73031,34.2429896 126.561754,26.484934 C116.955549,12.0651853 88.7843079,9.24597289 74.4428703,9.41564754 Z" id="Shape"></path>
                            <path d="M145.531399,186.590095 C145.387828,186.590095 145.244257,186.582264 145.098076,186.569212 C142.667811,186.339499 140.848374,184.238142 140.971062,181.797434 C141.239932,176.430489 141.699359,171.340245 142.32324,166.516259 C144.220987,134.231056 143.242094,59.0468377 95.7070406,38.247315 C93.399463,37.2370971 92.3448687,34.5484041 93.3550867,32.2382163 C94.3626937,29.933249 97.0592187,28.8812649 99.3641854,29.888872 C127.376193,42.144615 144.998881,72.6573684 150.316229,118.12761 C150.793929,122.202417 151.151551,126.219794 151.417811,130.132757 C163.937201,98.4975386 183.089574,87.3198838 184.23031,86.6803404 C186.423031,85.4404089 189.205698,86.2287439 190.443019,88.4188544 C191.672509,90.6115752 190.899836,93.3864113 188.714947,94.6237319 C188.232025,94.9056532 158.862619,112.530952 151.490901,166.884323 C150.929669,176.182503 150.12045,182.11068 150.044749,182.65364 C149.728893,184.929893 147.784159,186.590095 145.531399,186.590095 Z" id="Path"></path>
                        </g>
                    </g>
                </g>
            </g>
        </g>
    </g>
</svg>