<?xml version="1.0" encoding="UTF-8"?>
<svg width="128px" height="248px" viewBox="0 0 128 248" version="1.1" xmlns="http://www.w3.org/2000/svg" xmlns:xlink="http://www.w3.org/1999/xlink">
    <!-- Generator: Sketch 57.1 (83088) - https://sketch.com -->
    <title>003-diagram</title>
    <desc>Created with Sketch.</desc>
    <g id="Page-1" stroke="none" stroke-width="1" fill="none" fill-rule="evenodd" opacity="0.7">
        <g id="Final-design" transform="translate(-695.000000, -2962.000000)" fill="#FFFFFF" fill-rule="nonzero">
            <g id="HOW-WE-INVEST" transform="translate(-455.000000, 2238.000000)">
                <g id="PROOF" transform="translate(599.000000, 717.000000)">
                    <g id="Group-17-Copy-2" transform="translate(474.000000, 0.000000)">
                        <g id="003-diagram" transform="translate(208.000000, 147.291060) scale(-1, 1) translate(-208.000000, -147.291060) translate(68.000000, 7.000000)">
                            <path d="M269.616715,40.416632 L250.988857,3.16091476 C249.840333,0.859209979 247.044407,-0.0756756757 244.742703,1.07284823 C244.741538,1.07343035 244.740374,1.07401247 244.73921,1.07459459 L207.483493,19.7024532 C205.181788,20.8521414 204.247484,23.650395 205.397173,25.9520998 C206.546861,28.2538046 209.345114,29.1881081 211.646819,28.03842 L238.629272,14.5565073 L231.266611,35.5780457 C198.904782,127.744033 115.551518,192.403659 18.233763,200.835094 L19.025447,210.149023 C120.009979,201.400915 206.499709,134.2958 240.063617,38.6516424 L247.579958,17.1737214 L261.280748,44.5799584 C262.430437,46.8816632 265.22869,47.8159667 267.530395,46.6662786 C269.832682,45.5165904 270.766403,42.7189189 269.616715,40.416632 Z" id="Path"></path>
                            <path d="M158.338545,186.8642 L125.739792,186.8642 C123.167983,186.8642 121.082827,188.949356 121.082827,191.521164 L121.082827,256.718669 C121.082827,259.290478 123.167983,261.375634 125.739792,261.375634 L158.338545,261.375634 C160.910353,261.375634 162.995509,259.290478 162.995509,256.718669 L162.995509,191.521164 C162.995509,188.949356 160.910353,186.8642 158.338545,186.8642 Z M153.68158,252.061705 L130.396757,252.061705 L130.396757,196.178129 L153.68158,196.178129 L153.68158,252.061705 Z" id="Shape"></path>
                            <path d="M209.565156,154.265447 L176.966403,154.265447 C174.394595,154.265447 172.309439,156.350603 172.309439,158.922412 L172.309439,256.718669 C172.309439,259.290478 174.394595,261.375634 176.966403,261.375634 L209.565156,261.375634 C212.136965,261.375634 214.222121,259.290478 214.222121,256.718669 L214.222121,158.922412 C214.222121,156.350603 212.136965,154.265447 209.565156,154.265447 Z M204.908191,252.061705 L181.623368,252.061705 L181.623368,163.579376 L204.908191,163.579376 L204.908191,252.061705 Z" id="Shape"></path>
                            <path d="M260.791767,89.0679418 L228.193015,89.0679418 C225.621206,89.0679418 223.53605,91.1530977 223.53605,93.7249064 L223.53605,256.718669 C223.53605,259.290478 225.621206,261.375634 228.193015,261.375634 L260.791767,261.375634 C263.363576,261.375634 265.448732,259.290478 265.448732,256.718669 L265.448732,93.7249064 C265.448732,91.1530977 263.363576,89.0679418 260.791767,89.0679418 Z M256.134802,252.061705 L232.849979,252.061705 L232.849979,98.3818711 L256.134802,98.3818711 L256.134802,252.061705 Z" id="Shape"></path>
                        </g>
                    </g>
                </g>
            </g>
        </g>
    </g>
</svg>