<?xml version="1.0" encoding="UTF-8"?>
<svg width="118px" height="245px" viewBox="0 0 118 245" version="1.1" xmlns="http://www.w3.org/2000/svg" xmlns:xlink="http://www.w3.org/1999/xlink">
    <!-- Generator: Sketch 57.1 (83088) - https://sketch.com -->
    <title>004-success</title>
    <desc>Created with Sketch.</desc>
    <g id="Page-1" stroke="none" stroke-width="1" fill="none" fill-rule="evenodd" opacity="0.7">
        <g id="Final-design" transform="translate(-941.000000, -2965.000000)" fill="#FFFFFF" fill-rule="nonzero">
            <g id="HOW-WE-INVEST" transform="translate(-455.000000, 2238.000000)">
                <g id="PROOF" transform="translate(599.000000, 717.000000)">
                    <g id="Group-17-Copy-3" transform="translate(710.000000, 0.000000)">
                        <g id="004-success" transform="translate(217.500000, 136.500000) scale(-1, 1) translate(-217.500000, -136.500000) translate(87.000000, 6.000000)">
                            <path d="M256.790323,159.967742 C259.113045,159.967742 261,158.080787 261,155.758065 L261,96.8225806 C261,85.2171904 251.557003,75.7741935 239.951613,75.7741935 L138.919355,75.7741935 C136.596633,75.7741935 134.709677,77.6611488 134.709677,79.983871 L134.709677,96.8225806 C134.709677,99.1453028 136.596633,101.032258 138.919355,101.032258 L197.854839,101.032258 L197.854839,134.709677 L172.596774,134.709677 C165.634773,134.709677 159.967742,140.376709 159.967742,147.33871 L159.967742,210.483871 L101.032258,210.483871 L101.032258,197.854839 C101.032258,195.532117 99.1453028,193.645161 96.8225806,193.645161 L50.516129,193.645161 L50.516129,92.6129032 L122.080645,92.6129032 C124.403367,92.6129032 126.290323,90.7259479 126.290323,88.4032258 L126.290323,63.1451613 L164.177419,63.1451613 C165.811547,63.1451613 167.297679,62.1975729 167.990384,60.7196636 C168.685145,59.2376435 168.45904,57.492518 167.410731,56.2407146 L148.609012,33.6774194 L167.410731,11.1141241 C168.45904,9.85820943 168.681034,8.11102859 167.990384,6.63517515 C167.297679,5.15726581 165.811547,4.20967742 164.177419,4.20967742 L88.4032258,4.20967742 C86.0805037,4.20967742 84.1935484,6.0966327 84.1935484,8.41935484 L84.1935484,33.6774194 L50.516129,33.6774194 L50.516129,27.8603355 C53.1060673,24.8962954 54.7258065,21.0689419 54.7258065,16.8387097 C54.7258065,7.55193081 47.1738756,0 37.8870968,0 C28.6003179,0 21.0483871,7.55193081 21.0483871,16.8387097 C21.0483871,21.0689419 22.6681263,24.8962954 25.2580645,27.8603355 L25.2580645,193.645161 L4.20967742,193.645161 C1.88695528,193.645161 0,195.532117 0,197.854839 L0,256.790323 C0,259.113045 1.88695528,261 4.20967742,261 L256.790323,261 C259.113045,261 261,259.113045 261,256.790323 L261,231.532258 C261,229.209536 259.113045,227.322581 256.790323,227.322581 L244.16129,227.322581 L244.16129,159.967742 L256.790323,159.967742 Z M139.895721,30.9826501 C138.594585,32.5448351 138.594585,34.8141143 139.895721,36.3721886 L155.190745,54.7258065 L126.290323,54.7258065 L126.290323,37.8870968 C126.290323,36.6250155 125.704503,35.5253199 124.824747,34.7545048 L124.855579,34.7216167 L99.6057363,12.6290323 L155.184578,12.6290323 L139.895721,30.9826501 Z M92.6129032,17.6979112 L110.878135,33.6774194 L92.6129032,33.6774194 L92.6129032,17.6979112 Z M117.870968,42.0967742 L117.870968,84.1935484 L50.516129,84.1935484 L50.516129,75.7741935 L75.7741935,75.7741935 L75.7741935,67.3548387 L50.516129,67.3548387 L50.516129,58.9354839 L75.7741935,58.9354839 L75.7741935,50.516129 L50.516129,50.516129 L50.516129,42.0967742 L117.870968,42.0967742 Z M37.8870968,8.41935484 C42.5304862,8.41935484 46.3064516,12.1953202 46.3064516,16.8387097 C46.3064516,21.4820991 42.5304862,25.2580645 37.8870968,25.2580645 C33.2437073,25.2580645 29.4677419,21.4820991 29.4677419,16.8387097 C29.4677419,12.1953202 33.2437073,8.41935484 37.8870968,8.41935484 Z M33.6774194,33.0792668 C35.0319983,33.4328139 36.4256315,33.6774194 37.8870968,33.6774194 C39.3485621,33.6774194 40.7421952,33.4328139 42.0967742,33.0792668 L42.0967742,193.645161 L33.6774194,193.645161 L33.6774194,33.0792668 Z M252.580645,252.580645 L8.41935484,252.580645 L8.41935484,202.064516 L92.6129032,202.064516 L92.6129032,214.693548 C92.6129032,217.016271 94.4998585,218.903226 96.8225806,218.903226 L185.225806,218.903226 L185.225806,231.532258 C185.225806,233.85498 187.112762,235.741935 189.435484,235.741935 L252.580645,235.741935 L252.580645,252.580645 Z M218.903226,227.322581 L193.645161,227.322581 L193.645161,214.693548 C193.645161,212.370826 191.758206,210.483871 189.435484,210.483871 L185.225806,210.483871 L185.225806,159.967742 L218.903226,159.967742 L218.903226,227.322581 Z M227.322581,227.322581 L227.322581,155.758065 C227.322581,153.435342 225.435625,151.548387 223.112903,151.548387 L181.016129,151.548387 C178.693407,151.548387 176.806452,153.435342 176.806452,155.758065 L176.806452,210.483871 L168.387097,210.483871 L168.387097,147.33871 C168.387097,145.020098 170.278163,143.129032 172.596774,143.129032 L202.064516,143.129032 C204.387238,143.129032 206.274194,141.242077 206.274194,138.919355 L206.274194,96.8225806 C206.274194,94.4998585 204.387238,92.6129032 202.064516,92.6129032 L143.129032,92.6129032 L143.129032,84.1935484 L239.951613,84.1935484 C246.913614,84.1935484 252.580645,89.8605798 252.580645,96.8225806 L252.580645,151.548387 L244.16129,151.548387 L244.16129,109.451613 L235.741935,109.451613 L235.741935,227.322581 L227.322581,227.322581 Z" id="Shape"></path>
                            <path d="M219,68 C230.578711,68 240,58.466553 240,46.75 L240,38.25 C240,26.533447 230.578711,17 219,17 C207.421289,17 198,26.533447 198,38.25 L198,46.75 C198,58.466553 207.421289,68 219,68 Z M206.4,38.25 C206.4,31.2213133 212.054004,25.5 219,25.5 C225.945996,25.5 231.6,31.2213133 231.6,38.25 L231.6,46.75 C231.6,53.7786867 225.945996,59.5 219,59.5 C212.054004,59.5 206.4,53.7786867 206.4,46.75 L206.4,38.25 Z" id="Shape"></path>
                        </g>
                    </g>
                </g>
            </g>
        </g>
    </g>
</svg>