<?xml version="1.0" encoding="UTF-8"?>
<svg width="362px" height="247px" viewBox="0 0 362 247" version="1.1" xmlns="http://www.w3.org/2000/svg" xmlns:xlink="http://www.w3.org/1999/xlink">
    <!-- Generator: Sketch 57.1 (83088) - https://sketch.com -->
    <title>background items</title>
    <desc>Created with Sketch.</desc>
    <g id="Page-1" stroke="none" stroke-width="1" fill="none" fill-rule="evenodd">
        <g id="Final-design" transform="translate(-974.000000, -2016.000000)">
            <g id="FIRST-CTA" transform="translate(144.000000, 2016.000000)">
                <g id="background-items" transform="translate(830.000000, 0.000000)">
                    <polygon id="Triangle-Copy-13" stroke-opacity="0.36451049" stroke="#8ECCFD" stroke-width="3" transform="translate(313.500000, 166.238389) rotate(-23.000000) translate(-313.500000, -166.238389) " points="315.265118 154.680195 326 177.796582 301 177.796582"></polygon>
                    <g id="Group-7" opacity="0.25609189" transform="translate(254.500000, 107.180195) rotate(-10.000000) translate(-254.500000, -107.180195) translate(162.000000, 14.680195)" fill="#F38E86">
                        <circle id="Oval-Copy-6" cx="1.5" cy="1.5" r="1.5"></circle>
                        <circle id="Oval-Copy-7" cx="14.5" cy="1.5" r="1.5"></circle>
                        <circle id="Oval-Copy-8" cx="27.5" cy="1.5" r="1.5"></circle>
                        <circle id="Oval-Copy-9" cx="40.5" cy="1.5" r="1.5"></circle>
                        <circle id="Oval-Copy-10" cx="53.5" cy="1.5" r="1.5"></circle>
                        <circle id="Oval-Copy-11" cx="66.5" cy="1.5" r="1.5"></circle>
                        <circle id="Oval-Copy-12" cx="79.5" cy="1.5" r="1.5"></circle>
                        <circle id="Oval-Copy-13" cx="92.5" cy="1.5" r="1.5"></circle>
                        <circle id="Oval-Copy-14" cx="105.5" cy="1.5" r="1.5"></circle>
                        <circle id="Oval-Copy-15" cx="118.5" cy="1.5" r="1.5"></circle>
                        <circle id="Oval-Copy-16" cx="131.5" cy="1.5" r="1.5"></circle>
                        <circle id="Oval-Copy-17" cx="144.5" cy="1.5" r="1.5"></circle>
                        <circle id="Oval-Copy-18" cx="157.5" cy="1.5" r="1.5"></circle>
                        <circle id="Oval-Copy-19" cx="170.5" cy="1.5" r="1.5"></circle>
                        <circle id="Oval-Copy-20" cx="183.5" cy="1.5" r="1.5"></circle>
                        <circle id="Oval-Copy-21" cx="1.5" cy="14.5" r="1.5"></circle>
                        <circle id="Oval-Copy-22" cx="14.5" cy="14.5" r="1.5"></circle>
                        <circle id="Oval-Copy-23" cx="27.5" cy="14.5" r="1.5"></circle>
                        <circle id="Oval-Copy-24" cx="40.5" cy="14.5" r="1.5"></circle>
                        <circle id="Oval-Copy-25" cx="53.5" cy="14.5" r="1.5"></circle>
                        <circle id="Oval-Copy-26" cx="66.5" cy="14.5" r="1.5"></circle>
                        <circle id="Oval-Copy-27" cx="79.5" cy="14.5" r="1.5"></circle>
                        <circle id="Oval-Copy-28" cx="92.5" cy="14.5" r="1.5"></circle>
                        <circle id="Oval-Copy-29" cx="105.5" cy="14.5" r="1.5"></circle>
                        <circle id="Oval-Copy-30" cx="118.5" cy="14.5" r="1.5"></circle>
                        <circle id="Oval-Copy-31" cx="131.5" cy="14.5" r="1.5"></circle>
                        <circle id="Oval-Copy-32" cx="144.5" cy="14.5" r="1.5"></circle>
                        <circle id="Oval-Copy-33" cx="157.5" cy="14.5" r="1.5"></circle>
                        <circle id="Oval-Copy-34" cx="170.5" cy="14.5" r="1.5"></circle>
                        <circle id="Oval-Copy-35" cx="183.5" cy="14.5" r="1.5"></circle>
                        <circle id="Oval-Copy-36" cx="1.5" cy="27.5" r="1.5"></circle>
                        <circle id="Oval-Copy-37" cx="14.5" cy="27.5" r="1.5"></circle>
                        <circle id="Oval-Copy-38" cx="27.5" cy="27.5" r="1.5"></circle>
                        <circle id="Oval-Copy-39" cx="40.5" cy="27.5" r="1.5"></circle>
                        <circle id="Oval-Copy-40" cx="53.5" cy="27.5" r="1.5"></circle>
                        <circle id="Oval-Copy-41" cx="66.5" cy="27.5" r="1.5"></circle>
                        <circle id="Oval-Copy-42" cx="79.5" cy="27.5" r="1.5"></circle>
                        <circle id="Oval-Copy-43" cx="92.5" cy="27.5" r="1.5"></circle>
                        <circle id="Oval-Copy-44" cx="105.5" cy="27.5" r="1.5"></circle>
                        <circle id="Oval-Copy-45" cx="118.5" cy="27.5" r="1.5"></circle>
                        <circle id="Oval-Copy-46" cx="131.5" cy="27.5" r="1.5"></circle>
                        <circle id="Oval-Copy-47" cx="144.5" cy="27.5" r="1.5"></circle>
                        <circle id="Oval-Copy-48" cx="157.5" cy="27.5" r="1.5"></circle>
                        <circle id="Oval-Copy-49" cx="170.5" cy="27.5" r="1.5"></circle>
                        <circle id="Oval-Copy-50" cx="183.5" cy="27.5" r="1.5"></circle>
                        <circle id="Oval-Copy-51" cx="1.5" cy="40.5" r="1.5"></circle>
                        <circle id="Oval-Copy-52" cx="14.5" cy="40.5" r="1.5"></circle>
                        <circle id="Oval-Copy-53" cx="27.5" cy="40.5" r="1.5"></circle>
                        <circle id="Oval-Copy-54" cx="40.5" cy="40.5" r="1.5"></circle>
                        <circle id="Oval-Copy-55" cx="53.5" cy="40.5" r="1.5"></circle>
                        <circle id="Oval-Copy-56" cx="66.5" cy="40.5" r="1.5"></circle>
                        <circle id="Oval-Copy-57" cx="79.5" cy="40.5" r="1.5"></circle>
                        <circle id="Oval-Copy-58" cx="92.5" cy="40.5" r="1.5"></circle>
                        <circle id="Oval-Copy-59" cx="105.5" cy="40.5" r="1.5"></circle>
                        <circle id="Oval-Copy-60" cx="118.5" cy="40.5" r="1.5"></circle>
                        <circle id="Oval-Copy-61" cx="131.5" cy="40.5" r="1.5"></circle>
                        <circle id="Oval-Copy-62" cx="144.5" cy="40.5" r="1.5"></circle>
                        <circle id="Oval-Copy-63" cx="157.5" cy="40.5" r="1.5"></circle>
                        <circle id="Oval-Copy-64" cx="170.5" cy="40.5" r="1.5"></circle>
                        <circle id="Oval-Copy-65" cx="183.5" cy="40.5" r="1.5"></circle>
                        <circle id="Oval-Copy-66" cx="1.5" cy="53.5" r="1.5"></circle>
                        <circle id="Oval-Copy-67" cx="14.5" cy="53.5" r="1.5"></circle>
                        <circle id="Oval-Copy-68" cx="27.5" cy="53.5" r="1.5"></circle>
                        <circle id="Oval-Copy-69" cx="40.5" cy="53.5" r="1.5"></circle>
                        <circle id="Oval-Copy-70" cx="53.5" cy="53.5" r="1.5"></circle>
                        <circle id="Oval-Copy-71" cx="66.5" cy="53.5" r="1.5"></circle>
                        <circle id="Oval-Copy-72" cx="79.5" cy="53.5" r="1.5"></circle>
                        <circle id="Oval-Copy-73" cx="92.5" cy="53.5" r="1.5"></circle>
                        <circle id="Oval-Copy-74" cx="105.5" cy="53.5" r="1.5"></circle>
                        <circle id="Oval-Copy-75" cx="118.5" cy="53.5" r="1.5"></circle>
                        <circle id="Oval-Copy-76" cx="131.5" cy="53.5" r="1.5"></circle>
                        <circle id="Oval-Copy-77" cx="144.5" cy="53.5" r="1.5"></circle>
                        <circle id="Oval-Copy-78" cx="157.5" cy="53.5" r="1.5"></circle>
                        <circle id="Oval-Copy-79" cx="170.5" cy="53.5" r="1.5"></circle>
                        <circle id="Oval-Copy-80" cx="183.5" cy="53.5" r="1.5"></circle>
                        <circle id="Oval-Copy-81" cx="1.5" cy="66.5" r="1.5"></circle>
                        <circle id="Oval-Copy-82" cx="14.5" cy="66.5" r="1.5"></circle>
                        <circle id="Oval-Copy-230" cx="183.5" cy="183.5" r="1.5"></circle>
                        <circle id="Oval-Copy-229" cx="170.5" cy="183.5" r="1.5"></circle>
                        <circle id="Oval-Copy-228" cx="157.5" cy="183.5" r="1.5"></circle>
                        <circle id="Oval-Copy-227" cx="144.5" cy="183.5" r="1.5"></circle>
                        <circle id="Oval-Copy-226" cx="131.5" cy="183.5" r="1.5"></circle>
                        <circle id="Oval-Copy-225" cx="118.5" cy="183.5" r="1.5"></circle>
                        <circle id="Oval-Copy-224" cx="105.5" cy="183.5" r="1.5"></circle>
                        <circle id="Oval-Copy-223" cx="92.5" cy="183.5" r="1.5"></circle>
                        <circle id="Oval-Copy-222" cx="79.5" cy="183.5" r="1.5"></circle>
                        <circle id="Oval-Copy-221" cx="66.5" cy="183.5" r="1.5"></circle>
                        <circle id="Oval-Copy-220" cx="53.5" cy="183.5" r="1.5"></circle>
                        <circle id="Oval-Copy-219" cx="40.5" cy="183.5" r="1.5"></circle>
                        <circle id="Oval-Copy-218" cx="27.5" cy="183.5" r="1.5"></circle>
                        <circle id="Oval-Copy-217" cx="14.5" cy="183.5" r="1.5"></circle>
                        <circle id="Oval-Copy-216" cx="1.5" cy="183.5" r="1.5"></circle>
                        <circle id="Oval-Copy-215" cx="183.5" cy="170.5" r="1.5"></circle>
                        <circle id="Oval-Copy-214" cx="170.5" cy="170.5" r="1.5"></circle>
                        <circle id="Oval-Copy-213" cx="157.5" cy="170.5" r="1.5"></circle>
                        <circle id="Oval-Copy-212" cx="144.5" cy="170.5" r="1.5"></circle>
                        <circle id="Oval-Copy-211" cx="131.5" cy="170.5" r="1.5"></circle>
                        <circle id="Oval-Copy-210" cx="118.5" cy="170.5" r="1.5"></circle>
                        <circle id="Oval-Copy-209" cx="105.5" cy="170.5" r="1.5"></circle>
                        <circle id="Oval-Copy-208" cx="92.5" cy="170.5" r="1.5"></circle>
                        <circle id="Oval-Copy-207" cx="79.5" cy="170.5" r="1.5"></circle>
                        <circle id="Oval-Copy-206" cx="66.5" cy="170.5" r="1.5"></circle>
                        <circle id="Oval-Copy-205" cx="53.5" cy="170.5" r="1.5"></circle>
                        <circle id="Oval-Copy-204" cx="40.5" cy="170.5" r="1.5"></circle>
                        <circle id="Oval-Copy-203" cx="27.5" cy="170.5" r="1.5"></circle>
                        <circle id="Oval-Copy-202" cx="14.5" cy="170.5" r="1.5"></circle>
                        <circle id="Oval-Copy-201" cx="1.5" cy="170.5" r="1.5"></circle>
                        <circle id="Oval-Copy-200" cx="183.5" cy="157.5" r="1.5"></circle>
                        <circle id="Oval-Copy-199" cx="170.5" cy="157.5" r="1.5"></circle>
                        <circle id="Oval-Copy-198" cx="157.5" cy="157.5" r="1.5"></circle>
                        <circle id="Oval-Copy-197" cx="144.5" cy="157.5" r="1.5"></circle>
                        <circle id="Oval-Copy-196" cx="131.5" cy="157.5" r="1.5"></circle>
                        <circle id="Oval-Copy-195" cx="118.5" cy="157.5" r="1.5"></circle>
                        <circle id="Oval-Copy-194" cx="105.5" cy="157.5" r="1.5"></circle>
                        <circle id="Oval-Copy-193" cx="92.5" cy="157.5" r="1.5"></circle>
                        <circle id="Oval-Copy-192" cx="79.5" cy="157.5" r="1.5"></circle>
                        <circle id="Oval-Copy-191" cx="66.5" cy="157.5" r="1.5"></circle>
                        <circle id="Oval-Copy-190" cx="53.5" cy="157.5" r="1.5"></circle>
                        <circle id="Oval-Copy-189" cx="40.5" cy="157.5" r="1.5"></circle>
                        <circle id="Oval-Copy-188" cx="27.5" cy="157.5" r="1.5"></circle>
                        <circle id="Oval-Copy-187" cx="14.5" cy="157.5" r="1.5"></circle>
                        <circle id="Oval-Copy-186" cx="1.5" cy="157.5" r="1.5"></circle>
                        <circle id="Oval-Copy-185" cx="183.5" cy="144.5" r="1.5"></circle>
                        <circle id="Oval-Copy-184" cx="170.5" cy="144.5" r="1.5"></circle>
                        <circle id="Oval-Copy-183" cx="157.5" cy="144.5" r="1.5"></circle>
                        <circle id="Oval-Copy-182" cx="144.5" cy="144.5" r="1.5"></circle>
                        <circle id="Oval-Copy-181" cx="131.5" cy="144.5" r="1.5"></circle>
                        <circle id="Oval-Copy-180" cx="118.5" cy="144.5" r="1.5"></circle>
                        <circle id="Oval-Copy-179" cx="105.5" cy="144.5" r="1.5"></circle>
                        <circle id="Oval-Copy-178" cx="92.5" cy="144.5" r="1.5"></circle>
                        <circle id="Oval-Copy-177" cx="79.5" cy="144.5" r="1.5"></circle>
                        <circle id="Oval-Copy-176" cx="66.5" cy="144.5" r="1.5"></circle>
                        <circle id="Oval-Copy-175" cx="53.5" cy="144.5" r="1.5"></circle>
                        <circle id="Oval-Copy-174" cx="40.5" cy="144.5" r="1.5"></circle>
                        <circle id="Oval-Copy-173" cx="27.5" cy="144.5" r="1.5"></circle>
                        <circle id="Oval-Copy-172" cx="14.5" cy="144.5" r="1.5"></circle>
                        <circle id="Oval-Copy-171" cx="1.5" cy="144.5" r="1.5"></circle>
                        <circle id="Oval-Copy-170" cx="183.5" cy="131.5" r="1.5"></circle>
                        <circle id="Oval-Copy-169" cx="170.5" cy="131.5" r="1.5"></circle>
                        <circle id="Oval-Copy-168" cx="157.5" cy="131.5" r="1.5"></circle>
                        <circle id="Oval-Copy-167" cx="144.5" cy="131.5" r="1.5"></circle>
                        <circle id="Oval-Copy-166" cx="131.5" cy="131.5" r="1.5"></circle>
                        <circle id="Oval-Copy-165" cx="118.5" cy="131.5" r="1.5"></circle>
                        <circle id="Oval-Copy-164" cx="105.5" cy="131.5" r="1.5"></circle>
                        <circle id="Oval-Copy-163" cx="92.5" cy="131.5" r="1.5"></circle>
                        <circle id="Oval-Copy-162" cx="79.5" cy="131.5" r="1.5"></circle>
                        <circle id="Oval-Copy-161" cx="66.5" cy="131.5" r="1.5"></circle>
                        <circle id="Oval-Copy-160" cx="53.5" cy="131.5" r="1.5"></circle>
                        <circle id="Oval-Copy-159" cx="40.5" cy="131.5" r="1.5"></circle>
                        <circle id="Oval-Copy-158" cx="27.5" cy="131.5" r="1.5"></circle>
                        <circle id="Oval-Copy-157" cx="14.5" cy="131.5" r="1.5"></circle>
                        <circle id="Oval-Copy-156" cx="1.5" cy="131.5" r="1.5"></circle>
                        <circle id="Oval-Copy-155" cx="183.5" cy="118.5" r="1.5"></circle>
                        <circle id="Oval-Copy-154" cx="170.5" cy="118.5" r="1.5"></circle>
                        <circle id="Oval-Copy-153" cx="157.5" cy="118.5" r="1.5"></circle>
                        <circle id="Oval-Copy-152" cx="144.5" cy="118.5" r="1.5"></circle>
                        <circle id="Oval-Copy-151" cx="131.5" cy="118.5" r="1.5"></circle>
                        <circle id="Oval-Copy-150" cx="118.5" cy="118.5" r="1.5"></circle>
                        <circle id="Oval-Copy-149" cx="105.5" cy="118.5" r="1.5"></circle>
                        <circle id="Oval-Copy-148" cx="92.5" cy="118.5" r="1.5"></circle>
                        <circle id="Oval-Copy-147" cx="79.5" cy="118.5" r="1.5"></circle>
                        <circle id="Oval-Copy-146" cx="66.5" cy="118.5" r="1.5"></circle>
                        <circle id="Oval-Copy-145" cx="53.5" cy="118.5" r="1.5"></circle>
                        <circle id="Oval-Copy-144" cx="40.5" cy="118.5" r="1.5"></circle>
                        <circle id="Oval-Copy-143" cx="27.5" cy="118.5" r="1.5"></circle>
                        <circle id="Oval-Copy-142" cx="14.5" cy="118.5" r="1.5"></circle>
                        <circle id="Oval-Copy-141" cx="1.5" cy="118.5" r="1.5"></circle>
                        <circle id="Oval-Copy-140" cx="183.5" cy="105.5" r="1.5"></circle>
                        <circle id="Oval-Copy-139" cx="170.5" cy="105.5" r="1.5"></circle>
                        <circle id="Oval-Copy-138" cx="157.5" cy="105.5" r="1.5"></circle>
                        <circle id="Oval-Copy-137" cx="144.5" cy="105.5" r="1.5"></circle>
                        <circle id="Oval-Copy-136" cx="131.5" cy="105.5" r="1.5"></circle>
                        <circle id="Oval-Copy-135" cx="118.5" cy="105.5" r="1.5"></circle>
                        <circle id="Oval-Copy-134" cx="105.5" cy="105.5" r="1.5"></circle>
                        <circle id="Oval-Copy-133" cx="92.5" cy="105.5" r="1.5"></circle>
                        <circle id="Oval-Copy-132" cx="79.5" cy="105.5" r="1.5"></circle>
                        <circle id="Oval-Copy-131" cx="66.5" cy="105.5" r="1.5"></circle>
                        <circle id="Oval-Copy-130" cx="53.5" cy="105.5" r="1.5"></circle>
                        <circle id="Oval-Copy-129" cx="40.5" cy="105.5" r="1.5"></circle>
                        <circle id="Oval-Copy-128" cx="27.5" cy="105.5" r="1.5"></circle>
                        <circle id="Oval-Copy-127" cx="14.5" cy="105.5" r="1.5"></circle>
                        <circle id="Oval-Copy-126" cx="1.5" cy="105.5" r="1.5"></circle>
                        <circle id="Oval-Copy-125" cx="183.5" cy="92.5" r="1.5"></circle>
                        <circle id="Oval-Copy-124" cx="170.5" cy="92.5" r="1.5"></circle>
                        <circle id="Oval-Copy-123" cx="157.5" cy="92.5" r="1.5"></circle>
                        <circle id="Oval-Copy-122" cx="144.5" cy="92.5" r="1.5"></circle>
                        <circle id="Oval-Copy-121" cx="131.5" cy="92.5" r="1.5"></circle>
                        <circle id="Oval-Copy-120" cx="118.5" cy="92.5" r="1.5"></circle>
                        <circle id="Oval-Copy-119" cx="105.5" cy="92.5" r="1.5"></circle>
                        <circle id="Oval-Copy-118" cx="92.5" cy="92.5" r="1.5"></circle>
                        <circle id="Oval-Copy-117" cx="79.5" cy="92.5" r="1.5"></circle>
                        <circle id="Oval-Copy-116" cx="66.5" cy="92.5" r="1.5"></circle>
                        <circle id="Oval-Copy-115" cx="53.5" cy="92.5" r="1.5"></circle>
                        <circle id="Oval-Copy-114" cx="40.5" cy="92.5" r="1.5"></circle>
                        <circle id="Oval-Copy-113" cx="27.5" cy="92.5" r="1.5"></circle>
                        <circle id="Oval-Copy-112" cx="14.5" cy="92.5" r="1.5"></circle>
                        <circle id="Oval-Copy-111" cx="1.5" cy="92.5" r="1.5"></circle>
                        <circle id="Oval-Copy-110" cx="183.5" cy="79.5" r="1.5"></circle>
                        <circle id="Oval-Copy-109" cx="170.5" cy="79.5" r="1.5"></circle>
                        <circle id="Oval-Copy-108" cx="157.5" cy="79.5" r="1.5"></circle>
                        <circle id="Oval-Copy-107" cx="144.5" cy="79.5" r="1.5"></circle>
                        <circle id="Oval-Copy-106" cx="131.5" cy="79.5" r="1.5"></circle>
                        <circle id="Oval-Copy-105" cx="118.5" cy="79.5" r="1.5"></circle>
                        <circle id="Oval-Copy-104" cx="105.5" cy="79.5" r="1.5"></circle>
                        <circle id="Oval-Copy-103" cx="92.5" cy="79.5" r="1.5"></circle>
                        <circle id="Oval-Copy-102" cx="79.5" cy="79.5" r="1.5"></circle>
                        <circle id="Oval-Copy-101" cx="66.5" cy="79.5" r="1.5"></circle>
                        <circle id="Oval-Copy-100" cx="53.5" cy="79.5" r="1.5"></circle>
                        <circle id="Oval-Copy-99" cx="40.5" cy="79.5" r="1.5"></circle>
                        <circle id="Oval-Copy-98" cx="27.5" cy="79.5" r="1.5"></circle>
                        <circle id="Oval-Copy-97" cx="14.5" cy="79.5" r="1.5"></circle>
                        <circle id="Oval-Copy-96" cx="1.5" cy="79.5" r="1.5"></circle>
                        <circle id="Oval-Copy-95" cx="183.5" cy="66.5" r="1.5"></circle>
                        <circle id="Oval-Copy-94" cx="170.5" cy="66.5" r="1.5"></circle>
                        <circle id="Oval-Copy-93" cx="157.5" cy="66.5" r="1.5"></circle>
                        <circle id="Oval-Copy-92" cx="144.5" cy="66.5" r="1.5"></circle>
                        <circle id="Oval-Copy-91" cx="131.5" cy="66.5" r="1.5"></circle>
                        <circle id="Oval-Copy-90" cx="118.5" cy="66.5" r="1.5"></circle>
                        <circle id="Oval-Copy-89" cx="105.5" cy="66.5" r="1.5"></circle>
                        <circle id="Oval-Copy-88" cx="92.5" cy="66.5" r="1.5"></circle>
                        <circle id="Oval-Copy-87" cx="79.5" cy="66.5" r="1.5"></circle>
                        <circle id="Oval-Copy-86" cx="66.5" cy="66.5" r="1.5"></circle>
                        <circle id="Oval-Copy-85" cx="53.5" cy="66.5" r="1.5"></circle>
                        <circle id="Oval-Copy-84" cx="40.5" cy="66.5" r="1.5"></circle>
                        <circle id="Oval-Copy-83" cx="27.5" cy="66.5" r="1.5"></circle>
                    </g>
                    <polygon id="Triangle-Copy-12" fill="#FCF0E6" transform="translate(53.500000, 78.180195) rotate(123.000000) translate(-53.500000, -78.180195) " points="53.5 65.6801948 66 90.6801948 41 90.6801948"></polygon>
                    <rect id="Rectangle-Copy-13" fill="#FCF0E6" transform="translate(265.500000, 85.180195) rotate(-45.000000) translate(-265.500000, -85.180195) " x="243" y="62.6801948" width="45" height="45"></rect>
                    <circle id="Oval-Copy-240" stroke-opacity="0.36451049" stroke="#8ECCFD" stroke-width="3" cx="157.5" cy="76.1801948" r="6.5"></circle>
                    <circle id="Oval-Copy-241" stroke-opacity="0.36451049" stroke="#8ECCFD" stroke-width="3" cx="59.5" cy="137.180195" r="6.5"></circle>
                    <circle id="Oval-Copy-242" stroke-opacity="0.36451049" stroke="#8ECCFD" stroke-width="3" cx="234" cy="204.680195" r="10"></circle>
                    <rect id="Rectangle-Copy-14" fill-opacity="0.325338724" fill="#FEE0D4" transform="translate(23.000000, 223.680195) rotate(-45.000000) translate(-23.000000, -223.680195) " x="7" y="207.680195" width="32" height="32"></rect>
                    <path d="M90,228.680195 C91.17965,226.093693 92.5476627,224.460231 94.1040379,223.779808 C96.4386009,222.759173 98,224.138613 100.971399,222.82646 C102.952329,221.951691 104.295196,220.23627 105,217.680195" id="Path-2-Copy-4" stroke-opacity="0.33" stroke="#8ECCFD" stroke-width="3" transform="translate(97.500000, 223.180195) rotate(-30.000000) translate(-97.500000, -223.180195) "></path>
                </g>
            </g>
        </g>
    </g>
</svg>