<?xml version="1.0" encoding="UTF-8"?>
<svg width="591px" height="681px" viewBox="0 0 591 681" version="1.1" xmlns="http://www.w3.org/2000/svg" xmlns:xlink="http://www.w3.org/1999/xlink">
    <!-- Generator: Sketch 57.1 (83088) - https://sketch.com -->
    <title>background items</title>
    <desc>Created with Sketch.</desc>
    <defs>
        <path d="M127.85868,119.501299 L734.828425,119.822669 C739.243394,119.825007 742.821849,123.403461 742.824188,127.81843 L743.145554,734.494465 C743.147895,738.912742 739.568071,742.496361 735.149793,742.498701 C735.146969,742.498703 735.144144,742.498703 735.14132,742.498701 L128.171575,742.177331 C123.756606,742.174993 120.178151,738.596539 120.175812,734.18157 L119.854446,127.505535 C119.852105,123.087258 123.431929,119.503639 127.850207,119.501299 C127.853031,119.501297 127.855856,119.501297 127.85868,119.501299 Z" id="path-1"></path>
        <radialGradient cx="30.8022814%" cy="20.38177%" fx="30.8022814%" fy="20.38177%" r="56.983779%" gradientTransform="translate(0.308023,0.203818),scale(0.998997,1.000000),rotate(41.911536),scale(1.000000,0.710067),translate(-0.308023,-0.203818)" id="radialGradient-3">
            <stop stop-color="#F38E86" offset="0%"></stop>
            <stop stop-color="#FEE0D4" offset="100%"></stop>
        </radialGradient>
        <radialGradient cx="76.2730683%" cy="48.0351422%" fx="76.2730683%" fy="48.0351422%" r="88.2379983%" gradientTransform="translate(0.762731,0.480351),scale(0.998997,1.000000),rotate(39.801833),scale(1.000000,0.710067),translate(-0.762731,-0.480351)" id="radialGradient-4">
            <stop stop-color="#F38E86" offset="0%"></stop>
            <stop stop-color="#FEE0D4" offset="100%"></stop>
        </radialGradient>
    </defs>
    <g id="Page-1" stroke="none" stroke-width="1" fill="none" fill-rule="evenodd">
        <g id="Final-design" transform="translate(-849.000000, -5301.000000)">
            <g id="FOOTER" transform="translate(0.000000, 5301.000000)">
                <g id="background-items" transform="translate(740.000000, -187.000000)">
                    <g id="Group-6" opacity="0.1" transform="translate(605.500000, 606.000000) rotate(142.000000) translate(-605.500000, -606.000000) translate(174.000000, 175.000000)">
                        <mask id="mask-2" fill="white">
                            <use xlink:href="#path-1"></use>
                        </mask>
                        <use id="Mask" fill="#FCF8EF" transform="translate(431.500000, 431.000000) rotate(-33.000000) translate(-431.500000, -431.000000) " xlink:href="#path-1"></use>
                        <path d="M-223.433601,251.241691 L343.172837,251.405842 C347.589303,251.411761 351.169237,254.991694 351.175157,259.40816 L351.339304,825.429903 C351.345221,829.84818 347.764538,833.43094 343.34626,833.432221 C343.344714,833.432222 343.343169,833.432222 343.341624,833.427585 L-223.264814,833.263434 C-227.681279,833.257515 -231.261214,829.677582 -231.267133,825.261116 L-231.43128,259.239373 C-231.437198,254.821096 -227.856515,251.238336 -223.438237,251.237055 C-223.436691,251.237054 -223.435145,251.237054 -223.433601,251.241691 Z" id="Rectangle-Copy-10" fill="url(#radialGradient-3)" opacity="0.117164249" mask="url(#mask-2)" transform="translate(59.954012, 542.334638) rotate(-15.000000) translate(-59.954012, -542.334638) "></path>
                        <path d="M636.336714,222.716741 L1089.79929,222.585368 C1094.21757,222.579452 1097.80033,226.160136 1097.80161,230.578414 C1097.80161,230.57996 1097.80161,230.581506 1097.79697,230.58305 L1097.66561,683.574484 C1097.65969,687.99095 1094.07975,691.570883 1089.66329,691.576802 L636.200707,691.708174 C631.78243,691.71409 628.199671,688.133406 628.198391,683.715128 C628.19839,683.713582 628.19839,683.712037 628.203027,683.710492 L628.334395,230.719058 C628.340315,226.302592 631.920249,222.722659 636.336714,222.716741 Z" id="Rectangle-Copy-16" fill="url(#radialGradient-4)" mask="url(#mask-2)" transform="translate(863.000000, 457.146771) rotate(15.000000) translate(-863.000000, -457.146771) "></path>
                    </g>
                    <g id="Group-49" transform="translate(108.000000, 140.000000)">
                        <rect id="Rectangle-Copy-24" stroke="#FFFFFF" stroke-width="3" transform="translate(189.500000, 211.500000) rotate(124.000000) translate(-189.500000, -211.500000) " x="178.5" y="200.5" width="22" height="22"></rect>
                        <rect id="Rectangle-Copy-4" fill="#8ECCFD" transform="translate(287.000000, 51.000000) rotate(-56.000000) translate(-287.000000, -51.000000) " x="265" y="29" width="44" height="44"></rect>
                        <rect id="Rectangle-Copy-5" fill="#41719F" transform="translate(564.000000, 311.000000) rotate(-56.000000) translate(-564.000000, -311.000000) " x="542" y="289" width="44" height="44"></rect>
                        <polygon id="Triangle-Copy-27" fill="#FCF8EF" transform="translate(292.500000, 133.500000) rotate(-68.000000) translate(-292.500000, -133.500000) " points="292.5 121 305 146 280 146"></polygon>
                        <path d="M553.5,197 C554.328427,197 555,197.671573 555,198.5 C555,199.328427 554.328427,200 553.5,200 C552.671573,200 552,199.328427 552,198.5 C552,197.671573 552.671573,197 553.5,197 Z M540.5,197 C541.328427,197 542,197.671573 542,198.5 C542,199.328427 541.328427,200 540.5,200 C539.671573,200 539,199.328427 539,198.5 C539,197.671573 539.671573,197 540.5,197 Z M527.5,197 C528.328427,197 529,197.671573 529,198.5 C529,199.328427 528.328427,200 527.5,200 C526.671573,200 526,199.328427 526,198.5 C526,197.671573 526.671573,197 527.5,197 Z M514.5,197 C515.328427,197 516,197.671573 516,198.5 C516,199.328427 515.328427,200 514.5,200 C513.671573,200 513,199.328427 513,198.5 C513,197.671573 513.671573,197 514.5,197 Z M501.5,197 C502.328427,197 503,197.671573 503,198.5 C503,199.328427 502.328427,200 501.5,200 C500.671573,200 500,199.328427 500,198.5 C500,197.671573 500.671573,197 501.5,197 Z M488.5,197 C489.328427,197 490,197.671573 490,198.5 C490,199.328427 489.328427,200 488.5,200 C487.671573,200 487,199.328427 487,198.5 C487,197.671573 487.671573,197 488.5,197 Z M475.5,197 C476.328427,197 477,197.671573 477,198.5 C477,199.328427 476.328427,200 475.5,200 C474.671573,200 474,199.328427 474,198.5 C474,197.671573 474.671573,197 475.5,197 Z M462.5,197 C463.328427,197 464,197.671573 464,198.5 C464,199.328427 463.328427,200 462.5,200 C461.671573,200 461,199.328427 461,198.5 C461,197.671573 461.671573,197 462.5,197 Z M449.5,197 C450.328427,197 451,197.671573 451,198.5 C451,199.328427 450.328427,200 449.5,200 C448.671573,200 448,199.328427 448,198.5 C448,197.671573 448.671573,197 449.5,197 Z M436.5,197 C437.328427,197 438,197.671573 438,198.5 C438,199.328427 437.328427,200 436.5,200 C435.671573,200 435,199.328427 435,198.5 C435,197.671573 435.671573,197 436.5,197 Z M423.5,197 C424.328427,197 425,197.671573 425,198.5 C425,199.328427 424.328427,200 423.5,200 C422.671573,200 422,199.328427 422,198.5 C422,197.671573 422.671573,197 423.5,197 Z M410.5,197 C411.328427,197 412,197.671573 412,198.5 C412,199.328427 411.328427,200 410.5,200 C409.671573,200 409,199.328427 409,198.5 C409,197.671573 409.671573,197 410.5,197 Z M397.5,197 C398.328427,197 399,197.671573 399,198.5 C399,199.328427 398.328427,200 397.5,200 C396.671573,200 396,199.328427 396,198.5 C396,197.671573 396.671573,197 397.5,197 Z M384.5,197 C385.328427,197 386,197.671573 386,198.5 C386,199.328427 385.328427,200 384.5,200 C383.671573,200 383,199.328427 383,198.5 C383,197.671573 383.671573,197 384.5,197 Z M371.5,197 C372.328427,197 373,197.671573 373,198.5 C373,199.328427 372.328427,200 371.5,200 C370.671573,200 370,199.328427 370,198.5 C370,197.671573 370.671573,197 371.5,197 Z M553.5,184 C554.328427,184 555,184.671573 555,185.5 C555,186.328427 554.328427,187 553.5,187 C552.671573,187 552,186.328427 552,185.5 C552,184.671573 552.671573,184 553.5,184 Z M540.5,184 C541.328427,184 542,184.671573 542,185.5 C542,186.328427 541.328427,187 540.5,187 C539.671573,187 539,186.328427 539,185.5 C539,184.671573 539.671573,184 540.5,184 Z M527.5,184 C528.328427,184 529,184.671573 529,185.5 C529,186.328427 528.328427,187 527.5,187 C526.671573,187 526,186.328427 526,185.5 C526,184.671573 526.671573,184 527.5,184 Z M514.5,184 C515.328427,184 516,184.671573 516,185.5 C516,186.328427 515.328427,187 514.5,187 C513.671573,187 513,186.328427 513,185.5 C513,184.671573 513.671573,184 514.5,184 Z M501.5,184 C502.328427,184 503,184.671573 503,185.5 C503,186.328427 502.328427,187 501.5,187 C500.671573,187 500,186.328427 500,185.5 C500,184.671573 500.671573,184 501.5,184 Z M488.5,184 C489.328427,184 490,184.671573 490,185.5 C490,186.328427 489.328427,187 488.5,187 C487.671573,187 487,186.328427 487,185.5 C487,184.671573 487.671573,184 488.5,184 Z M475.5,184 C476.328427,184 477,184.671573 477,185.5 C477,186.328427 476.328427,187 475.5,187 C474.671573,187 474,186.328427 474,185.5 C474,184.671573 474.671573,184 475.5,184 Z M462.5,184 C463.328427,184 464,184.671573 464,185.5 C464,186.328427 463.328427,187 462.5,187 C461.671573,187 461,186.328427 461,185.5 C461,184.671573 461.671573,184 462.5,184 Z M449.5,184 C450.328427,184 451,184.671573 451,185.5 C451,186.328427 450.328427,187 449.5,187 C448.671573,187 448,186.328427 448,185.5 C448,184.671573 448.671573,184 449.5,184 Z M436.5,184 C437.328427,184 438,184.671573 438,185.5 C438,186.328427 437.328427,187 436.5,187 C435.671573,187 435,186.328427 435,185.5 C435,184.671573 435.671573,184 436.5,184 Z M423.5,184 C424.328427,184 425,184.671573 425,185.5 C425,186.328427 424.328427,187 423.5,187 C422.671573,187 422,186.328427 422,185.5 C422,184.671573 422.671573,184 423.5,184 Z M410.5,184 C411.328427,184 412,184.671573 412,185.5 C412,186.328427 411.328427,187 410.5,187 C409.671573,187 409,186.328427 409,185.5 C409,184.671573 409.671573,184 410.5,184 Z M397.5,184 C398.328427,184 399,184.671573 399,185.5 C399,186.328427 398.328427,187 397.5,187 C396.671573,187 396,186.328427 396,185.5 C396,184.671573 396.671573,184 397.5,184 Z M384.5,184 C385.328427,184 386,184.671573 386,185.5 C386,186.328427 385.328427,187 384.5,187 C383.671573,187 383,186.328427 383,185.5 C383,184.671573 383.671573,184 384.5,184 Z M371.5,184 C372.328427,184 373,184.671573 373,185.5 C373,186.328427 372.328427,187 371.5,187 C370.671573,187 370,186.328427 370,185.5 C370,184.671573 370.671573,184 371.5,184 Z M553.5,171 C554.328427,171 555,171.671573 555,172.5 C555,173.328427 554.328427,174 553.5,174 C552.671573,174 552,173.328427 552,172.5 C552,171.671573 552.671573,171 553.5,171 Z M540.5,171 C541.328427,171 542,171.671573 542,172.5 C542,173.328427 541.328427,174 540.5,174 C539.671573,174 539,173.328427 539,172.5 C539,171.671573 539.671573,171 540.5,171 Z M527.5,171 C528.328427,171 529,171.671573 529,172.5 C529,173.328427 528.328427,174 527.5,174 C526.671573,174 526,173.328427 526,172.5 C526,171.671573 526.671573,171 527.5,171 Z M514.5,171 C515.328427,171 516,171.671573 516,172.5 C516,173.328427 515.328427,174 514.5,174 C513.671573,174 513,173.328427 513,172.5 C513,171.671573 513.671573,171 514.5,171 Z M501.5,171 C502.328427,171 503,171.671573 503,172.5 C503,173.328427 502.328427,174 501.5,174 C500.671573,174 500,173.328427 500,172.5 C500,171.671573 500.671573,171 501.5,171 Z M488.5,171 C489.328427,171 490,171.671573 490,172.5 C490,173.328427 489.328427,174 488.5,174 C487.671573,174 487,173.328427 487,172.5 C487,171.671573 487.671573,171 488.5,171 Z M475.5,171 C476.328427,171 477,171.671573 477,172.5 C477,173.328427 476.328427,174 475.5,174 C474.671573,174 474,173.328427 474,172.5 C474,171.671573 474.671573,171 475.5,171 Z M462.5,171 C463.328427,171 464,171.671573 464,172.5 C464,173.328427 463.328427,174 462.5,174 C461.671573,174 461,173.328427 461,172.5 C461,171.671573 461.671573,171 462.5,171 Z M449.5,171 C450.328427,171 451,171.671573 451,172.5 C451,173.328427 450.328427,174 449.5,174 C448.671573,174 448,173.328427 448,172.5 C448,171.671573 448.671573,171 449.5,171 Z M436.5,171 C437.328427,171 438,171.671573 438,172.5 C438,173.328427 437.328427,174 436.5,174 C435.671573,174 435,173.328427 435,172.5 C435,171.671573 435.671573,171 436.5,171 Z M423.5,171 C424.328427,171 425,171.671573 425,172.5 C425,173.328427 424.328427,174 423.5,174 C422.671573,174 422,173.328427 422,172.5 C422,171.671573 422.671573,171 423.5,171 Z M410.5,171 C411.328427,171 412,171.671573 412,172.5 C412,173.328427 411.328427,174 410.5,174 C409.671573,174 409,173.328427 409,172.5 C409,171.671573 409.671573,171 410.5,171 Z M397.5,171 C398.328427,171 399,171.671573 399,172.5 C399,173.328427 398.328427,174 397.5,174 C396.671573,174 396,173.328427 396,172.5 C396,171.671573 396.671573,171 397.5,171 Z M384.5,171 C385.328427,171 386,171.671573 386,172.5 C386,173.328427 385.328427,174 384.5,174 C383.671573,174 383,173.328427 383,172.5 C383,171.671573 383.671573,171 384.5,171 Z M371.5,171 C372.328427,171 373,171.671573 373,172.5 C373,173.328427 372.328427,174 371.5,174 C370.671573,174 370,173.328427 370,172.5 C370,171.671573 370.671573,171 371.5,171 Z M553.5,158 C554.328427,158 555,158.671573 555,159.5 C555,160.328427 554.328427,161 553.5,161 C552.671573,161 552,160.328427 552,159.5 C552,158.671573 552.671573,158 553.5,158 Z M540.5,158 C541.328427,158 542,158.671573 542,159.5 C542,160.328427 541.328427,161 540.5,161 C539.671573,161 539,160.328427 539,159.5 C539,158.671573 539.671573,158 540.5,158 Z M527.5,158 C528.328427,158 529,158.671573 529,159.5 C529,160.328427 528.328427,161 527.5,161 C526.671573,161 526,160.328427 526,159.5 C526,158.671573 526.671573,158 527.5,158 Z M514.5,158 C515.328427,158 516,158.671573 516,159.5 C516,160.328427 515.328427,161 514.5,161 C513.671573,161 513,160.328427 513,159.5 C513,158.671573 513.671573,158 514.5,158 Z M501.5,158 C502.328427,158 503,158.671573 503,159.5 C503,160.328427 502.328427,161 501.5,161 C500.671573,161 500,160.328427 500,159.5 C500,158.671573 500.671573,158 501.5,158 Z M488.5,158 C489.328427,158 490,158.671573 490,159.5 C490,160.328427 489.328427,161 488.5,161 C487.671573,161 487,160.328427 487,159.5 C487,158.671573 487.671573,158 488.5,158 Z M475.5,158 C476.328427,158 477,158.671573 477,159.5 C477,160.328427 476.328427,161 475.5,161 C474.671573,161 474,160.328427 474,159.5 C474,158.671573 474.671573,158 475.5,158 Z M462.5,158 C463.328427,158 464,158.671573 464,159.5 C464,160.328427 463.328427,161 462.5,161 C461.671573,161 461,160.328427 461,159.5 C461,158.671573 461.671573,158 462.5,158 Z M449.5,158 C450.328427,158 451,158.671573 451,159.5 C451,160.328427 450.328427,161 449.5,161 C448.671573,161 448,160.328427 448,159.5 C448,158.671573 448.671573,158 449.5,158 Z M436.5,158 C437.328427,158 438,158.671573 438,159.5 C438,160.328427 437.328427,161 436.5,161 C435.671573,161 435,160.328427 435,159.5 C435,158.671573 435.671573,158 436.5,158 Z M423.5,158 C424.328427,158 425,158.671573 425,159.5 C425,160.328427 424.328427,161 423.5,161 C422.671573,161 422,160.328427 422,159.5 C422,158.671573 422.671573,158 423.5,158 Z M410.5,158 C411.328427,158 412,158.671573 412,159.5 C412,160.328427 411.328427,161 410.5,161 C409.671573,161 409,160.328427 409,159.5 C409,158.671573 409.671573,158 410.5,158 Z M397.5,158 C398.328427,158 399,158.671573 399,159.5 C399,160.328427 398.328427,161 397.5,161 C396.671573,161 396,160.328427 396,159.5 C396,158.671573 396.671573,158 397.5,158 Z M384.5,158 C385.328427,158 386,158.671573 386,159.5 C386,160.328427 385.328427,161 384.5,161 C383.671573,161 383,160.328427 383,159.5 C383,158.671573 383.671573,158 384.5,158 Z M371.5,158 C372.328427,158 373,158.671573 373,159.5 C373,160.328427 372.328427,161 371.5,161 C370.671573,161 370,160.328427 370,159.5 C370,158.671573 370.671573,158 371.5,158 Z M553.5,145 C554.328427,145 555,145.671573 555,146.5 C555,147.328427 554.328427,148 553.5,148 C552.671573,148 552,147.328427 552,146.5 C552,145.671573 552.671573,145 553.5,145 Z M540.5,145 C541.328427,145 542,145.671573 542,146.5 C542,147.328427 541.328427,148 540.5,148 C539.671573,148 539,147.328427 539,146.5 C539,145.671573 539.671573,145 540.5,145 Z M527.5,145 C528.328427,145 529,145.671573 529,146.5 C529,147.328427 528.328427,148 527.5,148 C526.671573,148 526,147.328427 526,146.5 C526,145.671573 526.671573,145 527.5,145 Z M514.5,145 C515.328427,145 516,145.671573 516,146.5 C516,147.328427 515.328427,148 514.5,148 C513.671573,148 513,147.328427 513,146.5 C513,145.671573 513.671573,145 514.5,145 Z M501.5,145 C502.328427,145 503,145.671573 503,146.5 C503,147.328427 502.328427,148 501.5,148 C500.671573,148 500,147.328427 500,146.5 C500,145.671573 500.671573,145 501.5,145 Z M488.5,145 C489.328427,145 490,145.671573 490,146.5 C490,147.328427 489.328427,148 488.5,148 C487.671573,148 487,147.328427 487,146.5 C487,145.671573 487.671573,145 488.5,145 Z M475.5,145 C476.328427,145 477,145.671573 477,146.5 C477,147.328427 476.328427,148 475.5,148 C474.671573,148 474,147.328427 474,146.5 C474,145.671573 474.671573,145 475.5,145 Z M462.5,145 C463.328427,145 464,145.671573 464,146.5 C464,147.328427 463.328427,148 462.5,148 C461.671573,148 461,147.328427 461,146.5 C461,145.671573 461.671573,145 462.5,145 Z M449.5,145 C450.328427,145 451,145.671573 451,146.5 C451,147.328427 450.328427,148 449.5,148 C448.671573,148 448,147.328427 448,146.5 C448,145.671573 448.671573,145 449.5,145 Z M436.5,145 C437.328427,145 438,145.671573 438,146.5 C438,147.328427 437.328427,148 436.5,148 C435.671573,148 435,147.328427 435,146.5 C435,145.671573 435.671573,145 436.5,145 Z M423.5,145 C424.328427,145 425,145.671573 425,146.5 C425,147.328427 424.328427,148 423.5,148 C422.671573,148 422,147.328427 422,146.5 C422,145.671573 422.671573,145 423.5,145 Z M410.5,145 C411.328427,145 412,145.671573 412,146.5 C412,147.328427 411.328427,148 410.5,148 C409.671573,148 409,147.328427 409,146.5 C409,145.671573 409.671573,145 410.5,145 Z M397.5,145 C398.328427,145 399,145.671573 399,146.5 C399,147.328427 398.328427,148 397.5,148 C396.671573,148 396,147.328427 396,146.5 C396,145.671573 396.671573,145 397.5,145 Z M384.5,145 C385.328427,145 386,145.671573 386,146.5 C386,147.328427 385.328427,148 384.5,148 C383.671573,148 383,147.328427 383,146.5 C383,145.671573 383.671573,145 384.5,145 Z M371.5,145 C372.328427,145 373,145.671573 373,146.5 C373,147.328427 372.328427,148 371.5,148 C370.671573,148 370,147.328427 370,146.5 C370,145.671573 370.671573,145 371.5,145 Z M553.5,132 C554.328427,132 555,132.671573 555,133.5 C555,134.328427 554.328427,135 553.5,135 C552.671573,135 552,134.328427 552,133.5 C552,132.671573 552.671573,132 553.5,132 Z M540.5,132 C541.328427,132 542,132.671573 542,133.5 C542,134.328427 541.328427,135 540.5,135 C539.671573,135 539,134.328427 539,133.5 C539,132.671573 539.671573,132 540.5,132 Z M527.5,132 C528.328427,132 529,132.671573 529,133.5 C529,134.328427 528.328427,135 527.5,135 C526.671573,135 526,134.328427 526,133.5 C526,132.671573 526.671573,132 527.5,132 Z M514.5,132 C515.328427,132 516,132.671573 516,133.5 C516,134.328427 515.328427,135 514.5,135 C513.671573,135 513,134.328427 513,133.5 C513,132.671573 513.671573,132 514.5,132 Z M501.5,132 C502.328427,132 503,132.671573 503,133.5 C503,134.328427 502.328427,135 501.5,135 C500.671573,135 500,134.328427 500,133.5 C500,132.671573 500.671573,132 501.5,132 Z M488.5,132 C489.328427,132 490,132.671573 490,133.5 C490,134.328427 489.328427,135 488.5,135 C487.671573,135 487,134.328427 487,133.5 C487,132.671573 487.671573,132 488.5,132 Z M475.5,132 C476.328427,132 477,132.671573 477,133.5 C477,134.328427 476.328427,135 475.5,135 C474.671573,135 474,134.328427 474,133.5 C474,132.671573 474.671573,132 475.5,132 Z M462.5,132 C463.328427,132 464,132.671573 464,133.5 C464,134.328427 463.328427,135 462.5,135 C461.671573,135 461,134.328427 461,133.5 C461,132.671573 461.671573,132 462.5,132 Z M449.5,132 C450.328427,132 451,132.671573 451,133.5 C451,134.328427 450.328427,135 449.5,135 C448.671573,135 448,134.328427 448,133.5 C448,132.671573 448.671573,132 449.5,132 Z M436.5,132 C437.328427,132 438,132.671573 438,133.5 C438,134.328427 437.328427,135 436.5,135 C435.671573,135 435,134.328427 435,133.5 C435,132.671573 435.671573,132 436.5,132 Z M423.5,132 C424.328427,132 425,132.671573 425,133.5 C425,134.328427 424.328427,135 423.5,135 C422.671573,135 422,134.328427 422,133.5 C422,132.671573 422.671573,132 423.5,132 Z M410.5,132 C411.328427,132 412,132.671573 412,133.5 C412,134.328427 411.328427,135 410.5,135 C409.671573,135 409,134.328427 409,133.5 C409,132.671573 409.671573,132 410.5,132 Z M397.5,132 C398.328427,132 399,132.671573 399,133.5 C399,134.328427 398.328427,135 397.5,135 C396.671573,135 396,134.328427 396,133.5 C396,132.671573 396.671573,132 397.5,132 Z M384.5,132 C385.328427,132 386,132.671573 386,133.5 C386,134.328427 385.328427,135 384.5,135 C383.671573,135 383,134.328427 383,133.5 C383,132.671573 383.671573,132 384.5,132 Z M371.5,132 C372.328427,132 373,132.671573 373,133.5 C373,134.328427 372.328427,135 371.5,135 C370.671573,135 370,134.328427 370,133.5 C370,132.671573 370.671573,132 371.5,132 Z M553.5,119 C554.328427,119 555,119.671573 555,120.5 C555,121.328427 554.328427,122 553.5,122 C552.671573,122 552,121.328427 552,120.5 C552,119.671573 552.671573,119 553.5,119 Z M540.5,119 C541.328427,119 542,119.671573 542,120.5 C542,121.328427 541.328427,122 540.5,122 C539.671573,122 539,121.328427 539,120.5 C539,119.671573 539.671573,119 540.5,119 Z M527.5,119 C528.328427,119 529,119.671573 529,120.5 C529,121.328427 528.328427,122 527.5,122 C526.671573,122 526,121.328427 526,120.5 C526,119.671573 526.671573,119 527.5,119 Z M514.5,119 C515.328427,119 516,119.671573 516,120.5 C516,121.328427 515.328427,122 514.5,122 C513.671573,122 513,121.328427 513,120.5 C513,119.671573 513.671573,119 514.5,119 Z M501.5,119 C502.328427,119 503,119.671573 503,120.5 C503,121.328427 502.328427,122 501.5,122 C500.671573,122 500,121.328427 500,120.5 C500,119.671573 500.671573,119 501.5,119 Z M488.5,119 C489.328427,119 490,119.671573 490,120.5 C490,121.328427 489.328427,122 488.5,122 C487.671573,122 487,121.328427 487,120.5 C487,119.671573 487.671573,119 488.5,119 Z M475.5,119 C476.328427,119 477,119.671573 477,120.5 C477,121.328427 476.328427,122 475.5,122 C474.671573,122 474,121.328427 474,120.5 C474,119.671573 474.671573,119 475.5,119 Z M462.5,119 C463.328427,119 464,119.671573 464,120.5 C464,121.328427 463.328427,122 462.5,122 C461.671573,122 461,121.328427 461,120.5 C461,119.671573 461.671573,119 462.5,119 Z M449.5,119 C450.328427,119 451,119.671573 451,120.5 C451,121.328427 450.328427,122 449.5,122 C448.671573,122 448,121.328427 448,120.5 C448,119.671573 448.671573,119 449.5,119 Z M436.5,119 C437.328427,119 438,119.671573 438,120.5 C438,121.328427 437.328427,122 436.5,122 C435.671573,122 435,121.328427 435,120.5 C435,119.671573 435.671573,119 436.5,119 Z M423.5,119 C424.328427,119 425,119.671573 425,120.5 C425,121.328427 424.328427,122 423.5,122 C422.671573,122 422,121.328427 422,120.5 C422,119.671573 422.671573,119 423.5,119 Z M410.5,119 C411.328427,119 412,119.671573 412,120.5 C412,121.328427 411.328427,122 410.5,122 C409.671573,122 409,121.328427 409,120.5 C409,119.671573 409.671573,119 410.5,119 Z M397.5,119 C398.328427,119 399,119.671573 399,120.5 C399,121.328427 398.328427,122 397.5,122 C396.671573,122 396,121.328427 396,120.5 C396,119.671573 396.671573,119 397.5,119 Z M384.5,119 C385.328427,119 386,119.671573 386,120.5 C386,121.328427 385.328427,122 384.5,122 C383.671573,122 383,121.328427 383,120.5 C383,119.671573 383.671573,119 384.5,119 Z M371.5,119 C372.328427,119 373,119.671573 373,120.5 C373,121.328427 372.328427,122 371.5,122 C370.671573,122 370,121.328427 370,120.5 C370,119.671573 370.671573,119 371.5,119 Z M553.5,106 C554.328427,106 555,106.671573 555,107.5 C555,108.328427 554.328427,109 553.5,109 C552.671573,109 552,108.328427 552,107.5 C552,106.671573 552.671573,106 553.5,106 Z M540.5,106 C541.328427,106 542,106.671573 542,107.5 C542,108.328427 541.328427,109 540.5,109 C539.671573,109 539,108.328427 539,107.5 C539,106.671573 539.671573,106 540.5,106 Z M527.5,106 C528.328427,106 529,106.671573 529,107.5 C529,108.328427 528.328427,109 527.5,109 C526.671573,109 526,108.328427 526,107.5 C526,106.671573 526.671573,106 527.5,106 Z M514.5,106 C515.328427,106 516,106.671573 516,107.5 C516,108.328427 515.328427,109 514.5,109 C513.671573,109 513,108.328427 513,107.5 C513,106.671573 513.671573,106 514.5,106 Z M501.5,106 C502.328427,106 503,106.671573 503,107.5 C503,108.328427 502.328427,109 501.5,109 C500.671573,109 500,108.328427 500,107.5 C500,106.671573 500.671573,106 501.5,106 Z M488.5,106 C489.328427,106 490,106.671573 490,107.5 C490,108.328427 489.328427,109 488.5,109 C487.671573,109 487,108.328427 487,107.5 C487,106.671573 487.671573,106 488.5,106 Z M475.5,106 C476.328427,106 477,106.671573 477,107.5 C477,108.328427 476.328427,109 475.5,109 C474.671573,109 474,108.328427 474,107.5 C474,106.671573 474.671573,106 475.5,106 Z M462.5,106 C463.328427,106 464,106.671573 464,107.5 C464,108.328427 463.328427,109 462.5,109 C461.671573,109 461,108.328427 461,107.5 C461,106.671573 461.671573,106 462.5,106 Z M449.5,106 C450.328427,106 451,106.671573 451,107.5 C451,108.328427 450.328427,109 449.5,109 C448.671573,109 448,108.328427 448,107.5 C448,106.671573 448.671573,106 449.5,106 Z M436.5,106 C437.328427,106 438,106.671573 438,107.5 C438,108.328427 437.328427,109 436.5,109 C435.671573,109 435,108.328427 435,107.5 C435,106.671573 435.671573,106 436.5,106 Z M423.5,106 C424.328427,106 425,106.671573 425,107.5 C425,108.328427 424.328427,109 423.5,109 C422.671573,109 422,108.328427 422,107.5 C422,106.671573 422.671573,106 423.5,106 Z M410.5,106 C411.328427,106 412,106.671573 412,107.5 C412,108.328427 411.328427,109 410.5,109 C409.671573,109 409,108.328427 409,107.5 C409,106.671573 409.671573,106 410.5,106 Z M397.5,106 C398.328427,106 399,106.671573 399,107.5 C399,108.328427 398.328427,109 397.5,109 C396.671573,109 396,108.328427 396,107.5 C396,106.671573 396.671573,106 397.5,106 Z M384.5,106 C385.328427,106 386,106.671573 386,107.5 C386,108.328427 385.328427,109 384.5,109 C383.671573,109 383,108.328427 383,107.5 C383,106.671573 383.671573,106 384.5,106 Z M371.5,106 C372.328427,106 373,106.671573 373,107.5 C373,108.328427 372.328427,109 371.5,109 C370.671573,109 370,108.328427 370,107.5 C370,106.671573 370.671573,106 371.5,106 Z M553.5,93 C554.328427,93 555,93.6715729 555,94.5 C555,95.3284271 554.328427,96 553.5,96 C552.671573,96 552,95.3284271 552,94.5 C552,93.6715729 552.671573,93 553.5,93 Z M540.5,93 C541.328427,93 542,93.6715729 542,94.5 C542,95.3284271 541.328427,96 540.5,96 C539.671573,96 539,95.3284271 539,94.5 C539,93.6715729 539.671573,93 540.5,93 Z M527.5,93 C528.328427,93 529,93.6715729 529,94.5 C529,95.3284271 528.328427,96 527.5,96 C526.671573,96 526,95.3284271 526,94.5 C526,93.6715729 526.671573,93 527.5,93 Z M514.5,93 C515.328427,93 516,93.6715729 516,94.5 C516,95.3284271 515.328427,96 514.5,96 C513.671573,96 513,95.3284271 513,94.5 C513,93.6715729 513.671573,93 514.5,93 Z M501.5,93 C502.328427,93 503,93.6715729 503,94.5 C503,95.3284271 502.328427,96 501.5,96 C500.671573,96 500,95.3284271 500,94.5 C500,93.6715729 500.671573,93 501.5,93 Z M488.5,93 C489.328427,93 490,93.6715729 490,94.5 C490,95.3284271 489.328427,96 488.5,96 C487.671573,96 487,95.3284271 487,94.5 C487,93.6715729 487.671573,93 488.5,93 Z M475.5,93 C476.328427,93 477,93.6715729 477,94.5 C477,95.3284271 476.328427,96 475.5,96 C474.671573,96 474,95.3284271 474,94.5 C474,93.6715729 474.671573,93 475.5,93 Z M462.5,93 C463.328427,93 464,93.6715729 464,94.5 C464,95.3284271 463.328427,96 462.5,96 C461.671573,96 461,95.3284271 461,94.5 C461,93.6715729 461.671573,93 462.5,93 Z M449.5,93 C450.328427,93 451,93.6715729 451,94.5 C451,95.3284271 450.328427,96 449.5,96 C448.671573,96 448,95.3284271 448,94.5 C448,93.6715729 448.671573,93 449.5,93 Z M436.5,93 C437.328427,93 438,93.6715729 438,94.5 C438,95.3284271 437.328427,96 436.5,96 C435.671573,96 435,95.3284271 435,94.5 C435,93.6715729 435.671573,93 436.5,93 Z M423.5,93 C424.328427,93 425,93.6715729 425,94.5 C425,95.3284271 424.328427,96 423.5,96 C422.671573,96 422,95.3284271 422,94.5 C422,93.6715729 422.671573,93 423.5,93 Z M410.5,93 C411.328427,93 412,93.6715729 412,94.5 C412,95.3284271 411.328427,96 410.5,96 C409.671573,96 409,95.3284271 409,94.5 C409,93.6715729 409.671573,93 410.5,93 Z M397.5,93 C398.328427,93 399,93.6715729 399,94.5 C399,95.3284271 398.328427,96 397.5,96 C396.671573,96 396,95.3284271 396,94.5 C396,93.6715729 396.671573,93 397.5,93 Z M384.5,93 C385.328427,93 386,93.6715729 386,94.5 C386,95.3284271 385.328427,96 384.5,96 C383.671573,96 383,95.3284271 383,94.5 C383,93.6715729 383.671573,93 384.5,93 Z M371.5,93 C372.328427,93 373,93.6715729 373,94.5 C373,95.3284271 372.328427,96 371.5,96 C370.671573,96 370,95.3284271 370,94.5 C370,93.6715729 370.671573,93 371.5,93 Z M384.5,80 C385.328427,80 386,80.6715729 386,81.5 C386,82.3284271 385.328427,83 384.5,83 C383.671573,83 383,82.3284271 383,81.5 C383,80.6715729 383.671573,80 384.5,80 Z M371.5,80 C372.328427,80 373,80.6715729 373,81.5 C373,82.3284271 372.328427,83 371.5,83 C370.671573,83 370,82.3284271 370,81.5 C370,80.6715729 370.671573,80 371.5,80 Z M553.5,80 C554.328427,80 555,80.6715729 555,81.5 C555,82.3284271 554.328427,83 553.5,83 C552.671573,83 552,82.3284271 552,81.5 C552,80.6715729 552.671573,80 553.5,80 Z M540.5,80 C541.328427,80 542,80.6715729 542,81.5 C542,82.3284271 541.328427,83 540.5,83 C539.671573,83 539,82.3284271 539,81.5 C539,80.6715729 539.671573,80 540.5,80 Z M527.5,80 C528.328427,80 529,80.6715729 529,81.5 C529,82.3284271 528.328427,83 527.5,83 C526.671573,83 526,82.3284271 526,81.5 C526,80.6715729 526.671573,80 527.5,80 Z M514.5,80 C515.328427,80 516,80.6715729 516,81.5 C516,82.3284271 515.328427,83 514.5,83 C513.671573,83 513,82.3284271 513,81.5 C513,80.6715729 513.671573,80 514.5,80 Z M501.5,80 C502.328427,80 503,80.6715729 503,81.5 C503,82.3284271 502.328427,83 501.5,83 C500.671573,83 500,82.3284271 500,81.5 C500,80.6715729 500.671573,80 501.5,80 Z M488.5,80 C489.328427,80 490,80.6715729 490,81.5 C490,82.3284271 489.328427,83 488.5,83 C487.671573,83 487,82.3284271 487,81.5 C487,80.6715729 487.671573,80 488.5,80 Z M475.5,80 C476.328427,80 477,80.6715729 477,81.5 C477,82.3284271 476.328427,83 475.5,83 C474.671573,83 474,82.3284271 474,81.5 C474,80.6715729 474.671573,80 475.5,80 Z M462.5,80 C463.328427,80 464,80.6715729 464,81.5 C464,82.3284271 463.328427,83 462.5,83 C461.671573,83 461,82.3284271 461,81.5 C461,80.6715729 461.671573,80 462.5,80 Z M449.5,80 C450.328427,80 451,80.6715729 451,81.5 C451,82.3284271 450.328427,83 449.5,83 C448.671573,83 448,82.3284271 448,81.5 C448,80.6715729 448.671573,80 449.5,80 Z M436.5,80 C437.328427,80 438,80.6715729 438,81.5 C438,82.3284271 437.328427,83 436.5,83 C435.671573,83 435,82.3284271 435,81.5 C435,80.6715729 435.671573,80 436.5,80 Z M423.5,80 C424.328427,80 425,80.6715729 425,81.5 C425,82.3284271 424.328427,83 423.5,83 C422.671573,83 422,82.3284271 422,81.5 C422,80.6715729 422.671573,80 423.5,80 Z M410.5,80 C411.328427,80 412,80.6715729 412,81.5 C412,82.3284271 411.328427,83 410.5,83 C409.671573,83 409,82.3284271 409,81.5 C409,80.6715729 409.671573,80 410.5,80 Z M397.5,80 C398.328427,80 399,80.6715729 399,81.5 C399,82.3284271 398.328427,83 397.5,83 C396.671573,83 396,82.3284271 396,81.5 C396,80.6715729 396.671573,80 397.5,80 Z M436.5,67 C437.328427,67 438,67.6715729 438,68.5 C438,69.3284271 437.328427,70 436.5,70 C435.671573,70 435,69.3284271 435,68.5 C435,67.6715729 435.671573,67 436.5,67 Z M527.5,67 C528.328427,67 529,67.6715729 529,68.5 C529,69.3284271 528.328427,70 527.5,70 C526.671573,70 526,69.3284271 526,68.5 C526,67.6715729 526.671573,67 527.5,67 Z M514.5,67 C515.328427,67 516,67.6715729 516,68.5 C516,69.3284271 515.328427,70 514.5,70 C513.671573,70 513,69.3284271 513,68.5 C513,67.6715729 513.671573,67 514.5,67 Z M397.5,67 C398.328427,67 399,67.6715729 399,68.5 C399,69.3284271 398.328427,70 397.5,70 C396.671573,70 396,69.3284271 396,68.5 C396,67.6715729 396.671573,67 397.5,67 Z M410.5,67 C411.328427,67 412,67.6715729 412,68.5 C412,69.3284271 411.328427,70 410.5,70 C409.671573,70 409,69.3284271 409,68.5 C409,67.6715729 409.671573,67 410.5,67 Z M501.5,67 C502.328427,67 503,67.6715729 503,68.5 C503,69.3284271 502.328427,70 501.5,70 C500.671573,70 500,69.3284271 500,68.5 C500,67.6715729 500.671573,67 501.5,67 Z M540.5,67 C541.328427,67 542,67.6715729 542,68.5 C542,69.3284271 541.328427,70 540.5,70 C539.671573,70 539,69.3284271 539,68.5 C539,67.6715729 539.671573,67 540.5,67 Z M449.5,67 C450.328427,67 451,67.6715729 451,68.5 C451,69.3284271 450.328427,70 449.5,70 C448.671573,70 448,69.3284271 448,68.5 C448,67.6715729 448.671573,67 449.5,67 Z M462.5,67 C463.328427,67 464,67.6715729 464,68.5 C464,69.3284271 463.328427,70 462.5,70 C461.671573,70 461,69.3284271 461,68.5 C461,67.6715729 461.671573,67 462.5,67 Z M553.5,67 C554.328427,67 555,67.6715729 555,68.5 C555,69.3284271 554.328427,70 553.5,70 C552.671573,70 552,69.3284271 552,68.5 C552,67.6715729 552.671573,67 553.5,67 Z M371.5,67 C372.328427,67 373,67.6715729 373,68.5 C373,69.3284271 372.328427,70 371.5,70 C370.671573,70 370,69.3284271 370,68.5 C370,67.6715729 370.671573,67 371.5,67 Z M384.5,67 C385.328427,67 386,67.6715729 386,68.5 C386,69.3284271 385.328427,70 384.5,70 C383.671573,70 383,69.3284271 383,68.5 C383,67.6715729 383.671573,67 384.5,67 Z M423.5,67 C424.328427,67 425,67.6715729 425,68.5 C425,69.3284271 424.328427,70 423.5,70 C422.671573,70 422,69.3284271 422,68.5 C422,67.6715729 422.671573,67 423.5,67 Z M488.5,67 C489.328427,67 490,67.6715729 490,68.5 C490,69.3284271 489.328427,70 488.5,70 C487.671573,70 487,69.3284271 487,68.5 C487,67.6715729 487.671573,67 488.5,67 Z M475.5,67 C476.328427,67 477,67.6715729 477,68.5 C477,69.3284271 476.328427,70 475.5,70 C474.671573,70 474,69.3284271 474,68.5 C474,67.6715729 474.671573,67 475.5,67 Z M423.5,54 C424.328427,54 425,54.6715729 425,55.5 C425,56.3284271 424.328427,57 423.5,57 C422.671573,57 422,56.3284271 422,55.5 C422,54.6715729 422.671573,54 423.5,54 Z M384.5,54 C385.328427,54 386,54.6715729 386,55.5 C386,56.3284271 385.328427,57 384.5,57 C383.671573,57 383,56.3284271 383,55.5 C383,54.6715729 383.671573,54 384.5,54 Z M475.5,54 C476.328427,54 477,54.6715729 477,55.5 C477,56.3284271 476.328427,57 475.5,57 C474.671573,57 474,56.3284271 474,55.5 C474,54.6715729 474.671573,54 475.5,54 Z M462.5,54 C463.328427,54 464,54.6715729 464,55.5 C464,56.3284271 463.328427,57 462.5,57 C461.671573,57 461,56.3284271 461,55.5 C461,54.6715729 461.671573,54 462.5,54 Z M540.5,54 C541.328427,54 542,54.6715729 542,55.5 C542,56.3284271 541.328427,57 540.5,57 C539.671573,57 539,56.3284271 539,55.5 C539,54.6715729 539.671573,54 540.5,54 Z M553.5,54 C554.328427,54 555,54.6715729 555,55.5 C555,56.3284271 554.328427,57 553.5,57 C552.671573,57 552,56.3284271 552,55.5 C552,54.6715729 552.671573,54 553.5,54 Z M449.5,54 C450.328427,54 451,54.6715729 451,55.5 C451,56.3284271 450.328427,57 449.5,57 C448.671573,57 448,56.3284271 448,55.5 C448,54.6715729 448.671573,54 449.5,54 Z M488.5,54 C489.328427,54 490,54.6715729 490,55.5 C490,56.3284271 489.328427,57 488.5,57 C487.671573,57 487,56.3284271 487,55.5 C487,54.6715729 487.671573,54 488.5,54 Z M397.5,54 C398.328427,54 399,54.6715729 399,55.5 C399,56.3284271 398.328427,57 397.5,57 C396.671573,57 396,56.3284271 396,55.5 C396,54.6715729 396.671573,54 397.5,54 Z M410.5,54 C411.328427,54 412,54.6715729 412,55.5 C412,56.3284271 411.328427,57 410.5,57 C409.671573,57 409,56.3284271 409,55.5 C409,54.6715729 409.671573,54 410.5,54 Z M501.5,54 C502.328427,54 503,54.6715729 503,55.5 C503,56.3284271 502.328427,57 501.5,57 C500.671573,57 500,56.3284271 500,55.5 C500,54.6715729 500.671573,54 501.5,54 Z M514.5,54 C515.328427,54 516,54.6715729 516,55.5 C516,56.3284271 515.328427,57 514.5,57 C513.671573,57 513,56.3284271 513,55.5 C513,54.6715729 513.671573,54 514.5,54 Z M527.5,54 C528.328427,54 529,54.6715729 529,55.5 C529,56.3284271 528.328427,57 527.5,57 C526.671573,57 526,56.3284271 526,55.5 C526,54.6715729 526.671573,54 527.5,54 Z M371.5,54 C372.328427,54 373,54.6715729 373,55.5 C373,56.3284271 372.328427,57 371.5,57 C370.671573,57 370,56.3284271 370,55.5 C370,54.6715729 370.671573,54 371.5,54 Z M436.5,54 C437.328427,54 438,54.6715729 438,55.5 C438,56.3284271 437.328427,57 436.5,57 C435.671573,57 435,56.3284271 435,55.5 C435,54.6715729 435.671573,54 436.5,54 Z M462.5,41 C463.328427,41 464,41.6715729 464,42.5 C464,43.3284271 463.328427,44 462.5,44 C461.671573,44 461,43.3284271 461,42.5 C461,41.6715729 461.671573,41 462.5,41 Z M475.5,41 C476.328427,41 477,41.6715729 477,42.5 C477,43.3284271 476.328427,44 475.5,44 C474.671573,44 474,43.3284271 474,42.5 C474,41.6715729 474.671573,41 475.5,41 Z M449.5,41 C450.328427,41 451,41.6715729 451,42.5 C451,43.3284271 450.328427,44 449.5,44 C448.671573,44 448,43.3284271 448,42.5 C448,41.6715729 448.671573,41 449.5,41 Z M540.5,41 C541.328427,41 542,41.6715729 542,42.5 C542,43.3284271 541.328427,44 540.5,44 C539.671573,44 539,43.3284271 539,42.5 C539,41.6715729 539.671573,41 540.5,41 Z M371.5,41 C372.328427,41 373,41.6715729 373,42.5 C373,43.3284271 372.328427,44 371.5,44 C370.671573,44 370,43.3284271 370,42.5 C370,41.6715729 370.671573,41 371.5,41 Z M397.5,41 C398.328427,41 399,41.6715729 399,42.5 C399,43.3284271 398.328427,44 397.5,44 C396.671573,44 396,43.3284271 396,42.5 C396,41.6715729 396.671573,41 397.5,41 Z M436.5,41 C437.328427,41 438,41.6715729 438,42.5 C438,43.3284271 437.328427,44 436.5,44 C435.671573,44 435,43.3284271 435,42.5 C435,41.6715729 435.671573,41 436.5,41 Z M501.5,41 C502.328427,41 503,41.6715729 503,42.5 C503,43.3284271 502.328427,44 501.5,44 C500.671573,44 500,43.3284271 500,42.5 C500,41.6715729 500.671573,41 501.5,41 Z M553.5,41 C554.328427,41 555,41.6715729 555,42.5 C555,43.3284271 554.328427,44 553.5,44 C552.671573,44 552,43.3284271 552,42.5 C552,41.6715729 552.671573,41 553.5,41 Z M514.5,41 C515.328427,41 516,41.6715729 516,42.5 C516,43.3284271 515.328427,44 514.5,44 C513.671573,44 513,43.3284271 513,42.5 C513,41.6715729 513.671573,41 514.5,41 Z M410.5,41 C411.328427,41 412,41.6715729 412,42.5 C412,43.3284271 411.328427,44 410.5,44 C409.671573,44 409,43.3284271 409,42.5 C409,41.6715729 409.671573,41 410.5,41 Z M488.5,41 C489.328427,41 490,41.6715729 490,42.5 C490,43.3284271 489.328427,44 488.5,44 C487.671573,44 487,43.3284271 487,42.5 C487,41.6715729 487.671573,41 488.5,41 Z M527.5,41 C528.328427,41 529,41.6715729 529,42.5 C529,43.3284271 528.328427,44 527.5,44 C526.671573,44 526,43.3284271 526,42.5 C526,41.6715729 526.671573,41 527.5,41 Z M423.5,41 C424.328427,41 425,41.6715729 425,42.5 C425,43.3284271 424.328427,44 423.5,44 C422.671573,44 422,43.3284271 422,42.5 C422,41.6715729 422.671573,41 423.5,41 Z M384.5,41 C385.328427,41 386,41.6715729 386,42.5 C386,43.3284271 385.328427,44 384.5,44 C383.671573,44 383,43.3284271 383,42.5 C383,41.6715729 383.671573,41 384.5,41 Z M475.5,28 C476.328427,28 477,28.6715729 477,29.5 C477,30.3284271 476.328427,31 475.5,31 C474.671573,31 474,30.3284271 474,29.5 C474,28.6715729 474.671573,28 475.5,28 Z M436.5,28 C437.328427,28 438,28.6715729 438,29.5 C438,30.3284271 437.328427,31 436.5,31 C435.671573,31 435,30.3284271 435,29.5 C435,28.6715729 435.671573,28 436.5,28 Z M449.5,28 C450.328427,28 451,28.6715729 451,29.5 C451,30.3284271 450.328427,31 449.5,31 C448.671573,31 448,30.3284271 448,29.5 C448,28.6715729 448.671573,28 449.5,28 Z M462.5,28 C463.328427,28 464,28.6715729 464,29.5 C464,30.3284271 463.328427,31 462.5,31 C461.671573,31 461,30.3284271 461,29.5 C461,28.6715729 461.671573,28 462.5,28 Z M527.5,28 C528.328427,28 529,28.6715729 529,29.5 C529,30.3284271 528.328427,31 527.5,31 C526.671573,31 526,30.3284271 526,29.5 C526,28.6715729 526.671573,28 527.5,28 Z M384.5,28 C385.328427,28 386,28.6715729 386,29.5 C386,30.3284271 385.328427,31 384.5,31 C383.671573,31 383,30.3284271 383,29.5 C383,28.6715729 383.671573,28 384.5,28 Z M371.5,28 C372.328427,28 373,28.6715729 373,29.5 C373,30.3284271 372.328427,31 371.5,31 C370.671573,31 370,30.3284271 370,29.5 C370,28.6715729 370.671573,28 371.5,28 Z M423.5,28 C424.328427,28 425,28.6715729 425,29.5 C425,30.3284271 424.328427,31 423.5,31 C422.671573,31 422,30.3284271 422,29.5 C422,28.6715729 422.671573,28 423.5,28 Z M488.5,28 C489.328427,28 490,28.6715729 490,29.5 C490,30.3284271 489.328427,31 488.5,31 C487.671573,31 487,30.3284271 487,29.5 C487,28.6715729 487.671573,28 488.5,28 Z M501.5,28 C502.328427,28 503,28.6715729 503,29.5 C503,30.3284271 502.328427,31 501.5,31 C500.671573,31 500,30.3284271 500,29.5 C500,28.6715729 500.671573,28 501.5,28 Z M540.5,28 C541.328427,28 542,28.6715729 542,29.5 C542,30.3284271 541.328427,31 540.5,31 C539.671573,31 539,30.3284271 539,29.5 C539,28.6715729 539.671573,28 540.5,28 Z M514.5,28 C515.328427,28 516,28.6715729 516,29.5 C516,30.3284271 515.328427,31 514.5,31 C513.671573,31 513,30.3284271 513,29.5 C513,28.6715729 513.671573,28 514.5,28 Z M397.5,28 C398.328427,28 399,28.6715729 399,29.5 C399,30.3284271 398.328427,31 397.5,31 C396.671573,31 396,30.3284271 396,29.5 C396,28.6715729 396.671573,28 397.5,28 Z M553.5,28 C554.328427,28 555,28.6715729 555,29.5 C555,30.3284271 554.328427,31 553.5,31 C552.671573,31 552,30.3284271 552,29.5 C552,28.6715729 552.671573,28 553.5,28 Z M410.5,28 C411.328427,28 412,28.6715729 412,29.5 C412,30.3284271 411.328427,31 410.5,31 C409.671573,31 409,30.3284271 409,29.5 C409,28.6715729 409.671573,28 410.5,28 Z M397.5,15 C398.328427,15 399,15.6715729 399,16.5 C399,17.3284271 398.328427,18 397.5,18 C396.671573,18 396,17.3284271 396,16.5 C396,15.6715729 396.671573,15 397.5,15 Z M410.5,15 C411.328427,15 412,15.6715729 412,16.5 C412,17.3284271 411.328427,18 410.5,18 C409.671573,18 409,17.3284271 409,16.5 C409,15.6715729 409.671573,15 410.5,15 Z M423.5,15 C424.328427,15 425,15.6715729 425,16.5 C425,17.3284271 424.328427,18 423.5,18 C422.671573,18 422,17.3284271 422,16.5 C422,15.6715729 422.671573,15 423.5,15 Z M436.5,15 C437.328427,15 438,15.6715729 438,16.5 C438,17.3284271 437.328427,18 436.5,18 C435.671573,18 435,17.3284271 435,16.5 C435,15.6715729 435.671573,15 436.5,15 Z M449.5,15 C450.328427,15 451,15.6715729 451,16.5 C451,17.3284271 450.328427,18 449.5,18 C448.671573,18 448,17.3284271 448,16.5 C448,15.6715729 448.671573,15 449.5,15 Z M462.5,15 C463.328427,15 464,15.6715729 464,16.5 C464,17.3284271 463.328427,18 462.5,18 C461.671573,18 461,17.3284271 461,16.5 C461,15.6715729 461.671573,15 462.5,15 Z M475.5,15 C476.328427,15 477,15.6715729 477,16.5 C477,17.3284271 476.328427,18 475.5,18 C474.671573,18 474,17.3284271 474,16.5 C474,15.6715729 474.671573,15 475.5,15 Z M488.5,15 C489.328427,15 490,15.6715729 490,16.5 C490,17.3284271 489.328427,18 488.5,18 C487.671573,18 487,17.3284271 487,16.5 C487,15.6715729 487.671573,15 488.5,15 Z M501.5,15 C502.328427,15 503,15.6715729 503,16.5 C503,17.3284271 502.328427,18 501.5,18 C500.671573,18 500,17.3284271 500,16.5 C500,15.6715729 500.671573,15 501.5,15 Z M514.5,15 C515.328427,15 516,15.6715729 516,16.5 C516,17.3284271 515.328427,18 514.5,18 C513.671573,18 513,17.3284271 513,16.5 C513,15.6715729 513.671573,15 514.5,15 Z M527.5,15 C528.328427,15 529,15.6715729 529,16.5 C529,17.3284271 528.328427,18 527.5,18 C526.671573,18 526,17.3284271 526,16.5 C526,15.6715729 526.671573,15 527.5,15 Z M540.5,15 C541.328427,15 542,15.6715729 542,16.5 C542,17.3284271 541.328427,18 540.5,18 C539.671573,18 539,17.3284271 539,16.5 C539,15.6715729 539.671573,15 540.5,15 Z M553.5,15 C554.328427,15 555,15.6715729 555,16.5 C555,17.3284271 554.328427,18 553.5,18 C552.671573,18 552,17.3284271 552,16.5 C552,15.6715729 552.671573,15 553.5,15 Z M371.5,15 C372.328427,15 373,15.6715729 373,16.5 C373,17.3284271 372.328427,18 371.5,18 C370.671573,18 370,17.3284271 370,16.5 C370,15.6715729 370.671573,15 371.5,15 Z M384.5,15 C385.328427,15 386,15.6715729 386,16.5 C386,17.3284271 385.328427,18 384.5,18 C383.671573,18 383,17.3284271 383,16.5 C383,15.6715729 383.671573,15 384.5,15 Z" id="Combined-Shape-Copy" fill="#FFFFFF" opacity="0.60046968" transform="translate(462.500000, 107.500000) rotate(-10.000000) translate(-462.500000, -107.500000) "></path>
                        <circle id="Oval-Copy-253" stroke="#FEE0D4" stroke-width="3" transform="translate(509.500000, 143.500000) rotate(169.000000) translate(-509.500000, -143.500000) " cx="509.5" cy="143.5" r="7.5"></circle>
                        <circle id="Oval-Copy-254" stroke="#41719F" stroke-width="3" transform="translate(18.000000, 51.000000) rotate(169.000000) translate(-18.000000, -51.000000) " cx="18" cy="51" r="15"></circle>
                        <circle id="Oval-Copy-255" stroke="#FEE0D4" stroke-width="3" transform="translate(384.500000, 53.500000) rotate(169.000000) translate(-384.500000, -53.500000) " cx="384.5" cy="53.5" r="7.5"></circle>
                        <circle id="Oval-Copy-256" stroke="#FEE0D4" stroke-width="3" transform="translate(527.500000, 455.500000) rotate(169.000000) translate(-527.500000, -455.500000) " cx="527.5" cy="455.5" r="11.5"></circle>
                        <polygon id="Triangle-Copy-24" fill="#FEE0D4" transform="translate(347.246324, 323.246324) rotate(-68.000000) translate(-347.246324, -323.246324) " points="347.246324 309 361.492647 337.492647 333 337.492647"></polygon>
                        <polygon id="Triangle-Copy-26" fill="#FEE0D4" transform="translate(585.500000, 159.500000) rotate(-68.000000) translate(-585.500000, -159.500000) " points="585.5 147 598 172 573 172"></polygon>
                        <circle id="Oval-Copy-257" stroke="#FEE0D4" stroke-width="3" transform="translate(214.500000, 103.500000) rotate(169.000000) translate(-214.500000, -103.500000) " cx="214.5" cy="103.5" r="6.5"></circle>
                        <path d="M464,350 C465.17965,347.413498 466.547663,345.780036 468.104038,345.099613 C470.438601,344.078978 472,345.458418 474.971399,344.146265 C476.952329,343.271496 478.295196,341.556075 479,339" id="Path-2-Copy-12" stroke="#FEE0D4" stroke-width="3" transform="translate(471.500000, 344.500000) rotate(125.000000) translate(-471.500000, -344.500000) "></path>
                        <path d="M69,126 C70.17965,123.413498 71.5476627,121.780036 73.1040379,121.099613 C75.4386009,120.078978 77,121.458418 79.9713993,120.146265 C81.9523289,119.271496 83.2951958,117.556075 84,115" id="Path-2-Copy-13" stroke="#FEE0D4" stroke-width="3" transform="translate(76.500000, 120.500000) rotate(-142.000000) translate(-76.500000, -120.500000) "></path>
                        <path d="M368,176 C369.17965,173.413498 370.547663,171.780036 372.104038,171.099613 C374.438601,170.078978 376,171.458418 378.971399,170.146265 C380.952329,169.271496 382.295196,167.556075 383,165" id="Path-2-Copy-14" stroke="#FEE0D4" stroke-width="3" transform="translate(375.500000, 170.500000) rotate(-107.000000) translate(-375.500000, -170.500000) "></path>
                    </g>
                </g>
            </g>
        </g>
    </g>
</svg>