<?xml version="1.0" encoding="UTF-8"?>
<svg width="701px" height="362px" viewBox="0 0 701 362" version="1.1" xmlns="http://www.w3.org/2000/svg" xmlns:xlink="http://www.w3.org/1999/xlink">
    <!-- Generator: Sketch 57.1 (83088) - https://sketch.com -->
    <title>graph</title>
    <desc>Created with Sketch.</desc>
    <g id="Page-1" stroke="none" stroke-width="1" fill="none" fill-rule="evenodd">
        <g id="Final-design" transform="translate(-597.000000, -250.000000)">
            <g id="HERO" transform="translate(25.000000, -327.000000)">
                <g id="graph" transform="translate(571.000000, 577.000000)">
                    <g id="Group-13">
                        <g id="Grid" transform="translate(66.956522, 0.000000)" stroke="#1C4366" stroke-opacity="0.03">
                            <rect id="Rectangle-322" x="0.5" y="0.5" width="245.671828" height="36.2655068"></rect>
                            <rect id="Rectangle-322" x="0.5" y="36.8988671" width="245.671828" height="36.2655068"></rect>
                            <rect id="Rectangle-322" x="0.5" y="72.4310946" width="245.671828" height="36.2655068"></rect>
                            <rect id="Rectangle-322" x="0.5" y="108.829962" width="245.671828" height="36.2655068"></rect>
                            <rect id="Rectangle-322" x="0.5" y="145.228829" width="245.671828" height="36.2655068"></rect>
                            <rect id="Rectangle-322" x="0.5" y="180.761056" width="245.671828" height="36.2655068"></rect>
                            <rect id="Rectangle-322" x="0.5" y="217.159923" width="245.671828" height="36.2655068"></rect>
                            <rect id="Rectangle-322" x="0.5" y="252.692151" width="245.671828" height="36.2655068"></rect>
                            <rect id="Rectangle-322" x="0.5" y="289.091018" width="245.671828" height="36.2655068"></rect>
                            <rect id="Rectangle-322" x="246.306313" y="0.5" width="245.671828" height="36.2655068"></rect>
                            <rect id="Rectangle-322" x="246.306313" y="36.8988671" width="245.671828" height="36.2655068"></rect>
                            <rect id="Rectangle-322" x="246.306313" y="72.4310946" width="245.671828" height="36.2655068"></rect>
                            <rect id="Rectangle-322" x="246.306313" y="108.829962" width="245.671828" height="36.2655068"></rect>
                            <rect id="Rectangle-322" x="246.306313" y="145.228829" width="245.671828" height="36.2655068"></rect>
                            <rect id="Rectangle-322" x="246.306313" y="180.761056" width="245.671828" height="36.2655068"></rect>
                            <rect id="Rectangle-322" x="246.306313" y="217.159923" width="245.671828" height="36.2655068"></rect>
                            <rect id="Rectangle-322" x="246.306313" y="252.692151" width="245.671828" height="36.2655068"></rect>
                            <rect id="Rectangle-322" x="246.306313" y="289.091018" width="245.671828" height="36.2655068"></rect>
                            <rect id="Rectangle-322" x="492.112627" y="0.5" width="139.21346" height="36.2655068"></rect>
                            <rect id="Rectangle-322" x="492.112627" y="36.8988671" width="139.21346" height="36.2655068"></rect>
                            <rect id="Rectangle-322" x="492.112627" y="72.4310946" width="139.21346" height="36.2655068"></rect>
                            <rect id="Rectangle-322" x="492.112627" y="108.829962" width="139.21346" height="36.2655068"></rect>
                            <rect id="Rectangle-322" x="492.112627" y="145.228829" width="139.21346" height="36.2655068"></rect>
                            <rect id="Rectangle-322" x="492.112627" y="180.761056" width="139.21346" height="36.2655068"></rect>
                            <rect id="Rectangle-322" x="492.112627" y="217.159923" width="139.21346" height="36.2655068"></rect>
                            <rect id="Rectangle-322" x="492.112627" y="252.692151" width="139.21346" height="36.2655068"></rect>
                            <rect id="Rectangle-322" x="492.112627" y="289.091018" width="139.21346" height="36.2655068"></rect>
                        </g>
                        <g id="Graphic-Copy" transform="translate(0.000000, 8.335512)">
                            <g id="Numbers" fill="#4F5362" font-family="AvenirNext-Regular, Avenir Next" font-size="12" font-weight="normal" letter-spacing="1">
                                <text id="1000">
                                    <tspan x="0" y="12.8268573">100</tspan>
                                    <tspan x="23.88" y="12.8268573">0</tspan>
                                </text>
                                <text id="900">
                                    <tspan x="7.59689922" y="47.5910835">900</tspan>
                                </text>
                                <text id="800">
                                    <tspan x="7.59689922" y="82.3553098">800</tspan>
                                </text>
                                <text id="700">
                                    <tspan x="7.59689922" y="117.119536">700</tspan>
                                </text>
                                <text id="600">
                                    <tspan x="7.59689922" y="151.883762">600</tspan>
                                </text>
                                <text id="500">
                                    <tspan x="7.59689922" y="186.647988">500</tspan>
                                </text>
                                <text id="400">
                                    <tspan x="7.59689922" y="221.412215">400</tspan>
                                </text>
                                <text id="300">
                                    <tspan x="9.76744186" y="256.176441">300</tspan>
                                </text>
                                <text id="200">
                                    <tspan x="7.59689922" y="290.940667">200</tspan>
                                </text>
                                <text id="100">
                                    <tspan x="11.9379845" y="325.704893">100</tspan>
                                </text>
                            </g>
                            <g id="Dates" transform="translate(155.399863, 339.275370)" fill="#4F5362" font-family="AvenirNext-Regular, Avenir Next" font-size="12" font-weight="normal" letter-spacing="1">
                                <text id="11-—-18-SEP">
                                    <tspan x="0" y="12.6868436">11 — 18 SEP</tspan>
                                </text>
                                <text id="19-—-26-SEP">
                                    <tspan x="247.524286" y="12.6868436">19 — 26 SEP</tspan>
                                </text>
                                <text id="27-—-31-SEP">
                                    <tspan x="441.389461" y="12.6868436">27 — 31 SEP</tspan>
                                </text>
                            </g>
                            <g id="Second-Curve" opacity="0.203708" transform="translate(69.718379, 181.122201)" stroke="#8ECCFD">
                                <g id="Group">
                                    <polyline id="Shape" stroke-width="2" points="625.734472 110.239475 590.250221 87.6707634 555.63144 90.2748455 521.012658 84.198654 486.393877 8.68027361 451.775096 47.7415048 417.156314 57.2898058 382.537533 13.8884378 347.918752 1.73605472 313.299971 5.20816416 278.681189 79.8585172 244.062408 55.5537511 209.443627 50.3455869 174.824845 52.0816416 140.206064 66.8381068 105.587283 56.4217784 70.9685016 69.4421889 36.3497203 96.351037 1.73093906 111.97553"></polyline>
                                    <path d="M626.167206,114.777571 C623.903704,114.777571 622.070798,112.939248 622.070798,110.673488 C622.070798,108.407729 623.903704,106.569406 626.167206,106.569406 C628.430709,106.569406 630.263615,108.407729 630.263615,110.673488 C630.263615,112.939248 628.430709,114.777571 626.167206,114.777571 Z M591.548425,93.0768866 C589.284922,93.0768866 587.452016,91.2385636 587.452016,88.9728045 C587.452016,86.7070453 589.284922,84.8687224 591.548425,84.8687224 C593.811928,84.8687224 595.644834,86.7070453 595.644834,88.9728045 C595.644834,91.2385636 593.811928,93.0768866 591.548425,93.0768866 Z M556.929644,94.8129413 C554.666141,94.8129413 552.833235,92.9746184 552.833235,90.7088592 C552.833235,88.4431 554.666141,86.6047771 556.929644,86.6047771 C559.193146,86.6047771 561.026052,88.4431 561.026052,90.7088592 C561.026052,92.9746184 559.193146,94.8129413 556.929644,94.8129413 Z M522.310863,88.7367498 C520.04736,88.7367498 518.214454,86.8984268 518.214454,84.6326677 C518.214454,82.3669085 520.04736,80.5285856 522.310863,80.5285856 C524.574365,80.5285856 526.407271,82.3669085 526.407271,84.6326677 C526.407271,86.8984268 524.574365,88.7367498 522.310863,88.7367498 Z M487.692081,14.0863967 C485.428579,14.0863967 483.595673,12.2480738 483.595673,9.98231465 C483.595673,7.71655549 485.428579,5.87823257 487.692081,5.87823257 C489.955584,5.87823257 491.78849,7.71655549 491.78849,9.98231465 C491.78849,12.2480738 489.955584,14.0863967 487.692081,14.0863967 Z M453.0733,51.4115732 C450.809797,51.4115732 448.976891,49.5732503 448.976891,47.3074912 C448.976891,45.041732 450.809797,43.2034091 453.0733,43.2034091 C455.336803,43.2034091 457.169709,45.041732 457.169709,47.3074912 C457.169709,49.5732503 455.336803,51.4115732 453.0733,51.4115732 Z M418.454519,60.9598742 C416.191016,60.9598742 414.35811,59.1215513 414.35811,56.8557921 C414.35811,54.590033 416.191016,52.75171 418.454519,52.75171 C420.718021,52.75171 422.550927,54.590033 422.550927,56.8557921 C422.550927,59.1215513 420.718021,60.9598742 418.454519,60.9598742 Z M383.835737,19.2945609 C381.572235,19.2945609 379.739329,17.456238 379.739329,15.1904788 C379.739329,12.9247197 381.572235,11.0863967 383.835737,11.0863967 C386.09924,11.0863967 387.932146,12.9247197 387.932146,15.1904788 C387.932146,17.456238 386.09924,19.2945609 383.835737,19.2945609 Z M349.216956,7.14217784 C346.953453,7.14217784 345.120548,5.30385492 345.120548,3.03809576 C345.120548,0.772336609 346.953453,-1.06598632 349.216956,-1.06598632 C351.480459,-1.06598632 353.313365,0.772336609 353.313365,3.03809576 C353.313365,5.30385492 351.480459,7.14217784 349.216956,7.14217784 Z M314.598175,9.74625993 C312.334672,9.74625993 310.501766,7.907937 310.501766,5.64217784 C310.501766,3.37641869 312.334672,1.53809576 314.598175,1.53809576 C316.861678,1.53809576 318.694583,3.37641869 318.694583,5.64217784 C318.694583,7.907937 316.861678,9.74625993 314.598175,9.74625993 Z M279.979394,84.396613 C277.715891,84.396613 275.882985,82.55829 275.882985,80.2925309 C275.882985,78.0267717 277.715891,76.1884488 279.979394,76.1884488 C282.242896,76.1884488 284.075802,78.0267717 284.075802,80.2925309 C284.075802,82.55829 282.242896,84.396613 279.979394,84.396613 Z M245.360612,60.0918468 C243.09711,60.0918468 241.264204,58.2535239 241.264204,55.9877648 C241.264204,53.7220056 243.09711,51.8836827 245.360612,51.8836827 C247.624115,51.8836827 249.457021,53.7220056 249.457021,55.9877648 C249.457021,58.2535239 247.624115,60.0918468 245.360612,60.0918468 Z M210.741831,54.8836827 C208.478328,54.8836827 206.645422,53.0453598 206.645422,50.7796006 C206.645422,48.5138414 208.478328,46.6755185 210.741831,46.6755185 C213.005334,46.6755185 214.83824,48.5138414 214.83824,50.7796006 C214.83824,53.0453598 213.005334,54.8836827 210.741831,54.8836827 Z M176.12305,56.6197374 C173.859547,56.6197374 172.026641,54.7814145 172.026641,52.5156553 C172.026641,50.2498962 173.859547,48.4115732 176.12305,48.4115732 C178.386552,48.4115732 180.219458,50.2498962 180.219458,52.5156553 C180.219458,54.7814145 178.386552,56.6197374 176.12305,56.6197374 Z M141.504268,71.3762025 C139.240766,71.3762025 137.40786,69.5378796 137.40786,67.2721205 C137.40786,65.0063613 139.240766,63.1680384 141.504268,63.1680384 C143.767771,63.1680384 145.600677,65.0063613 145.600677,67.2721205 C145.600677,69.5378796 143.767771,71.3762025 141.504268,71.3762025 Z M106.885487,61.8279016 C104.621985,61.8279016 102.789079,59.9895786 102.789079,57.7238195 C102.789079,55.4580603 104.621985,53.6197374 106.885487,53.6197374 C109.14899,53.6197374 110.981896,55.4580603 110.981896,57.7238195 C110.981896,59.9895786 109.14899,61.8279016 106.885487,61.8279016 Z M72.2667059,74.848312 C70.0032032,74.848312 68.1702973,73.0099891 68.1702973,70.7442299 C68.1702973,68.4784707 70.0032032,66.6401478 72.2667059,66.6401478 C74.5302086,66.6401478 76.3631145,68.4784707 76.3631145,70.7442299 C76.3631145,73.0099891 74.5302086,74.848312 72.2667059,74.848312 Z M37.6479246,100.021105 C35.384422,100.021105 33.551516,98.1827825 33.551516,95.9170234 C33.551516,93.6512642 35.384422,91.8129413 37.6479246,91.8129413 C39.9114273,91.8129413 41.7443332,93.6512642 41.7443332,95.9170234 C41.7443332,98.1827825 39.9114273,100.021105 37.6479246,100.021105 Z M3.02914336,116.513625 C0.765640681,116.513625 -1.06726523,114.675302 -1.06726523,112.409543 C-1.06726523,110.143784 0.765640681,108.305461 3.02914336,108.305461 C5.29264604,108.305461 7.12555196,110.143784 7.12555196,112.409543 C7.12555196,114.675302 5.29264604,116.513625 3.02914336,116.513625 Z" id="Shape" stroke-width="3" fill="#8ECCFD"></path>
                                </g>
                            </g>
                            <g id="Main-Curve" transform="translate(69.718379, 35.293605)" stroke="#F38E86">
                                <g id="Group">
                                    <polyline id="Shape" stroke-width="3" points="1.2982043 120.221789 36.7824551 175.775541 71.4012364 184.455814 106.020018 178.379623 140.638799 198.344252 175.25758 141.922473 209.876361 151.470774 244.495143 94.1809686 279.113924 114.145598 313.732705 119.353762 348.351487 174.039486 382.970268 149.73472 417.589049 144.526556 452.20783 2.1700684 486.826612 113.277571 521.445393 171.435404 556.064174 187.059896 590.682956 167.095267 625.301737 200.080307"></polyline>
                                    <path d="M625.734472,204.98643 C623.747442,204.98643 622.138063,203.372294 622.138063,201.382348 C622.138063,199.392401 623.747442,197.778266 625.734472,197.778266 C627.721501,197.778266 629.33088,199.392401 629.33088,201.382348 C629.33088,203.372294 627.721501,204.98643 625.734472,204.98643 Z M591.11569,172.00139 C589.128661,172.00139 587.519282,170.387255 587.519282,168.397308 C587.519282,166.407361 589.128661,164.793226 591.11569,164.793226 C593.10272,164.793226 594.712099,166.407361 594.712099,168.397308 C594.712099,170.387255 593.10272,172.00139 591.11569,172.00139 Z M556.496909,190.229965 C554.50988,190.229965 552.9005,188.615829 552.9005,186.625883 C552.9005,184.635936 554.50988,183.0218 556.496909,183.0218 C558.483938,183.0218 560.093318,184.635936 560.093318,186.625883 C560.093318,188.615829 558.483938,190.229965 556.496909,190.229965 Z M521.878128,175.4735 C519.891098,175.4735 518.281719,173.859364 518.281719,171.869417 C518.281719,169.879471 519.891098,168.265335 521.878128,168.265335 C523.865157,168.265335 525.474536,169.879471 525.474536,171.869417 C525.474536,173.859364 523.865157,175.4735 521.878128,175.4735 Z M487.259346,118.183694 C485.272317,118.183694 483.662938,116.569558 483.662938,114.579612 C483.662938,112.589665 485.272317,110.97553 487.259346,110.97553 C489.246376,110.97553 490.855755,112.589665 490.855755,114.579612 C490.855755,116.569558 489.246376,118.183694 487.259346,118.183694 Z M452.640565,6.20816416 C450.653536,6.20816416 449.044157,4.59402863 449.044157,2.60408208 C449.044157,0.614135534 450.653536,-1 452.640565,-1 C454.627595,-1 456.236974,0.614135534 456.236974,2.60408208 C456.236974,4.59402863 454.627595,6.20816416 452.640565,6.20816416 Z M418.021784,149.432679 C416.034754,149.432679 414.425375,147.818543 414.425375,145.828597 C414.425375,143.83865 416.034754,142.224515 418.021784,142.224515 C420.008813,142.224515 421.618193,143.83865 421.618193,145.828597 C421.618193,147.818543 420.008813,149.432679 418.021784,149.432679 Z M383.403003,154.640843 C381.415973,154.640843 379.806594,153.026707 379.806594,151.036761 C379.806594,149.046814 381.415973,147.432679 383.403003,147.432679 C385.390032,147.432679 386.999411,149.046814 386.999411,151.036761 C386.999411,153.026707 385.390032,154.640843 383.403003,154.640843 Z M348.784221,177.209554 C346.797192,177.209554 345.187813,175.595419 345.187813,173.605472 C345.187813,171.615526 346.797192,170.00139 348.784221,170.00139 C350.771251,170.00139 352.38063,171.615526 352.38063,173.605472 C352.38063,175.595419 350.771251,177.209554 348.784221,177.209554 Z M314.16544,124.259885 C312.178411,124.259885 310.569031,122.64575 310.569031,120.655803 C310.569031,118.665857 312.178411,117.051721 314.16544,117.051721 C316.15247,117.051721 317.761849,118.665857 317.761849,120.655803 C317.761849,122.64575 316.15247,124.259885 314.16544,124.259885 Z M279.546659,118.183694 C277.559629,118.183694 275.95025,116.569558 275.95025,114.579612 C275.95025,112.589665 277.559629,110.97553 279.546659,110.97553 C281.533688,110.97553 283.143067,112.589665 283.143067,114.579612 C283.143067,116.569558 281.533688,118.183694 279.546659,118.183694 Z M244.927878,99.0870918 C242.940848,99.0870918 241.331469,97.4729562 241.331469,95.4830097 C241.331469,93.4930631 242.940848,91.8789276 244.927878,91.8789276 C246.914907,91.8789276 248.524286,93.4930631 248.524286,95.4830097 C248.524286,97.4729562 246.914907,99.0870918 244.927878,99.0870918 Z M210.309096,154.640843 C208.322067,154.640843 206.712688,153.026707 206.712688,151.036761 C206.712688,149.046814 208.322067,147.432679 210.309096,147.432679 C212.296126,147.432679 213.905505,149.046814 213.905505,151.036761 C213.905505,153.026707 212.296126,154.640843 210.309096,154.640843 Z M175.690315,145.960569 C173.703286,145.960569 172.093906,144.346434 172.093906,142.356487 C172.093906,140.366541 173.703286,138.752405 175.690315,138.752405 C177.677344,138.752405 179.286724,140.366541 179.286724,142.356487 C179.286724,144.346434 177.677344,145.960569 175.690315,145.960569 Z M141.071534,202.382348 C139.084504,202.382348 137.475125,200.768212 137.475125,198.778266 C137.475125,196.788319 139.084504,195.174184 141.071534,195.174184 C143.058563,195.174184 144.667942,196.788319 144.667942,198.778266 C144.667942,200.768212 143.058563,202.382348 141.071534,202.382348 Z M106.452752,183.285746 C104.465723,183.285746 102.856344,181.67161 102.856344,179.681664 C102.856344,177.691717 104.465723,176.077582 106.452752,176.077582 C108.439782,176.077582 110.049161,177.691717 110.049161,179.681664 C110.049161,181.67161 108.439782,183.285746 106.452752,183.285746 Z M71.8339712,188.49391 C69.8469417,188.49391 68.2375626,186.879774 68.2375626,184.889828 C68.2375626,182.899881 69.8469417,181.285746 71.8339712,181.285746 C73.8210006,181.285746 75.4303797,182.899881 75.4303797,184.889828 C75.4303797,186.879774 73.8210006,188.49391 71.8339712,188.49391 Z M37.2151899,178.945609 C35.2281604,178.945609 33.6187813,177.331473 33.6187813,175.341527 C33.6187813,173.35158 35.2281604,171.737445 37.2151899,171.737445 C39.2022193,171.737445 40.8115985,173.35158 40.8115985,175.341527 C40.8115985,177.331473 39.2022193,178.945609 37.2151899,178.945609 Z M2.5964086,123.391858 C0.609379137,123.391858 -1,121.777722 -1,119.787776 C-1,117.797829 0.609379137,116.183694 2.5964086,116.183694 C4.58343805,116.183694 6.19281719,117.797829 6.19281719,119.787776 C6.19281719,121.777722 4.58343805,123.391858 2.5964086,123.391858 Z" id="Shape" stroke-width="2" fill="#F38E86"></path>
                                </g>
                            </g>
                        </g>
                    </g>
                </g>
            </g>
        </g>
    </g>
</svg>