<?xml version="1.0" encoding="UTF-8"?>
<svg width="60px" height="60px" viewBox="0 0 60 60" version="1.1" xmlns="http://www.w3.org/2000/svg" xmlns:xlink="http://www.w3.org/1999/xlink">
    <!-- Generator: Sketch 57.1 (83088) - https://sketch.com -->
    <title>004-blockchain-1 copy 3</title>
    <desc>Created with Sketch.</desc>
    <g id="Page-1" stroke="none" stroke-width="1" fill="none" fill-rule="evenodd">
        <g id="Final-design" transform="translate(-1198.000000, -1156.000000)" fill="#41719F" fill-rule="nonzero">
            <g id="HOW-IT-WORKS" transform="translate(144.000000, 840.000000)">
                <g id="advantages" transform="translate(0.000000, 258.000000)">
                    <g id="Group-18" transform="translate(1015.000000, 58.000000)">
                        <g id="004-blockchain-1-copy-3" transform="translate(39.000000, 0.000000)">
                            <path d="M9.31204368,39.7497987 L9.42205778,39.808114 L17.4438048,44.8204496 C17.7001097,44.9808115 17.8559028,45.2617873 17.8559028,45.5642361 L17.8531044,45.6289405 L17.8458516,45.692617 L17.8458516,53.984375 C17.8458516,54.248618 17.7269223,54.4967705 17.5257918,54.6621097 L17.4346674,54.7277047 L9.4234283,59.751462 C9.17837396,59.904571 8.86301143,59.9240594 8.60068608,59.8093151 L8.49186772,59.7519188 L0.470120585,54.7281615 C0.245853889,54.587845 0.0988912299,54.3551832 0.0656547323,54.0965931 L0.0584795322,53.984375 L0.0584795322,45.5642361 C0.0584795322,45.303591 0.18090682,45.0502915 0.380463238,44.8854458 L0.470577544,44.8204496 L8.49232456,39.808114 C8.74097674,39.6526065 9.04839408,39.633168 9.31204368,39.7497987 Z M51.3935495,39.7497987 L51.5035636,39.808114 L59.5253106,44.8204496 C59.7816154,44.9808115 59.9374087,45.2617873 59.9374087,45.5642361 L59.9345532,45.629226 L59.9269006,45.6935308 L59.9269006,53.984375 C59.9269006,54.248618 59.8079713,54.4967705 59.6068408,54.6621097 L59.5157164,54.7277047 L55.7255117,57.1048063 C55.3152412,57.3620248 54.7738487,57.2382127 54.5166302,56.8274854 C54.2787758,56.4487742 54.3659761,55.9583376 54.7038471,55.6828174 L54.7934942,55.6186037 L58.1729715,53.4991777 L58.1729715,47.1532346 L51.9156615,51.0626828 L51.9156615,59.0085892 C51.9156615,59.6515087 51.2298089,60.0617355 50.670581,59.8043572 L50.5733736,59.7519188 L42.5516264,54.7281615 C42.3277595,54.587845 42.180497,54.3551832 42.1471793,54.0965931 L42.1399854,53.984375 L42.1399854,45.5642361 C42.1399854,45.303591 42.2624126,45.0502915 42.461969,44.8854458 L42.5520833,44.8204496 L50.5738304,39.808114 C50.8224827,39.6526065 51.1299,39.633168 51.3935495,39.7497987 Z M1.81240865,47.1463815 L1.81240865,53.4987207 L8.07976971,57.4241593 L8.07976971,51.0626828 L1.95175439,47.233644 L1.81240865,47.1463815 Z M43.8943713,47.1463815 L43.8943713,53.4987207 L50.1617324,57.4241593 L50.1617324,51.0626828 L43.8943713,47.1463815 Z M16.0910088,47.1532346 L9.83415567,51.0626828 L9.83415567,57.4232456 L16.0910088,53.4996345 L16.0910088,47.1532346 Z M37.8627558,49.3599233 C38.9509004,49.3599233 38.9927521,50.9819517 37.9883109,51.1067231 L37.8627558,51.1143092 L22.191155,51.1143092 C21.1034497,51.1143092 21.0616149,49.4922808 22.0656505,49.3675094 L22.191155,49.3599233 L37.8627558,49.3599233 Z M8.95696269,41.5862573 L2.59091743,45.5642361 L8.95696269,49.542215 L15.3188961,45.5614949 L8.95696269,41.5862573 Z M51.0389254,41.5862573 L44.6724233,45.5642361 L51.0384685,49.542215 L57.4008589,45.5614949 L51.0389254,41.5862573 Z M21.6086501,39.5405171 L21.5232091,39.6034357 L17.5703581,42.2181104 C17.4214181,42.3167946 17.2537463,42.3638524 17.0874451,42.3638524 C16.2824776,42.3638524 15.9214335,41.3234328 16.5156991,40.820334 L16.6027047,40.7552083 L20.5555556,38.1400767 C21.4685613,37.5356801 22.4046722,38.8870828 21.6086501,39.5405171 Z M38.4726791,39.6029788 C37.5287829,38.9788925 38.4968933,37.5155336 39.4403326,38.1400767 L39.4403326,38.1400767 L43.3931835,40.7552083 C44.1063596,41.2266995 43.75,42.3638524 42.908443,42.3638524 C42.7421418,42.3638524 42.5744701,42.3167946 42.4255299,42.2181104 L42.4255299,42.2181104 Z M30.3529465,19.915643 L30.4628106,19.9739584 L38.4845578,24.9862938 C38.7408626,25.1466557 38.8966557,25.4276316 38.8966557,25.7300805 L38.8938002,25.7952417 L38.8861476,25.859375 L38.8861476,34.1506761 C38.8861476,34.4149191 38.7672184,34.6627219 38.5660879,34.8279737 L38.4749635,34.893549 L30.4637244,39.9173063 C30.1896016,40.0890899 29.8305007,40.092288 29.5522661,39.9282712 L29.5424434,39.9228458 L29.5326206,39.9177632 L21.5108736,34.8940058 C21.2870066,34.7536892 21.1397441,34.5210275 21.1064265,34.2627435 L21.0992325,34.1506761 L21.0992325,25.7319078 C21.0992325,25.470863 21.2209601,25.2171638 21.4209537,25.0516121 L21.5113304,24.9862938 L29.5330774,19.9739584 C29.7821294,19.8184507 30.0895968,19.7990122 30.3529465,19.915643 Z M22.8536185,27.3126828 L22.8536185,33.665022 L29.1209795,37.5900036 L29.1209795,31.228527 L22.8536185,27.3126828 Z M37.1317616,27.3190789 L30.8749087,31.228527 L30.8749087,37.588633 L37.1317616,33.665022 L37.1317616,27.3190789 Z M9.87454115,24.6117438 L9.88212725,24.7372989 L9.88212725,35.1937135 C9.88212725,35.6779971 9.48967474,36.0709064 9.00493427,36.0709064 C8.55790312,36.0709064 8.18872954,35.7361198 8.13457876,35.3037119 L8.12774129,35.1937135 L8.12774129,24.7372989 C8.12774129,23.6491544 9.74976973,23.6073027 9.87454115,24.6117438 Z M51.8601059,24.5729098 L51.8676901,24.6984649 L51.8676901,35.1548794 C51.8676901,35.639163 51.4752375,36.0316154 50.9904971,36.0316154 C50.543466,36.0316154 50.1746816,35.6972181 50.1205907,35.2648702 L50.1137609,35.1548794 L50.1137609,24.6984649 C50.1137609,23.6103204 51.735367,23.5684687 51.8601059,24.5729098 Z M29.9977157,21.7521016 L23.6316703,25.7300805 L29.9977157,29.7076023 L36.3596491,25.7273392 L29.9977157,21.7521016 Z M43.4785831,19.6583913 L43.3931835,19.7213085 L39.4403326,22.33644 C39.2913925,22.4351242 39.1232639,22.482182 38.9574196,22.482182 C38.152015,22.482182 37.7913699,21.4417625 38.385671,20.9386637 L38.4726791,20.873538 L42.4255299,18.2584064 C43.3385358,17.6540098 44.2742187,19.0049846 43.4785831,19.6583913 Z M17.4790469,18.2043864 L17.5703581,18.2584064 L21.5232091,20.873538 C22.2363853,21.3450292 21.8800256,22.482182 21.0384685,22.482182 C20.9137427,22.482182 20.7882459,22.455712 20.6704587,22.4008446 L20.5555556,22.33644 L16.6027047,19.7213085 C15.6896989,19.117354 16.5664782,17.7274002 17.4790469,18.2043864 Z M9.32936485,0.0882098347 L9.42205778,0.139802573 L17.4438048,5.15213813 C17.7001097,5.31204316 17.8559028,5.59347591 17.8559028,5.89592468 L17.8530473,5.96062912 L17.8453947,6.0243055 L17.8453947,14.3165205 C17.8453947,14.5807634 17.7264654,14.8285662 17.5253349,14.9938179 L17.4342105,15.0593932 L9.42297146,20.0831506 C9.17831686,20.2362596 8.86300429,20.2557481 8.60068519,20.1410037 L8.49186772,20.0836075 L0.470120585,15.0598502 C0.245853889,14.9195335 0.0988912299,14.6868718 0.0656547323,14.4285878 L0.0584795322,14.3165205 L0.0584795322,5.89592468 C0.0584795322,5.63567942 0.18090682,5.38208014 0.380463238,5.21715309 L0.470577544,5.15213813 L4.62262433,2.55756585 C5.55110469,1.97748662 6.45177356,3.35235081 5.63895636,3.98491373 L5.55190058,4.04559579 L2.59091743,5.89592468 L8.95696269,9.87390351 L15.3188961,5.89318351 L8.49232456,1.62737567 C7.56384409,1.04729644 8.404611,-0.364564375 9.32936485,0.0882098347 Z M51.3936994,0.0814872387 L51.5035636,0.139802573 L59.5253106,5.15213813 C59.7816154,5.3125 59.9374087,5.59347591 59.9374087,5.89592468 L59.9345532,5.96108598 L59.9269006,6.0252193 L59.9269006,14.3165205 C59.9269006,14.5807634 59.8079713,14.8285662 59.6068408,14.9938179 L59.5157164,15.0593932 L51.5044773,20.0831506 C51.2602224,20.2358598 50.9442602,20.2559979 50.6820786,20.1411162 L50.5733736,20.0836075 L42.5516264,15.0598502 C42.3277595,14.9195335 42.180497,14.6868718 42.1471793,14.4285878 L42.1399854,14.3165205 L42.1399854,5.89592468 C42.1399854,5.63567942 42.2624126,5.38208014 42.4622751,5.21715309 L42.5525402,5.15213813 L50.5738304,0.139802573 C50.8228824,-0.0157049854 51.1303497,-0.0351434302 51.3936994,0.0814872387 Z M1.81240865,7.47807018 L1.81240865,13.8308662 L8.07976971,17.755848 L8.07976971,11.3943713 L1.95175439,7.56533263 L1.81240865,7.47807018 Z M43.8943713,7.47807018 L43.8943713,13.8308662 L50.1617324,17.755848 L50.1617324,11.3943713 L43.8943713,7.47807018 Z M16.0910088,7.48492327 L9.83415567,11.3943713 L9.83415567,17.7544773 L16.0910088,13.831323 L16.0910088,7.48492327 Z M58.1729715,7.48492327 L51.9156615,11.3943713 L51.9156615,17.7544773 L58.1729715,13.831323 L58.1729715,7.48492327 Z M37.8042763,8.77786912 C38.8924209,8.77786912 38.9342726,10.3994752 37.9298314,10.5242141 L37.8042763,10.5317982 L22.1326754,10.5317982 C21.0449702,10.5317982 21.0031354,8.91019218 22.007171,8.78545325 L22.1326754,8.77786912 L37.8042763,8.77786912 Z M51.0389254,1.91794596 L44.6724233,5.89592468 L51.0384685,9.87390351 L57.4008589,5.89318351 L51.0389254,1.91794596 Z" id="Combined-Shape"></path>
                        </g>
                    </g>
                </g>
            </g>
        </g>
    </g>
</svg>