<?xml version="1.0" encoding="UTF-8"?>
<svg width="60px" height="60px" viewBox="0 0 60 60" version="1.1" xmlns="http://www.w3.org/2000/svg" xmlns:xlink="http://www.w3.org/1999/xlink">
    <!-- Generator: Sketch 57.1 (83088) - https://sketch.com -->
    <title>001-research</title>
    <desc>Created with Sketch.</desc>
    <g id="Page-1" stroke="none" stroke-width="1" fill="none" fill-rule="evenodd">
        <g id="Final-design" transform="translate(-1199.000000, -2742.000000)" fill="#F38E86" fill-rule="nonzero">
            <g id="HOW-WE-INVEST" transform="translate(-455.000000, 2238.000000)">
                <g id="text" transform="translate(1330.000000, 251.000000)">
                    <g id="Group-16" transform="translate(98.000000, 253.000000)">
                        <g id="001-research" transform="translate(226.000000, 0.000000)">
                            <path d="M46.2501563,0 L3.75011719,0 C1.6790625,0 0.0001171875,1.67894531 0.0001171875,3.75 L0.0001171875,33.75 C0.0001171875,35.8210547 1.6790625,37.5 3.75011719,37.5 L20.0001562,37.5 L20.0001562,35.0000391 L3.75011719,35.0000391 C3.05976563,35.0000391 2.50007813,34.4403516 2.50007813,33.75 L2.50007813,3.75 C2.50007813,3.05964844 3.05976563,2.49996094 3.75011719,2.49996094 L46.2501562,2.49996094 C46.9405078,2.49996094 47.5001953,3.05964844 47.5001953,3.75 L47.5001953,26.25 L50.0001562,26.25 L50.0001562,3.75 C50.0001562,1.67894531 48.3212109,0 46.2501563,0 Z" id="Path"></path>
                            <rect id="Rectangle" x="15.0001172" y="36.2499609" width="2.49996094" height="7.5"></rect>
                            <path d="M8.75015625,30 C8.05980469,30 7.50011719,29.4403125 7.50011719,28.7499609 L7.50011719,26.25 L5.00015625,26.25 L5.00015625,28.7499609 C5.00015625,30.8210156 6.67910156,32.4999609 8.75015625,32.4999609 L11.2501172,32.4999609 L11.2501172,30 L8.75015625,30 Z" id="Path"></path>
                            <rect id="Rectangle" x="5.00015625" y="21.2499609" width="2.49996094" height="2.49996094"></rect>
                            <path d="M45.6839062,26.4774609 C43.1367188,23.9298047 39.6816797,22.4987109 36.0791016,22.4987109 C28.5783984,22.4990625 22.4983594,28.5798047 22.4983594,36.0805078 C22.4987109,43.5812109 28.5794531,49.66125 36.0801563,49.66125 C39.6815625,49.66125 43.1353125,48.230625 45.6821484,45.6842578 C50.9864063,40.3809375 50.9872266,31.7818359 45.6839062,26.4774609 Z M36.0726562,47.1624616 C29.9526563,47.1603516 24.9930469,42.1974609 24.9951556,36.0774609 C24.9972656,29.9574609 29.9601562,24.9978516 36.0801562,24.9999205 C39.0216797,24.9919922 41.8439062,26.1624609 43.9163672,28.2499219 C45.9926953,30.3285937 47.1585937,33.1468359 47.1576568,36.0849609 C47.1555469,42.2049609 42.1926562,47.1645703 36.0726562,47.1624616 Z" id="Shape"></path>
                            <path d="M59.6339063,54.375 L51.7876172,46.5312891 C51.5532422,46.2969141 51.2353125,46.1650781 50.9039062,46.1650781 C50.5723828,46.1650781 50.2545703,46.2969141 50.0201953,46.5312891 L46.5326953,50.0187891 C46.0447266,50.506875 46.0447266,51.298125 46.5326953,51.7863281 L54.3789844,59.6337891 C54.6133594,59.8682812 54.9312891,60 55.2626953,60 L55.2626953,60 C55.5946875,59.9989453 55.9127344,59.8658203 56.1464062,59.6300391 L59.6339063,56.1425391 C60.121875,55.6543359 60.121875,54.8630859 59.6339063,54.375 Z M55.2625781,56.9825391 L49.1838281,50.9025 L50.9037891,49.1825391 L56.9825391,55.2625781 L55.2625781,56.9825391 Z" id="Shape"></path>
                            <polygon id="Rectangle" transform="translate(46.979508, 46.978730) rotate(-45.000000) translate(-46.979508, -46.978730) " points="45.72954 43.8962594 48.229477 43.8962594 48.229477 50.0612003 45.72954 50.0612003"></polygon>
                            <path d="M36.2500781,27.5000391 L36.2500781,30 C39.7001953,30.0041016 42.4959375,32.7999609 42.5000391,36.2499609 L45,36.2499609 C44.9946094,31.4198437 41.0803125,27.5055469 36.2500781,27.5000391 Z" id="Path"></path>
                            <rect id="Rectangle" x="12.5001562" y="42.5000391" width="9.99996094" height="2.49996094"></rect>
                            <path d="M18.7501172,5.00003906 C16.6790625,5.00003906 15.0001172,6.67898437 15.0001172,8.75003906 C15.0001172,10.8210938 16.6790625,12.5000391 18.7501172,12.5000391 C20.8211719,12.5000391 22.5001172,10.8210938 22.5001172,8.75003906 C22.5001172,6.67898437 20.8211719,5.00003906 18.7501172,5.00003906 Z M18.7501172,9.99996094 C18.0597656,9.99996094 17.5000781,9.44027344 17.5000781,8.74992188 C17.5000781,8.05957031 18.0597656,7.49988281 18.7501172,7.49988281 C19.4404688,7.49988281 20.0001562,8.05957031 20.0001562,8.74992188 C20.0001562,9.44039063 19.4404688,9.99996094 18.7501172,9.99996094 Z" id="Shape"></path>
                            <path d="M27.5001562,13.7499609 C25.4291016,13.7499609 23.7501562,15.4289062 23.7501562,17.4999609 C23.7501562,19.5710156 25.4291016,21.2499609 27.5001562,21.2499609 C29.5712109,21.2499609 31.2501562,19.5710156 31.2501562,17.4999609 C31.2501562,15.4289062 29.5712109,13.7499609 27.5001562,13.7499609 Z M27.5001562,18.75 C26.8098047,18.75 26.2501172,18.1903125 26.2501172,17.4999609 C26.2501172,16.8096094 26.8098047,16.2499219 27.5001562,16.2499219 C28.1905078,16.2499219 28.7501953,16.8096094 28.7501953,17.4999609 C28.7500781,18.1903125 28.1905078,18.75 27.5001562,18.75 Z" id="Shape"></path>
                            <polygon id="Rectangle" transform="translate(14.374982, 13.125343) rotate(-45.000000) translate(-14.374982, -13.125343) " points="9.95564909 11.8753743 18.7943143 11.8753743 18.7943143 14.3753112 9.95564909 14.3753112"></polygon>
                            <polygon id="Rectangle" transform="translate(23.119595, 13.128527) rotate(-45.000000) translate(-23.119595, -13.128527) " points="21.8696266 8.70919478 24.3695636 8.70919478 24.3695636 17.54786 21.8696266 17.54786"></polygon>
                            <path d="M36.2500781,5.00003906 C34.1790234,5.00003906 32.5000781,6.67898437 32.5000781,8.75003906 C32.5000781,10.8210938 34.1790234,12.5000391 36.2500781,12.5000391 C38.3211328,12.5000391 40.0000781,10.8210938 40.0000781,8.75003906 C40.0001953,6.67898437 38.32125,5.00003906 36.2500781,5.00003906 Z M36.2500781,9.99996094 C35.5597266,9.99996094 35.0000391,9.44027344 35.0000391,8.74992188 C35.0000391,8.05957031 35.5597266,7.49988281 36.2500781,7.49988281 C36.9404297,7.49988281 37.5001172,8.05957031 37.5001172,8.74992188 C37.5001172,9.44039063 36.9404297,9.99996094 36.2500781,9.99996094 Z" id="Shape"></path>
                            <polygon id="Rectangle" transform="translate(31.874333, 13.129729) rotate(-45.000000) translate(-31.874333, -13.129729) " points="27.4550005 11.8797602 36.2936657 11.8797602 36.2936657 14.3796972 27.4550005 14.3796972"></polygon>
                        </g>
                    </g>
                </g>
            </g>
        </g>
    </g>
</svg>