<?xml version="1.0" encoding="UTF-8"?>
<svg width="60px" height="60px" viewBox="0 0 60 60" version="1.1" xmlns="http://www.w3.org/2000/svg" xmlns:xlink="http://www.w3.org/1999/xlink">
    <!-- Generator: Sketch 57.1 (83088) - https://sketch.com -->
    <title>001-paper-plane</title>
    <desc>Created with Sketch.</desc>
    <g id="Page-1" stroke="none" stroke-width="1" fill="none" fill-rule="evenodd">
        <g id="Final-design" transform="translate(-521.000000, -1160.000000)" fill="#41719F" fill-rule="nonzero">
            <g id="HOW-IT-WORKS" transform="translate(144.000000, 840.000000)">
                <g id="advantages" transform="translate(0.000000, 258.000000)">
                    <g id="001-paper-plane" transform="translate(377.000000, 62.000000)">
                        <path d="M59.4087891,0.153984375 C59.0432812,-0.054609375 58.59375,-0.05109375 58.2316406,0.163125 L36.7565625,12.8620312 C36.1994531,13.1914453 36.0148828,13.9100391 36.3442969,14.4671484 C36.6735938,15.0241406 37.3921875,15.2087109 37.9494141,14.8794141 L53.3574609,5.76820313 L24.6575391,35.5470703 L10.3831641,31.1799609 L29.011875,20.1643359 C29.5689844,19.8348047 29.7535547,19.1162109 29.4241406,18.5591016 C29.0948437,18.0021094 28.3761328,17.8173047 27.8190234,18.1468359 L6.90351563,30.5146875 C6.50390625,30.7510547 6.28136719,31.2009375 6.33632813,31.6620703 C6.39128906,32.1232031 6.71320313,32.5082812 7.15710938,32.6441016 L24.2042578,37.8594141 L31.725,51.5484375 C31.7328516,51.5626172 31.7409375,51.5745703 31.7492578,51.5852344 C31.8747656,51.7945312 32.0628516,51.9655078 32.2974609,52.0641797 C32.4442969,52.1259375 32.5986328,52.1560547 32.7519141,52.1560547 C33.0522656,52.1560547 33.3479297,52.0405078 33.5711719,51.8221875 L42.2189062,43.370625 L58.4852344,48.3471094 C58.5977344,48.3814453 58.7131641,48.3984375 58.8280078,48.3984375 C59.0759766,48.3984375 59.3208984,48.3196875 59.5250391,48.1686328 C59.82375,47.9476172 60,47.5980469 60,47.2265625 L60,1.171875 C60,0.751054688 59.7742969,0.362460938 59.4087891,0.153984375 Z M31.7888672,38.5816406 C31.6531641,38.7776953 31.5803906,39.0104297 31.5803906,39.2489063 L31.5803906,46.4173828 L26.4448828,37.0699219 L49.17,13.490625 L31.7888672,38.5816406 Z M33.9241406,48.2002734 L33.9241406,40.8330469 L39.6651562,42.5894531 L33.9241406,48.2002734 Z M57.65625,45.6425391 L34.6290234,38.5976953 L57.65625,5.3559375 L57.65625,45.6425391 Z" id="Shape"></path>
                        <path d="M19.2683203,40.7316797 C18.8105859,40.2740625 18.0687891,40.2740625 17.6109375,40.7316797 L6.67125,51.6713672 C6.21363281,52.1289844 6.21363281,52.8710156 6.67125,53.32875 C6.90023437,53.5575 7.20011719,53.671875 7.5,53.671875 C7.79988281,53.671875 8.09976562,53.5575 8.32863281,53.3286328 L19.2683203,42.3889453 C19.7259375,41.9314453 19.7259375,41.1894141 19.2683203,40.7316797 Z" id="Path"></path>
                        <path d="M4.69582031,55.3040625 C4.23808594,54.8466797 3.49628906,54.8466797 3.03855469,55.3041797 L0.343242187,57.9994922 C-0.114375,58.4571094 -0.114375,59.1991406 0.343242187,59.656875 C0.572109375,59.885625 0.871992187,60 1.171875,60 C1.47175781,60 1.77164062,59.8855078 2.00050781,59.6567578 L4.69582031,56.9614453 C5.1534375,56.5038281 5.1534375,55.7617969 4.69582031,55.3040625 Z" id="Path"></path>
                        <path d="M16.7166797,57.9304687 C16.4988281,57.7125 16.1964844,57.5871094 15.8882813,57.5871094 C15.5787891,57.5871094 15.2777344,57.7125 15.0597656,57.9304687 C14.8417969,58.1484375 14.7164063,58.4496094 14.7164063,58.7589844 C14.7164063,59.0671875 14.8416797,59.3695312 15.0597656,59.5875 C15.2777344,59.8054687 15.5800781,59.9308594 15.8882813,59.9308594 C16.1964844,59.9308594 16.4988281,59.8054687 16.7166797,59.5875 C16.9346484,59.3695312 17.0601562,59.0671875 17.0601562,58.7589844 C17.0601562,58.4496094 16.9347656,58.1484375 16.7166797,57.9304687 Z" id="Path"></path>
                        <path d="M25.4356641,49.2111328 C24.9782813,48.7535156 24.2364844,48.7535156 23.7783984,49.2111328 L17.9839453,55.0054687 C17.5263281,55.4630859 17.5263281,56.2051172 17.9839453,56.6627344 C18.2128125,56.8916016 18.5126953,57.0059766 18.8125781,57.0059766 C19.1124609,57.0059766 19.4123438,56.8914844 19.6412109,56.6627344 L25.4356641,50.8683984 C25.8932813,50.4107812 25.8932813,49.66875 25.4356641,49.2111328 Z" id="Path"></path>
                        <path d="M45.4340625,48.7662891 C44.9763281,48.3087891 44.2345313,48.3087891 43.7767969,48.7662891 L37.9666406,54.5764453 C37.5090234,55.0340625 37.5090234,55.7760938 37.9666406,56.2338281 C38.1955078,56.4625781 38.4953906,56.5770703 38.7952734,56.5770703 C39.0951563,56.5770703 39.3950391,56.4625781 39.6239063,56.2338281 L45.4340625,50.4236719 C45.8916797,49.9660547 45.8916797,49.2240234 45.4340625,48.7662891 Z" id="Path"></path>
                        <path d="M33.2226562,15.9738281 C33.0046875,15.7558594 32.7023437,15.6304688 32.3941406,15.6304688 C32.0859375,15.6304688 31.7835938,15.7558594 31.565625,15.9738281 C31.3477734,16.1917969 31.2222656,16.4941406 31.2222656,16.8035156 C31.2222656,17.1117188 31.3476562,17.4128906 31.565625,17.6308594 C31.7835938,17.85 32.0859375,17.9742188 32.3941406,17.9742188 C32.7023437,17.9742188 33.0046875,17.85 33.2226562,17.6308594 C33.4405078,17.4128906 33.5660156,17.1117188 33.5660156,16.8035156 C33.5660156,16.4941406 33.440625,16.1917969 33.2226562,15.9738281 Z" id="Path"></path>
                    </g>
                </g>
            </g>
        </g>
    </g>
</svg>