<?xml version="1.0" encoding="UTF-8"?>
<svg width="60px" height="49px" viewBox="0 0 60 49" version="1.1" xmlns="http://www.w3.org/2000/svg" xmlns:xlink="http://www.w3.org/1999/xlink">
    <!-- Generator: Sketch 57.1 (83088) - https://sketch.com -->
    <title>002-newtons-cradle</title>
    <desc>Created with Sketch.</desc>
    <g id="Page-1" stroke="none" stroke-width="1" fill="none" fill-rule="evenodd">
        <g id="Final-design" transform="translate(-1012.000000, -2742.000000)" fill="#F38E86" fill-rule="nonzero">
            <g id="HOW-WE-INVEST" transform="translate(-455.000000, 2238.000000)">
                <g id="text" transform="translate(1330.000000, 251.000000)">
                    <g id="Group-16" transform="translate(98.000000, 253.000000)">
                        <g id="002-newtons-cradle" transform="translate(39.000000, 0.000000)">
                            <path d="M46.55749,22.7776494 C46.7341434,23.2631474 47.19251,23.5644622 47.6806375,23.5644622 C47.8164143,23.5644622 47.9543426,23.5411554 48.0892829,23.4920319 C48.7096016,23.266255 49.0294422,22.5804382 48.8036653,21.960239 L47.757251,19.085259 C47.5314741,18.4648207 46.8455378,18.1448606 46.2254582,18.3708765 C45.6051394,18.5966534 45.2852988,19.2824701 45.5110757,19.9026693 L46.55749,22.7776494 Z" id="Path"></path>
                            <path d="M55.1838645,28.3295618 C54.7259761,27.0715936 53.8056574,26.067012 52.5922709,25.5013147 C51.3788845,24.9356175 50.0178884,24.8763347 48.7600398,25.3339841 C47.5019522,25.7918725 46.4973705,26.7121912 45.9316733,27.9255777 C45.3659761,29.1388446 45.3065737,30.4999602 45.7643426,31.7579283 C46.2222311,33.0158964 47.1425498,34.0204781 48.3559363,34.5861753 C49.0298008,34.9003984 49.7490837,35.0584064 50.4711155,35.0584064 C51.0491235,35.0584064 51.6290438,34.9570518 52.1884064,34.7533865 C54.7853785,33.8082072 56.1291633,30.9262948 55.1838645,28.3294422 L55.1838645,28.3295618 L55.1838645,28.3295618 Z M51.370757,32.5072112 C50.7127888,32.746494 50.0007968,32.7156574 49.3661355,32.4197211 C48.7314741,32.1237849 48.2501594,31.5984861 48.0106375,30.9403984 C47.7711155,30.2823108 47.8023108,29.5704382 48.0981275,28.9357769 C48.3940637,28.3011155 48.9193625,27.8198008 49.5774502,27.5802789 C49.8700398,27.4737849 50.1732669,27.4208367 50.4756574,27.4208367 C50.8532271,27.4208367 51.2296016,27.5034263 51.5819522,27.6677689 C52.2166135,27.9638247 52.6980478,28.4891235 52.9375697,29.1470916 C53.4319124,30.5054582 52.729004,32.012749 51.370757,32.5072112 Z" id="Shape"></path>
                            <path d="M52.1254183,0.0700398406 L7.87458167,0.0700398406 C3.53258964,0.0700398406 0,3.60262948 0,7.94462151 L0,47.2606375 C0,47.9206375 0.535219124,48.4558566 1.19521912,48.4558566 L58.8043028,48.4558566 C59.4643028,48.4558566 60,47.9206375 60,47.2606375 L60,7.94462151 C60,3.60262948 56.4674104,0.0700398406 52.1254183,0.0700398406 Z M26.0066534,2.46047809 L31.2498406,2.46047809 L31.2498406,27.0518725 L31.2499602,27.0518725 C30.2117928,27.3069323 29.3003187,27.8860159 28.628247,28.6755777 C27.9562948,27.8860159 27.0448207,27.3069323 26.0066534,27.0518725 L26.0066534,2.46047809 L26.0066534,2.46047809 Z M32.4451793,29.2972112 C33.8906773,29.2972112 35.0667729,30.4733068 35.0667729,31.9188048 C35.0667729,33.3643028 33.8906773,34.5403984 32.4451793,34.5403984 C30.9995618,34.5403984 29.8234661,33.3643028 29.8234661,31.9188048 C29.8234661,30.4733068 30.9995618,29.2972112 32.4451793,29.2972112 Z M27.4331474,31.9188048 C27.4331474,33.3643028 26.2570518,34.5403984 24.8115538,34.5403984 C23.3660558,34.5403984 22.1899602,33.3643028 22.1899602,31.9188048 C22.1899602,30.4733068 23.3660558,29.2972112 24.8115538,29.2972112 C26.2570518,29.2972112 27.4331474,30.4733068 27.4331474,31.9188048 Z M18.3732669,2.46047809 L23.6163347,2.46047809 L23.6163347,27.051992 C22.5782869,27.3070518 21.6666932,27.8861355 20.994741,28.6756972 C20.3227888,27.8860159 19.4113147,27.3069323 18.3732669,27.0518725 L18.3732669,2.46047809 Z M19.7996414,31.9188048 C19.7996414,33.3643028 18.6235458,34.5403984 17.1780478,34.5403984 C15.7325498,34.5403984 14.5564542,33.3643028 14.5564542,31.9188048 C14.5564542,30.4733068 15.7325498,29.2972112 17.1780478,29.2972112 C18.6235458,29.2972112 19.7996414,30.4733068 19.7996414,31.9188048 Z M57.6090837,46.0654183 L2.39043825,46.0654183 L2.39043825,43.4909163 L57.6090837,43.4909163 L57.6090837,46.0654183 Z M57.6095618,41.0558964 L2.39043825,41.0558964 L2.39043825,7.94462151 C2.39043825,4.92059761 4.85055777,2.46047809 7.87458167,2.46047809 L8.34932271,2.46047809 L8.34932271,23.7913147 C8.34932271,24.4513147 8.88454183,24.9865339 9.54454183,24.9865339 C10.2045418,24.9865339 10.739761,24.4513147 10.739761,23.7913147 L10.739761,2.46047809 L15.9828287,2.46047809 L15.9828287,27.051992 C14.9447809,27.3070518 14.0331873,27.8861355 13.3612351,28.6756972 C12.4411554,27.5946215 11.0720319,26.9068924 9.54442231,26.9068924 C6.78071713,26.9068924 4.53227092,29.1553386 4.53227092,31.9189243 C4.53227092,34.68251 6.78071713,36.9309562 9.54442231,36.9309562 C11.0719124,36.9309562 12.4411554,36.2432271 13.3612351,35.1621514 C14.2813147,36.2432271 15.6504382,36.9309562 17.1780478,36.9309562 C18.7056574,36.9309562 20.0747809,36.2432271 20.9948606,35.1621514 C21.9149402,36.2432271 23.2840637,36.9309562 24.8116733,36.9309562 C26.3392829,36.9309562 27.7084064,36.2432271 28.6284861,35.1620319 C29.5485657,36.2432271 30.9178088,36.9309562 32.4454183,36.9309562 C35.209004,36.9309562 37.4574502,34.68251 37.4574502,31.9189243 C37.4574502,29.5672112 35.8289641,27.5896016 33.6406375,27.0521116 L33.6406375,2.46047809 L39.1629084,2.46047809 L44.1168526,16.0713944 C44.293506,16.5568924 44.7518725,16.8582072 45.24,16.8582072 C45.3757769,16.8582072 45.5137052,16.8349004 45.6486454,16.7857769 C46.2689641,16.56 46.5888048,15.8741833 46.3630279,15.2539841 L41.7064542,2.46047809 L52.1254183,2.46047809 C55.1494422,2.46047809 57.6095618,4.92059761 57.6095618,7.94462151 L57.6095618,41.0558964 Z M12.1660159,31.9188048 C12.1660159,33.3643028 10.9899203,34.5403984 9.54442231,34.5403984 C8.09880478,34.5403984 6.92270916,33.3643028 6.92270916,31.9188048 C6.92270916,30.4733068 8.09880478,29.2972112 9.54442231,29.2972112 C10.9899203,29.2972112 12.1660159,30.4733068 12.1660159,31.9188048 Z" id="Shape"></path>
                        </g>
                    </g>
                </g>
            </g>
        </g>
    </g>
</svg>