<?xml version="1.0" encoding="UTF-8"?>
<svg width="100px" height="85px" viewBox="0 0 100 85" version="1.1" xmlns="http://www.w3.org/2000/svg" xmlns:xlink="http://www.w3.org/1999/xlink">
    <!-- Generator: Sketch 57.1 (83088) - https://sketch.com -->
    <title>logo</title>
    <desc>Created with Sketch.</desc>
    <g id="Page-1" stroke="none" stroke-width="1" fill="none" fill-rule="evenodd">
        <g id="Final-design" transform="translate(-144.000000, -51.000000)" stroke="#41719F">
            <g id="MENU" transform="translate(144.000000, 50.000000)">
                <g id="logo" transform="translate(0.000000, 0.138889)">
                    <rect id="Rectangle" stroke-width="1.5" x="0.75" y="1.61111111" width="98.5" height="83.5"></rect>
                    <path d="M17.6207727,31.7532322 C16.0582466,31.7532322 14.7980138,31.3560983 13.8400365,30.5618186 C12.8820592,29.767539 12.4030777,28.7176901 12.4030777,27.4122402 L12.4030777,19.1785108 C12.4030777,17.8730609 12.8820592,16.827144 13.8400365,16.0407285 C14.7980138,15.254313 16.0582466,14.8611111 17.6207727,14.8611111 C19.1832988,14.8611111 20.4435315,15.254313 21.4015088,16.0407285 C22.3594862,16.827144 22.8384676,17.865197 22.8384676,19.1549184 L22.8384676,19.4144343 C22.8384676,19.5717173 22.7454614,19.6503577 22.5594465,19.6503577 L22.2804254,19.6503577 C22.0944104,19.6503577 22.0014042,19.5795814 22.0014042,19.4380266 L22.0014042,19.1313261 C22.0014042,18.0460727 21.601478,17.1731644 20.8016134,16.5125755 C20.0017489,15.8519865 18.9414792,15.5216969 17.6207727,15.5216969 C16.3000661,15.5216969 15.2397964,15.8519865 14.4399319,16.5125755 C13.6400673,17.1731644 13.2401411,18.0460727 13.2401411,19.1313261 L13.2401411,27.4594249 C13.2401411,28.5604067 13.6400673,29.4451108 14.4399319,30.113564 C15.2397964,30.7820173 16.3000661,31.1162388 17.6207727,31.1162388 C18.9414792,31.1162388 20.0017489,30.7820173 20.8016134,30.113564 C21.601478,29.4451108 22.0014042,28.5604067 22.0014042,27.4594249 L22.0014042,27.1999091 C22.0014042,27.042626 22.0944104,26.9639856 22.2804254,26.9639856 L22.5594465,26.9875779 C22.7454614,26.9875779 22.8384676,27.0662184 22.8384676,27.2235014 L22.8384676,27.4358325 C22.8384676,28.725554 22.3594862,29.767539 21.4015088,30.5618186 C20.4435315,31.3560983 19.1832988,31.7532322 17.6207727,31.7532322 Z M36.2184678,31.5644934 C36.0696557,31.5644934 35.967349,31.5015812 35.9115446,31.3757546 L31.9773468,23.6610569 C31.9587453,23.613872 31.9215427,23.5902798 31.8657383,23.5902798 L27.3176941,23.5902798 C27.243288,23.5902798 27.2060856,23.6217359 27.2060856,23.6846492 L27.2060856,31.3285699 C27.2060856,31.485853 27.1130794,31.5644934 26.9270645,31.5644934 L26.6480434,31.5644934 C26.4620284,31.5644934 26.3690222,31.485853 26.3690222,31.3285699 L26.3690222,15.2857734 C26.3690222,15.1284903 26.4620284,15.0498499 26.6480434,15.0498499 L31.9773468,15.0498499 C33.3538579,15.0498499 34.4652809,15.4430518 35.3116491,16.2294673 C36.1580174,17.0158828 36.5811952,18.0539358 36.5811952,19.3436572 C36.5811952,20.4603672 36.2463733,21.3922557 35.5767192,22.1393504 C34.9070651,22.8864452 34.0142064,23.3464913 32.8981165,23.5195028 C32.8237104,23.5509594 32.8051092,23.5902797 32.8423122,23.6374645 L36.6928037,31.2813852 L36.7207058,31.3757546 C36.7207058,31.5015812 36.6370003,31.5644934 36.4695868,31.5644934 L36.2184678,31.5644934 Z M27.3176941,15.7104356 C27.243288,15.7104356 27.2060856,15.7418918 27.2060856,15.804805 L27.2060856,22.858917 C27.2060856,22.9218303 27.243288,22.9532864 27.3176941,22.9532864 L31.9773468,22.9532864 C33.1120384,22.9532864 34.0234983,22.6190649 34.7117537,21.9506117 C35.4000092,21.2821584 35.7441319,20.4131823 35.7441319,19.3436572 C35.7441319,18.2584038 35.4000092,17.3815637 34.7117537,16.7131104 C34.0234983,16.0446572 33.1120384,15.7104356 31.9773468,15.7104356 L27.3176941,15.7104356 Z M43.0972759,31.5644934 C42.9112609,31.5644934 42.8182547,31.485853 42.8182547,31.3285699 L42.8182547,23.7318339 C42.8182547,23.6689206 42.808954,23.6296004 42.7903526,23.6138722 L37.9911894,15.3329581 C37.972588,15.3015014 37.9632873,15.2621813 37.9632873,15.2149963 C37.9632873,15.1048982 38.037692,15.0498499 38.1865041,15.0498499 L38.4655253,15.0498499 C38.6329388,15.0498499 38.7445462,15.1048982 38.8003506,15.2149963 L43.1530801,22.858917 C43.1716815,22.8903737 43.1995834,22.9061017 43.2367864,22.9061017 C43.2739895,22.9061017 43.3018914,22.8903737 43.3204928,22.858917 L47.6732222,15.2149963 C47.7290267,15.1048982 47.8406341,15.0498499 48.0080476,15.0498499 L48.2870687,15.0498499 C48.3800762,15.0498499 48.4451805,15.077374 48.4823835,15.1324231 C48.5195865,15.1874722 48.5195865,15.2543165 48.4823835,15.3329581 L43.6832202,23.6138722 C43.6646188,23.6296004 43.6553181,23.6689206 43.6553181,23.7318339 L43.6553181,31.3285699 C43.6553181,31.485853 43.5623119,31.5644934 43.376297,31.5644934 L43.0972759,31.5644934 Z M56.2819613,15.0026652 C57.6584724,15.0026652 58.765245,15.4037311 59.6023126,16.2058749 C60.4393802,17.0080187 60.8579076,18.0539358 60.8579076,19.3436572 C60.8579076,20.6333787 60.4393802,21.6714316 59.6023126,22.4578471 C58.765245,23.2442627 57.6584724,23.6374645 56.2819613,23.6374645 L51.4548959,23.6374645 C51.3804898,23.6374645 51.3432874,23.6689206 51.3432874,23.7318339 L51.3432874,31.3285699 C51.3432874,31.485853 51.2502812,31.5644934 51.0642663,31.5644934 L50.7852452,31.5644934 C50.5992303,31.5644934 50.5062241,31.485853 50.5062241,31.3285699 L50.5062241,15.2385887 C50.5062241,15.0813056 50.5992303,15.0026652 50.7852452,15.0026652 L56.2819613,15.0026652 Z M56.2540591,23.0004711 C57.3887507,23.0004711 58.3002106,22.6662496 58.9884661,21.9977963 C59.6767216,21.3293431 60.0208443,20.444639 60.0208443,19.3436572 C60.0208443,18.2426754 59.6767216,17.3540393 58.9884661,16.6777219 C58.3002106,16.0014045 57.3887507,15.6632509 56.2540591,15.6632509 L51.4548959,15.6632509 C51.3804898,15.6632509 51.3432874,15.6947071 51.3432874,15.7576203 L51.3432874,22.9061017 C51.3432874,22.969015 51.3804898,23.0004711 51.4548959,23.0004711 L56.2540591,23.0004711 Z M72.5637811,15.0498499 C72.749796,15.0498499 72.8428022,15.1284903 72.8428022,15.2857734 L72.8428022,15.4745122 C72.8428022,15.6317953 72.749796,15.7104356 72.5637811,15.7104356 L67.8483242,15.7104356 C67.7739181,15.7104356 67.7367157,15.7418918 67.7367157,15.804805 L67.7367157,31.3285699 C67.7367157,31.485853 67.6437095,31.5644934 67.4576946,31.5644934 L67.1786735,31.5644934 C66.9926585,31.5644934 66.8996523,31.485853 66.8996523,31.3285699 L66.8996523,15.804805 C66.8996523,15.7418918 66.86245,15.7104356 66.7880439,15.7104356 L62.3516081,15.7104356 C62.1655932,15.7104356 62.072587,15.6317953 62.072587,15.4745122 L62.072587,15.2857734 C62.072587,15.1284903 62.1655932,15.0498499 62.3516081,15.0498499 L72.5637811,15.0498499 Z M78.9403512,31.7532322 C77.9172686,31.7532322 77.0058087,31.5644954 76.2059442,31.1870159 C75.4060796,30.8095363 74.7829388,30.2826459 74.3365027,29.6063285 C73.8900666,28.9300112 73.666852,28.1514716 73.666852,27.2706861 L73.666852,19.3672496 C73.666852,18.4864641 73.8900666,17.7039924 74.3365027,17.0198109 C74.7829388,16.3356295 75.4060796,15.8048069 76.2059442,15.4273275 C77.0058087,15.049848 77.9172686,14.8611111 78.9403512,14.8611111 C79.9820353,14.8611111 80.907446,15.049848 81.7166113,15.4273275 C82.5257766,15.8048069 83.1535677,16.3356295 83.6000039,17.0198109 C84.04644,17.7039924 84.2696545,18.4864641 84.2696545,19.3672496 L84.2696545,27.2706861 C84.2696545,28.1514716 84.04644,28.9300112 83.6000039,29.6063285 C83.1535677,30.2826459 82.5257766,30.8095363 81.7166113,31.1870159 C80.907446,31.5644954 79.9820353,31.7532322 78.9403512,31.7532322 Z M78.9403512,31.0926465 C80.2796593,31.0926465 81.3631803,30.7426969 82.1909472,30.042787 C83.0187141,29.3428771 83.4325912,28.4267169 83.4325912,27.2942785 L83.4325912,19.3436572 C83.4325912,18.1954906 83.0187141,17.2714662 82.1909472,16.5715563 C81.3631803,15.8716464 80.2796593,15.5216969 78.9403512,15.5216969 C77.6196446,15.5216969 76.5500742,15.8716464 75.7316083,16.5715563 C74.9131423,17.2714662 74.5039153,18.1954906 74.5039153,19.3436572 L74.5039153,27.2942785 C74.5039153,28.4267169 74.9131423,29.3428771 75.7316083,30.042787 C76.5500742,30.7426969 77.6196446,31.0926465 78.9403512,31.0926465 Z M22.0572085,52.1184329 C21.8897949,52.1184329 21.7874883,52.0555207 21.7502852,51.9296941 L20.6621029,48.603173 C20.6435015,48.5559882 20.5969984,48.532396 20.5225923,48.532396 L13.0169242,48.532396 C12.9425182,48.532396 12.8960151,48.5559882 12.8774136,48.603173 L11.8171334,51.9061017 C11.7799304,52.0476565 11.6776236,52.1184329 11.5102101,52.1184329 L11.2590911,52.1184329 C11.1660836,52.1184329 11.096329,52.0948407 11.0498253,52.0476558 C11.0033215,52.000471 10.9893706,51.9375586 11.0079721,51.858917 L16.2535692,35.7925281 C16.2907722,35.6667016 16.3930789,35.6037893 16.5604924,35.6037893 L16.951122,35.6037893 C17.1185355,35.6037893 17.2208422,35.6667016 17.2580452,35.7925281 L22.5873486,51.858917 L22.6152507,51.9296941 C22.6152507,52.0555207 22.5222445,52.1184329 22.3362296,52.1184329 L22.0572085,52.1184329 Z M13.1564347,47.8010332 C13.1378332,47.8167614 13.1424835,47.8364216 13.1703858,47.8600141 C13.1982881,47.8836066 13.2308402,47.8954026 13.2680432,47.8954026 L20.2993754,47.8954026 C20.3365784,47.8954026 20.3691305,47.8836066 20.3970328,47.8600141 C20.4249351,47.8364216 20.4295853,47.8167614 20.4109839,47.8010332 L16.8395135,36.8305914 C16.820912,36.7991348 16.7976605,36.7834067 16.7697582,36.7834067 C16.741856,36.7834067 16.7186045,36.7991348 16.700003,36.8305914 L13.1564347,47.8010332 Z M28.2663659,52.3071717 C26.6480353,52.3071717 25.3552504,51.9336299 24.3879723,51.1865351 C23.4206942,50.4394404 22.9370625,49.4446397 22.9370625,48.2021031 L22.9370625,47.5651097 C22.9370625,47.4078267 23.0300687,47.3291863 23.2160836,47.3291863 L23.4672026,47.3291863 C23.6532175,47.3291863 23.7462237,47.4078267 23.7462237,47.5651097 L23.7462237,48.1785108 C23.7462237,49.2323075 24.1554507,50.0776916 24.9739166,50.7146882 C25.7923826,51.3516848 26.8991554,51.6701783 28.294268,51.6701783 C29.6335761,51.6701783 30.6891954,51.3674128 31.4611577,50.7618729 C32.2331199,50.1563329 32.6190953,49.334541 32.6190953,48.2964725 C32.6190953,47.6516118 32.4516844,47.0932651 32.1168573,46.6214158 C31.7820303,46.1495665 31.2890978,45.7170444 30.6380454,45.3238367 C29.9869929,44.9306289 29.075533,44.4587866 27.9036384,43.9082958 C26.7131424,43.357805 25.8063328,42.8938268 25.1831825,42.5163473 C24.5600321,42.1388677 24.0670999,41.6906178 23.7043705,41.1715835 C23.3416412,40.6525491 23.1602794,40.0076982 23.1602794,39.2370109 C23.1602794,38.0102028 23.597408,37.0665181 24.4716786,36.4059292 C25.3459492,35.7453402 26.5364273,35.4150506 28.043149,35.4150506 C29.6800811,35.4150506 30.9635654,35.7885923 31.8936404,36.5356871 C32.8237155,37.2827819 33.288746,38.2854466 33.288746,39.5437114 L33.288746,40.1335201 C33.288746,40.2908032 33.1957398,40.3694436 33.0097249,40.3694436 L32.7307038,40.3694436 C32.5446889,40.3694436 32.4516827,40.2908032 32.4516827,40.1335201 L32.4516827,39.5908961 C32.4516827,38.521371 32.0564068,37.6641909 31.2658429,37.0193302 C30.475279,36.3744695 29.391758,36.052044 28.0152469,36.052044 C26.7689464,36.052044 25.7830815,36.3272853 25.057623,36.8777761 C24.3321645,37.4282669 23.9694406,38.2146707 23.9694406,39.2370109 C23.9694406,39.8661434 24.1229007,40.3930338 24.4298255,40.8176982 C24.7367502,41.2423626 25.1785292,41.6237685 25.7551758,41.9619271 C26.3318224,42.3000857 27.2153804,42.744404 28.4058764,43.2948948 C29.6521769,43.8768422 30.6240907,44.3919366 31.3216471,44.8401935 C32.0192035,45.2884505 32.5493382,45.7760207 32.9120675,46.3029191 C33.2747969,46.8298176 33.4561587,47.4628725 33.4561587,48.2021031 C33.4561587,49.4446397 32.9957785,50.4394404 32.0750041,51.1865351 C31.1542298,51.9336299 29.8846964,52.3071717 28.2663659,52.3071717 Z M40.6697921,52.3071717 C39.0514616,52.3071717 37.7586766,51.9336299 36.7913985,51.1865351 C35.8241205,50.4394404 35.3404887,49.4446397 35.3404887,48.2021031 L35.3404887,47.5651097 C35.3404887,47.4078267 35.4334949,47.3291863 35.6195098,47.3291863 L35.8706289,47.3291863 C36.0566438,47.3291863 36.14965,47.4078267 36.14965,47.5651097 L36.14965,48.1785108 C36.14965,49.2323075 36.5588769,50.0776916 37.3773429,50.7146882 C38.1958089,51.3516848 39.3025817,51.6701783 40.6976942,51.6701783 C42.0370024,51.6701783 43.0926217,51.3674128 43.8645839,50.7618729 C44.6365462,50.1563329 45.0225216,49.334541 45.0225216,48.2964725 C45.0225216,47.6516118 44.8551106,47.0932651 44.5202836,46.6214158 C44.1854565,46.1495665 43.6925241,45.7170444 43.0414716,45.3238367 C42.3904192,44.9306289 41.4789593,44.4587866 40.3070647,43.9082958 C39.1165686,43.357805 38.2097591,42.8938268 37.5866087,42.5163473 C36.9634584,42.1388677 36.4705262,41.6906178 36.1077968,41.1715835 C35.7450674,40.6525491 35.5637056,40.0076982 35.5637056,39.2370109 C35.5637056,38.0102028 36.0008343,37.0665181 36.8751049,36.4059292 C37.7493755,35.7453402 38.9398536,35.4150506 40.4465752,35.4150506 C42.0835074,35.4150506 43.3669916,35.7885923 44.2970667,36.5356871 C45.2271417,37.2827819 45.6921723,38.2854466 45.6921723,39.5437114 L45.6921723,40.1335201 C45.6921723,40.2908032 45.5991661,40.3694436 45.4131512,40.3694436 L45.13413,40.3694436 C44.9481151,40.3694436 44.8551089,40.2908032 44.8551089,40.1335201 L44.8551089,39.5908961 C44.8551089,38.521371 44.459833,37.6641909 43.6692692,37.0193302 C42.8787053,36.3744695 41.7951843,36.052044 40.4186731,36.052044 C39.1723726,36.052044 38.1865077,36.3272853 37.4610492,36.8777761 C36.7355907,37.4282669 36.3728669,38.2146707 36.3728669,39.2370109 C36.3728669,39.8661434 36.526327,40.3930338 36.8332517,40.8176982 C37.1401764,41.2423626 37.5819554,41.6237685 38.158602,41.9619271 C38.7352486,42.3000857 39.6188066,42.744404 40.8093027,43.2948948 C42.0556031,43.8768422 43.027517,44.3919366 43.7250734,44.8401935 C44.4226296,45.2884505 44.9527644,45.7760207 45.3154938,46.3029191 C45.6782231,46.8298176 45.859585,47.4628725 45.859585,48.2021031 C45.859585,49.4446397 45.3992048,50.4394404 44.4784304,51.1865351 C43.5576561,51.9336299 42.2881226,52.3071717 40.6697921,52.3071717 Z M58.960564,36.0284516 C58.960564,36.1857346 58.8675578,36.2643751 58.6815429,36.2643751 L49.8365734,36.2643751 C49.7621673,36.2643751 49.7249649,36.2958312 49.7249649,36.3587445 L49.7249649,43.4364488 C49.7249649,43.4993621 49.7621673,43.5308182 49.8365734,43.5308182 L55.975038,43.5308182 C56.161053,43.5308182 56.2540591,43.6094587 56.2540591,43.7667417 L56.2540591,43.9318882 C56.2540591,44.0891712 56.161053,44.1678116 55.975038,44.1678116 L49.8365734,44.1678116 C49.7621673,44.1678116 49.7249649,44.1992677 49.7249649,44.262181 L49.7249649,51.3634777 C49.7249649,51.426391 49.7621673,51.4578471 49.8365734,51.4578471 L58.6815429,51.4578471 C58.8675578,51.4578471 58.960564,51.5364876 58.960564,51.6937706 L58.960564,51.8825094 C58.960564,52.0397924 58.8675578,52.1184329 58.6815429,52.1184329 L49.1669227,52.1184329 C48.9809078,52.1184329 48.8879016,52.0397924 48.8879016,51.8825094 L48.8879016,35.8397128 C48.8879016,35.6824298 48.9809078,35.6037893 49.1669227,35.6037893 L58.6815429,35.6037893 C58.8675578,35.6037893 58.960564,35.6824298 58.960564,35.8397128 L58.960564,36.0284516 Z M71.1407734,35.6037893 C71.3267883,35.6037893 71.4197945,35.6824298 71.4197945,35.8397128 L71.4197945,36.0284516 C71.4197945,36.1857346 71.3267883,36.2643751 71.1407734,36.2643751 L66.4253164,36.2643751 C66.3509104,36.2643751 66.313708,36.2958312 66.313708,36.3587445 L66.313708,51.8825094 C66.313708,52.0397924 66.2207018,52.1184329 66.0346869,52.1184329 L65.7556658,52.1184329 C65.5696508,52.1184329 65.4766446,52.0397924 65.4766446,51.8825094 L65.4766446,36.3587445 C65.4766446,36.2958312 65.4394422,36.2643751 65.3650362,36.2643751 L60.9286004,36.2643751 C60.7425855,36.2643751 60.6495793,36.1857346 60.6495793,36.0284516 L60.6495793,35.8397128 C60.6495793,35.6824298 60.7425855,35.6037893 60.9286004,35.6037893 L71.1407734,35.6037893 Z M17.6207727,72.8611111 C16.0582466,72.8611111 14.7980138,72.4639772 13.8400365,71.6696975 C12.8820592,70.8754179 12.4030777,69.825569 12.4030777,68.5201191 L12.4030777,60.2863897 C12.4030777,58.9809398 12.8820592,57.9350229 13.8400365,57.1486074 C14.7980138,56.3621919 16.0582466,55.96899 17.6207727,55.96899 C19.1832988,55.96899 20.4435315,56.3621919 21.4015088,57.1486074 C22.3594862,57.9350229 22.8384676,58.9730759 22.8384676,60.2627973 L22.8384676,60.5223132 C22.8384676,60.6795962 22.7454614,60.7582366 22.5594465,60.7582366 L22.2804254,60.7582366 C22.0944104,60.7582366 22.0014042,60.6874603 22.0014042,60.5459055 L22.0014042,60.239205 C22.0014042,59.1539516 21.601478,58.2810433 20.8016134,57.6204544 C20.0017489,56.9598654 18.9414792,56.6295758 17.6207727,56.6295758 C16.3000661,56.6295758 15.2397964,56.9598654 14.4399319,57.6204544 C13.6400673,58.2810433 13.2401411,59.1539516 13.2401411,60.239205 L13.2401411,68.5673038 C13.2401411,69.6682856 13.6400673,70.5529897 14.4399319,71.2214429 C15.2397964,71.8898962 16.3000661,72.2241177 17.6207727,72.2241177 C18.9414792,72.2241177 20.0017489,71.8898962 20.8016134,71.2214429 C21.601478,70.5529897 22.0014042,69.6682856 22.0014042,68.5673038 L22.0014042,68.307788 C22.0014042,68.1505049 22.0944104,68.0718645 22.2804254,68.0718645 L22.5594465,68.0954568 C22.7454614,68.0954568 22.8384676,68.1740973 22.8384676,68.3313803 L22.8384676,68.5437114 C22.8384676,69.8334329 22.3594862,70.8754179 21.4015088,71.6696975 C20.4435315,72.4639772 19.1832988,72.8611111 17.6207727,72.8611111 Z M35.4651108,72.6723723 C35.2976972,72.6723723 35.1953906,72.6094601 35.1581875,72.4836335 L34.0700052,69.1571125 C34.0514037,69.1099276 34.0049007,69.0863354 33.9304946,69.0863354 L26.4248265,69.0863354 C26.3504204,69.0863354 26.3039173,69.1099276 26.2853159,69.1571125 L25.2250356,72.4600412 C25.1878326,72.601596 25.0855259,72.6723723 24.9181124,72.6723723 L24.6669934,72.6723723 C24.5739859,72.6723723 24.5042313,72.6487802 24.4577276,72.6015953 C24.4112238,72.5544104 24.397273,72.491498 24.4158744,72.4128565 L29.6614715,56.3464676 C29.6986745,56.220641 29.8009812,56.1577288 29.9683947,56.1577288 L30.3590243,56.1577288 C30.5264378,56.1577288 30.6287445,56.220641 30.6659475,56.3464676 L35.9952509,72.4128565 L36.023153,72.4836335 C36.023153,72.6094601 35.9301468,72.6723723 35.7441319,72.6723723 L35.4651108,72.6723723 Z M26.564337,68.3549727 C26.5457356,68.3707009 26.5503858,68.390361 26.5782881,68.4139535 C26.6061904,68.4375461 26.6387424,68.4493421 26.6759455,68.4493421 L33.7072777,68.4493421 C33.7444807,68.4493421 33.7770328,68.4375461 33.8049351,68.4139535 C33.8328374,68.390361 33.8374876,68.3707009 33.8188861,68.3549727 L30.2474158,57.3845309 C30.2288144,57.3530742 30.2055629,57.3373462 30.1776605,57.3373462 C30.1497582,57.3373462 30.1265067,57.3530742 30.1079053,57.3845309 L26.564337,68.3549727 Z M43.9343392,56.1105441 C45.3108504,56.1105441 46.417623,56.5116101 47.2546906,57.3137538 C48.0917581,58.1158976 48.5102856,59.1618147 48.5102856,60.4515361 C48.5102856,61.7412576 48.0917581,62.7793105 47.2546906,63.565726 C46.417623,64.3521416 45.3108504,64.7453434 43.9343392,64.7453434 L39.1072738,64.7453434 C39.0328678,64.7453434 38.9956654,64.7767995 38.9956654,64.8397128 L38.9956654,72.4364488 C38.9956654,72.5937319 38.9026592,72.6723723 38.7166443,72.6723723 L38.4376232,72.6723723 C38.2516082,72.6723723 38.158602,72.5937319 38.158602,72.4364488 L38.158602,56.3464676 C38.158602,56.1891846 38.2516082,56.1105441 38.4376232,56.1105441 L43.9343392,56.1105441 Z M43.9064371,64.10835 C45.0411287,64.10835 45.9525886,63.7741285 46.6408441,63.1056753 C47.3290996,62.437222 47.6732222,61.5525179 47.6732222,60.4515361 C47.6732222,59.3505543 47.3290996,58.4619182 46.6408441,57.7856008 C45.9525886,57.1092834 45.0411287,56.7711298 43.9064371,56.7711298 L39.1072738,56.7711298 C39.0328678,56.7711298 38.9956654,56.802586 38.9956654,56.8654992 L38.9956654,64.0139807 C38.9956654,64.0768939 39.0328678,64.10835 39.1072738,64.10835 L43.9064371,64.10835 Z M51.5386022,72.6723723 C51.3525873,72.6723723 51.2595811,72.5937319 51.2595811,72.4364488 L51.2595811,56.3936523 C51.2595811,56.2363692 51.3525873,56.1577288 51.5386022,56.1577288 L51.8176233,56.1577288 C52.0036383,56.1577288 52.0966445,56.2363692 52.0966445,56.3936523 L52.0966445,72.4364488 C52.0966445,72.5937319 52.0036383,72.6723723 51.8176233,72.6723723 L51.5386022,72.6723723 Z M65.4208404,56.1577288 C65.6068553,56.1577288 65.6998615,56.2363692 65.6998615,56.3936523 L65.6998615,56.5823911 C65.6998615,56.7396741 65.6068553,56.8183145 65.4208404,56.8183145 L60.7053835,56.8183145 C60.6309774,56.8183145 60.593775,56.8497706 60.593775,56.9126839 L60.593775,72.4364488 C60.593775,72.5937319 60.5007688,72.6723723 60.3147539,72.6723723 L60.0357328,72.6723723 C59.8497179,72.6723723 59.7567117,72.5937319 59.7567117,72.4364488 L59.7567117,56.9126839 C59.7567117,56.8497706 59.7195093,56.8183145 59.6451032,56.8183145 L55.2086674,56.8183145 C55.0226525,56.8183145 54.9296463,56.7396741 54.9296463,56.5823911 L54.9296463,56.3936523 C54.9296463,56.2363692 55.0226525,56.1577288 55.2086674,56.1577288 L65.4208404,56.1577288 Z M76.5128674,72.6723723 C76.3454539,72.6723723 76.2431472,72.6094601 76.2059442,72.4836335 L75.1177618,69.1571125 C75.0991604,69.1099276 75.0526573,69.0863354 74.9782512,69.0863354 L67.4725831,69.0863354 C67.3981771,69.0863354 67.351674,69.1099276 67.3330726,69.1571125 L66.2727923,72.4600412 C66.2355893,72.601596 66.1332826,72.6723723 65.9658691,72.6723723 L65.7147501,72.6723723 C65.6217426,72.6723723 65.5519879,72.6487802 65.5054842,72.6015953 C65.4589805,72.5544104 65.4450296,72.491498 65.463631,72.4128565 L70.7092281,56.3464676 C70.7464311,56.220641 70.8487378,56.1577288 71.0161513,56.1577288 L71.4067809,56.1577288 C71.5741944,56.1577288 71.6765011,56.220641 71.7137041,56.3464676 L77.0430075,72.4128565 L77.0709096,72.4836335 C77.0709096,72.6094601 76.9779035,72.6723723 76.7918885,72.6723723 L76.5128674,72.6723723 Z M67.6120937,68.3549727 C67.5934923,68.3707009 67.5981424,68.390361 67.6260447,68.4139535 C67.6539471,68.4375461 67.6864991,68.4493421 67.7237021,68.4493421 L74.7550343,68.4493421 C74.7922374,68.4493421 74.8247894,68.4375461 74.8526917,68.4139535 C74.8805941,68.390361 74.8852442,68.3707009 74.8666428,68.3549727 L71.2951725,57.3845309 C71.2765711,57.3530742 71.2533195,57.3373462 71.2254172,57.3373462 C71.1975149,57.3373462 71.1742633,57.3530742 71.1556619,57.3845309 L67.6120937,68.3549727 Z M79.6248904,72.6723723 C79.4388754,72.6723723 79.3458692,72.5937319 79.3458692,72.4364488 L79.3458692,56.3936523 C79.3458692,56.2363692 79.4388754,56.1577288 79.6248904,56.1577288 L79.9039115,56.1577288 C80.0899264,56.1577288 80.1829326,56.2363692 80.1829326,56.3936523 L80.1829326,71.9174172 C80.1829326,71.9803305 80.220135,72.0117866 80.2945411,72.0117866 L88.7209789,72.0117866 C88.9069938,72.0117866 89,72.090427 89,72.2477101 L89,72.4364488 C89,72.5937319 88.9069938,72.6723723 88.7209789,72.6723723 L79.6248904,72.6723723 Z" id="CRYPTOASSETCAPITAL" stroke-width="0.5" fill="#41719F" fill-rule="nonzero"></path>
                </g>
            </g>
        </g>
    </g>
</svg>