<?xml version="1.0" encoding="UTF-8"?>
<svg width="25px" height="20px" viewBox="0 0 25 20" version="1.1" xmlns="http://www.w3.org/2000/svg" xmlns:xlink="http://www.w3.org/1999/xlink">
    <!-- Generator: Sketch 57.1 (83088) - https://sketch.com -->
    <title>003-twitter</title>
    <desc>Created with Sketch.</desc>
    <g id="Page-1" stroke="none" stroke-width="1" fill="none" fill-rule="evenodd">
        <g id="Final-design" transform="translate(-668.000000, -5681.000000)" fill="#41719F" fill-rule="nonzero">
            <g id="FOOTER" transform="translate(0.000000, 5301.000000)">
                <g id="social" transform="translate(668.000000, 380.000000)">
                    <g id="003-twitter">
                        <path d="M24.6242775,2.36769231 C23.7085621,2.76923077 22.7328251,3.03538462 21.7155347,3.16461538 C22.7620665,2.54 23.5608165,1.55846154 23.9363367,0.375384615 C22.9605997,0.956923077 21.8832876,1.36769231 20.7351806,1.59692308 C19.8086922,0.610769231 18.4882153,0 17.0476951,0 C14.2528396,0 12.0027962,2.26769231 12.0027962,5.04769231 C12.0027962,5.44769231 12.0366546,5.83230769 12.1197616,6.19846154 C7.92286127,5.99384615 4.20921243,3.98307692 1.71446532,0.92 C1.27892341,1.67538462 1.02344653,2.54 1.02344653,3.47076923 C1.02344653,5.21846154 1.92377168,6.76769231 3.2657948,7.66461538 C2.45473266,7.64923077 1.65906069,7.41384615 0.984971098,7.04307692 C0.984971098,7.05846154 0.984971098,7.07846154 0.984971098,7.09846154 C0.984971098,9.55076923 2.73483382,11.5876923 5.02950867,12.0569231 C4.61859104,12.1692308 4.17073699,12.2230769 3.70595376,12.2230769 C3.38276012,12.2230769 3.05648844,12.2046154 2.75022399,12.1369231 C3.40430636,14.1353846 5.26036127,15.6046154 7.46731214,15.6523077 C5.74976879,16.9953846 3.56898121,17.8046154 1.20812861,17.8046154 C0.794132948,17.8046154 0.397066474,17.7861538 -1.11910481e-13,17.7353846 C2.2361922,19.1769231 4.88638006,20 7.74433526,20 C17.0338439,20 22.1126012,12.3076923 22.1126012,5.64 C22.1126012,5.41692308 22.1049061,5.20153846 22.0941329,4.98769231 C23.0960332,4.27692308 23.9378757,3.38923077 24.6242775,2.36769231 Z" id="Path"></path>
                    </g>
                </g>
            </g>
        </g>
    </g>
</svg>