<?xml version="1.0" encoding="UTF-8"?>
<svg width="521px" height="767px" viewBox="0 0 521 767" version="1.1" xmlns="http://www.w3.org/2000/svg" xmlns:xlink="http://www.w3.org/1999/xlink">
    <!-- Generator: Sketch 57.1 (83088) - https://sketch.com -->
    <title>background items</title>
    <desc>Created with Sketch.</desc>
    <defs>
        <path d="M127.85868,119.501299 L734.828425,119.822669 C739.243394,119.825007 742.821849,123.403461 742.824188,127.81843 L743.145554,734.494465 C743.147895,738.912742 739.568071,742.496361 735.149793,742.498701 C735.146969,742.498703 735.144144,742.498703 735.14132,742.498701 L128.171575,742.177331 C123.756606,742.174993 120.178151,738.596539 120.175812,734.18157 L119.854446,127.505535 C119.852105,123.087258 123.431929,119.503639 127.850207,119.501299 C127.853031,119.501297 127.855856,119.501297 127.85868,119.501299 Z" id="path-1"></path>
        <radialGradient cx="30.8022814%" cy="20.38177%" fx="30.8022814%" fy="20.38177%" r="56.983779%" gradientTransform="translate(0.308023,0.203818),scale(0.998997,1.000000),rotate(41.911536),scale(1.000000,0.710067),translate(-0.308023,-0.203818)" id="radialGradient-3">
            <stop stop-color="#F38E86" offset="0%"></stop>
            <stop stop-color="#FEE0D4" offset="100%"></stop>
        </radialGradient>
        <radialGradient cx="76.2730683%" cy="48.0351422%" fx="76.2730683%" fy="48.0351422%" r="88.2379983%" gradientTransform="translate(0.762731,0.480351),scale(0.998997,1.000000),rotate(39.801833),scale(1.000000,0.710067),translate(-0.762731,-0.480351)" id="radialGradient-4">
            <stop stop-color="#F38E86" offset="0%"></stop>
            <stop stop-color="#FEE0D4" offset="100%"></stop>
        </radialGradient>
    </defs>
    <g id="Page-1" stroke="none" stroke-width="1" fill="none" fill-rule="evenodd">
        <g id="Final-design" transform="translate(-919.000000, -3838.000000)">
            <g id="SECOND-CTA" transform="translate(0.000000, 3626.000000)">
                <g id="background-items" transform="translate(710.000000, 0.415398)">
                    <rect id="Rectangle-Copy-24" stroke="#FEE0D4" stroke-width="3" transform="translate(377.500000, 910.084602) rotate(124.000000) translate(-377.500000, -910.084602) " x="366.5" y="899.084602" width="22" height="22"></rect>
                    <rect id="Rectangle-Copy-4" fill="#FEE0D4" transform="translate(425.000000, 710.584602) rotate(-56.000000) translate(-425.000000, -710.584602) " x="403" y="688.584602" width="44" height="44"></rect>
                    <polygon id="Triangle-Copy-27" fill="#FEE0D4" transform="translate(430.500000, 793.084602) rotate(-68.000000) translate(-430.500000, -793.084602) " points="430.5 780.584602 443 805.584602 418 805.584602"></polygon>
                    <g id="Group-6" opacity="0.17" transform="translate(605.500000, 605.584602) rotate(142.000000) translate(-605.500000, -605.584602) translate(174.000000, 174.584602)">
                        <mask id="mask-2" fill="white">
                            <use xlink:href="#path-1"></use>
                        </mask>
                        <use id="Mask" fill="#FCF8EF" transform="translate(431.500000, 431.000000) rotate(-33.000000) translate(-431.500000, -431.000000) " xlink:href="#path-1"></use>
                        <path d="M-223.433601,251.241691 L343.172837,251.405842 C347.589303,251.411761 351.169237,254.991694 351.175157,259.40816 L351.339304,825.429903 C351.345221,829.84818 347.764538,833.43094 343.34626,833.432221 C343.344714,833.432222 343.343169,833.432222 343.341624,833.427585 L-223.264814,833.263434 C-227.681279,833.257515 -231.261214,829.677582 -231.267133,825.261116 L-231.43128,259.239373 C-231.437198,254.821096 -227.856515,251.238336 -223.438237,251.237055 C-223.436691,251.237054 -223.435145,251.237054 -223.433601,251.241691 Z" id="Rectangle-Copy-10" fill="url(#radialGradient-3)" opacity="0.117164249" mask="url(#mask-2)" transform="translate(59.954012, 542.334638) rotate(-15.000000) translate(-59.954012, -542.334638) "></path>
                        <path d="M636.336714,222.716741 L1089.79929,222.585368 C1094.21757,222.579452 1097.80033,226.160136 1097.80161,230.578414 C1097.80161,230.57996 1097.80161,230.581506 1097.79697,230.58305 L1097.66561,683.574484 C1097.65969,687.99095 1094.07975,691.570883 1089.66329,691.576802 L636.200707,691.708174 C631.78243,691.71409 628.199671,688.133406 628.198391,683.715128 C628.19839,683.713582 628.19839,683.712037 628.203027,683.710492 L628.334395,230.719058 C628.340315,226.302592 631.920249,222.722659 636.336714,222.716741 Z" id="Rectangle-Copy-16" fill="url(#radialGradient-4)" mask="url(#mask-2)" transform="translate(863.000000, 457.146771) rotate(15.000000) translate(-863.000000, -457.146771) "></path>
                    </g>
                    <path d="M691.5,856.584602 C692.328427,856.584602 693,857.256175 693,858.084602 C693,858.91303 692.328427,859.584602 691.5,859.584602 C690.671573,859.584602 690,858.91303 690,858.084602 C690,857.256175 690.671573,856.584602 691.5,856.584602 Z M678.5,856.584602 C679.328427,856.584602 680,857.256175 680,858.084602 C680,858.91303 679.328427,859.584602 678.5,859.584602 C677.671573,859.584602 677,858.91303 677,858.084602 C677,857.256175 677.671573,856.584602 678.5,856.584602 Z M665.5,856.584602 C666.328427,856.584602 667,857.256175 667,858.084602 C667,858.91303 666.328427,859.584602 665.5,859.584602 C664.671573,859.584602 664,858.91303 664,858.084602 C664,857.256175 664.671573,856.584602 665.5,856.584602 Z M652.5,856.584602 C653.328427,856.584602 654,857.256175 654,858.084602 C654,858.91303 653.328427,859.584602 652.5,859.584602 C651.671573,859.584602 651,858.91303 651,858.084602 C651,857.256175 651.671573,856.584602 652.5,856.584602 Z M639.5,856.584602 C640.328427,856.584602 641,857.256175 641,858.084602 C641,858.91303 640.328427,859.584602 639.5,859.584602 C638.671573,859.584602 638,858.91303 638,858.084602 C638,857.256175 638.671573,856.584602 639.5,856.584602 Z M626.5,856.584602 C627.328427,856.584602 628,857.256175 628,858.084602 C628,858.91303 627.328427,859.584602 626.5,859.584602 C625.671573,859.584602 625,858.91303 625,858.084602 C625,857.256175 625.671573,856.584602 626.5,856.584602 Z M613.5,856.584602 C614.328427,856.584602 615,857.256175 615,858.084602 C615,858.91303 614.328427,859.584602 613.5,859.584602 C612.671573,859.584602 612,858.91303 612,858.084602 C612,857.256175 612.671573,856.584602 613.5,856.584602 Z M600.5,856.584602 C601.328427,856.584602 602,857.256175 602,858.084602 C602,858.91303 601.328427,859.584602 600.5,859.584602 C599.671573,859.584602 599,858.91303 599,858.084602 C599,857.256175 599.671573,856.584602 600.5,856.584602 Z M587.5,856.584602 C588.328427,856.584602 589,857.256175 589,858.084602 C589,858.91303 588.328427,859.584602 587.5,859.584602 C586.671573,859.584602 586,858.91303 586,858.084602 C586,857.256175 586.671573,856.584602 587.5,856.584602 Z M574.5,856.584602 C575.328427,856.584602 576,857.256175 576,858.084602 C576,858.91303 575.328427,859.584602 574.5,859.584602 C573.671573,859.584602 573,858.91303 573,858.084602 C573,857.256175 573.671573,856.584602 574.5,856.584602 Z M561.5,856.584602 C562.328427,856.584602 563,857.256175 563,858.084602 C563,858.91303 562.328427,859.584602 561.5,859.584602 C560.671573,859.584602 560,858.91303 560,858.084602 C560,857.256175 560.671573,856.584602 561.5,856.584602 Z M548.5,856.584602 C549.328427,856.584602 550,857.256175 550,858.084602 C550,858.91303 549.328427,859.584602 548.5,859.584602 C547.671573,859.584602 547,858.91303 547,858.084602 C547,857.256175 547.671573,856.584602 548.5,856.584602 Z M535.5,856.584602 C536.328427,856.584602 537,857.256175 537,858.084602 C537,858.91303 536.328427,859.584602 535.5,859.584602 C534.671573,859.584602 534,858.91303 534,858.084602 C534,857.256175 534.671573,856.584602 535.5,856.584602 Z M522.5,856.584602 C523.328427,856.584602 524,857.256175 524,858.084602 C524,858.91303 523.328427,859.584602 522.5,859.584602 C521.671573,859.584602 521,858.91303 521,858.084602 C521,857.256175 521.671573,856.584602 522.5,856.584602 Z M509.5,856.584602 C510.328427,856.584602 511,857.256175 511,858.084602 C511,858.91303 510.328427,859.584602 509.5,859.584602 C508.671573,859.584602 508,858.91303 508,858.084602 C508,857.256175 508.671573,856.584602 509.5,856.584602 Z M691.5,843.584602 C692.328427,843.584602 693,844.256175 693,845.084602 C693,845.91303 692.328427,846.584602 691.5,846.584602 C690.671573,846.584602 690,845.91303 690,845.084602 C690,844.256175 690.671573,843.584602 691.5,843.584602 Z M678.5,843.584602 C679.328427,843.584602 680,844.256175 680,845.084602 C680,845.91303 679.328427,846.584602 678.5,846.584602 C677.671573,846.584602 677,845.91303 677,845.084602 C677,844.256175 677.671573,843.584602 678.5,843.584602 Z M665.5,843.584602 C666.328427,843.584602 667,844.256175 667,845.084602 C667,845.91303 666.328427,846.584602 665.5,846.584602 C664.671573,846.584602 664,845.91303 664,845.084602 C664,844.256175 664.671573,843.584602 665.5,843.584602 Z M652.5,843.584602 C653.328427,843.584602 654,844.256175 654,845.084602 C654,845.91303 653.328427,846.584602 652.5,846.584602 C651.671573,846.584602 651,845.91303 651,845.084602 C651,844.256175 651.671573,843.584602 652.5,843.584602 Z M639.5,843.584602 C640.328427,843.584602 641,844.256175 641,845.084602 C641,845.91303 640.328427,846.584602 639.5,846.584602 C638.671573,846.584602 638,845.91303 638,845.084602 C638,844.256175 638.671573,843.584602 639.5,843.584602 Z M626.5,843.584602 C627.328427,843.584602 628,844.256175 628,845.084602 C628,845.91303 627.328427,846.584602 626.5,846.584602 C625.671573,846.584602 625,845.91303 625,845.084602 C625,844.256175 625.671573,843.584602 626.5,843.584602 Z M613.5,843.584602 C614.328427,843.584602 615,844.256175 615,845.084602 C615,845.91303 614.328427,846.584602 613.5,846.584602 C612.671573,846.584602 612,845.91303 612,845.084602 C612,844.256175 612.671573,843.584602 613.5,843.584602 Z M600.5,843.584602 C601.328427,843.584602 602,844.256175 602,845.084602 C602,845.91303 601.328427,846.584602 600.5,846.584602 C599.671573,846.584602 599,845.91303 599,845.084602 C599,844.256175 599.671573,843.584602 600.5,843.584602 Z M587.5,843.584602 C588.328427,843.584602 589,844.256175 589,845.084602 C589,845.91303 588.328427,846.584602 587.5,846.584602 C586.671573,846.584602 586,845.91303 586,845.084602 C586,844.256175 586.671573,843.584602 587.5,843.584602 Z M574.5,843.584602 C575.328427,843.584602 576,844.256175 576,845.084602 C576,845.91303 575.328427,846.584602 574.5,846.584602 C573.671573,846.584602 573,845.91303 573,845.084602 C573,844.256175 573.671573,843.584602 574.5,843.584602 Z M561.5,843.584602 C562.328427,843.584602 563,844.256175 563,845.084602 C563,845.91303 562.328427,846.584602 561.5,846.584602 C560.671573,846.584602 560,845.91303 560,845.084602 C560,844.256175 560.671573,843.584602 561.5,843.584602 Z M548.5,843.584602 C549.328427,843.584602 550,844.256175 550,845.084602 C550,845.91303 549.328427,846.584602 548.5,846.584602 C547.671573,846.584602 547,845.91303 547,845.084602 C547,844.256175 547.671573,843.584602 548.5,843.584602 Z M535.5,843.584602 C536.328427,843.584602 537,844.256175 537,845.084602 C537,845.91303 536.328427,846.584602 535.5,846.584602 C534.671573,846.584602 534,845.91303 534,845.084602 C534,844.256175 534.671573,843.584602 535.5,843.584602 Z M522.5,843.584602 C523.328427,843.584602 524,844.256175 524,845.084602 C524,845.91303 523.328427,846.584602 522.5,846.584602 C521.671573,846.584602 521,845.91303 521,845.084602 C521,844.256175 521.671573,843.584602 522.5,843.584602 Z M509.5,843.584602 C510.328427,843.584602 511,844.256175 511,845.084602 C511,845.91303 510.328427,846.584602 509.5,846.584602 C508.671573,846.584602 508,845.91303 508,845.084602 C508,844.256175 508.671573,843.584602 509.5,843.584602 Z M691.5,830.584602 C692.328427,830.584602 693,831.256175 693,832.084602 C693,832.91303 692.328427,833.584602 691.5,833.584602 C690.671573,833.584602 690,832.91303 690,832.084602 C690,831.256175 690.671573,830.584602 691.5,830.584602 Z M678.5,830.584602 C679.328427,830.584602 680,831.256175 680,832.084602 C680,832.91303 679.328427,833.584602 678.5,833.584602 C677.671573,833.584602 677,832.91303 677,832.084602 C677,831.256175 677.671573,830.584602 678.5,830.584602 Z M665.5,830.584602 C666.328427,830.584602 667,831.256175 667,832.084602 C667,832.91303 666.328427,833.584602 665.5,833.584602 C664.671573,833.584602 664,832.91303 664,832.084602 C664,831.256175 664.671573,830.584602 665.5,830.584602 Z M652.5,830.584602 C653.328427,830.584602 654,831.256175 654,832.084602 C654,832.91303 653.328427,833.584602 652.5,833.584602 C651.671573,833.584602 651,832.91303 651,832.084602 C651,831.256175 651.671573,830.584602 652.5,830.584602 Z M639.5,830.584602 C640.328427,830.584602 641,831.256175 641,832.084602 C641,832.91303 640.328427,833.584602 639.5,833.584602 C638.671573,833.584602 638,832.91303 638,832.084602 C638,831.256175 638.671573,830.584602 639.5,830.584602 Z M626.5,830.584602 C627.328427,830.584602 628,831.256175 628,832.084602 C628,832.91303 627.328427,833.584602 626.5,833.584602 C625.671573,833.584602 625,832.91303 625,832.084602 C625,831.256175 625.671573,830.584602 626.5,830.584602 Z M613.5,830.584602 C614.328427,830.584602 615,831.256175 615,832.084602 C615,832.91303 614.328427,833.584602 613.5,833.584602 C612.671573,833.584602 612,832.91303 612,832.084602 C612,831.256175 612.671573,830.584602 613.5,830.584602 Z M600.5,830.584602 C601.328427,830.584602 602,831.256175 602,832.084602 C602,832.91303 601.328427,833.584602 600.5,833.584602 C599.671573,833.584602 599,832.91303 599,832.084602 C599,831.256175 599.671573,830.584602 600.5,830.584602 Z M587.5,830.584602 C588.328427,830.584602 589,831.256175 589,832.084602 C589,832.91303 588.328427,833.584602 587.5,833.584602 C586.671573,833.584602 586,832.91303 586,832.084602 C586,831.256175 586.671573,830.584602 587.5,830.584602 Z M574.5,830.584602 C575.328427,830.584602 576,831.256175 576,832.084602 C576,832.91303 575.328427,833.584602 574.5,833.584602 C573.671573,833.584602 573,832.91303 573,832.084602 C573,831.256175 573.671573,830.584602 574.5,830.584602 Z M561.5,830.584602 C562.328427,830.584602 563,831.256175 563,832.084602 C563,832.91303 562.328427,833.584602 561.5,833.584602 C560.671573,833.584602 560,832.91303 560,832.084602 C560,831.256175 560.671573,830.584602 561.5,830.584602 Z M548.5,830.584602 C549.328427,830.584602 550,831.256175 550,832.084602 C550,832.91303 549.328427,833.584602 548.5,833.584602 C547.671573,833.584602 547,832.91303 547,832.084602 C547,831.256175 547.671573,830.584602 548.5,830.584602 Z M535.5,830.584602 C536.328427,830.584602 537,831.256175 537,832.084602 C537,832.91303 536.328427,833.584602 535.5,833.584602 C534.671573,833.584602 534,832.91303 534,832.084602 C534,831.256175 534.671573,830.584602 535.5,830.584602 Z M522.5,830.584602 C523.328427,830.584602 524,831.256175 524,832.084602 C524,832.91303 523.328427,833.584602 522.5,833.584602 C521.671573,833.584602 521,832.91303 521,832.084602 C521,831.256175 521.671573,830.584602 522.5,830.584602 Z M509.5,830.584602 C510.328427,830.584602 511,831.256175 511,832.084602 C511,832.91303 510.328427,833.584602 509.5,833.584602 C508.671573,833.584602 508,832.91303 508,832.084602 C508,831.256175 508.671573,830.584602 509.5,830.584602 Z M691.5,817.584602 C692.328427,817.584602 693,818.256175 693,819.084602 C693,819.91303 692.328427,820.584602 691.5,820.584602 C690.671573,820.584602 690,819.91303 690,819.084602 C690,818.256175 690.671573,817.584602 691.5,817.584602 Z M678.5,817.584602 C679.328427,817.584602 680,818.256175 680,819.084602 C680,819.91303 679.328427,820.584602 678.5,820.584602 C677.671573,820.584602 677,819.91303 677,819.084602 C677,818.256175 677.671573,817.584602 678.5,817.584602 Z M665.5,817.584602 C666.328427,817.584602 667,818.256175 667,819.084602 C667,819.91303 666.328427,820.584602 665.5,820.584602 C664.671573,820.584602 664,819.91303 664,819.084602 C664,818.256175 664.671573,817.584602 665.5,817.584602 Z M652.5,817.584602 C653.328427,817.584602 654,818.256175 654,819.084602 C654,819.91303 653.328427,820.584602 652.5,820.584602 C651.671573,820.584602 651,819.91303 651,819.084602 C651,818.256175 651.671573,817.584602 652.5,817.584602 Z M639.5,817.584602 C640.328427,817.584602 641,818.256175 641,819.084602 C641,819.91303 640.328427,820.584602 639.5,820.584602 C638.671573,820.584602 638,819.91303 638,819.084602 C638,818.256175 638.671573,817.584602 639.5,817.584602 Z M626.5,817.584602 C627.328427,817.584602 628,818.256175 628,819.084602 C628,819.91303 627.328427,820.584602 626.5,820.584602 C625.671573,820.584602 625,819.91303 625,819.084602 C625,818.256175 625.671573,817.584602 626.5,817.584602 Z M613.5,817.584602 C614.328427,817.584602 615,818.256175 615,819.084602 C615,819.91303 614.328427,820.584602 613.5,820.584602 C612.671573,820.584602 612,819.91303 612,819.084602 C612,818.256175 612.671573,817.584602 613.5,817.584602 Z M600.5,817.584602 C601.328427,817.584602 602,818.256175 602,819.084602 C602,819.91303 601.328427,820.584602 600.5,820.584602 C599.671573,820.584602 599,819.91303 599,819.084602 C599,818.256175 599.671573,817.584602 600.5,817.584602 Z M587.5,817.584602 C588.328427,817.584602 589,818.256175 589,819.084602 C589,819.91303 588.328427,820.584602 587.5,820.584602 C586.671573,820.584602 586,819.91303 586,819.084602 C586,818.256175 586.671573,817.584602 587.5,817.584602 Z M574.5,817.584602 C575.328427,817.584602 576,818.256175 576,819.084602 C576,819.91303 575.328427,820.584602 574.5,820.584602 C573.671573,820.584602 573,819.91303 573,819.084602 C573,818.256175 573.671573,817.584602 574.5,817.584602 Z M561.5,817.584602 C562.328427,817.584602 563,818.256175 563,819.084602 C563,819.91303 562.328427,820.584602 561.5,820.584602 C560.671573,820.584602 560,819.91303 560,819.084602 C560,818.256175 560.671573,817.584602 561.5,817.584602 Z M548.5,817.584602 C549.328427,817.584602 550,818.256175 550,819.084602 C550,819.91303 549.328427,820.584602 548.5,820.584602 C547.671573,820.584602 547,819.91303 547,819.084602 C547,818.256175 547.671573,817.584602 548.5,817.584602 Z M535.5,817.584602 C536.328427,817.584602 537,818.256175 537,819.084602 C537,819.91303 536.328427,820.584602 535.5,820.584602 C534.671573,820.584602 534,819.91303 534,819.084602 C534,818.256175 534.671573,817.584602 535.5,817.584602 Z M522.5,817.584602 C523.328427,817.584602 524,818.256175 524,819.084602 C524,819.91303 523.328427,820.584602 522.5,820.584602 C521.671573,820.584602 521,819.91303 521,819.084602 C521,818.256175 521.671573,817.584602 522.5,817.584602 Z M509.5,817.584602 C510.328427,817.584602 511,818.256175 511,819.084602 C511,819.91303 510.328427,820.584602 509.5,820.584602 C508.671573,820.584602 508,819.91303 508,819.084602 C508,818.256175 508.671573,817.584602 509.5,817.584602 Z M691.5,804.584602 C692.328427,804.584602 693,805.256175 693,806.084602 C693,806.91303 692.328427,807.584602 691.5,807.584602 C690.671573,807.584602 690,806.91303 690,806.084602 C690,805.256175 690.671573,804.584602 691.5,804.584602 Z M678.5,804.584602 C679.328427,804.584602 680,805.256175 680,806.084602 C680,806.91303 679.328427,807.584602 678.5,807.584602 C677.671573,807.584602 677,806.91303 677,806.084602 C677,805.256175 677.671573,804.584602 678.5,804.584602 Z M665.5,804.584602 C666.328427,804.584602 667,805.256175 667,806.084602 C667,806.91303 666.328427,807.584602 665.5,807.584602 C664.671573,807.584602 664,806.91303 664,806.084602 C664,805.256175 664.671573,804.584602 665.5,804.584602 Z M652.5,804.584602 C653.328427,804.584602 654,805.256175 654,806.084602 C654,806.91303 653.328427,807.584602 652.5,807.584602 C651.671573,807.584602 651,806.91303 651,806.084602 C651,805.256175 651.671573,804.584602 652.5,804.584602 Z M639.5,804.584602 C640.328427,804.584602 641,805.256175 641,806.084602 C641,806.91303 640.328427,807.584602 639.5,807.584602 C638.671573,807.584602 638,806.91303 638,806.084602 C638,805.256175 638.671573,804.584602 639.5,804.584602 Z M626.5,804.584602 C627.328427,804.584602 628,805.256175 628,806.084602 C628,806.91303 627.328427,807.584602 626.5,807.584602 C625.671573,807.584602 625,806.91303 625,806.084602 C625,805.256175 625.671573,804.584602 626.5,804.584602 Z M613.5,804.584602 C614.328427,804.584602 615,805.256175 615,806.084602 C615,806.91303 614.328427,807.584602 613.5,807.584602 C612.671573,807.584602 612,806.91303 612,806.084602 C612,805.256175 612.671573,804.584602 613.5,804.584602 Z M600.5,804.584602 C601.328427,804.584602 602,805.256175 602,806.084602 C602,806.91303 601.328427,807.584602 600.5,807.584602 C599.671573,807.584602 599,806.91303 599,806.084602 C599,805.256175 599.671573,804.584602 600.5,804.584602 Z M587.5,804.584602 C588.328427,804.584602 589,805.256175 589,806.084602 C589,806.91303 588.328427,807.584602 587.5,807.584602 C586.671573,807.584602 586,806.91303 586,806.084602 C586,805.256175 586.671573,804.584602 587.5,804.584602 Z M574.5,804.584602 C575.328427,804.584602 576,805.256175 576,806.084602 C576,806.91303 575.328427,807.584602 574.5,807.584602 C573.671573,807.584602 573,806.91303 573,806.084602 C573,805.256175 573.671573,804.584602 574.5,804.584602 Z M561.5,804.584602 C562.328427,804.584602 563,805.256175 563,806.084602 C563,806.91303 562.328427,807.584602 561.5,807.584602 C560.671573,807.584602 560,806.91303 560,806.084602 C560,805.256175 560.671573,804.584602 561.5,804.584602 Z M548.5,804.584602 C549.328427,804.584602 550,805.256175 550,806.084602 C550,806.91303 549.328427,807.584602 548.5,807.584602 C547.671573,807.584602 547,806.91303 547,806.084602 C547,805.256175 547.671573,804.584602 548.5,804.584602 Z M535.5,804.584602 C536.328427,804.584602 537,805.256175 537,806.084602 C537,806.91303 536.328427,807.584602 535.5,807.584602 C534.671573,807.584602 534,806.91303 534,806.084602 C534,805.256175 534.671573,804.584602 535.5,804.584602 Z M522.5,804.584602 C523.328427,804.584602 524,805.256175 524,806.084602 C524,806.91303 523.328427,807.584602 522.5,807.584602 C521.671573,807.584602 521,806.91303 521,806.084602 C521,805.256175 521.671573,804.584602 522.5,804.584602 Z M509.5,804.584602 C510.328427,804.584602 511,805.256175 511,806.084602 C511,806.91303 510.328427,807.584602 509.5,807.584602 C508.671573,807.584602 508,806.91303 508,806.084602 C508,805.256175 508.671573,804.584602 509.5,804.584602 Z M691.5,791.584602 C692.328427,791.584602 693,792.256175 693,793.084602 C693,793.91303 692.328427,794.584602 691.5,794.584602 C690.671573,794.584602 690,793.91303 690,793.084602 C690,792.256175 690.671573,791.584602 691.5,791.584602 Z M678.5,791.584602 C679.328427,791.584602 680,792.256175 680,793.084602 C680,793.91303 679.328427,794.584602 678.5,794.584602 C677.671573,794.584602 677,793.91303 677,793.084602 C677,792.256175 677.671573,791.584602 678.5,791.584602 Z M665.5,791.584602 C666.328427,791.584602 667,792.256175 667,793.084602 C667,793.91303 666.328427,794.584602 665.5,794.584602 C664.671573,794.584602 664,793.91303 664,793.084602 C664,792.256175 664.671573,791.584602 665.5,791.584602 Z M652.5,791.584602 C653.328427,791.584602 654,792.256175 654,793.084602 C654,793.91303 653.328427,794.584602 652.5,794.584602 C651.671573,794.584602 651,793.91303 651,793.084602 C651,792.256175 651.671573,791.584602 652.5,791.584602 Z M639.5,791.584602 C640.328427,791.584602 641,792.256175 641,793.084602 C641,793.91303 640.328427,794.584602 639.5,794.584602 C638.671573,794.584602 638,793.91303 638,793.084602 C638,792.256175 638.671573,791.584602 639.5,791.584602 Z M626.5,791.584602 C627.328427,791.584602 628,792.256175 628,793.084602 C628,793.91303 627.328427,794.584602 626.5,794.584602 C625.671573,794.584602 625,793.91303 625,793.084602 C625,792.256175 625.671573,791.584602 626.5,791.584602 Z M613.5,791.584602 C614.328427,791.584602 615,792.256175 615,793.084602 C615,793.91303 614.328427,794.584602 613.5,794.584602 C612.671573,794.584602 612,793.91303 612,793.084602 C612,792.256175 612.671573,791.584602 613.5,791.584602 Z M600.5,791.584602 C601.328427,791.584602 602,792.256175 602,793.084602 C602,793.91303 601.328427,794.584602 600.5,794.584602 C599.671573,794.584602 599,793.91303 599,793.084602 C599,792.256175 599.671573,791.584602 600.5,791.584602 Z M587.5,791.584602 C588.328427,791.584602 589,792.256175 589,793.084602 C589,793.91303 588.328427,794.584602 587.5,794.584602 C586.671573,794.584602 586,793.91303 586,793.084602 C586,792.256175 586.671573,791.584602 587.5,791.584602 Z M574.5,791.584602 C575.328427,791.584602 576,792.256175 576,793.084602 C576,793.91303 575.328427,794.584602 574.5,794.584602 C573.671573,794.584602 573,793.91303 573,793.084602 C573,792.256175 573.671573,791.584602 574.5,791.584602 Z M561.5,791.584602 C562.328427,791.584602 563,792.256175 563,793.084602 C563,793.91303 562.328427,794.584602 561.5,794.584602 C560.671573,794.584602 560,793.91303 560,793.084602 C560,792.256175 560.671573,791.584602 561.5,791.584602 Z M548.5,791.584602 C549.328427,791.584602 550,792.256175 550,793.084602 C550,793.91303 549.328427,794.584602 548.5,794.584602 C547.671573,794.584602 547,793.91303 547,793.084602 C547,792.256175 547.671573,791.584602 548.5,791.584602 Z M535.5,791.584602 C536.328427,791.584602 537,792.256175 537,793.084602 C537,793.91303 536.328427,794.584602 535.5,794.584602 C534.671573,794.584602 534,793.91303 534,793.084602 C534,792.256175 534.671573,791.584602 535.5,791.584602 Z M522.5,791.584602 C523.328427,791.584602 524,792.256175 524,793.084602 C524,793.91303 523.328427,794.584602 522.5,794.584602 C521.671573,794.584602 521,793.91303 521,793.084602 C521,792.256175 521.671573,791.584602 522.5,791.584602 Z M509.5,791.584602 C510.328427,791.584602 511,792.256175 511,793.084602 C511,793.91303 510.328427,794.584602 509.5,794.584602 C508.671573,794.584602 508,793.91303 508,793.084602 C508,792.256175 508.671573,791.584602 509.5,791.584602 Z M691.5,778.584602 C692.328427,778.584602 693,779.256175 693,780.084602 C693,780.91303 692.328427,781.584602 691.5,781.584602 C690.671573,781.584602 690,780.91303 690,780.084602 C690,779.256175 690.671573,778.584602 691.5,778.584602 Z M678.5,778.584602 C679.328427,778.584602 680,779.256175 680,780.084602 C680,780.91303 679.328427,781.584602 678.5,781.584602 C677.671573,781.584602 677,780.91303 677,780.084602 C677,779.256175 677.671573,778.584602 678.5,778.584602 Z M665.5,778.584602 C666.328427,778.584602 667,779.256175 667,780.084602 C667,780.91303 666.328427,781.584602 665.5,781.584602 C664.671573,781.584602 664,780.91303 664,780.084602 C664,779.256175 664.671573,778.584602 665.5,778.584602 Z M652.5,778.584602 C653.328427,778.584602 654,779.256175 654,780.084602 C654,780.91303 653.328427,781.584602 652.5,781.584602 C651.671573,781.584602 651,780.91303 651,780.084602 C651,779.256175 651.671573,778.584602 652.5,778.584602 Z M639.5,778.584602 C640.328427,778.584602 641,779.256175 641,780.084602 C641,780.91303 640.328427,781.584602 639.5,781.584602 C638.671573,781.584602 638,780.91303 638,780.084602 C638,779.256175 638.671573,778.584602 639.5,778.584602 Z M626.5,778.584602 C627.328427,778.584602 628,779.256175 628,780.084602 C628,780.91303 627.328427,781.584602 626.5,781.584602 C625.671573,781.584602 625,780.91303 625,780.084602 C625,779.256175 625.671573,778.584602 626.5,778.584602 Z M613.5,778.584602 C614.328427,778.584602 615,779.256175 615,780.084602 C615,780.91303 614.328427,781.584602 613.5,781.584602 C612.671573,781.584602 612,780.91303 612,780.084602 C612,779.256175 612.671573,778.584602 613.5,778.584602 Z M600.5,778.584602 C601.328427,778.584602 602,779.256175 602,780.084602 C602,780.91303 601.328427,781.584602 600.5,781.584602 C599.671573,781.584602 599,780.91303 599,780.084602 C599,779.256175 599.671573,778.584602 600.5,778.584602 Z M587.5,778.584602 C588.328427,778.584602 589,779.256175 589,780.084602 C589,780.91303 588.328427,781.584602 587.5,781.584602 C586.671573,781.584602 586,780.91303 586,780.084602 C586,779.256175 586.671573,778.584602 587.5,778.584602 Z M574.5,778.584602 C575.328427,778.584602 576,779.256175 576,780.084602 C576,780.91303 575.328427,781.584602 574.5,781.584602 C573.671573,781.584602 573,780.91303 573,780.084602 C573,779.256175 573.671573,778.584602 574.5,778.584602 Z M561.5,778.584602 C562.328427,778.584602 563,779.256175 563,780.084602 C563,780.91303 562.328427,781.584602 561.5,781.584602 C560.671573,781.584602 560,780.91303 560,780.084602 C560,779.256175 560.671573,778.584602 561.5,778.584602 Z M548.5,778.584602 C549.328427,778.584602 550,779.256175 550,780.084602 C550,780.91303 549.328427,781.584602 548.5,781.584602 C547.671573,781.584602 547,780.91303 547,780.084602 C547,779.256175 547.671573,778.584602 548.5,778.584602 Z M535.5,778.584602 C536.328427,778.584602 537,779.256175 537,780.084602 C537,780.91303 536.328427,781.584602 535.5,781.584602 C534.671573,781.584602 534,780.91303 534,780.084602 C534,779.256175 534.671573,778.584602 535.5,778.584602 Z M522.5,778.584602 C523.328427,778.584602 524,779.256175 524,780.084602 C524,780.91303 523.328427,781.584602 522.5,781.584602 C521.671573,781.584602 521,780.91303 521,780.084602 C521,779.256175 521.671573,778.584602 522.5,778.584602 Z M509.5,778.584602 C510.328427,778.584602 511,779.256175 511,780.084602 C511,780.91303 510.328427,781.584602 509.5,781.584602 C508.671573,781.584602 508,780.91303 508,780.084602 C508,779.256175 508.671573,778.584602 509.5,778.584602 Z M691.5,765.584602 C692.328427,765.584602 693,766.256175 693,767.084602 C693,767.91303 692.328427,768.584602 691.5,768.584602 C690.671573,768.584602 690,767.91303 690,767.084602 C690,766.256175 690.671573,765.584602 691.5,765.584602 Z M678.5,765.584602 C679.328427,765.584602 680,766.256175 680,767.084602 C680,767.91303 679.328427,768.584602 678.5,768.584602 C677.671573,768.584602 677,767.91303 677,767.084602 C677,766.256175 677.671573,765.584602 678.5,765.584602 Z M665.5,765.584602 C666.328427,765.584602 667,766.256175 667,767.084602 C667,767.91303 666.328427,768.584602 665.5,768.584602 C664.671573,768.584602 664,767.91303 664,767.084602 C664,766.256175 664.671573,765.584602 665.5,765.584602 Z M652.5,765.584602 C653.328427,765.584602 654,766.256175 654,767.084602 C654,767.91303 653.328427,768.584602 652.5,768.584602 C651.671573,768.584602 651,767.91303 651,767.084602 C651,766.256175 651.671573,765.584602 652.5,765.584602 Z M639.5,765.584602 C640.328427,765.584602 641,766.256175 641,767.084602 C641,767.91303 640.328427,768.584602 639.5,768.584602 C638.671573,768.584602 638,767.91303 638,767.084602 C638,766.256175 638.671573,765.584602 639.5,765.584602 Z M626.5,765.584602 C627.328427,765.584602 628,766.256175 628,767.084602 C628,767.91303 627.328427,768.584602 626.5,768.584602 C625.671573,768.584602 625,767.91303 625,767.084602 C625,766.256175 625.671573,765.584602 626.5,765.584602 Z M613.5,765.584602 C614.328427,765.584602 615,766.256175 615,767.084602 C615,767.91303 614.328427,768.584602 613.5,768.584602 C612.671573,768.584602 612,767.91303 612,767.084602 C612,766.256175 612.671573,765.584602 613.5,765.584602 Z M600.5,765.584602 C601.328427,765.584602 602,766.256175 602,767.084602 C602,767.91303 601.328427,768.584602 600.5,768.584602 C599.671573,768.584602 599,767.91303 599,767.084602 C599,766.256175 599.671573,765.584602 600.5,765.584602 Z M587.5,765.584602 C588.328427,765.584602 589,766.256175 589,767.084602 C589,767.91303 588.328427,768.584602 587.5,768.584602 C586.671573,768.584602 586,767.91303 586,767.084602 C586,766.256175 586.671573,765.584602 587.5,765.584602 Z M574.5,765.584602 C575.328427,765.584602 576,766.256175 576,767.084602 C576,767.91303 575.328427,768.584602 574.5,768.584602 C573.671573,768.584602 573,767.91303 573,767.084602 C573,766.256175 573.671573,765.584602 574.5,765.584602 Z M561.5,765.584602 C562.328427,765.584602 563,766.256175 563,767.084602 C563,767.91303 562.328427,768.584602 561.5,768.584602 C560.671573,768.584602 560,767.91303 560,767.084602 C560,766.256175 560.671573,765.584602 561.5,765.584602 Z M548.5,765.584602 C549.328427,765.584602 550,766.256175 550,767.084602 C550,767.91303 549.328427,768.584602 548.5,768.584602 C547.671573,768.584602 547,767.91303 547,767.084602 C547,766.256175 547.671573,765.584602 548.5,765.584602 Z M535.5,765.584602 C536.328427,765.584602 537,766.256175 537,767.084602 C537,767.91303 536.328427,768.584602 535.5,768.584602 C534.671573,768.584602 534,767.91303 534,767.084602 C534,766.256175 534.671573,765.584602 535.5,765.584602 Z M522.5,765.584602 C523.328427,765.584602 524,766.256175 524,767.084602 C524,767.91303 523.328427,768.584602 522.5,768.584602 C521.671573,768.584602 521,767.91303 521,767.084602 C521,766.256175 521.671573,765.584602 522.5,765.584602 Z M509.5,765.584602 C510.328427,765.584602 511,766.256175 511,767.084602 C511,767.91303 510.328427,768.584602 509.5,768.584602 C508.671573,768.584602 508,767.91303 508,767.084602 C508,766.256175 508.671573,765.584602 509.5,765.584602 Z M691.5,752.584602 C692.328427,752.584602 693,753.256175 693,754.084602 C693,754.91303 692.328427,755.584602 691.5,755.584602 C690.671573,755.584602 690,754.91303 690,754.084602 C690,753.256175 690.671573,752.584602 691.5,752.584602 Z M678.5,752.584602 C679.328427,752.584602 680,753.256175 680,754.084602 C680,754.91303 679.328427,755.584602 678.5,755.584602 C677.671573,755.584602 677,754.91303 677,754.084602 C677,753.256175 677.671573,752.584602 678.5,752.584602 Z M665.5,752.584602 C666.328427,752.584602 667,753.256175 667,754.084602 C667,754.91303 666.328427,755.584602 665.5,755.584602 C664.671573,755.584602 664,754.91303 664,754.084602 C664,753.256175 664.671573,752.584602 665.5,752.584602 Z M652.5,752.584602 C653.328427,752.584602 654,753.256175 654,754.084602 C654,754.91303 653.328427,755.584602 652.5,755.584602 C651.671573,755.584602 651,754.91303 651,754.084602 C651,753.256175 651.671573,752.584602 652.5,752.584602 Z M639.5,752.584602 C640.328427,752.584602 641,753.256175 641,754.084602 C641,754.91303 640.328427,755.584602 639.5,755.584602 C638.671573,755.584602 638,754.91303 638,754.084602 C638,753.256175 638.671573,752.584602 639.5,752.584602 Z M626.5,752.584602 C627.328427,752.584602 628,753.256175 628,754.084602 C628,754.91303 627.328427,755.584602 626.5,755.584602 C625.671573,755.584602 625,754.91303 625,754.084602 C625,753.256175 625.671573,752.584602 626.5,752.584602 Z M613.5,752.584602 C614.328427,752.584602 615,753.256175 615,754.084602 C615,754.91303 614.328427,755.584602 613.5,755.584602 C612.671573,755.584602 612,754.91303 612,754.084602 C612,753.256175 612.671573,752.584602 613.5,752.584602 Z M600.5,752.584602 C601.328427,752.584602 602,753.256175 602,754.084602 C602,754.91303 601.328427,755.584602 600.5,755.584602 C599.671573,755.584602 599,754.91303 599,754.084602 C599,753.256175 599.671573,752.584602 600.5,752.584602 Z M587.5,752.584602 C588.328427,752.584602 589,753.256175 589,754.084602 C589,754.91303 588.328427,755.584602 587.5,755.584602 C586.671573,755.584602 586,754.91303 586,754.084602 C586,753.256175 586.671573,752.584602 587.5,752.584602 Z M574.5,752.584602 C575.328427,752.584602 576,753.256175 576,754.084602 C576,754.91303 575.328427,755.584602 574.5,755.584602 C573.671573,755.584602 573,754.91303 573,754.084602 C573,753.256175 573.671573,752.584602 574.5,752.584602 Z M561.5,752.584602 C562.328427,752.584602 563,753.256175 563,754.084602 C563,754.91303 562.328427,755.584602 561.5,755.584602 C560.671573,755.584602 560,754.91303 560,754.084602 C560,753.256175 560.671573,752.584602 561.5,752.584602 Z M548.5,752.584602 C549.328427,752.584602 550,753.256175 550,754.084602 C550,754.91303 549.328427,755.584602 548.5,755.584602 C547.671573,755.584602 547,754.91303 547,754.084602 C547,753.256175 547.671573,752.584602 548.5,752.584602 Z M535.5,752.584602 C536.328427,752.584602 537,753.256175 537,754.084602 C537,754.91303 536.328427,755.584602 535.5,755.584602 C534.671573,755.584602 534,754.91303 534,754.084602 C534,753.256175 534.671573,752.584602 535.5,752.584602 Z M522.5,752.584602 C523.328427,752.584602 524,753.256175 524,754.084602 C524,754.91303 523.328427,755.584602 522.5,755.584602 C521.671573,755.584602 521,754.91303 521,754.084602 C521,753.256175 521.671573,752.584602 522.5,752.584602 Z M509.5,752.584602 C510.328427,752.584602 511,753.256175 511,754.084602 C511,754.91303 510.328427,755.584602 509.5,755.584602 C508.671573,755.584602 508,754.91303 508,754.084602 C508,753.256175 508.671573,752.584602 509.5,752.584602 Z M522.5,739.584602 C523.328427,739.584602 524,740.256175 524,741.084602 C524,741.91303 523.328427,742.584602 522.5,742.584602 C521.671573,742.584602 521,741.91303 521,741.084602 C521,740.256175 521.671573,739.584602 522.5,739.584602 Z M509.5,739.584602 C510.328427,739.584602 511,740.256175 511,741.084602 C511,741.91303 510.328427,742.584602 509.5,742.584602 C508.671573,742.584602 508,741.91303 508,741.084602 C508,740.256175 508.671573,739.584602 509.5,739.584602 Z M691.5,739.584602 C692.328427,739.584602 693,740.256175 693,741.084602 C693,741.91303 692.328427,742.584602 691.5,742.584602 C690.671573,742.584602 690,741.91303 690,741.084602 C690,740.256175 690.671573,739.584602 691.5,739.584602 Z M678.5,739.584602 C679.328427,739.584602 680,740.256175 680,741.084602 C680,741.91303 679.328427,742.584602 678.5,742.584602 C677.671573,742.584602 677,741.91303 677,741.084602 C677,740.256175 677.671573,739.584602 678.5,739.584602 Z M665.5,739.584602 C666.328427,739.584602 667,740.256175 667,741.084602 C667,741.91303 666.328427,742.584602 665.5,742.584602 C664.671573,742.584602 664,741.91303 664,741.084602 C664,740.256175 664.671573,739.584602 665.5,739.584602 Z M652.5,739.584602 C653.328427,739.584602 654,740.256175 654,741.084602 C654,741.91303 653.328427,742.584602 652.5,742.584602 C651.671573,742.584602 651,741.91303 651,741.084602 C651,740.256175 651.671573,739.584602 652.5,739.584602 Z M639.5,739.584602 C640.328427,739.584602 641,740.256175 641,741.084602 C641,741.91303 640.328427,742.584602 639.5,742.584602 C638.671573,742.584602 638,741.91303 638,741.084602 C638,740.256175 638.671573,739.584602 639.5,739.584602 Z M626.5,739.584602 C627.328427,739.584602 628,740.256175 628,741.084602 C628,741.91303 627.328427,742.584602 626.5,742.584602 C625.671573,742.584602 625,741.91303 625,741.084602 C625,740.256175 625.671573,739.584602 626.5,739.584602 Z M613.5,739.584602 C614.328427,739.584602 615,740.256175 615,741.084602 C615,741.91303 614.328427,742.584602 613.5,742.584602 C612.671573,742.584602 612,741.91303 612,741.084602 C612,740.256175 612.671573,739.584602 613.5,739.584602 Z M600.5,739.584602 C601.328427,739.584602 602,740.256175 602,741.084602 C602,741.91303 601.328427,742.584602 600.5,742.584602 C599.671573,742.584602 599,741.91303 599,741.084602 C599,740.256175 599.671573,739.584602 600.5,739.584602 Z M587.5,739.584602 C588.328427,739.584602 589,740.256175 589,741.084602 C589,741.91303 588.328427,742.584602 587.5,742.584602 C586.671573,742.584602 586,741.91303 586,741.084602 C586,740.256175 586.671573,739.584602 587.5,739.584602 Z M574.5,739.584602 C575.328427,739.584602 576,740.256175 576,741.084602 C576,741.91303 575.328427,742.584602 574.5,742.584602 C573.671573,742.584602 573,741.91303 573,741.084602 C573,740.256175 573.671573,739.584602 574.5,739.584602 Z M561.5,739.584602 C562.328427,739.584602 563,740.256175 563,741.084602 C563,741.91303 562.328427,742.584602 561.5,742.584602 C560.671573,742.584602 560,741.91303 560,741.084602 C560,740.256175 560.671573,739.584602 561.5,739.584602 Z M548.5,739.584602 C549.328427,739.584602 550,740.256175 550,741.084602 C550,741.91303 549.328427,742.584602 548.5,742.584602 C547.671573,742.584602 547,741.91303 547,741.084602 C547,740.256175 547.671573,739.584602 548.5,739.584602 Z M535.5,739.584602 C536.328427,739.584602 537,740.256175 537,741.084602 C537,741.91303 536.328427,742.584602 535.5,742.584602 C534.671573,742.584602 534,741.91303 534,741.084602 C534,740.256175 534.671573,739.584602 535.5,739.584602 Z M574.5,726.584602 C575.328427,726.584602 576,727.256175 576,728.084602 C576,728.91303 575.328427,729.584602 574.5,729.584602 C573.671573,729.584602 573,728.91303 573,728.084602 C573,727.256175 573.671573,726.584602 574.5,726.584602 Z M665.5,726.584602 C666.328427,726.584602 667,727.256175 667,728.084602 C667,728.91303 666.328427,729.584602 665.5,729.584602 C664.671573,729.584602 664,728.91303 664,728.084602 C664,727.256175 664.671573,726.584602 665.5,726.584602 Z M652.5,726.584602 C653.328427,726.584602 654,727.256175 654,728.084602 C654,728.91303 653.328427,729.584602 652.5,729.584602 C651.671573,729.584602 651,728.91303 651,728.084602 C651,727.256175 651.671573,726.584602 652.5,726.584602 Z M535.5,726.584602 C536.328427,726.584602 537,727.256175 537,728.084602 C537,728.91303 536.328427,729.584602 535.5,729.584602 C534.671573,729.584602 534,728.91303 534,728.084602 C534,727.256175 534.671573,726.584602 535.5,726.584602 Z M548.5,726.584602 C549.328427,726.584602 550,727.256175 550,728.084602 C550,728.91303 549.328427,729.584602 548.5,729.584602 C547.671573,729.584602 547,728.91303 547,728.084602 C547,727.256175 547.671573,726.584602 548.5,726.584602 Z M639.5,726.584602 C640.328427,726.584602 641,727.256175 641,728.084602 C641,728.91303 640.328427,729.584602 639.5,729.584602 C638.671573,729.584602 638,728.91303 638,728.084602 C638,727.256175 638.671573,726.584602 639.5,726.584602 Z M678.5,726.584602 C679.328427,726.584602 680,727.256175 680,728.084602 C680,728.91303 679.328427,729.584602 678.5,729.584602 C677.671573,729.584602 677,728.91303 677,728.084602 C677,727.256175 677.671573,726.584602 678.5,726.584602 Z M587.5,726.584602 C588.328427,726.584602 589,727.256175 589,728.084602 C589,728.91303 588.328427,729.584602 587.5,729.584602 C586.671573,729.584602 586,728.91303 586,728.084602 C586,727.256175 586.671573,726.584602 587.5,726.584602 Z M600.5,726.584602 C601.328427,726.584602 602,727.256175 602,728.084602 C602,728.91303 601.328427,729.584602 600.5,729.584602 C599.671573,729.584602 599,728.91303 599,728.084602 C599,727.256175 599.671573,726.584602 600.5,726.584602 Z M691.5,726.584602 C692.328427,726.584602 693,727.256175 693,728.084602 C693,728.91303 692.328427,729.584602 691.5,729.584602 C690.671573,729.584602 690,728.91303 690,728.084602 C690,727.256175 690.671573,726.584602 691.5,726.584602 Z M509.5,726.584602 C510.328427,726.584602 511,727.256175 511,728.084602 C511,728.91303 510.328427,729.584602 509.5,729.584602 C508.671573,729.584602 508,728.91303 508,728.084602 C508,727.256175 508.671573,726.584602 509.5,726.584602 Z M522.5,726.584602 C523.328427,726.584602 524,727.256175 524,728.084602 C524,728.91303 523.328427,729.584602 522.5,729.584602 C521.671573,729.584602 521,728.91303 521,728.084602 C521,727.256175 521.671573,726.584602 522.5,726.584602 Z M561.5,726.584602 C562.328427,726.584602 563,727.256175 563,728.084602 C563,728.91303 562.328427,729.584602 561.5,729.584602 C560.671573,729.584602 560,728.91303 560,728.084602 C560,727.256175 560.671573,726.584602 561.5,726.584602 Z M626.5,726.584602 C627.328427,726.584602 628,727.256175 628,728.084602 C628,728.91303 627.328427,729.584602 626.5,729.584602 C625.671573,729.584602 625,728.91303 625,728.084602 C625,727.256175 625.671573,726.584602 626.5,726.584602 Z M613.5,726.584602 C614.328427,726.584602 615,727.256175 615,728.084602 C615,728.91303 614.328427,729.584602 613.5,729.584602 C612.671573,729.584602 612,728.91303 612,728.084602 C612,727.256175 612.671573,726.584602 613.5,726.584602 Z M561.5,713.584602 C562.328427,713.584602 563,714.256175 563,715.084602 C563,715.91303 562.328427,716.584602 561.5,716.584602 C560.671573,716.584602 560,715.91303 560,715.084602 C560,714.256175 560.671573,713.584602 561.5,713.584602 Z M522.5,713.584602 C523.328427,713.584602 524,714.256175 524,715.084602 C524,715.91303 523.328427,716.584602 522.5,716.584602 C521.671573,716.584602 521,715.91303 521,715.084602 C521,714.256175 521.671573,713.584602 522.5,713.584602 Z M613.5,713.584602 C614.328427,713.584602 615,714.256175 615,715.084602 C615,715.91303 614.328427,716.584602 613.5,716.584602 C612.671573,716.584602 612,715.91303 612,715.084602 C612,714.256175 612.671573,713.584602 613.5,713.584602 Z M600.5,713.584602 C601.328427,713.584602 602,714.256175 602,715.084602 C602,715.91303 601.328427,716.584602 600.5,716.584602 C599.671573,716.584602 599,715.91303 599,715.084602 C599,714.256175 599.671573,713.584602 600.5,713.584602 Z M678.5,713.584602 C679.328427,713.584602 680,714.256175 680,715.084602 C680,715.91303 679.328427,716.584602 678.5,716.584602 C677.671573,716.584602 677,715.91303 677,715.084602 C677,714.256175 677.671573,713.584602 678.5,713.584602 Z M691.5,713.584602 C692.328427,713.584602 693,714.256175 693,715.084602 C693,715.91303 692.328427,716.584602 691.5,716.584602 C690.671573,716.584602 690,715.91303 690,715.084602 C690,714.256175 690.671573,713.584602 691.5,713.584602 Z M587.5,713.584602 C588.328427,713.584602 589,714.256175 589,715.084602 C589,715.91303 588.328427,716.584602 587.5,716.584602 C586.671573,716.584602 586,715.91303 586,715.084602 C586,714.256175 586.671573,713.584602 587.5,713.584602 Z M626.5,713.584602 C627.328427,713.584602 628,714.256175 628,715.084602 C628,715.91303 627.328427,716.584602 626.5,716.584602 C625.671573,716.584602 625,715.91303 625,715.084602 C625,714.256175 625.671573,713.584602 626.5,713.584602 Z M535.5,713.584602 C536.328427,713.584602 537,714.256175 537,715.084602 C537,715.91303 536.328427,716.584602 535.5,716.584602 C534.671573,716.584602 534,715.91303 534,715.084602 C534,714.256175 534.671573,713.584602 535.5,713.584602 Z M548.5,713.584602 C549.328427,713.584602 550,714.256175 550,715.084602 C550,715.91303 549.328427,716.584602 548.5,716.584602 C547.671573,716.584602 547,715.91303 547,715.084602 C547,714.256175 547.671573,713.584602 548.5,713.584602 Z M639.5,713.584602 C640.328427,713.584602 641,714.256175 641,715.084602 C641,715.91303 640.328427,716.584602 639.5,716.584602 C638.671573,716.584602 638,715.91303 638,715.084602 C638,714.256175 638.671573,713.584602 639.5,713.584602 Z M652.5,713.584602 C653.328427,713.584602 654,714.256175 654,715.084602 C654,715.91303 653.328427,716.584602 652.5,716.584602 C651.671573,716.584602 651,715.91303 651,715.084602 C651,714.256175 651.671573,713.584602 652.5,713.584602 Z M665.5,713.584602 C666.328427,713.584602 667,714.256175 667,715.084602 C667,715.91303 666.328427,716.584602 665.5,716.584602 C664.671573,716.584602 664,715.91303 664,715.084602 C664,714.256175 664.671573,713.584602 665.5,713.584602 Z M509.5,713.584602 C510.328427,713.584602 511,714.256175 511,715.084602 C511,715.91303 510.328427,716.584602 509.5,716.584602 C508.671573,716.584602 508,715.91303 508,715.084602 C508,714.256175 508.671573,713.584602 509.5,713.584602 Z M574.5,713.584602 C575.328427,713.584602 576,714.256175 576,715.084602 C576,715.91303 575.328427,716.584602 574.5,716.584602 C573.671573,716.584602 573,715.91303 573,715.084602 C573,714.256175 573.671573,713.584602 574.5,713.584602 Z M600.5,700.584602 C601.328427,700.584602 602,701.256175 602,702.084602 C602,702.91303 601.328427,703.584602 600.5,703.584602 C599.671573,703.584602 599,702.91303 599,702.084602 C599,701.256175 599.671573,700.584602 600.5,700.584602 Z M613.5,700.584602 C614.328427,700.584602 615,701.256175 615,702.084602 C615,702.91303 614.328427,703.584602 613.5,703.584602 C612.671573,703.584602 612,702.91303 612,702.084602 C612,701.256175 612.671573,700.584602 613.5,700.584602 Z M587.5,700.584602 C588.328427,700.584602 589,701.256175 589,702.084602 C589,702.91303 588.328427,703.584602 587.5,703.584602 C586.671573,703.584602 586,702.91303 586,702.084602 C586,701.256175 586.671573,700.584602 587.5,700.584602 Z M678.5,700.584602 C679.328427,700.584602 680,701.256175 680,702.084602 C680,702.91303 679.328427,703.584602 678.5,703.584602 C677.671573,703.584602 677,702.91303 677,702.084602 C677,701.256175 677.671573,700.584602 678.5,700.584602 Z M509.5,700.584602 C510.328427,700.584602 511,701.256175 511,702.084602 C511,702.91303 510.328427,703.584602 509.5,703.584602 C508.671573,703.584602 508,702.91303 508,702.084602 C508,701.256175 508.671573,700.584602 509.5,700.584602 Z M535.5,700.584602 C536.328427,700.584602 537,701.256175 537,702.084602 C537,702.91303 536.328427,703.584602 535.5,703.584602 C534.671573,703.584602 534,702.91303 534,702.084602 C534,701.256175 534.671573,700.584602 535.5,700.584602 Z M574.5,700.584602 C575.328427,700.584602 576,701.256175 576,702.084602 C576,702.91303 575.328427,703.584602 574.5,703.584602 C573.671573,703.584602 573,702.91303 573,702.084602 C573,701.256175 573.671573,700.584602 574.5,700.584602 Z M639.5,700.584602 C640.328427,700.584602 641,701.256175 641,702.084602 C641,702.91303 640.328427,703.584602 639.5,703.584602 C638.671573,703.584602 638,702.91303 638,702.084602 C638,701.256175 638.671573,700.584602 639.5,700.584602 Z M691.5,700.584602 C692.328427,700.584602 693,701.256175 693,702.084602 C693,702.91303 692.328427,703.584602 691.5,703.584602 C690.671573,703.584602 690,702.91303 690,702.084602 C690,701.256175 690.671573,700.584602 691.5,700.584602 Z M652.5,700.584602 C653.328427,700.584602 654,701.256175 654,702.084602 C654,702.91303 653.328427,703.584602 652.5,703.584602 C651.671573,703.584602 651,702.91303 651,702.084602 C651,701.256175 651.671573,700.584602 652.5,700.584602 Z M548.5,700.584602 C549.328427,700.584602 550,701.256175 550,702.084602 C550,702.91303 549.328427,703.584602 548.5,703.584602 C547.671573,703.584602 547,702.91303 547,702.084602 C547,701.256175 547.671573,700.584602 548.5,700.584602 Z M626.5,700.584602 C627.328427,700.584602 628,701.256175 628,702.084602 C628,702.91303 627.328427,703.584602 626.5,703.584602 C625.671573,703.584602 625,702.91303 625,702.084602 C625,701.256175 625.671573,700.584602 626.5,700.584602 Z M665.5,700.584602 C666.328427,700.584602 667,701.256175 667,702.084602 C667,702.91303 666.328427,703.584602 665.5,703.584602 C664.671573,703.584602 664,702.91303 664,702.084602 C664,701.256175 664.671573,700.584602 665.5,700.584602 Z M561.5,700.584602 C562.328427,700.584602 563,701.256175 563,702.084602 C563,702.91303 562.328427,703.584602 561.5,703.584602 C560.671573,703.584602 560,702.91303 560,702.084602 C560,701.256175 560.671573,700.584602 561.5,700.584602 Z M522.5,700.584602 C523.328427,700.584602 524,701.256175 524,702.084602 C524,702.91303 523.328427,703.584602 522.5,703.584602 C521.671573,703.584602 521,702.91303 521,702.084602 C521,701.256175 521.671573,700.584602 522.5,700.584602 Z M613.5,687.584602 C614.328427,687.584602 615,688.256175 615,689.084602 C615,689.91303 614.328427,690.584602 613.5,690.584602 C612.671573,690.584602 612,689.91303 612,689.084602 C612,688.256175 612.671573,687.584602 613.5,687.584602 Z M574.5,687.584602 C575.328427,687.584602 576,688.256175 576,689.084602 C576,689.91303 575.328427,690.584602 574.5,690.584602 C573.671573,690.584602 573,689.91303 573,689.084602 C573,688.256175 573.671573,687.584602 574.5,687.584602 Z M587.5,687.584602 C588.328427,687.584602 589,688.256175 589,689.084602 C589,689.91303 588.328427,690.584602 587.5,690.584602 C586.671573,690.584602 586,689.91303 586,689.084602 C586,688.256175 586.671573,687.584602 587.5,687.584602 Z M600.5,687.584602 C601.328427,687.584602 602,688.256175 602,689.084602 C602,689.91303 601.328427,690.584602 600.5,690.584602 C599.671573,690.584602 599,689.91303 599,689.084602 C599,688.256175 599.671573,687.584602 600.5,687.584602 Z M665.5,687.584602 C666.328427,687.584602 667,688.256175 667,689.084602 C667,689.91303 666.328427,690.584602 665.5,690.584602 C664.671573,690.584602 664,689.91303 664,689.084602 C664,688.256175 664.671573,687.584602 665.5,687.584602 Z M522.5,687.584602 C523.328427,687.584602 524,688.256175 524,689.084602 C524,689.91303 523.328427,690.584602 522.5,690.584602 C521.671573,690.584602 521,689.91303 521,689.084602 C521,688.256175 521.671573,687.584602 522.5,687.584602 Z M509.5,687.584602 C510.328427,687.584602 511,688.256175 511,689.084602 C511,689.91303 510.328427,690.584602 509.5,690.584602 C508.671573,690.584602 508,689.91303 508,689.084602 C508,688.256175 508.671573,687.584602 509.5,687.584602 Z M561.5,687.584602 C562.328427,687.584602 563,688.256175 563,689.084602 C563,689.91303 562.328427,690.584602 561.5,690.584602 C560.671573,690.584602 560,689.91303 560,689.084602 C560,688.256175 560.671573,687.584602 561.5,687.584602 Z M626.5,687.584602 C627.328427,687.584602 628,688.256175 628,689.084602 C628,689.91303 627.328427,690.584602 626.5,690.584602 C625.671573,690.584602 625,689.91303 625,689.084602 C625,688.256175 625.671573,687.584602 626.5,687.584602 Z M639.5,687.584602 C640.328427,687.584602 641,688.256175 641,689.084602 C641,689.91303 640.328427,690.584602 639.5,690.584602 C638.671573,690.584602 638,689.91303 638,689.084602 C638,688.256175 638.671573,687.584602 639.5,687.584602 Z M678.5,687.584602 C679.328427,687.584602 680,688.256175 680,689.084602 C680,689.91303 679.328427,690.584602 678.5,690.584602 C677.671573,690.584602 677,689.91303 677,689.084602 C677,688.256175 677.671573,687.584602 678.5,687.584602 Z M652.5,687.584602 C653.328427,687.584602 654,688.256175 654,689.084602 C654,689.91303 653.328427,690.584602 652.5,690.584602 C651.671573,690.584602 651,689.91303 651,689.084602 C651,688.256175 651.671573,687.584602 652.5,687.584602 Z M535.5,687.584602 C536.328427,687.584602 537,688.256175 537,689.084602 C537,689.91303 536.328427,690.584602 535.5,690.584602 C534.671573,690.584602 534,689.91303 534,689.084602 C534,688.256175 534.671573,687.584602 535.5,687.584602 Z M691.5,687.584602 C692.328427,687.584602 693,688.256175 693,689.084602 C693,689.91303 692.328427,690.584602 691.5,690.584602 C690.671573,690.584602 690,689.91303 690,689.084602 C690,688.256175 690.671573,687.584602 691.5,687.584602 Z M548.5,687.584602 C549.328427,687.584602 550,688.256175 550,689.084602 C550,689.91303 549.328427,690.584602 548.5,690.584602 C547.671573,690.584602 547,689.91303 547,689.084602 C547,688.256175 547.671573,687.584602 548.5,687.584602 Z M535.5,674.584602 C536.328427,674.584602 537,675.256175 537,676.084602 C537,676.91303 536.328427,677.584602 535.5,677.584602 C534.671573,677.584602 534,676.91303 534,676.084602 C534,675.256175 534.671573,674.584602 535.5,674.584602 Z M548.5,674.584602 C549.328427,674.584602 550,675.256175 550,676.084602 C550,676.91303 549.328427,677.584602 548.5,677.584602 C547.671573,677.584602 547,676.91303 547,676.084602 C547,675.256175 547.671573,674.584602 548.5,674.584602 Z M561.5,674.584602 C562.328427,674.584602 563,675.256175 563,676.084602 C563,676.91303 562.328427,677.584602 561.5,677.584602 C560.671573,677.584602 560,676.91303 560,676.084602 C560,675.256175 560.671573,674.584602 561.5,674.584602 Z M574.5,674.584602 C575.328427,674.584602 576,675.256175 576,676.084602 C576,676.91303 575.328427,677.584602 574.5,677.584602 C573.671573,677.584602 573,676.91303 573,676.084602 C573,675.256175 573.671573,674.584602 574.5,674.584602 Z M587.5,674.584602 C588.328427,674.584602 589,675.256175 589,676.084602 C589,676.91303 588.328427,677.584602 587.5,677.584602 C586.671573,677.584602 586,676.91303 586,676.084602 C586,675.256175 586.671573,674.584602 587.5,674.584602 Z M600.5,674.584602 C601.328427,674.584602 602,675.256175 602,676.084602 C602,676.91303 601.328427,677.584602 600.5,677.584602 C599.671573,677.584602 599,676.91303 599,676.084602 C599,675.256175 599.671573,674.584602 600.5,674.584602 Z M613.5,674.584602 C614.328427,674.584602 615,675.256175 615,676.084602 C615,676.91303 614.328427,677.584602 613.5,677.584602 C612.671573,677.584602 612,676.91303 612,676.084602 C612,675.256175 612.671573,674.584602 613.5,674.584602 Z M626.5,674.584602 C627.328427,674.584602 628,675.256175 628,676.084602 C628,676.91303 627.328427,677.584602 626.5,677.584602 C625.671573,677.584602 625,676.91303 625,676.084602 C625,675.256175 625.671573,674.584602 626.5,674.584602 Z M639.5,674.584602 C640.328427,674.584602 641,675.256175 641,676.084602 C641,676.91303 640.328427,677.584602 639.5,677.584602 C638.671573,677.584602 638,676.91303 638,676.084602 C638,675.256175 638.671573,674.584602 639.5,674.584602 Z M652.5,674.584602 C653.328427,674.584602 654,675.256175 654,676.084602 C654,676.91303 653.328427,677.584602 652.5,677.584602 C651.671573,677.584602 651,676.91303 651,676.084602 C651,675.256175 651.671573,674.584602 652.5,674.584602 Z M665.5,674.584602 C666.328427,674.584602 667,675.256175 667,676.084602 C667,676.91303 666.328427,677.584602 665.5,677.584602 C664.671573,677.584602 664,676.91303 664,676.084602 C664,675.256175 664.671573,674.584602 665.5,674.584602 Z M678.5,674.584602 C679.328427,674.584602 680,675.256175 680,676.084602 C680,676.91303 679.328427,677.584602 678.5,677.584602 C677.671573,677.584602 677,676.91303 677,676.084602 C677,675.256175 677.671573,674.584602 678.5,674.584602 Z M691.5,674.584602 C692.328427,674.584602 693,675.256175 693,676.084602 C693,676.91303 692.328427,677.584602 691.5,677.584602 C690.671573,677.584602 690,676.91303 690,676.084602 C690,675.256175 690.671573,674.584602 691.5,674.584602 Z M509.5,674.584602 C510.328427,674.584602 511,675.256175 511,676.084602 C511,676.91303 510.328427,677.584602 509.5,677.584602 C508.671573,677.584602 508,676.91303 508,676.084602 C508,675.256175 508.671573,674.584602 509.5,674.584602 Z M522.5,674.584602 C523.328427,674.584602 524,675.256175 524,676.084602 C524,676.91303 523.328427,677.584602 522.5,677.584602 C521.671573,677.584602 521,676.91303 521,676.084602 C521,675.256175 521.671573,674.584602 522.5,674.584602 Z" id="Combined-Shape-Copy" fill="#FFFFFF" opacity="0.60046968" transform="translate(600.500000, 767.084602) rotate(-10.000000) translate(-600.500000, -767.084602) "></path>
                    <circle id="Oval-Copy-253" stroke="#FEE0D4" stroke-width="3" transform="translate(647.500000, 803.084602) rotate(169.000000) translate(-647.500000, -803.084602) " cx="647.5" cy="803.084602" r="7.5"></circle>
                    <circle id="Oval-Copy-254" stroke="#FEE0D4" stroke-width="3" transform="translate(226.000000, 713.584602) rotate(169.000000) translate(-226.000000, -713.584602) " cx="226" cy="713.584602" r="15"></circle>
                    <circle id="Oval-Copy-255" stroke="#FEE0D4" stroke-width="3" transform="translate(522.500000, 713.084602) rotate(169.000000) translate(-522.500000, -713.084602) " cx="522.5" cy="713.084602" r="7.5"></circle>
                    <circle id="Oval-Copy-256" stroke="#FEE0D4" stroke-width="3" transform="translate(455.500000, 964.084602) rotate(169.000000) translate(-455.500000, -964.084602) " cx="455.5" cy="964.084602" r="11.5"></circle>
                    <polygon id="Triangle-Copy-24" fill="#FEE0D4" transform="translate(582.246324, 710.830926) rotate(-68.000000) translate(-582.246324, -710.830926) " points="582.246324 696.584602 596.492647 725.077249 568 725.077249"></polygon>
                    <polygon id="Triangle-Copy-26" fill="#FEE0D4" transform="translate(723.500000, 819.084602) rotate(-68.000000) translate(-723.500000, -819.084602) " points="723.5 806.584602 736 831.584602 711 831.584602"></polygon>
                    <circle id="Oval-Copy-257" stroke="#FEE0D4" stroke-width="3" transform="translate(352.500000, 763.084602) rotate(169.000000) translate(-352.500000, -763.084602) " cx="352.5" cy="763.084602" r="6.5"></circle>
                    <path d="M640,953.584602 C641.17965,950.998101 642.547663,949.364638 644.104038,948.684215 C646.438601,947.663581 648,949.04302 650.971399,947.730867 C652.952329,946.856099 654.295196,945.140677 655,942.584602" id="Path-2-Copy-12" stroke="#FEE0D4" stroke-width="3" transform="translate(647.500000, 948.084602) rotate(125.000000) translate(-647.500000, -948.084602) "></path>
                    <path d="M273,791.584602 C274.17965,788.998101 275.547663,787.364638 277.104038,786.684215 C279.438601,785.663581 281,787.04302 283.971399,785.730867 C285.952329,784.856099 287.295196,783.140677 288,780.584602" id="Path-2-Copy-13" stroke="#FEE0D4" stroke-width="3" transform="translate(280.500000, 786.084602) rotate(-142.000000) translate(-280.500000, -786.084602) "></path>
                    <path d="M553,794.584602 C554.17965,791.998101 555.547663,790.364638 557.104038,789.684215 C559.438601,788.663581 561,790.04302 563.971399,788.730867 C565.952329,787.856099 567.295196,786.140677 568,783.584602" id="Path-2-Copy-14" stroke="#FEE0D4" stroke-width="3" transform="translate(560.500000, 789.084602) rotate(-107.000000) translate(-560.500000, -789.084602) "></path>
                </g>
            </g>
        </g>
    </g>
</svg>