<?xml version="1.0" encoding="UTF-8"?>
<svg width="147px" height="108px" viewBox="0 0 147 108" version="1.1" xmlns="http://www.w3.org/2000/svg" xmlns:xlink="http://www.w3.org/1999/xlink">
    <!-- Generator: Sketch 57.1 (83088) - https://sketch.com -->
    <title>illustration</title>
    <desc>Created with Sketch.</desc>
    <g id="Page-1" stroke="none" stroke-width="1" fill="none" fill-rule="evenodd">
        <g id="Final-design" transform="translate(-1293.000000, -5874.000000)" fill-rule="nonzero">
            <g id="FOOTER" transform="translate(0.000000, 5301.000000)">
                <g id="illustration" transform="translate(1367.500000, 646.500000) rotate(3.000000) translate(-1367.500000, -646.500000) translate(1294.000000, 572.000000)">
                    <g id="Group" transform="translate(0.228052, 0.000000)">
                        <g id="Group-51" transform="translate(8.271948, 96.000000) rotate(90.000000) translate(-8.271948, -96.000000) translate(-10.228052, 88.000000)">
                            <rect id="Rectangle" fill="#FCF8EF" x="24.2104732" y="-1.42108547e-13" width="10.3531629" height="9.61804307"></rect>
                            <path d="M18.9542521,1.44270646 L7.80469203,9.13714092 L2.22991201,10.9004488 C0.955676575,11.2210502 0.159279429,12.3431553 0.159279429,13.7858617 L0.159279429,15.5491696 L34.7229156,15.5491696 L36.3157099,12.9843581 L36.3157099,2.7251122 L34.7229156,3.04571364 L32.1744447,6.57232943 L27.3960618,6.57232943 L18.9542521,1.44270646 Z" id="Path" fill="#41719F"></path>
                            <path d="M0.477838288,12.1828546 C0.159279429,12.6637567 6.39488462e-14,13.1446589 6.39488462e-14,13.625561 L6.39488462e-14,15.3888689 L34.7229156,15.3888689 L36.3157099,12.8240574 L36.3157099,9.61804307 L34.7229156,12.1828546 L0.477838288,12.1828546 Z" id="Path" fill="#FFFFFF"></path>
                            <g id="Group" transform="translate(9.238207, 2.083909)" fill="#FFFFFF">
                                <polygon id="Path" points="8.60108918 3.84721723 8.60108918 3.04571364 4.30054459 3.04571364 3.18558858 3.84721723"></polygon>
                                <polygon id="Path" points="10.6717218 1.28240574 6.84901546 1.28240574 5.73405945 2.08390933 10.6717218 2.08390933"></polygon>
                                <polygon id="Path" points="6.5304566 5.45022441 6.5304566 4.64872082 2.07063258 4.64872082 0.796397146 5.45022441"></polygon>
                            </g>
                        </g>
                        <path d="M140.956849,88.3256955 L140.956849,95.0583257 C140.956849,103.393963 134.267113,110.286894 125.825303,110.286894 L80.9085041,110.286894 C79.9528276,110.286894 77.3734253,110.286894 73.1702973,110.286894 L13.9329842,112.063636 L14.7719479,101.562388 L63.0217037,93.7815366 C66.5968572,92.7526501 70.2230258,91.7610038 73.9002093,90.8065977 L111.330875,86.4020869 L112.286552,83.9975761 L140.956849,88.3256955 Z" id="Path" fill="#8ECCFD"></path>
                        <g opacity="0.2" transform="translate(71.670297, 93.886625)" fill="#191C3C" id="Path">
                            <g transform="translate(0.000000, 11.911849)">
                                <path d="M1.75207372,1.7633079 C1.43351486,1.44270646 1.114956,0.961804307 0.955676575,0.641202871 C1.27423543,1.12210502 1.59279429,1.44270646 1.75207372,1.7633079 Z"></path>
                            </g>
                            <g transform="translate(8.000000, 0.000000)">
                                <path d="M60.3308751,5.33951949 C60.4901546,4.5380159 60.4901546,3.89681303 60.649434,3.09530944 C60.8087134,2.61440729 60.8087134,1.97320442 60.8087134,1.33200154 C60.8087134,1.01140011 60.4901546,0.370197238 60.1715957,0.530497956 C60.0123163,0.530497956 59.8530368,0.851099391 59.8530368,1.01140011 C58.7380808,3.41591088 57.9416837,5.17921877 55.8710511,6.94252667 C53.0040214,9.18673672 50.1369917,11.5912475 46.4735648,12.3927511 C42.1730202,13.3545554 37.8724756,11.9118489 33.4126516,12.3927511 C30.0677836,12.7133525 26.882195,14.156059 23.537327,13.8354575 C21.6259738,13.6751568 19.7146207,12.8736532 17.8032675,13.3545554 C17.0068704,13.5148561 16.3697527,13.9957583 15.5733555,14.3163597 C13.0248847,15.4384647 10.1578549,15.278164 7.45010463,15.1178633 C6.01658977,14.9575626 4.58307491,14.9575626 3.14956004,14.3163597 C1.71604518,13.8354575 0.601089176,12.8736532 0.123250889,11.4309468 C0.123250889,12.3927511 0.282530318,13.3545554 0.282530318,14.3163597 C0.282530318,14.4766604 -0.354587399,16.400269 1.07892746,16.400269 L46.1550059,16.400269 C49.8184328,16.400269 53.4818597,14.9575626 56.18961,12.3927511 C57.4638454,11.1103453 58.5788014,9.66763887 59.534478,8.06463169 C60.1715957,7.10282739 60.3308751,6.3013238 60.3308751,5.33951949 Z"></path>
                            </g>
                        </g>
                        <path d="M117.224214,11.381351 C116.746376,10.2592459 116.427817,9.13714092 115.63142,8.33563733 C115.312861,8.01503589 114.835023,7.53413374 114.516464,7.2135323 C113.560787,5.93112656 113.242228,4.16781866 112.127272,3.04571364 C111.490155,2.40451077 110.693757,2.08390933 109.89736,1.7633079 C108.941684,1.28240574 108.145287,0.961804307 107.18961,0.480902154 C106.711772,0.320601436 106.233933,0 105.596816,0 C104.641139,0 103.844742,0.641202871 102.889065,0.641202871 C102.251948,0.641202871 101.61483,0.320601436 100.977712,0.160300718 C100.340595,0 99.5441974,0 99.0663591,0.480902154 C98.9070796,0.641202871 98.7478002,0.961804307 98.5885208,1.28240574 C97.7921236,2.24421005 95.8807705,1.12210502 95.0843733,1.92360861 C94.6065351,2.40451077 94.6065351,3.04571364 94.4472556,3.68691651 C93.9694173,4.80902154 92.8544613,5.28992369 91.8987848,5.77082584 C90.9431082,6.251728 90.3059905,7.53413374 89.8281522,8.65623876 C89.6688728,8.81653948 89.6688728,9.13714092 89.5095933,9.29744163 C89.031755,9.77834379 88.0760785,9.77834379 87.4389607,10.0989452 C86.4832842,10.5798474 86.1647253,11.8622531 86.1647253,12.9843581 C86.3240047,14.5873653 87.2796813,15.5491696 87.5982402,16.9918761 C87.7575196,17.7933797 87.916799,18.755184 88.5539167,19.2360861 C88.8724756,19.3963869 89.1910345,19.5566876 89.5095933,19.7169883 C90.9431082,20.0375897 92.376623,20.0375897 93.8101379,19.7169883 C94.6065351,19.5566876 95.4029322,19.2360861 96.3586088,19.0757854 C97.1550059,18.9154847 98.1106825,19.2360861 98.9070796,19.2360861 C103.048345,19.877289 107.348889,19.877289 111.649434,19.877289 C112.605111,19.877289 113.720067,19.877289 114.675743,19.5566876 C115.312861,19.3963869 115.790699,19.2360861 116.427817,19.0757854 C117.542773,18.755184 118.817008,19.0757854 120.091244,18.755184 L120.409803,18.9154847 C119.294847,16.5109739 118.33917,13.9461625 117.224214,11.381351 Z" id="Path" fill="#41719F"></path>
                        <polygon id="Rectangle" fill="#FCF8EF" transform="translate(117.387531, 26.848799) rotate(-46.041332) translate(-117.387531, -26.848799) " points="109.972159 22.0796529 124.83352 22.0321971 124.802904 31.6179457 109.941542 31.6654015"></polygon>
                        <polygon id="Path" fill="#191C3C" opacity="0.3" points="114.357184 24.2054084 113.242228 33.1822486 108.941684 28.8541292 113.879346 23.7245062"></polygon>
                        <path d="M90.4652699,19.7169883 L93.6508585,24.2054084 L95.5622116,24.2054084 L95.2436528,26.9305206 L97.3142854,30.136535 L99.3849179,28.5335278 L103.048345,32.380745 C104.32258,33.8234515 106.711772,33.8234515 107.986007,32.380745 L119.931964,18.755184 L104.32258,5.93112656 L90.4652699,19.7169883 Z" id="Path" fill="#FCF8EF"></path>
                        <path d="M119.931964,18.2742818 C119.931964,17.7933797 119.613405,17.3124775 119.454126,16.9918761 C118.817008,15.7094703 117.861332,14.5873653 117.064935,13.3049596 C116.109258,12.0225538 115.153581,10.5798474 114.038625,9.45774235 C112.445831,7.69443446 110.534478,6.251728 108.463845,5.45022441 C107.18961,4.96932225 105.756095,4.64872082 104.32258,4.4884201 C103.685463,4.32811938 103.048345,4.32811938 102.570507,4.32811938 C101.296271,4.4884201 100.181315,5.12962297 99.0663591,5.93112656 C98.2699619,6.41202871 97.3142854,7.05323158 96.6771676,7.85473517 C95.7214911,8.9768402 95.2436528,10.5798474 94.1286968,11.5416517 C92.6951819,12.8240574 90.9431082,13.4652603 89.3503139,14.5873653 C87.916799,15.5491696 88.3946373,17.4727782 89.031755,18.9154847 C89.3503139,19.5566876 89.6688728,20.3581912 90.3059905,20.8390933 C90.7838288,21.1596948 91.4209465,21.8008976 92.0580642,21.9611983 C92.0580642,21.8008976 92.0580642,21.8008976 92.0580642,21.6405969 L92.376623,21.3199955 C93.9694173,20.5184919 94.9250939,18.5948833 96.3586088,17.633079 C98.1106825,16.5109739 100.340595,16.5109739 102.092668,17.4727782 C103.048345,17.9536804 104.004021,18.755184 104.641139,19.5566876 C104.959698,20.0375897 105.278257,20.5184919 105.596816,20.999394 C105.756095,21.1596948 105.915375,21.6405969 106.074654,21.8008976 C106.233933,21.8008976 106.711772,21.6405969 106.871051,21.4802962 C107.18961,21.3199955 107.348889,21.1596948 107.508169,20.8390933 C107.667448,20.5184919 107.508169,20.1978904 107.348889,19.877289 C106.552492,18.2742818 105.596816,16.6712747 105.596816,14.9079668 C105.596816,13.4652603 107.030331,12.503456 108.304566,12.503456 C108.941684,12.503456 109.578801,12.6637567 109.89736,13.1446589 C110.375199,13.625561 110.534478,14.4270646 110.375199,15.0682675 C110.375199,16.3506732 110.215919,17.633079 110.215919,18.9154847 C110.215919,19.0757854 110.215919,19.3963869 110.375199,19.5566876 C110.534478,19.7169883 110.693757,19.7169883 110.853037,19.7169883 C111.330875,19.877289 111.808713,19.877289 112.286552,19.877289 C112.605111,19.877289 113.082949,19.7169883 113.401508,19.7169883 C114.357184,19.5566876 115.949979,19.3963869 116.746376,20.0375897 C117.542773,20.5184919 118.498449,20.999394 119.294847,20.3581912 C119.454126,20.1978904 119.613405,20.0375897 119.613405,19.877289 C119.772685,19.5566876 119.931964,19.2360861 120.091244,18.9154847 C119.931964,18.4345826 119.931964,18.4345826 119.931964,18.2742818 Z" id="Path" fill="#41719F"></path>
                        <path d="M126.143862,24.8466113 L136.656304,30.6174371 C137.77126,31.25864 138.886216,32.2204443 139.364055,33.50285 L143.186761,41.5178859 C144.779555,44.884201 145.575952,48.7314182 145.416673,52.5786354 C144.938835,59.7921678 144.620276,66.8453993 144.301717,74.0589316 C143.983158,79.3488553 143.823879,84.638779 143.50532,89.9287027 C143.34604,91.8523113 143.34604,93.9362207 143.186761,95.8598293 C143.186761,96.5010321 143.34604,98.5849415 143.027482,99.2261443 C143.027482,99.2261443 143.027482,99.5467458 143.027482,99.7070465 C142.549643,99.5467458 141.753246,99.3864451 141.275408,98.9055429 C140.479011,98.1040393 140.160452,96.8216336 139.204775,96.02013 C136.497025,93.6156192 132.35576,95.0583257 129.010892,93.9362207 C126.940259,93.2950178 125.347465,91.8523113 123.595391,90.5699056 C121.524759,89.1271991 119.135567,87.8447934 116.746376,87.0432898 C114.516464,86.4020869 112.445831,86.0814855 110.375199,85.2799819 L111.967993,43.762096 C112.127272,40.7163823 113.401508,37.8309694 115.63142,35.9073608 L126.143862,24.8466113 Z" id="Path" fill="#41719F"></path>
                        <path d="M123.91395,37.3500673 L127.099539,70.5323158 L111.012316,74.3795331 L110.693757,82.394569 L137.293422,79.1885546 C140.160452,78.8679532 142.231084,76.3031417 142.071805,73.4177288 L138.408378,37.3500673 L123.91395,37.3500673 L123.91395,37.3500673 Z" id="Path" fill="#191C3C" opacity="0.2"></path>
                        <path d="M123.117553,36.5485637 L126.303141,69.7308123 L101.774109,75.6619388 L101.774109,82.7151704 L136.337746,78.5473517 C139.204775,78.2267503 141.275408,75.6619388 141.116128,72.7765259 L138.249099,36.7088644 L123.117553,36.7088644 L123.117553,36.5485637 Z" id="Path" fill="#41719F"></path>
                        <path d="M101.61483,77.1046453 L98.2699619,75.1810367 L89.031755,74.0589316 L82.8198573,77.1046453 L82.8198573,81.4327647 L82.8198573,81.4327647 C84.4126516,81.4327647 85.5276076,80.1503589 85.5276076,78.7076525 L85.5276076,78.387051 L87.4389607,77.4252467 L86.4832842,79.1885546 L86.4832842,83.0357718 L86.4832842,83.0357718 C88.0760785,83.0357718 89.1910345,81.7533661 89.1910345,80.1503589 L89.1910345,79.1885546 L89.9874316,78.387051 L91.1023876,78.387051 L98.7478002,82.8754711 L100.499874,82.8754711 L101.296271,82.0739675 L101.296271,77.1046453 L101.61483,77.1046453 Z" id="Path" fill="#FCF8EF"></path>
                        <g transform="translate(78.872144, 75.708258) rotate(-4.000000) translate(-78.872144, -75.708258) translate(49.872144, 59.708258)">
                            <path d="M55.4767457,28.8541292 L16.9311239,31.5792414 C15.9754473,31.5792414 15.1790502,30.9380385 15.1790502,29.9762342 L15.1790502,29.9762342 C15.1790502,29.0144299 15.8161679,28.2129263 16.7718445,28.2129263 L55.3174663,25.4878141 C56.2731429,25.4878141 57.06954,26.129017 57.06954,27.0908213 L57.06954,27.0908213 C57.06954,28.0526256 56.4324223,28.8541292 55.4767457,28.8541292 Z" id="Path" fill="#DFE2EC"></path>
                            <path d="M55.4767457,28.2129263 L16.9311239,30.9380385 C16.1347267,30.9380385 15.497609,30.4571364 15.3383296,29.8159335 C15.3383296,29.9762342 15.3383296,30.136535 15.3383296,30.2968357 C15.3383296,31.25864 16.1347267,31.8998428 17.0904033,31.8998428 L55.6360252,29.1747306 C56.5917018,29.1747306 57.2288195,28.3732271 57.2288195,27.4114227 C57.2288195,27.251122 57.2288195,27.0908213 57.06954,27.0908213 C56.7509812,27.5717235 56.2731429,28.2129263 55.4767457,28.2129263 Z" id="Path" fill="#707176"></path>
                            <path d="M18.5239182,28.5335278 L18.5239182,28.5335278 C18.3646387,28.6938285 18.0460799,28.6938285 17.8868005,28.3732271 L0.36606325,1.60300718 C0.20678382,1.44270646 0.20678382,1.12210502 0.525342679,0.961804307 L0.525342679,0.961804307 C0.684622108,0.801503589 1.00318097,0.801503589 1.1624604,1.12210502 L18.6831976,27.8923249 C18.842477,28.0526256 18.6831976,28.3732271 18.5239182,28.5335278 Z" id="Path" fill="#DFE2EC"></path>
                            <path d="M18.0460799,28.3732271 L0.525342679,1.60300718 C0.36606325,1.44270646 0.36606325,1.12210502 0.684622108,0.961804307 C0.684622108,0.961804307 0.843901537,0.961804307 0.843901537,0.961804307 C0.684622108,0.961804307 0.525342679,0.961804307 0.36606325,0.961804307 C0.20678382,1.12210502 0.0475043912,1.44270646 0.20678382,1.60300718 L17.727521,28.3732271 C17.8868005,28.5335278 18.0460799,28.5335278 18.2053593,28.5335278 C18.2053593,28.5335278 18.2053593,28.5335278 18.0460799,28.3732271 Z" id="Path" fill="#707176"></path>
                            <polygon id="Rectangle" fill="#191C3C" transform="translate(44.569259, 27.817109) rotate(-4.132273) translate(-44.569259, -27.817109) " points="43.056055 27.8178067 46.0824639 27.8164121 46.0824639 27.8164121 43.056055 27.8178067"></polygon>
                            <polygon id="Rectangle" fill="#191C3C" transform="translate(48.228369, 27.492663) rotate(-4.132266) translate(-48.228369, -27.492663) " points="46.7151643 27.4933603 49.7415731 27.4919657 49.7415731 27.4919657 46.7151643 27.4933603"></polygon>
                            <polygon id="Rectangle" fill="#191C3C" transform="translate(22.588756, 29.418065) rotate(-4.132272) translate(-22.588756, -29.418065) " points="21.0755516 29.4187619 24.1019605 29.4173673 24.1019605 29.4173673 21.0755516 29.4187619"></polygon>
                        </g>
                        <path d="M124.710347,48.2505161 C124.551068,47.4490125 125.188185,46.6475089 125.666024,46.1666067 C125.188185,45.2048024 124.551068,44.0826974 123.91395,43.2811938 L123.91395,43.2811938 L125.188185,61.8760771 C125.506744,63.1584828 125.825303,64.4408886 126.143862,65.7232943 C125.825303,62.6775807 125.666024,59.4715663 125.347465,56.4258527 C125.347465,56.1052512 125.347465,55.6243491 125.506744,55.3037477 C125.666024,54.9831462 125.984583,54.8228455 126.143862,54.8228455 C126.78098,54.6625448 127.258818,54.3419433 127.895936,54.1816426 C126.940259,52.5786354 126.143862,50.8153276 125.188185,49.2123204 C124.869627,48.8917189 124.710347,48.5711175 124.710347,48.2505161 Z" id="Path" fill="#191C3C" opacity="0.12"></path>
                        <g opacity="0.12" transform="translate(110.805532, 65.723294)" fill="#191C3C" id="Path">
                            <path d="M15.0197707,0 L15.3383296,4.00751795 L0.36606325,7.69443446 L0.843901537,7.85473517 C1.48101925,7.69443446 2.2774164,7.53413374 2.91453412,7.37383302 C5.46300498,7.05323158 8.01147585,6.57232943 10.5599467,7.2135323 C10.2413879,6.89293087 10.0821084,6.41202871 9.76354957,6.09142728 C12.4712999,6.09142728 15.0197707,6.09142728 17.727521,6.09142728 C16.9311239,5.61052512 16.1347267,5.12962297 15.1790502,4.80902154 C15.8161679,4.80902154 16.4532856,4.96932225 16.9311239,5.12962297 C16.4532856,4.64872082 15.8161679,4.00751795 15.3383296,3.52661579 C16.4532856,3.52661579 17.727521,3.52661579 18.842477,3.68691651 C17.2496827,2.7251122 15.9754473,1.44270646 15.0197707,0 Z"></path>
                        </g>
                        <g opacity="0.11" transform="translate(57.021704, 87.562388)" fill="#191C3C" id="Path">
                            <g transform="translate(6.000000, 19.148295)">
                                <path d="M1.00318097,1.01140011 L1.00318097,1.01140011 C1.1624604,1.01140011 1.48101925,0.851099391 1.64029868,0.690798674 L1.00318097,1.01140011 Z"></path>
                            </g>
                            <g transform="translate(0.684622, 0.000000)">
                                <path d="M24.3919439,5.72753606 C24.5512233,5.56723534 24.7105027,5.56723534 25.0290616,5.56723534 C25.6661793,5.72753606 25.5068999,6.52903965 25.188341,7.17024252 C27.2589736,6.68934037 29.3296062,6.36873893 31.4002388,5.88783678 C33.7894302,5.40693462 36.3379011,4.92603247 38.7270925,4.92603247 C39.6827691,4.92603247 40.6384457,4.92603247 41.5941222,4.76573175 C43.1869165,4.60543103 44.7797108,3.96422816 46.3725051,3.48332601 C48.1245788,2.84212314 50.035932,2.20092027 51.7880057,1.55971739 C52.4251234,1.39941668 53.0622411,1.07881524 53.2215206,0.43761237 L17.2243696,2.68182242 C13.295477,2.68182242 7.57589448,4.54997099 0.065622079,8.28626812 L0.224901508,10.3701774 C0.384180937,10.2098767 0.702739796,10.3701774 0.702739796,10.5304782 C0.862019225,9.08777171 1.66616399,10.6968583 1.66616399,9.25415185 C1.98472285,9.89535472 2.02462251,8.61294898 2.34318137,9.25415185 C3.29885795,7.0099418 11.3310307,9.09385113 13.0831044,7.49084395 C12.7645455,7.97174611 12.7645455,8.61294898 12.923825,9.25415185 C13.5609427,7.65114467 14.9944576,6.68934037 16.5872518,6.04813749 C18.1800461,5.40693462 19.7728404,5.2466339 21.5249142,5.2466339 C21.3656347,6.04813749 21.2063553,6.84964108 21.2063553,7.65114467 C22.1620319,6.84964108 23.2769879,6.20843821 24.3919439,5.72753606 Z"></path>
                            </g>
                        </g>
                        <path d="M114.994302,24.8466113 C114.675743,23.5642055 112.605111,23.4039048 111.490155,23.0833034 C110.375199,22.7627019 109.260243,22.4421005 108.623125,21.4802962 C108.463845,21.1596948 108.145287,20.8390933 107.986007,20.5184919 C107.826728,20.1978904 107.508169,20.0375897 107.18961,19.7169883 C106.871051,19.3963869 106.711772,18.9154847 106.393213,18.4345826 C106.233933,18.1139811 106.074654,17.4727782 105.756095,17.1521768 C105.437536,16.9918761 105.437536,17.1521768 105.278257,17.4727782 C105.118977,17.7933797 104.800419,18.2742818 104.641139,18.5948833 C104.800419,19.5566876 105.278257,20.3581912 105.596816,21.3199955 C105.915375,22.4421005 106.233933,23.7245062 106.393213,24.8466113 C106.393213,25.3275134 106.552492,25.8084156 106.233933,26.129017 C105.915375,26.4496184 105.437536,26.6099192 104.959698,26.4496184 C104.48186,26.2893177 104.004021,26.129017 103.526183,26.129017 C102.729786,25.9687163 101.933389,26.4496184 101.296271,26.7702199 C100.499874,27.251122 99.5441974,27.7320242 99.0663591,28.5335278 C98.5885208,29.3350314 98.5885208,30.2968357 98.9070796,31.0983393 C99.5441974,32.8616472 101.61483,33.8234515 103.366904,34.3043536 C103.844742,34.4646543 104.48186,34.6249551 104.959698,34.4646543 C105.756095,34.4646543 106.552492,33.9837522 107.18961,33.6631507 C108.782404,32.8616472 110.215919,31.5792414 111.012316,29.9762342 C111.330875,29.3350314 111.490155,28.8541292 111.808713,28.2129263 C112.127272,27.7320242 112.445831,27.251122 112.923669,26.9305206 C113.401508,26.6099192 113.879346,26.2893177 114.357184,25.9687163 C114.835023,25.9687163 114.994302,25.3275134 114.994302,24.8466113 Z" id="Path" fill="#41719F"></path>
                    </g>
                </g>
            </g>
        </g>
    </g>
</svg>