<?xml version="1.0" encoding="UTF-8"?>
<svg width="62px" height="61px" viewBox="0 0 62 61" version="1.1" xmlns="http://www.w3.org/2000/svg" xmlns:xlink="http://www.w3.org/1999/xlink">
    <!-- Generator: Sketch 57.1 (83088) - https://sketch.com -->
    <title>002-return</title>
    <desc>Created with Sketch.</desc>
    <g id="Page-1" stroke="none" stroke-width="1" fill="none" fill-rule="evenodd">
        <g id="Final-design" transform="translate(-182.000000, -1160.000000)" fill="#41719F" fill-rule="nonzero" stroke="#41719F" stroke-width="0.5">
            <g id="HOW-IT-WORKS" transform="translate(144.000000, 840.000000)">
                <g id="advantages" transform="translate(0.000000, 258.000000)">
                    <g id="002-return" transform="translate(39.000000, 62.000000)">
                        <path d="M52.2580645,30.6739542 C51.9787442,30.2612087 51.6448132,30.054836 51.2562717,30.054836 C50.8677301,30.054836 50.5564998,30.2612087 50.3225806,30.6739542 C50.3225806,41.8795363 41.2055821,50.9965348 30,50.9965348 C18.7944179,50.9965348 9.67741935,41.8795363 9.67741935,30.6739542 C9.67741935,20.3193989 17.467553,11.7647114 27.4927546,10.5229019 L25.4448085,12.5708481 C25.4954415,13.0743283 25.6238264,13.4281942 25.8299631,13.6324458 C26.0360998,13.8366974 26.3638641,13.9388231 26.813256,13.9388231 L31.3684476,9.38363161 L26.813256,4.82891258 C26.2590899,4.7500896 25.8789796,4.81366975 25.6729252,5.01965304 C25.4668708,5.22563633 25.3908318,5.61804787 25.4448085,6.19688766 L27.7753276,8.52740669 C16.5428112,9.64730343 7.74193548,19.1513042 7.74193548,30.6739542 C7.74193548,42.9479271 17.7260269,52.9320187 30,52.9320187 C42.2739731,52.9320187 52.2580645,42.9479271 52.2580645,30.6739542 Z" id="Path"></path>
                        <path d="M23.1974546,1.43850806 C23.5886096,0.852566487 24.5257736,0.680396864 25.0946636,1.06048387 C25.6635535,1.44057088 25.8577434,2.38183289 25.4726878,2.95863782 C25.0876322,3.53544276 24.1355358,3.71037505 23.5754788,3.33618952 C23.0154218,2.96200398 22.8062997,2.02444964 23.1974546,1.43850806 Z" id="Path"></path>
                        <path d="M17.625378,3.32768403 C17.8890285,2.69092537 18.7813764,2.32500438 19.4134325,2.58675661 C20.0454885,2.84850884 20.4195286,3.73324438 20.1538874,4.37481105 C19.8882462,5.01637772 18.9937266,5.37557126 18.3663054,5.11573847 C17.7388843,4.85590567 17.3617276,3.9644427 17.625378,3.32768403 Z" id="Path"></path>
                        <path d="M12.5277218,6.26776714 C12.6610784,5.59625506 13.4646402,5.05910762 14.1357422,5.19276081 C14.8068443,5.326414 15.3446853,6.13014465 15.211221,6.80219887 C15.0777568,7.47425309 14.2730589,8.01023216 13.6027281,7.87673258 C12.9323973,7.743233 12.3943652,6.93927921 12.5277218,6.26776714 Z" id="Path"></path>
                        <path d="M9,9.36844758 C9,8.68416472 9.68404659,8 10.3684476,8 C11.0528486,8 11.7373677,8.68404657 11.7373677,9.36844758 C11.7373677,10.0528486 11.0527304,10.7373678 10.3684476,10.7373678 C9.68416472,10.7373678 9,10.0527304 9,9.36844758 Z" id="Path"></path>
                        <path d="M27.0967742,18.093309 L27.0967742,19.1300403 C23.8178868,19.6002079 21.2903226,22.4278289 21.2903226,25.8352445 L21.2903226,26.8029865 C21.2903226,30.5378655 24.3301096,33.57718 28.0645161,33.57718 L31.9354839,33.57718 C32.469443,33.57718 32.9032258,34.0109627 32.9032258,34.5449219 L32.9032258,35.5126639 C32.9032258,36.0470955 32.469443,36.4804058 31.9354839,36.4804058 L28.0645161,36.4804058 C27.530557,36.4804058 27.0967742,36.0470955 27.0967742,35.5126639 L27.0967742,34.5449219 L21.2903226,34.5449219 L21.2903226,35.5126639 C21.2903226,38.9200794 23.8178868,41.7472278 27.0967742,42.2183404 L27.0967742,43.2545994 C27.0967742,44.8555317 28.39954,46.1578252 30,46.1578252 C31.60046,46.1578252 32.9032258,44.8555317 32.9032258,43.2545994 L32.9032258,42.2183404 C36.1821132,41.7481728 38.7096774,38.9200794 38.7096774,35.5126639 L38.7096774,34.5449219 C38.7096774,30.8105154 35.6698904,27.7707284 31.9354839,27.7707284 L28.0645161,27.7707284 C27.530557,27.7707284 27.0967742,27.3374181 27.0967742,26.8029865 L27.0967742,25.8352445 C27.0967742,25.3012853 27.530557,24.8675026 28.0645161,24.8675026 L31.9354839,24.8675026 C32.469443,24.8675026 32.9032258,25.3012853 32.9032258,25.8352445 L32.9032258,26.8029865 L38.7096774,26.8029865 L38.7096774,25.8352445 C38.7096774,22.4278289 36.1821132,19.6011529 32.9032258,19.1300403 L32.9032258,18.093309 C32.9032258,16.4928491 31.60046,15.1900832 30,15.1900832 C28.39954,15.1900832 27.0967742,16.4928491 27.0967742,18.093309 L27.0967742,18.093309 Z M30.9677419,18.093309 L30.9677419,20.9965348 L31.9354839,20.9965348 C34.2726184,20.9965348 36.2274761,22.6622039 36.6763798,24.8675026 L34.673324,24.8675026 C34.2735635,23.741463 33.1976122,22.9320187 31.9354839,22.9320187 L28.0645161,22.9320187 C26.4640562,22.9320187 25.1612903,24.2347846 25.1612903,25.8352445 L25.1612903,26.8029865 C25.1612903,28.4039188 26.4640562,29.7062123 28.0645161,29.7062123 L31.9354839,29.7062123 C34.6033897,29.7062123 36.7741935,31.8770161 36.7741935,34.5449219 L36.7741935,35.5126639 C36.7741935,38.1810421 34.6033897,40.3513735 31.9354839,40.3513735 L30.9677419,40.3513735 L30.9677419,43.2545994 C30.9677419,43.789031 30.5339591,44.2223413 30,44.2223413 C29.4660409,44.2223413 29.0322581,43.789031 29.0322581,43.2545994 L29.0322581,40.3513735 L28.0645161,40.3513735 C25.7273816,40.3513735 23.7725239,38.6861769 23.3236202,36.4804058 L25.326676,36.4804058 C25.7264365,37.6069179 26.8023878,38.4158897 28.0645161,38.4158897 L31.9354839,38.4158897 C33.5359438,38.4158897 34.8387097,37.1135962 34.8387097,35.5126639 L34.8387097,34.5449219 C34.8387097,32.944462 33.5359438,31.6416961 31.9354839,31.6416961 L28.0645161,31.6416961 C25.3966103,31.6416961 23.2258065,29.4713646 23.2258065,26.8029865 L23.2258065,25.8352445 C23.2258065,23.1673387 25.3966103,20.9965348 28.0645161,20.9965348 L29.0322581,20.9965348 L29.0322581,18.093309 C29.0322581,17.5593498 29.4660409,17.1255671 30,17.1255671 C30.5339591,17.1255671 30.9677419,17.5593498 30.9677419,18.093309 L30.9677419,18.093309 Z" id="Shape"></path>
                        <path d="M8.28014746,12.9006741 C8.28014746,12.4075261 8.13477075,12.0616543 7.84401734,11.863059 C7.55326393,11.6644636 7.19949116,11.6012817 6.78269903,11.6735131 C2.40848661,17.0135773 0,23.7608367 0,30.6739542 C0,38.0676348 2.71374121,45.1697644 7.64034145,50.6747417 C8.19865868,50.8290829 8.60816735,50.7795952 8.86886749,50.5262788 C9.12956762,50.2729624 9.20062221,49.891975 9.08203125,49.3833165 C4.47391633,44.2350995 1.93548387,37.5908518 1.93548387,30.6739542 C1.93548387,24.2069052 4.18850806,17.8953188 8.28014746,12.9006741 Z" id="Path"></path>
                        <path d="M34.5268397,58.3859627 C34.9179898,57.8001501 35.8552404,57.6281423 36.4240487,58.0079385 C36.992857,58.3877347 37.1871768,59.3283899 36.8020729,59.9051475 C36.4169689,60.481905 35.4649026,60.6571123 34.9048639,60.2831717 C34.3448252,59.909231 34.1356897,58.9717753 34.5268397,58.3859627 Z" id="Path"></path>
                        <path d="M39.84375,56.9726247 C40.1074004,56.3358661 40.9997484,55.9699451 41.6318044,56.2316973 C42.2638605,56.4934495 42.6379006,57.3781851 42.3722594,58.0197517 C42.1066181,58.6613184 41.2120986,59.0205119 40.5846774,58.7606792 C39.9572563,58.5008464 39.5800996,57.6093834 39.84375,56.9726247 Z" id="Path"></path>
                        <path d="M44.7849987,54.5447644 C44.9183328,53.873366 45.7219396,53.3365819 46.3930192,53.4702306 C47.0640987,53.6038793 47.6019846,54.4070293 47.468498,55.0791961 C47.3350113,55.7513629 46.5303583,56.2877064 45.860005,56.1542023 C45.1896518,56.0206983 44.6516647,55.2161628 44.7849987,54.5447644 Z" id="Path"></path>
                        <path d="M49.1596838,51.2039755 C49.1596838,50.5195745 49.8439075,49.8350554 50.5281313,49.8350554 C51.2123551,49.8350554 51.8965789,50.5196927 51.8965789,51.2039755 C51.8965789,51.8882584 51.2123551,52.5724231 50.5281313,52.5724231 C49.8439075,52.5724231 49.1596838,51.8883765 49.1596838,51.2039755 Z" id="Path"></path>
                        <path d="M51.1610095,10.7902254 C50.8521519,11.1093899 50.7711383,11.5010028 50.9179688,11.9650642 C55.5260837,17.1132813 58.0645161,23.757529 58.0645161,30.6739542 C58.0645161,37.1424206 55.8114919,43.4540071 51.7198525,48.4486518 C51.6326431,48.9534626 51.7384942,49.322863 52.037406,49.5568529 C52.3363178,49.7908427 52.7296161,49.830496 53.217301,49.6758128 C57.5915134,44.3357485 60,37.5884892 60,30.6739542 C60,23.280746 57.2862588,16.1781439 52.3596585,10.6736391 C51.8694168,10.4321989 51.4698671,10.471061 51.1610095,10.7902254 Z" id="Path"></path>
                    </g>
                </g>
            </g>
        </g>
    </g>
</svg>