<?xml version="1.0" encoding="UTF-8"?>
<svg width="60px" height="67px" viewBox="0 0 60 67" version="1.1" xmlns="http://www.w3.org/2000/svg" xmlns:xlink="http://www.w3.org/1999/xlink">
    <!-- Generator: Sketch 57.1 (83088) - https://sketch.com -->
    <title>005-brain copy 2</title>
    <desc>Created with Sketch.</desc>
    <g id="Page-1" stroke="none" stroke-width="1" fill="none" fill-rule="evenodd">
        <g id="Final-design" transform="translate(-860.000000, -1155.000000)" fill="#41719F" fill-rule="nonzero">
            <g id="HOW-IT-WORKS" transform="translate(144.000000, 840.000000)">
                <g id="advantages" transform="translate(0.000000, 258.000000)">
                    <g id="Group-20" transform="translate(677.000000, 57.000000)">
                        <g id="005-brain-copy-2" transform="translate(39.000000, 0.000000)">
                            <path d="M52.1113231,6.64636256 C55.2855929,9.01884502 57.6054474,12.3562066 58.7231741,16.1582257 C59.5563775,19.2171599 59.9463559,22.379822 59.8811881,25.5495316 C59.8565689,28.7719815 58.9168185,31.921104 57.1714131,34.6300428 C56.5498239,35.611092 55.8563428,36.5401577 55.1927244,37.4393606 C54.0158646,38.9009703 53.0084761,40.4912713 52.1898513,42.1798077 C50.8506891,45.2292028 50.351212,48.581198 50.7431633,51.8885444 C50.9786759,54.1038272 51.4147661,56.2931629 52.0460673,58.4296094 C52.3793829,59.5150608 52.7972676,60.5727159 53.2958819,61.5928569 C53.5058641,61.9991124 53.7423272,62.3911239 54.0037415,62.7663554 C54.4771541,63.4150613 54.8565823,64.1273735 55.1307867,64.8821919 C55.2333876,65.2169915 55.1713851,65.5806005 54.9636285,65.862478 C54.7818416,66.1091207 54.5072536,66.2676916 54.2068628,66.3042103 L54.0767395,66.3122895 L26.3153714,66.3886056 C25.8060317,66.3886056 25.3626385,66.0405142 25.2414157,65.5458103 C24.8321843,63.8790221 23.2605149,59.4360972 20.7741581,57.9672886 C17.7165027,59.0647493 14.6018091,59.9962776 11.4436839,60.7578038 C9.3150466,61.2210425 7.19663028,59.9355037 6.62470855,57.8334589 C6.26906044,56.8857829 6.14211214,55.8675439 6.2541883,54.8615546 C6.29289937,54.5717746 6.35483708,54.2819946 6.41898686,53.9911086 C6.55732451,53.5581988 6.59811743,53.1000338 6.53843816,52.6494934 C6.44663762,52.308836 6.19335662,52.1351892 5.54301062,51.7646689 C5.28088137,51.6186729 5.01654005,51.4627226 4.7687892,51.2868637 C4.41297169,51.0329117 4.17736588,50.6437021 4.11733717,50.2106959 C4.0731834,49.6535987 4.19724944,49.0960722 4.47347903,48.6102697 C4.09964068,48.3238077 3.69040936,48.0019528 3.45150675,47.791807 C2.42842844,46.9313152 3.10863726,45.7279539 3.5145505,45.0101401 C3.66386463,44.7502229 3.83087525,44.4515946 3.99567381,44.1065131 C4.14590882,43.7582795 4.18791462,43.3729052 4.11623114,43.0004824 C4.06535374,42.7073843 3.26569361,42.3003651 2.78899442,42.0570383 C2.3871668,41.8673624 2.00137376,41.6454297 1.6354045,41.39342 C0.850352981,40.9432434 0.274488216,40.2016536 0.0327661566,39.3295669 C-0.136456526,38.1804011 0.695278488,37.0489318 1.48940846,36.0789429 C3.38351724,33.6364073 5.00708113,30.9956128 6.33161044,28.202899 C6.41682711,28.0551648 6.48192155,27.8967064 6.5251658,27.73173 C6.5218477,27.4131932 6.16570585,27.0647935 5.62264482,26.5670797 C4.80670383,25.9661814 4.23397678,25.0919778 4.00894617,24.1039496 C3.94761979,23.4689623 4.05005247,22.8288531 4.30646841,22.2447122 C4.50444788,21.7182416 4.73339622,21.2072554 4.96123852,20.6962693 C5.27455355,20.0547525 5.53844836,19.3905421 5.75074485,18.7094386 L5.90025851,18.1955341 L5.98874095,17.8128475 C6.24556981,16.5862544 6.58102075,15.3774488 6.99301674,14.1939154 C7.9649997,11.5078095 9.47493994,9.04832306 11.4304115,6.9660054 C13.8979658,4.3601973 17.5224281,2.60603276 22.5117321,1.60286301 C26.0360337,0.833675705 29.6117218,0.322440665 33.2103662,0.0732226823 C40.0323629,-0.272964896 45.8677804,1.7543892 52.1113231,6.64636256 Z M33.3231813,2.28307183 C29.833015,2.52626147 26.3652483,3.02382185 22.9475082,3.77178902 C18.421631,4.68205221 15.1787492,6.23049505 13.036368,8.48679748 C11.2860481,10.3551442 9.93598642,12.5614619 9.06903618,14.9703489 C8.76535368,15.846973 8.50695365,16.7384734 8.29481207,17.641314 L8.1443946,18.3205156 L8.05480612,18.7065203 C7.79139586,19.7063439 7.43173021,20.6782932 6.98085041,21.6087446 C6.76959856,22.0799136 6.55834671,22.5510826 6.3769577,23.0310999 C6.26465787,23.2740207 6.20438036,23.5377349 6.1999928,23.8053213 C6.24755212,24.1459788 6.67447993,24.5330895 7.11689217,24.9423208 C8.03306973,25.5848356 8.62448168,26.5940711 8.737227,27.7073973 C8.71893751,28.2351336 8.56996359,28.7500818 8.30366301,29.2060688 C6.92077641,32.1190414 5.22640835,34.873641 3.25020918,37.4216641 C2.39967165,38.4602268 2.22270675,38.865034 2.22270675,39.0309386 C2.42644702,39.2219537 2.64380166,39.3979074 2.87305275,39.5574092 C3.16439735,39.7607683 3.47220463,39.9394592 3.79327021,40.091622 C4.74556256,40.5738513 6.03630027,41.2352576 6.2940054,42.5923572 C6.45422286,43.427607 6.35022998,44.2920237 5.99648317,45.0654416 C5.80735194,45.4602945 5.61379658,45.8064821 5.44346787,46.1062164 C5.38484824,46.2046531 5.3218045,46.3229984 5.26539694,46.4258592 C5.71886949,46.7897433 6.35151899,47.2631244 6.61696634,47.4599978 C6.85675995,47.6376731 7.01457358,47.9047144 7.05456283,48.2004682 C7.09455209,48.496222 7.01332263,48.7955845 6.82932421,49.0305613 C6.7204708,49.1730879 6.62112655,49.3225132 6.53189703,49.4778585 L6.40571449,49.7151942 L6.64240504,49.851236 C7.61958948,50.2722137 8.3644256,51.0986425 8.68192547,52.1141746 C8.84058858,52.8987226 8.80489529,53.7101753 8.5779586,54.477762 C8.52708119,54.7078164 8.47509775,54.9367647 8.44523492,55.1657131 C8.38169893,55.8279277 8.47295093,56.495847 8.7117883,57.116751 C8.94972225,58.1449414 9.9583389,58.8007377 10.9946355,58.6010441 C14.2134919,57.8165808 17.3876298,56.8588381 20.5031806,55.7320007 C21.5616518,55.3703287 22.5294286,55.0318833 23.3180284,54.7553757 C24.1884745,54.4490052 24.8421386,54.2211629 25.1739478,54.117196 C29.769505,52.6749321 30.7018887,51.0136742 30.675344,49.8744626 C30.6682189,49.5811012 30.7779666,49.296933 30.9804274,49.084515 C31.1828881,48.8720972 31.4614644,48.7488436 31.7548299,48.7418873 C32.3572447,48.7495144 32.8515029,49.2210868 32.8874052,49.8224792 C32.951555,52.5842376 30.5802254,54.7387852 25.8386722,56.2275024 C25.5223474,56.3270452 24.8885919,56.5493573 24.0502207,56.8424554 C23.8057879,56.9309379 23.5348104,57.0227384 23.2527726,57.1211752 C24.9728561,59.0247536 26.2561003,61.2788613 27.0153359,63.7255302 L27.1515305,64.1864986 L52.2307744,64.1157127 L52.1511402,63.9951554 C51.8348896,63.5390495 51.5499841,63.0619897 51.2983906,62.5672698 C50.7520406,61.4461014 50.2935052,60.2842319 49.9269127,59.0921217 C49.2577442,56.82946 48.7964598,54.5104515 48.5487986,52.163946 C48.1094416,48.4650462 48.6669577,44.7159413 50.1636032,41.3049375 C50.9497487,39.6669194 51.8996777,38.1133515 52.9985257,36.6678695 L53.4175453,36.1309264 C54.057937,35.2637984 54.7237674,34.3668076 55.3033275,33.4576504 C56.8292107,31.0889456 57.649747,28.3350277 57.6691269,25.5174567 C57.730605,22.5628734 57.3678169,19.6147543 56.5918531,16.7632245 C55.6128094,13.4069586 53.5582873,10.4652654 50.7442693,8.39057282 C44.9530931,3.8469991 39.5811024,1.95126265 33.3231813,2.28307183 Z M34.6736446,4.46084608 C39.8465498,4.46084608 44.3823813,6.21169253 49.3849577,10.1358891 C51.8252076,11.9252006 53.6100466,14.4666434 54.4649563,17.3693293 C54.9891932,19.2775136 55.3036917,21.2371953 55.4028702,23.213595 C55.4039762,23.2312914 55.4128245,23.2456698 55.4128245,23.2633663 C55.4129728,23.2700212 55.4126031,23.2766774 55.4117185,23.2832749 C55.4515356,24.009937 55.468126,24.7454473 55.4570657,25.4875939 C55.4414142,26.2261044 55.3637185,26.9619928 55.2247993,27.6874887 C55.224572,27.8443969 55.1906246,27.9994236 55.1252565,28.1420673 C54.8060132,29.6055634 54.2321061,31.0015839 53.4297116,32.2664554 C52.6857577,33.3502252 51.7484048,34.2875781 50.6646351,35.031532 L50.6646351,35.031532 L50.6314542,35.0613948 C48.6328569,37.0035845 46.6088209,39.3505815 46.6088209,42.0658866 C46.6088209,47.0297519 44.0749048,48.441047 43.7851248,48.5914671 C43.4413054,48.7632814 43.0329394,48.7442794 42.7065609,48.5412796 C42.3801822,48.3382798 42.1825947,47.9803929 42.1846985,47.5960396 C42.1846985,45.6394715 42.1846985,44.8309631 38.2096245,41.8446805 C34.5099521,39.079604 35.4124731,34.4099428 36.1081663,32.2222142 C35.479941,31.6503964 34.8760482,31.0619881 34.2865339,30.4857462 C31.3419118,27.6059461 27.9388678,27.9657284 21.3827449,28.903788 L20.5640122,29.0213617 L19.075295,29.2337195 C15.8766545,29.6871921 13.4411752,29.0633908 11.8484911,27.3755881 C9.33890765,24.7144785 9.95607273,20.4728511 10.2049296,19.2352029 C10.2723975,18.9465289 10.8066103,16.6526214 11.1461617,15.7312979 C11.2147356,15.5465908 11.2998999,15.3751561 11.374004,15.1937671 C11.3952388,15.1259748 11.4230204,15.0604101 11.4569563,14.9979996 C12.2084835,13.1555411 13.2885547,11.4649785 14.6445365,10.0086956 C16.0453032,8.63357375 17.7437616,7.59928525 19.6084018,6.98591395 C19.6327345,6.97485365 19.6581732,6.96932349 19.6836119,6.95936922 C20.889528,6.52865618 22.1257886,6.18816694 23.3821782,5.94071503 C26.24699,5.3326205 29.1438789,4.88691688 32.0589883,4.60573609 C32.1150238,4.58932889 32.1723875,4.57785616 32.230423,4.57144914 C32.2558617,4.57144914 32.2768763,4.58582754 32.302315,4.58582754 C32.6794715,4.55485869 33.0566279,4.51172349 33.4337843,4.49181494 C33.855182,4.47190639 34.2666254,4.46084608 34.6736446,4.46084608 Z M37.9618736,33.769551 C37.4873865,35.6918322 37.3325422,38.4281519 39.530225,40.0739255 C42.2941955,42.1477329 43.4909206,43.4871359 44.0074369,44.7800857 C44.284017,43.90256 44.4155199,42.9857757 44.3967597,42.0658866 C44.465504,39.9618286 45.2223582,37.9383703 46.5513073,36.3056792 C46.1229831,36.3525961 45.6925498,36.3776985 45.2616756,36.3808893 C42.6046404,36.3524463 40.034065,35.4328814 37.9618736,33.769551 Z M35.5485149,6.70055806 C34.8937447,6.67290729 34.2290203,6.67290729 33.5454934,6.70166409 C33.4769195,6.70608821 33.4061336,6.71936058 33.3364536,6.71936058 L33.3364536,6.71936058 L33.3364536,7.77893789 C33.3364536,8.38978173 32.8412668,8.8849685 32.230423,8.8849685 C31.6195793,8.8849685 31.1243924,8.38978173 31.1243924,7.77893789 L31.1243924,7.77893789 L31.1243924,6.90296166 C30.38667,6.98370189 29.6489476,7.08545671 28.9123312,7.19605977 L28.9123312,7.19605977 L28.9123312,7.77893789 C28.9123312,8.38978173 28.4171444,8.8849685 27.8063006,8.8849685 C27.1954569,8.8849685 26.70027,8.38978173 26.70027,7.77893789 L26.70027,7.77893789 L26.70027,7.56436796 C25.7313872,7.73801476 24.7669285,7.92050981 23.8245905,8.11074707 C22.9283503,8.28806534 22.0422554,8.51328109 21.170117,8.78542574 L21.170117,8.78542574 L21.170117,11.0970297 C21.170117,11.7078735 21.6653038,12.2030603 22.2761476,12.2030603 C22.8869914,12.2030603 23.3821782,12.6982471 23.3821782,13.3090909 C23.3821782,13.9199347 22.8869914,14.4151215 22.2761476,14.4151215 C20.4436162,14.4151215 18.9580558,12.9295612 18.9580558,11.0970297 L18.9580558,11.0970297 L18.9580558,9.6514477 C17.9487231,10.1091333 17.0303548,10.7453591 16.2471748,11.5294877 C15.4371313,12.3981575 14.7430354,13.3681073 14.1822157,14.4151215 L14.1822157,14.4151215 L16.7459946,14.4151215 C17.3568384,14.4151215 17.8520252,14.9103083 17.8520252,15.5211521 C17.8520252,16.1319959 17.3568384,16.6271827 16.7459946,16.6271827 L16.7459946,16.6271827 L13.1746218,16.6271827 C12.9169167,17.3803896 12.5087914,19.0748284 12.3639014,19.7030538 C12.2768629,20.1483054 12.2181256,20.5986247 12.1880425,21.0513051 L12.1880425,21.0513051 L13.4279028,21.0513051 C14.0387466,21.0513051 14.5339334,20.5561183 14.5339334,19.9452745 C14.5339334,19.3344307 15.0291202,18.8392439 15.639964,18.8392439 C16.2508078,18.8392439 16.7459946,19.3344307 16.7459946,19.9452745 C16.7459946,21.777806 15.2604342,23.2633663 13.4279028,23.2633663 L13.4279028,23.2633663 L12.2864792,23.2633663 C12.4138268,24.2242969 12.8194299,25.1270042 13.4533415,25.8603262 C13.763968,26.181377 14.1300452,26.4436637 14.5339334,26.6345476 L14.5339334,26.6345476 L14.5339334,26.5814581 C14.5339334,25.9706144 15.0291202,25.4754275 15.639964,25.4754275 C16.2508078,25.4754275 16.7459946,25.9706144 16.7459946,26.5814581 L16.7459946,26.5814581 L16.7459946,27.1477458 C17.419868,27.1769187 18.0949894,27.1421073 18.7622884,27.0437789 L18.7622884,27.0437789 L20.2465815,26.8325271 C23.106292,26.3151368 26.0061993,26.0519799 28.9123312,26.0461393 L28.9123312,26.0461393 L28.9123312,25.4754275 C28.9123312,24.8645838 29.4075181,24.3693969 30.0183618,24.3693969 C30.6292056,24.3693969 31.1243924,24.8645838 31.1243924,25.4754275 L31.1243924,25.4754275 L31.1243924,26.3160108 C32.9111946,26.7039455 34.5464344,27.6036157 35.8305527,28.9052284 C37.1006844,30.2118856 38.4870971,31.4002394 39.9726373,32.4555867 L39.9726373,32.4555867 L39.9726373,32.1116112 C39.9726373,30.2790797 41.4581976,28.7935194 43.2907291,28.7935194 L43.2907291,28.7935194 L46.6088209,28.7935194 C47.2196647,28.7935194 47.7148515,29.2887062 47.7148515,29.89955 C47.7148515,30.5103937 47.2196647,31.0055806 46.6088209,31.0055806 L46.6088209,31.0055806 L43.2907291,31.0055806 C42.6798853,31.0055806 42.1846985,31.5007674 42.1846985,32.1116112 L42.1846985,32.1116112 L42.1846985,33.6136007 C44.1942439,34.3273401 46.3828159,34.3599879 48.4127568,33.7065073 C49.6949345,33.1576222 50.7897689,32.24763 51.563838,31.0874268 C52.015408,30.3681661 52.3807019,29.5982277 52.6521721,28.7935194 L52.6521721,28.7935194 L51.0329433,28.7935194 C50.4220995,28.7935194 49.9269127,28.2983325 49.9269127,27.6874887 C49.9269127,27.076645 50.4220995,26.5814581 51.0329433,26.5814581 L51.0329433,26.5814581 L53.1520979,26.5814581 C53.1941271,26.2109379 53.2361563,25.8404176 53.2416864,25.455519 C53.2472166,25.0905289 53.2295201,24.7310689 53.2217779,24.3693969 L53.2217779,24.3693969 L51.0329433,24.3693969 C50.4220995,24.3693969 49.9269127,23.8742101 49.9269127,23.2633663 C49.9269127,22.6525226 50.4220995,22.1573357 51.0329433,22.1573357 L51.0329433,22.1573357 L53.0934783,22.1573357 C52.9651395,20.7423295 52.7119795,19.3414365 52.3369534,17.9710099 C51.8756431,16.3671202 51.050962,14.8910961 49.9269127,13.6574905 L49.9269127,13.6574905 L49.9269127,14.4151215 C49.9269127,16.247653 48.4413523,17.7332133 46.6088209,17.7332133 C45.9979771,17.7332133 45.5027903,17.2380265 45.5027903,16.6271827 C45.5027903,16.0163389 45.9979771,15.5211521 46.6088209,15.5211521 C47.2196647,15.5211521 47.7148515,15.0259653 47.7148515,14.4151215 L47.7148515,14.4151215 L47.7148515,11.6522571 C46.9627507,11.0738031 46.2283464,10.5606049 45.5027903,10.0905419 L45.5027903,10.0905419 L45.5027903,12.2030603 C45.5027903,12.8139041 45.0076035,13.3090909 44.3967597,13.3090909 C43.7859159,13.3090909 43.2907291,12.8139041 43.2907291,12.2030603 L43.2907291,12.2030603 L43.2907291,8.8849685 L43.2907291,8.8849685 L43.3051075,8.81307651 C41.5670011,7.90121324 39.6957642,7.26962881 37.7605761,6.94167273 L37.7605761,6.94167273 L37.7605761,9.9909991 L38.8666067,9.9909991 C39.4774504,9.9909991 39.9726373,10.4861859 39.9726373,11.0970297 C39.9726373,11.7078735 39.4774504,12.2030603 38.8666067,12.2030603 L38.8666067,12.2030603 L36.6545455,12.2030603 C36.0437017,12.2030603 35.5485149,11.7078735 35.5485149,11.0970297 L35.5485149,11.0970297 Z M46.6088209,19.9452745 C47.1789417,19.9452745 47.6483125,20.3766373 47.7083614,20.9307909 L47.7148515,21.0513051 L47.7148515,23.2633663 C47.7148515,25.032707 46.3299771,26.4785931 44.5850475,26.5762056 L44.3967597,26.5814581 L43.2907291,26.5814581 C42.6798853,26.5814581 42.1846985,26.0862713 42.1846985,25.4754275 C42.1846985,24.9053067 42.6160612,24.4359359 43.1702149,24.375887 L43.2907291,24.3693969 L44.3967597,24.3693969 C44.9668805,24.3693969 45.4362513,23.9380342 45.4963002,23.3838805 L45.5027903,23.2633663 L45.5027903,21.0513051 C45.5027903,20.4404614 45.9979771,19.9452745 46.6088209,19.9452745 Z M34.4424842,19.9452745 C35.0126051,19.9452745 35.4819759,20.3766373 35.5420248,20.9307909 L35.5485149,21.0513051 L35.5485149,22.1573357 C35.5485149,22.7274566 35.9798776,23.1968274 36.5340312,23.2568763 L36.6545455,23.2633663 L37.7605761,23.2633663 C38.3714198,23.2633663 38.8666067,23.7585532 38.8666067,24.3693969 C38.8666067,24.9395178 38.4352439,25.4088886 37.8810903,25.4689375 L37.7605761,25.4754275 L36.6545455,25.4754275 C34.8852047,25.4754275 33.4393187,24.0905532 33.3417062,22.3456236 L33.3364536,22.1573357 L33.3364536,21.0513051 C33.3364536,20.4404614 33.8316405,19.9452745 34.4424842,19.9452745 Z M23.3821782,16.6271827 C23.993022,16.6271827 24.4882088,17.1223695 24.4882088,17.7332133 C24.4882088,18.3033342 24.0568461,18.772705 23.5026924,18.8327539 L23.3821782,18.8392439 L22.2761476,18.8392439 C21.7060268,18.8392439 21.236656,19.2706067 21.176607,19.8247603 L21.170117,19.9452745 L21.170117,21.0513051 C21.170117,21.621426 21.6014798,22.0907968 22.1556334,22.1508457 L22.2761476,22.1573357 L23.3821782,22.1573357 C23.993022,22.1573357 24.4882088,22.6525226 24.4882088,23.2633663 C24.4882088,23.8334872 24.0568461,24.302858 23.5026924,24.3629069 L23.3821782,24.3693969 L22.2761476,24.3693969 C20.5068069,24.3693969 19.0609208,22.9845226 18.9633084,21.239593 L18.9580558,21.0513051 L18.9580558,19.9452745 C18.9580558,18.1759338 20.3429301,16.7300477 22.0878598,16.6324353 L22.2761476,16.6271827 L23.3821782,16.6271827 Z M30.0183618,15.5211521 C30.5884827,15.5211521 31.0578535,15.9525149 31.1179024,16.5066685 L31.1243924,16.6271827 L31.1243924,18.8392439 C31.1243924,20.6085846 29.7395181,22.0544707 27.9945885,22.1520832 L27.8063006,22.1573357 L26.70027,22.1573357 C26.0894262,22.1573357 25.5942394,21.6621489 25.5942394,21.0513051 C25.5942394,20.4811843 26.0256022,20.0118135 26.5797558,19.9517646 L26.70027,19.9452745 L27.8063006,19.9452745 C28.3764215,19.9452745 28.8457923,19.5139118 28.9058412,18.9597581 L28.9123312,18.8392439 L28.9123312,16.6271827 C28.9123312,16.0163389 29.4075181,15.5211521 30.0183618,15.5211521 Z M42.1846985,14.4151215 C42.7955422,14.4151215 43.2907291,14.9103083 43.2907291,15.5211521 C43.2907291,16.091273 42.8593663,16.5606438 42.3052127,16.6206927 L42.1846985,16.6271827 L41.0786679,16.6271827 C40.4678241,16.6271827 39.9726373,17.1223695 39.9726373,17.7332133 C39.9726373,18.3033342 40.404,18.772705 40.9581537,18.8327539 L41.0786679,18.8392439 L42.1846985,18.8392439 C42.7955422,18.8392439 43.2907291,19.3344307 43.2907291,19.9452745 C43.2907291,20.5153954 42.8593663,20.9847662 42.3052127,21.0448151 L42.1846985,21.0513051 L41.0786679,21.0513051 C39.2461364,21.0513051 37.7605761,19.5657448 37.7605761,17.7332133 C37.7605761,15.9638726 39.1454504,14.5179865 40.89038,14.4203741 L41.0786679,14.4151215 L42.1846985,14.4151215 Z M31.1243924,11.0970297 C32.8937331,11.0970297 34.3396192,12.481904 34.4372317,14.2268337 L34.4424842,14.4151215 L34.4424842,15.5211521 C34.4424842,16.1319959 33.9472974,16.6271827 33.3364536,16.6271827 C32.7663328,16.6271827 32.296962,16.19582 32.2369131,15.6416663 L32.230423,15.5211521 L32.230423,14.4151215 C32.230423,13.8450007 31.7990603,13.3756298 31.2449066,13.3155809 L31.1243924,13.3090909 L28.9123312,13.3090909 C28.3422104,13.3090909 27.8728396,13.7404537 27.8127907,14.2946073 L27.8063006,14.4151215 L27.8063006,15.5211521 C27.8063006,16.1319959 27.3111138,16.6271827 26.70027,16.6271827 C26.1301492,16.6271827 25.6607784,16.19582 25.6007295,15.6416663 L25.5942394,15.5211521 L25.5942394,14.4151215 C25.5942394,12.6457808 26.9791138,11.1998947 28.7240434,11.1022823 L28.9123312,11.0970297 L31.1243924,11.0970297 Z" id="Combined-Shape"></path>
                        </g>
                    </g>
                </g>
            </g>
        </g>
    </g>
</svg>