<?xml version="1.0" encoding="UTF-8"?>
<svg width="904px" height="371px" viewBox="0 0 904 371" version="1.1" xmlns="http://www.w3.org/2000/svg" xmlns:xlink="http://www.w3.org/1999/xlink">
    <!-- Generator: Sketch 57.1 (83088) - https://sketch.com -->
    <title>background items</title>
    <desc>Created with Sketch.</desc>
    <defs>
        <circle id="path-1" cx="91.5" cy="91.5" r="91.5"></circle>
    </defs>
    <g id="Page-1" stroke="none" stroke-width="1" fill="none" fill-rule="evenodd">
        <g id="Final-design" transform="translate(-173.000000, -840.000000)">
            <g id="HOW-IT-WORKS" transform="translate(144.000000, 840.000000)">
                <g id="background-items" transform="translate(29.000000, 0.000000)">
                    <rect id="Rectangle-Copy-8" fill="#FEE0D4" transform="translate(23.000000, 314.000000) rotate(-45.000000) translate(-23.000000, -314.000000) " x="7" y="298" width="32" height="32"></rect>
                    <circle id="Oval-Copy-232" stroke="#B8DEFC" stroke-width="3" cx="518" cy="179" r="10"></circle>
                    <polygon id="Triangle-Copy-7" fill="#FEE0D4" transform="translate(288.500000, 172.500000) rotate(123.000000) translate(-288.500000, -172.500000) " points="288.5 160 301 185 276 185"></polygon>
                    <path d="M289.5,345 C290.328427,345 291,345.671573 291,346.5 C291,347.328427 290.328427,348 289.5,348 C288.671573,348 288,347.328427 288,346.5 C288,345.671573 288.671573,345 289.5,345 Z M276.5,345 C277.328427,345 278,345.671573 278,346.5 C278,347.328427 277.328427,348 276.5,348 C275.671573,348 275,347.328427 275,346.5 C275,345.671573 275.671573,345 276.5,345 Z M263.5,345 C264.328427,345 265,345.671573 265,346.5 C265,347.328427 264.328427,348 263.5,348 C262.671573,348 262,347.328427 262,346.5 C262,345.671573 262.671573,345 263.5,345 Z M250.5,345 C251.328427,345 252,345.671573 252,346.5 C252,347.328427 251.328427,348 250.5,348 C249.671573,348 249,347.328427 249,346.5 C249,345.671573 249.671573,345 250.5,345 Z M237.5,345 C238.328427,345 239,345.671573 239,346.5 C239,347.328427 238.328427,348 237.5,348 C236.671573,348 236,347.328427 236,346.5 C236,345.671573 236.671573,345 237.5,345 Z M224.5,345 C225.328427,345 226,345.671573 226,346.5 C226,347.328427 225.328427,348 224.5,348 C223.671573,348 223,347.328427 223,346.5 C223,345.671573 223.671573,345 224.5,345 Z M211.5,345 C212.328427,345 213,345.671573 213,346.5 C213,347.328427 212.328427,348 211.5,348 C210.671573,348 210,347.328427 210,346.5 C210,345.671573 210.671573,345 211.5,345 Z M198.5,345 C199.328427,345 200,345.671573 200,346.5 C200,347.328427 199.328427,348 198.5,348 C197.671573,348 197,347.328427 197,346.5 C197,345.671573 197.671573,345 198.5,345 Z M185.5,345 C186.328427,345 187,345.671573 187,346.5 C187,347.328427 186.328427,348 185.5,348 C184.671573,348 184,347.328427 184,346.5 C184,345.671573 184.671573,345 185.5,345 Z M172.5,345 C173.328427,345 174,345.671573 174,346.5 C174,347.328427 173.328427,348 172.5,348 C171.671573,348 171,347.328427 171,346.5 C171,345.671573 171.671573,345 172.5,345 Z M159.5,345 C160.328427,345 161,345.671573 161,346.5 C161,347.328427 160.328427,348 159.5,348 C158.671573,348 158,347.328427 158,346.5 C158,345.671573 158.671573,345 159.5,345 Z M146.5,345 C147.328427,345 148,345.671573 148,346.5 C148,347.328427 147.328427,348 146.5,348 C145.671573,348 145,347.328427 145,346.5 C145,345.671573 145.671573,345 146.5,345 Z M133.5,345 C134.328427,345 135,345.671573 135,346.5 C135,347.328427 134.328427,348 133.5,348 C132.671573,348 132,347.328427 132,346.5 C132,345.671573 132.671573,345 133.5,345 Z M120.5,345 C121.328427,345 122,345.671573 122,346.5 C122,347.328427 121.328427,348 120.5,348 C119.671573,348 119,347.328427 119,346.5 C119,345.671573 119.671573,345 120.5,345 Z M107.5,345 C108.328427,345 109,345.671573 109,346.5 C109,347.328427 108.328427,348 107.5,348 C106.671573,348 106,347.328427 106,346.5 C106,345.671573 106.671573,345 107.5,345 Z M289.5,332 C290.328427,332 291,332.671573 291,333.5 C291,334.328427 290.328427,335 289.5,335 C288.671573,335 288,334.328427 288,333.5 C288,332.671573 288.671573,332 289.5,332 Z M276.5,332 C277.328427,332 278,332.671573 278,333.5 C278,334.328427 277.328427,335 276.5,335 C275.671573,335 275,334.328427 275,333.5 C275,332.671573 275.671573,332 276.5,332 Z M263.5,332 C264.328427,332 265,332.671573 265,333.5 C265,334.328427 264.328427,335 263.5,335 C262.671573,335 262,334.328427 262,333.5 C262,332.671573 262.671573,332 263.5,332 Z M250.5,332 C251.328427,332 252,332.671573 252,333.5 C252,334.328427 251.328427,335 250.5,335 C249.671573,335 249,334.328427 249,333.5 C249,332.671573 249.671573,332 250.5,332 Z M237.5,332 C238.328427,332 239,332.671573 239,333.5 C239,334.328427 238.328427,335 237.5,335 C236.671573,335 236,334.328427 236,333.5 C236,332.671573 236.671573,332 237.5,332 Z M224.5,332 C225.328427,332 226,332.671573 226,333.5 C226,334.328427 225.328427,335 224.5,335 C223.671573,335 223,334.328427 223,333.5 C223,332.671573 223.671573,332 224.5,332 Z M211.5,332 C212.328427,332 213,332.671573 213,333.5 C213,334.328427 212.328427,335 211.5,335 C210.671573,335 210,334.328427 210,333.5 C210,332.671573 210.671573,332 211.5,332 Z M198.5,332 C199.328427,332 200,332.671573 200,333.5 C200,334.328427 199.328427,335 198.5,335 C197.671573,335 197,334.328427 197,333.5 C197,332.671573 197.671573,332 198.5,332 Z M185.5,332 C186.328427,332 187,332.671573 187,333.5 C187,334.328427 186.328427,335 185.5,335 C184.671573,335 184,334.328427 184,333.5 C184,332.671573 184.671573,332 185.5,332 Z M172.5,332 C173.328427,332 174,332.671573 174,333.5 C174,334.328427 173.328427,335 172.5,335 C171.671573,335 171,334.328427 171,333.5 C171,332.671573 171.671573,332 172.5,332 Z M159.5,332 C160.328427,332 161,332.671573 161,333.5 C161,334.328427 160.328427,335 159.5,335 C158.671573,335 158,334.328427 158,333.5 C158,332.671573 158.671573,332 159.5,332 Z M146.5,332 C147.328427,332 148,332.671573 148,333.5 C148,334.328427 147.328427,335 146.5,335 C145.671573,335 145,334.328427 145,333.5 C145,332.671573 145.671573,332 146.5,332 Z M133.5,332 C134.328427,332 135,332.671573 135,333.5 C135,334.328427 134.328427,335 133.5,335 C132.671573,335 132,334.328427 132,333.5 C132,332.671573 132.671573,332 133.5,332 Z M120.5,332 C121.328427,332 122,332.671573 122,333.5 C122,334.328427 121.328427,335 120.5,335 C119.671573,335 119,334.328427 119,333.5 C119,332.671573 119.671573,332 120.5,332 Z M107.5,332 C108.328427,332 109,332.671573 109,333.5 C109,334.328427 108.328427,335 107.5,335 C106.671573,335 106,334.328427 106,333.5 C106,332.671573 106.671573,332 107.5,332 Z M289.5,319 C290.328427,319 291,319.671573 291,320.5 C291,321.328427 290.328427,322 289.5,322 C288.671573,322 288,321.328427 288,320.5 C288,319.671573 288.671573,319 289.5,319 Z M276.5,319 C277.328427,319 278,319.671573 278,320.5 C278,321.328427 277.328427,322 276.5,322 C275.671573,322 275,321.328427 275,320.5 C275,319.671573 275.671573,319 276.5,319 Z M263.5,319 C264.328427,319 265,319.671573 265,320.5 C265,321.328427 264.328427,322 263.5,322 C262.671573,322 262,321.328427 262,320.5 C262,319.671573 262.671573,319 263.5,319 Z M250.5,319 C251.328427,319 252,319.671573 252,320.5 C252,321.328427 251.328427,322 250.5,322 C249.671573,322 249,321.328427 249,320.5 C249,319.671573 249.671573,319 250.5,319 Z M237.5,319 C238.328427,319 239,319.671573 239,320.5 C239,321.328427 238.328427,322 237.5,322 C236.671573,322 236,321.328427 236,320.5 C236,319.671573 236.671573,319 237.5,319 Z M224.5,319 C225.328427,319 226,319.671573 226,320.5 C226,321.328427 225.328427,322 224.5,322 C223.671573,322 223,321.328427 223,320.5 C223,319.671573 223.671573,319 224.5,319 Z M211.5,319 C212.328427,319 213,319.671573 213,320.5 C213,321.328427 212.328427,322 211.5,322 C210.671573,322 210,321.328427 210,320.5 C210,319.671573 210.671573,319 211.5,319 Z M198.5,319 C199.328427,319 200,319.671573 200,320.5 C200,321.328427 199.328427,322 198.5,322 C197.671573,322 197,321.328427 197,320.5 C197,319.671573 197.671573,319 198.5,319 Z M185.5,319 C186.328427,319 187,319.671573 187,320.5 C187,321.328427 186.328427,322 185.5,322 C184.671573,322 184,321.328427 184,320.5 C184,319.671573 184.671573,319 185.5,319 Z M172.5,319 C173.328427,319 174,319.671573 174,320.5 C174,321.328427 173.328427,322 172.5,322 C171.671573,322 171,321.328427 171,320.5 C171,319.671573 171.671573,319 172.5,319 Z M159.5,319 C160.328427,319 161,319.671573 161,320.5 C161,321.328427 160.328427,322 159.5,322 C158.671573,322 158,321.328427 158,320.5 C158,319.671573 158.671573,319 159.5,319 Z M146.5,319 C147.328427,319 148,319.671573 148,320.5 C148,321.328427 147.328427,322 146.5,322 C145.671573,322 145,321.328427 145,320.5 C145,319.671573 145.671573,319 146.5,319 Z M133.5,319 C134.328427,319 135,319.671573 135,320.5 C135,321.328427 134.328427,322 133.5,322 C132.671573,322 132,321.328427 132,320.5 C132,319.671573 132.671573,319 133.5,319 Z M120.5,319 C121.328427,319 122,319.671573 122,320.5 C122,321.328427 121.328427,322 120.5,322 C119.671573,322 119,321.328427 119,320.5 C119,319.671573 119.671573,319 120.5,319 Z M107.5,319 C108.328427,319 109,319.671573 109,320.5 C109,321.328427 108.328427,322 107.5,322 C106.671573,322 106,321.328427 106,320.5 C106,319.671573 106.671573,319 107.5,319 Z M289.5,306 C290.328427,306 291,306.671573 291,307.5 C291,308.328427 290.328427,309 289.5,309 C288.671573,309 288,308.328427 288,307.5 C288,306.671573 288.671573,306 289.5,306 Z M276.5,306 C277.328427,306 278,306.671573 278,307.5 C278,308.328427 277.328427,309 276.5,309 C275.671573,309 275,308.328427 275,307.5 C275,306.671573 275.671573,306 276.5,306 Z M263.5,306 C264.328427,306 265,306.671573 265,307.5 C265,308.328427 264.328427,309 263.5,309 C262.671573,309 262,308.328427 262,307.5 C262,306.671573 262.671573,306 263.5,306 Z M250.5,306 C251.328427,306 252,306.671573 252,307.5 C252,308.328427 251.328427,309 250.5,309 C249.671573,309 249,308.328427 249,307.5 C249,306.671573 249.671573,306 250.5,306 Z M237.5,306 C238.328427,306 239,306.671573 239,307.5 C239,308.328427 238.328427,309 237.5,309 C236.671573,309 236,308.328427 236,307.5 C236,306.671573 236.671573,306 237.5,306 Z M224.5,306 C225.328427,306 226,306.671573 226,307.5 C226,308.328427 225.328427,309 224.5,309 C223.671573,309 223,308.328427 223,307.5 C223,306.671573 223.671573,306 224.5,306 Z M211.5,306 C212.328427,306 213,306.671573 213,307.5 C213,308.328427 212.328427,309 211.5,309 C210.671573,309 210,308.328427 210,307.5 C210,306.671573 210.671573,306 211.5,306 Z M198.5,306 C199.328427,306 200,306.671573 200,307.5 C200,308.328427 199.328427,309 198.5,309 C197.671573,309 197,308.328427 197,307.5 C197,306.671573 197.671573,306 198.5,306 Z M185.5,306 C186.328427,306 187,306.671573 187,307.5 C187,308.328427 186.328427,309 185.5,309 C184.671573,309 184,308.328427 184,307.5 C184,306.671573 184.671573,306 185.5,306 Z M172.5,306 C173.328427,306 174,306.671573 174,307.5 C174,308.328427 173.328427,309 172.5,309 C171.671573,309 171,308.328427 171,307.5 C171,306.671573 171.671573,306 172.5,306 Z M159.5,306 C160.328427,306 161,306.671573 161,307.5 C161,308.328427 160.328427,309 159.5,309 C158.671573,309 158,308.328427 158,307.5 C158,306.671573 158.671573,306 159.5,306 Z M146.5,306 C147.328427,306 148,306.671573 148,307.5 C148,308.328427 147.328427,309 146.5,309 C145.671573,309 145,308.328427 145,307.5 C145,306.671573 145.671573,306 146.5,306 Z M133.5,306 C134.328427,306 135,306.671573 135,307.5 C135,308.328427 134.328427,309 133.5,309 C132.671573,309 132,308.328427 132,307.5 C132,306.671573 132.671573,306 133.5,306 Z M120.5,306 C121.328427,306 122,306.671573 122,307.5 C122,308.328427 121.328427,309 120.5,309 C119.671573,309 119,308.328427 119,307.5 C119,306.671573 119.671573,306 120.5,306 Z M107.5,306 C108.328427,306 109,306.671573 109,307.5 C109,308.328427 108.328427,309 107.5,309 C106.671573,309 106,308.328427 106,307.5 C106,306.671573 106.671573,306 107.5,306 Z M289.5,293 C290.328427,293 291,293.671573 291,294.5 C291,295.328427 290.328427,296 289.5,296 C288.671573,296 288,295.328427 288,294.5 C288,293.671573 288.671573,293 289.5,293 Z M276.5,293 C277.328427,293 278,293.671573 278,294.5 C278,295.328427 277.328427,296 276.5,296 C275.671573,296 275,295.328427 275,294.5 C275,293.671573 275.671573,293 276.5,293 Z M263.5,293 C264.328427,293 265,293.671573 265,294.5 C265,295.328427 264.328427,296 263.5,296 C262.671573,296 262,295.328427 262,294.5 C262,293.671573 262.671573,293 263.5,293 Z M250.5,293 C251.328427,293 252,293.671573 252,294.5 C252,295.328427 251.328427,296 250.5,296 C249.671573,296 249,295.328427 249,294.5 C249,293.671573 249.671573,293 250.5,293 Z M237.5,293 C238.328427,293 239,293.671573 239,294.5 C239,295.328427 238.328427,296 237.5,296 C236.671573,296 236,295.328427 236,294.5 C236,293.671573 236.671573,293 237.5,293 Z M224.5,293 C225.328427,293 226,293.671573 226,294.5 C226,295.328427 225.328427,296 224.5,296 C223.671573,296 223,295.328427 223,294.5 C223,293.671573 223.671573,293 224.5,293 Z M211.5,293 C212.328427,293 213,293.671573 213,294.5 C213,295.328427 212.328427,296 211.5,296 C210.671573,296 210,295.328427 210,294.5 C210,293.671573 210.671573,293 211.5,293 Z M198.5,293 C199.328427,293 200,293.671573 200,294.5 C200,295.328427 199.328427,296 198.5,296 C197.671573,296 197,295.328427 197,294.5 C197,293.671573 197.671573,293 198.5,293 Z M185.5,293 C186.328427,293 187,293.671573 187,294.5 C187,295.328427 186.328427,296 185.5,296 C184.671573,296 184,295.328427 184,294.5 C184,293.671573 184.671573,293 185.5,293 Z M172.5,293 C173.328427,293 174,293.671573 174,294.5 C174,295.328427 173.328427,296 172.5,296 C171.671573,296 171,295.328427 171,294.5 C171,293.671573 171.671573,293 172.5,293 Z M159.5,293 C160.328427,293 161,293.671573 161,294.5 C161,295.328427 160.328427,296 159.5,296 C158.671573,296 158,295.328427 158,294.5 C158,293.671573 158.671573,293 159.5,293 Z M146.5,293 C147.328427,293 148,293.671573 148,294.5 C148,295.328427 147.328427,296 146.5,296 C145.671573,296 145,295.328427 145,294.5 C145,293.671573 145.671573,293 146.5,293 Z M133.5,293 C134.328427,293 135,293.671573 135,294.5 C135,295.328427 134.328427,296 133.5,296 C132.671573,296 132,295.328427 132,294.5 C132,293.671573 132.671573,293 133.5,293 Z M120.5,293 C121.328427,293 122,293.671573 122,294.5 C122,295.328427 121.328427,296 120.5,296 C119.671573,296 119,295.328427 119,294.5 C119,293.671573 119.671573,293 120.5,293 Z M107.5,293 C108.328427,293 109,293.671573 109,294.5 C109,295.328427 108.328427,296 107.5,296 C106.671573,296 106,295.328427 106,294.5 C106,293.671573 106.671573,293 107.5,293 Z M289.5,280 C290.328427,280 291,280.671573 291,281.5 C291,282.328427 290.328427,283 289.5,283 C288.671573,283 288,282.328427 288,281.5 C288,280.671573 288.671573,280 289.5,280 Z M276.5,280 C277.328427,280 278,280.671573 278,281.5 C278,282.328427 277.328427,283 276.5,283 C275.671573,283 275,282.328427 275,281.5 C275,280.671573 275.671573,280 276.5,280 Z M263.5,280 C264.328427,280 265,280.671573 265,281.5 C265,282.328427 264.328427,283 263.5,283 C262.671573,283 262,282.328427 262,281.5 C262,280.671573 262.671573,280 263.5,280 Z M250.5,280 C251.328427,280 252,280.671573 252,281.5 C252,282.328427 251.328427,283 250.5,283 C249.671573,283 249,282.328427 249,281.5 C249,280.671573 249.671573,280 250.5,280 Z M237.5,280 C238.328427,280 239,280.671573 239,281.5 C239,282.328427 238.328427,283 237.5,283 C236.671573,283 236,282.328427 236,281.5 C236,280.671573 236.671573,280 237.5,280 Z M224.5,280 C225.328427,280 226,280.671573 226,281.5 C226,282.328427 225.328427,283 224.5,283 C223.671573,283 223,282.328427 223,281.5 C223,280.671573 223.671573,280 224.5,280 Z M211.5,280 C212.328427,280 213,280.671573 213,281.5 C213,282.328427 212.328427,283 211.5,283 C210.671573,283 210,282.328427 210,281.5 C210,280.671573 210.671573,280 211.5,280 Z M198.5,280 C199.328427,280 200,280.671573 200,281.5 C200,282.328427 199.328427,283 198.5,283 C197.671573,283 197,282.328427 197,281.5 C197,280.671573 197.671573,280 198.5,280 Z M185.5,280 C186.328427,280 187,280.671573 187,281.5 C187,282.328427 186.328427,283 185.5,283 C184.671573,283 184,282.328427 184,281.5 C184,280.671573 184.671573,280 185.5,280 Z M172.5,280 C173.328427,280 174,280.671573 174,281.5 C174,282.328427 173.328427,283 172.5,283 C171.671573,283 171,282.328427 171,281.5 C171,280.671573 171.671573,280 172.5,280 Z M159.5,280 C160.328427,280 161,280.671573 161,281.5 C161,282.328427 160.328427,283 159.5,283 C158.671573,283 158,282.328427 158,281.5 C158,280.671573 158.671573,280 159.5,280 Z M146.5,280 C147.328427,280 148,280.671573 148,281.5 C148,282.328427 147.328427,283 146.5,283 C145.671573,283 145,282.328427 145,281.5 C145,280.671573 145.671573,280 146.5,280 Z M133.5,280 C134.328427,280 135,280.671573 135,281.5 C135,282.328427 134.328427,283 133.5,283 C132.671573,283 132,282.328427 132,281.5 C132,280.671573 132.671573,280 133.5,280 Z M120.5,280 C121.328427,280 122,280.671573 122,281.5 C122,282.328427 121.328427,283 120.5,283 C119.671573,283 119,282.328427 119,281.5 C119,280.671573 119.671573,280 120.5,280 Z M107.5,280 C108.328427,280 109,280.671573 109,281.5 C109,282.328427 108.328427,283 107.5,283 C106.671573,283 106,282.328427 106,281.5 C106,280.671573 106.671573,280 107.5,280 Z M289.5,267 C290.328427,267 291,267.671573 291,268.5 C291,269.328427 290.328427,270 289.5,270 C288.671573,270 288,269.328427 288,268.5 C288,267.671573 288.671573,267 289.5,267 Z M276.5,267 C277.328427,267 278,267.671573 278,268.5 C278,269.328427 277.328427,270 276.5,270 C275.671573,270 275,269.328427 275,268.5 C275,267.671573 275.671573,267 276.5,267 Z M263.5,267 C264.328427,267 265,267.671573 265,268.5 C265,269.328427 264.328427,270 263.5,270 C262.671573,270 262,269.328427 262,268.5 C262,267.671573 262.671573,267 263.5,267 Z M250.5,267 C251.328427,267 252,267.671573 252,268.5 C252,269.328427 251.328427,270 250.5,270 C249.671573,270 249,269.328427 249,268.5 C249,267.671573 249.671573,267 250.5,267 Z M237.5,267 C238.328427,267 239,267.671573 239,268.5 C239,269.328427 238.328427,270 237.5,270 C236.671573,270 236,269.328427 236,268.5 C236,267.671573 236.671573,267 237.5,267 Z M224.5,267 C225.328427,267 226,267.671573 226,268.5 C226,269.328427 225.328427,270 224.5,270 C223.671573,270 223,269.328427 223,268.5 C223,267.671573 223.671573,267 224.5,267 Z M211.5,267 C212.328427,267 213,267.671573 213,268.5 C213,269.328427 212.328427,270 211.5,270 C210.671573,270 210,269.328427 210,268.5 C210,267.671573 210.671573,267 211.5,267 Z M198.5,267 C199.328427,267 200,267.671573 200,268.5 C200,269.328427 199.328427,270 198.5,270 C197.671573,270 197,269.328427 197,268.5 C197,267.671573 197.671573,267 198.5,267 Z M185.5,267 C186.328427,267 187,267.671573 187,268.5 C187,269.328427 186.328427,270 185.5,270 C184.671573,270 184,269.328427 184,268.5 C184,267.671573 184.671573,267 185.5,267 Z M172.5,267 C173.328427,267 174,267.671573 174,268.5 C174,269.328427 173.328427,270 172.5,270 C171.671573,270 171,269.328427 171,268.5 C171,267.671573 171.671573,267 172.5,267 Z M159.5,267 C160.328427,267 161,267.671573 161,268.5 C161,269.328427 160.328427,270 159.5,270 C158.671573,270 158,269.328427 158,268.5 C158,267.671573 158.671573,267 159.5,267 Z M146.5,267 C147.328427,267 148,267.671573 148,268.5 C148,269.328427 147.328427,270 146.5,270 C145.671573,270 145,269.328427 145,268.5 C145,267.671573 145.671573,267 146.5,267 Z M133.5,267 C134.328427,267 135,267.671573 135,268.5 C135,269.328427 134.328427,270 133.5,270 C132.671573,270 132,269.328427 132,268.5 C132,267.671573 132.671573,267 133.5,267 Z M120.5,267 C121.328427,267 122,267.671573 122,268.5 C122,269.328427 121.328427,270 120.5,270 C119.671573,270 119,269.328427 119,268.5 C119,267.671573 119.671573,267 120.5,267 Z M107.5,267 C108.328427,267 109,267.671573 109,268.5 C109,269.328427 108.328427,270 107.5,270 C106.671573,270 106,269.328427 106,268.5 C106,267.671573 106.671573,267 107.5,267 Z M289.5,254 C290.328427,254 291,254.671573 291,255.5 C291,256.328427 290.328427,257 289.5,257 C288.671573,257 288,256.328427 288,255.5 C288,254.671573 288.671573,254 289.5,254 Z M276.5,254 C277.328427,254 278,254.671573 278,255.5 C278,256.328427 277.328427,257 276.5,257 C275.671573,257 275,256.328427 275,255.5 C275,254.671573 275.671573,254 276.5,254 Z M263.5,254 C264.328427,254 265,254.671573 265,255.5 C265,256.328427 264.328427,257 263.5,257 C262.671573,257 262,256.328427 262,255.5 C262,254.671573 262.671573,254 263.5,254 Z M250.5,254 C251.328427,254 252,254.671573 252,255.5 C252,256.328427 251.328427,257 250.5,257 C249.671573,257 249,256.328427 249,255.5 C249,254.671573 249.671573,254 250.5,254 Z M237.5,254 C238.328427,254 239,254.671573 239,255.5 C239,256.328427 238.328427,257 237.5,257 C236.671573,257 236,256.328427 236,255.5 C236,254.671573 236.671573,254 237.5,254 Z M224.5,254 C225.328427,254 226,254.671573 226,255.5 C226,256.328427 225.328427,257 224.5,257 C223.671573,257 223,256.328427 223,255.5 C223,254.671573 223.671573,254 224.5,254 Z M211.5,254 C212.328427,254 213,254.671573 213,255.5 C213,256.328427 212.328427,257 211.5,257 C210.671573,257 210,256.328427 210,255.5 C210,254.671573 210.671573,254 211.5,254 Z M198.5,254 C199.328427,254 200,254.671573 200,255.5 C200,256.328427 199.328427,257 198.5,257 C197.671573,257 197,256.328427 197,255.5 C197,254.671573 197.671573,254 198.5,254 Z M185.5,254 C186.328427,254 187,254.671573 187,255.5 C187,256.328427 186.328427,257 185.5,257 C184.671573,257 184,256.328427 184,255.5 C184,254.671573 184.671573,254 185.5,254 Z M172.5,254 C173.328427,254 174,254.671573 174,255.5 C174,256.328427 173.328427,257 172.5,257 C171.671573,257 171,256.328427 171,255.5 C171,254.671573 171.671573,254 172.5,254 Z M159.5,254 C160.328427,254 161,254.671573 161,255.5 C161,256.328427 160.328427,257 159.5,257 C158.671573,257 158,256.328427 158,255.5 C158,254.671573 158.671573,254 159.5,254 Z M146.5,254 C147.328427,254 148,254.671573 148,255.5 C148,256.328427 147.328427,257 146.5,257 C145.671573,257 145,256.328427 145,255.5 C145,254.671573 145.671573,254 146.5,254 Z M133.5,254 C134.328427,254 135,254.671573 135,255.5 C135,256.328427 134.328427,257 133.5,257 C132.671573,257 132,256.328427 132,255.5 C132,254.671573 132.671573,254 133.5,254 Z M120.5,254 C121.328427,254 122,254.671573 122,255.5 C122,256.328427 121.328427,257 120.5,257 C119.671573,257 119,256.328427 119,255.5 C119,254.671573 119.671573,254 120.5,254 Z M107.5,254 C108.328427,254 109,254.671573 109,255.5 C109,256.328427 108.328427,257 107.5,257 C106.671573,257 106,256.328427 106,255.5 C106,254.671573 106.671573,254 107.5,254 Z M289.5,241 C290.328427,241 291,241.671573 291,242.5 C291,243.328427 290.328427,244 289.5,244 C288.671573,244 288,243.328427 288,242.5 C288,241.671573 288.671573,241 289.5,241 Z M276.5,241 C277.328427,241 278,241.671573 278,242.5 C278,243.328427 277.328427,244 276.5,244 C275.671573,244 275,243.328427 275,242.5 C275,241.671573 275.671573,241 276.5,241 Z M263.5,241 C264.328427,241 265,241.671573 265,242.5 C265,243.328427 264.328427,244 263.5,244 C262.671573,244 262,243.328427 262,242.5 C262,241.671573 262.671573,241 263.5,241 Z M250.5,241 C251.328427,241 252,241.671573 252,242.5 C252,243.328427 251.328427,244 250.5,244 C249.671573,244 249,243.328427 249,242.5 C249,241.671573 249.671573,241 250.5,241 Z M237.5,241 C238.328427,241 239,241.671573 239,242.5 C239,243.328427 238.328427,244 237.5,244 C236.671573,244 236,243.328427 236,242.5 C236,241.671573 236.671573,241 237.5,241 Z M224.5,241 C225.328427,241 226,241.671573 226,242.5 C226,243.328427 225.328427,244 224.5,244 C223.671573,244 223,243.328427 223,242.5 C223,241.671573 223.671573,241 224.5,241 Z M211.5,241 C212.328427,241 213,241.671573 213,242.5 C213,243.328427 212.328427,244 211.5,244 C210.671573,244 210,243.328427 210,242.5 C210,241.671573 210.671573,241 211.5,241 Z M198.5,241 C199.328427,241 200,241.671573 200,242.5 C200,243.328427 199.328427,244 198.5,244 C197.671573,244 197,243.328427 197,242.5 C197,241.671573 197.671573,241 198.5,241 Z M185.5,241 C186.328427,241 187,241.671573 187,242.5 C187,243.328427 186.328427,244 185.5,244 C184.671573,244 184,243.328427 184,242.5 C184,241.671573 184.671573,241 185.5,241 Z M172.5,241 C173.328427,241 174,241.671573 174,242.5 C174,243.328427 173.328427,244 172.5,244 C171.671573,244 171,243.328427 171,242.5 C171,241.671573 171.671573,241 172.5,241 Z M159.5,241 C160.328427,241 161,241.671573 161,242.5 C161,243.328427 160.328427,244 159.5,244 C158.671573,244 158,243.328427 158,242.5 C158,241.671573 158.671573,241 159.5,241 Z M146.5,241 C147.328427,241 148,241.671573 148,242.5 C148,243.328427 147.328427,244 146.5,244 C145.671573,244 145,243.328427 145,242.5 C145,241.671573 145.671573,241 146.5,241 Z M133.5,241 C134.328427,241 135,241.671573 135,242.5 C135,243.328427 134.328427,244 133.5,244 C132.671573,244 132,243.328427 132,242.5 C132,241.671573 132.671573,241 133.5,241 Z M120.5,241 C121.328427,241 122,241.671573 122,242.5 C122,243.328427 121.328427,244 120.5,244 C119.671573,244 119,243.328427 119,242.5 C119,241.671573 119.671573,241 120.5,241 Z M107.5,241 C108.328427,241 109,241.671573 109,242.5 C109,243.328427 108.328427,244 107.5,244 C106.671573,244 106,243.328427 106,242.5 C106,241.671573 106.671573,241 107.5,241 Z M120.5,228 C121.328427,228 122,228.671573 122,229.5 C122,230.328427 121.328427,231 120.5,231 C119.671573,231 119,230.328427 119,229.5 C119,228.671573 119.671573,228 120.5,228 Z M107.5,228 C108.328427,228 109,228.671573 109,229.5 C109,230.328427 108.328427,231 107.5,231 C106.671573,231 106,230.328427 106,229.5 C106,228.671573 106.671573,228 107.5,228 Z M289.5,228 C290.328427,228 291,228.671573 291,229.5 C291,230.328427 290.328427,231 289.5,231 C288.671573,231 288,230.328427 288,229.5 C288,228.671573 288.671573,228 289.5,228 Z M276.5,228 C277.328427,228 278,228.671573 278,229.5 C278,230.328427 277.328427,231 276.5,231 C275.671573,231 275,230.328427 275,229.5 C275,228.671573 275.671573,228 276.5,228 Z M263.5,228 C264.328427,228 265,228.671573 265,229.5 C265,230.328427 264.328427,231 263.5,231 C262.671573,231 262,230.328427 262,229.5 C262,228.671573 262.671573,228 263.5,228 Z M250.5,228 C251.328427,228 252,228.671573 252,229.5 C252,230.328427 251.328427,231 250.5,231 C249.671573,231 249,230.328427 249,229.5 C249,228.671573 249.671573,228 250.5,228 Z M237.5,228 C238.328427,228 239,228.671573 239,229.5 C239,230.328427 238.328427,231 237.5,231 C236.671573,231 236,230.328427 236,229.5 C236,228.671573 236.671573,228 237.5,228 Z M224.5,228 C225.328427,228 226,228.671573 226,229.5 C226,230.328427 225.328427,231 224.5,231 C223.671573,231 223,230.328427 223,229.5 C223,228.671573 223.671573,228 224.5,228 Z M211.5,228 C212.328427,228 213,228.671573 213,229.5 C213,230.328427 212.328427,231 211.5,231 C210.671573,231 210,230.328427 210,229.5 C210,228.671573 210.671573,228 211.5,228 Z M198.5,228 C199.328427,228 200,228.671573 200,229.5 C200,230.328427 199.328427,231 198.5,231 C197.671573,231 197,230.328427 197,229.5 C197,228.671573 197.671573,228 198.5,228 Z M185.5,228 C186.328427,228 187,228.671573 187,229.5 C187,230.328427 186.328427,231 185.5,231 C184.671573,231 184,230.328427 184,229.5 C184,228.671573 184.671573,228 185.5,228 Z M172.5,228 C173.328427,228 174,228.671573 174,229.5 C174,230.328427 173.328427,231 172.5,231 C171.671573,231 171,230.328427 171,229.5 C171,228.671573 171.671573,228 172.5,228 Z M159.5,228 C160.328427,228 161,228.671573 161,229.5 C161,230.328427 160.328427,231 159.5,231 C158.671573,231 158,230.328427 158,229.5 C158,228.671573 158.671573,228 159.5,228 Z M146.5,228 C147.328427,228 148,228.671573 148,229.5 C148,230.328427 147.328427,231 146.5,231 C145.671573,231 145,230.328427 145,229.5 C145,228.671573 145.671573,228 146.5,228 Z M133.5,228 C134.328427,228 135,228.671573 135,229.5 C135,230.328427 134.328427,231 133.5,231 C132.671573,231 132,230.328427 132,229.5 C132,228.671573 132.671573,228 133.5,228 Z M172.5,215 C173.328427,215 174,215.671573 174,216.5 C174,217.328427 173.328427,218 172.5,218 C171.671573,218 171,217.328427 171,216.5 C171,215.671573 171.671573,215 172.5,215 Z M263.5,215 C264.328427,215 265,215.671573 265,216.5 C265,217.328427 264.328427,218 263.5,218 C262.671573,218 262,217.328427 262,216.5 C262,215.671573 262.671573,215 263.5,215 Z M250.5,215 C251.328427,215 252,215.671573 252,216.5 C252,217.328427 251.328427,218 250.5,218 C249.671573,218 249,217.328427 249,216.5 C249,215.671573 249.671573,215 250.5,215 Z M133.5,215 C134.328427,215 135,215.671573 135,216.5 C135,217.328427 134.328427,218 133.5,218 C132.671573,218 132,217.328427 132,216.5 C132,215.671573 132.671573,215 133.5,215 Z M146.5,215 C147.328427,215 148,215.671573 148,216.5 C148,217.328427 147.328427,218 146.5,218 C145.671573,218 145,217.328427 145,216.5 C145,215.671573 145.671573,215 146.5,215 Z M237.5,215 C238.328427,215 239,215.671573 239,216.5 C239,217.328427 238.328427,218 237.5,218 C236.671573,218 236,217.328427 236,216.5 C236,215.671573 236.671573,215 237.5,215 Z M276.5,215 C277.328427,215 278,215.671573 278,216.5 C278,217.328427 277.328427,218 276.5,218 C275.671573,218 275,217.328427 275,216.5 C275,215.671573 275.671573,215 276.5,215 Z M185.5,215 C186.328427,215 187,215.671573 187,216.5 C187,217.328427 186.328427,218 185.5,218 C184.671573,218 184,217.328427 184,216.5 C184,215.671573 184.671573,215 185.5,215 Z M198.5,215 C199.328427,215 200,215.671573 200,216.5 C200,217.328427 199.328427,218 198.5,218 C197.671573,218 197,217.328427 197,216.5 C197,215.671573 197.671573,215 198.5,215 Z M289.5,215 C290.328427,215 291,215.671573 291,216.5 C291,217.328427 290.328427,218 289.5,218 C288.671573,218 288,217.328427 288,216.5 C288,215.671573 288.671573,215 289.5,215 Z M107.5,215 C108.328427,215 109,215.671573 109,216.5 C109,217.328427 108.328427,218 107.5,218 C106.671573,218 106,217.328427 106,216.5 C106,215.671573 106.671573,215 107.5,215 Z M120.5,215 C121.328427,215 122,215.671573 122,216.5 C122,217.328427 121.328427,218 120.5,218 C119.671573,218 119,217.328427 119,216.5 C119,215.671573 119.671573,215 120.5,215 Z M159.5,215 C160.328427,215 161,215.671573 161,216.5 C161,217.328427 160.328427,218 159.5,218 C158.671573,218 158,217.328427 158,216.5 C158,215.671573 158.671573,215 159.5,215 Z M224.5,215 C225.328427,215 226,215.671573 226,216.5 C226,217.328427 225.328427,218 224.5,218 C223.671573,218 223,217.328427 223,216.5 C223,215.671573 223.671573,215 224.5,215 Z M211.5,215 C212.328427,215 213,215.671573 213,216.5 C213,217.328427 212.328427,218 211.5,218 C210.671573,218 210,217.328427 210,216.5 C210,215.671573 210.671573,215 211.5,215 Z M159.5,202 C160.328427,202 161,202.671573 161,203.5 C161,204.328427 160.328427,205 159.5,205 C158.671573,205 158,204.328427 158,203.5 C158,202.671573 158.671573,202 159.5,202 Z M120.5,202 C121.328427,202 122,202.671573 122,203.5 C122,204.328427 121.328427,205 120.5,205 C119.671573,205 119,204.328427 119,203.5 C119,202.671573 119.671573,202 120.5,202 Z M211.5,202 C212.328427,202 213,202.671573 213,203.5 C213,204.328427 212.328427,205 211.5,205 C210.671573,205 210,204.328427 210,203.5 C210,202.671573 210.671573,202 211.5,202 Z M198.5,202 C199.328427,202 200,202.671573 200,203.5 C200,204.328427 199.328427,205 198.5,205 C197.671573,205 197,204.328427 197,203.5 C197,202.671573 197.671573,202 198.5,202 Z M276.5,202 C277.328427,202 278,202.671573 278,203.5 C278,204.328427 277.328427,205 276.5,205 C275.671573,205 275,204.328427 275,203.5 C275,202.671573 275.671573,202 276.5,202 Z M289.5,202 C290.328427,202 291,202.671573 291,203.5 C291,204.328427 290.328427,205 289.5,205 C288.671573,205 288,204.328427 288,203.5 C288,202.671573 288.671573,202 289.5,202 Z M185.5,202 C186.328427,202 187,202.671573 187,203.5 C187,204.328427 186.328427,205 185.5,205 C184.671573,205 184,204.328427 184,203.5 C184,202.671573 184.671573,202 185.5,202 Z M224.5,202 C225.328427,202 226,202.671573 226,203.5 C226,204.328427 225.328427,205 224.5,205 C223.671573,205 223,204.328427 223,203.5 C223,202.671573 223.671573,202 224.5,202 Z M133.5,202 C134.328427,202 135,202.671573 135,203.5 C135,204.328427 134.328427,205 133.5,205 C132.671573,205 132,204.328427 132,203.5 C132,202.671573 132.671573,202 133.5,202 Z M146.5,202 C147.328427,202 148,202.671573 148,203.5 C148,204.328427 147.328427,205 146.5,205 C145.671573,205 145,204.328427 145,203.5 C145,202.671573 145.671573,202 146.5,202 Z M237.5,202 C238.328427,202 239,202.671573 239,203.5 C239,204.328427 238.328427,205 237.5,205 C236.671573,205 236,204.328427 236,203.5 C236,202.671573 236.671573,202 237.5,202 Z M250.5,202 C251.328427,202 252,202.671573 252,203.5 C252,204.328427 251.328427,205 250.5,205 C249.671573,205 249,204.328427 249,203.5 C249,202.671573 249.671573,202 250.5,202 Z M263.5,202 C264.328427,202 265,202.671573 265,203.5 C265,204.328427 264.328427,205 263.5,205 C262.671573,205 262,204.328427 262,203.5 C262,202.671573 262.671573,202 263.5,202 Z M107.5,202 C108.328427,202 109,202.671573 109,203.5 C109,204.328427 108.328427,205 107.5,205 C106.671573,205 106,204.328427 106,203.5 C106,202.671573 106.671573,202 107.5,202 Z M172.5,202 C173.328427,202 174,202.671573 174,203.5 C174,204.328427 173.328427,205 172.5,205 C171.671573,205 171,204.328427 171,203.5 C171,202.671573 171.671573,202 172.5,202 Z M198.5,189 C199.328427,189 200,189.671573 200,190.5 C200,191.328427 199.328427,192 198.5,192 C197.671573,192 197,191.328427 197,190.5 C197,189.671573 197.671573,189 198.5,189 Z M211.5,189 C212.328427,189 213,189.671573 213,190.5 C213,191.328427 212.328427,192 211.5,192 C210.671573,192 210,191.328427 210,190.5 C210,189.671573 210.671573,189 211.5,189 Z M185.5,189 C186.328427,189 187,189.671573 187,190.5 C187,191.328427 186.328427,192 185.5,192 C184.671573,192 184,191.328427 184,190.5 C184,189.671573 184.671573,189 185.5,189 Z M276.5,189 C277.328427,189 278,189.671573 278,190.5 C278,191.328427 277.328427,192 276.5,192 C275.671573,192 275,191.328427 275,190.5 C275,189.671573 275.671573,189 276.5,189 Z M107.5,189 C108.328427,189 109,189.671573 109,190.5 C109,191.328427 108.328427,192 107.5,192 C106.671573,192 106,191.328427 106,190.5 C106,189.671573 106.671573,189 107.5,189 Z M133.5,189 C134.328427,189 135,189.671573 135,190.5 C135,191.328427 134.328427,192 133.5,192 C132.671573,192 132,191.328427 132,190.5 C132,189.671573 132.671573,189 133.5,189 Z M172.5,189 C173.328427,189 174,189.671573 174,190.5 C174,191.328427 173.328427,192 172.5,192 C171.671573,192 171,191.328427 171,190.5 C171,189.671573 171.671573,189 172.5,189 Z M237.5,189 C238.328427,189 239,189.671573 239,190.5 C239,191.328427 238.328427,192 237.5,192 C236.671573,192 236,191.328427 236,190.5 C236,189.671573 236.671573,189 237.5,189 Z M289.5,189 C290.328427,189 291,189.671573 291,190.5 C291,191.328427 290.328427,192 289.5,192 C288.671573,192 288,191.328427 288,190.5 C288,189.671573 288.671573,189 289.5,189 Z M250.5,189 C251.328427,189 252,189.671573 252,190.5 C252,191.328427 251.328427,192 250.5,192 C249.671573,192 249,191.328427 249,190.5 C249,189.671573 249.671573,189 250.5,189 Z M146.5,189 C147.328427,189 148,189.671573 148,190.5 C148,191.328427 147.328427,192 146.5,192 C145.671573,192 145,191.328427 145,190.5 C145,189.671573 145.671573,189 146.5,189 Z M224.5,189 C225.328427,189 226,189.671573 226,190.5 C226,191.328427 225.328427,192 224.5,192 C223.671573,192 223,191.328427 223,190.5 C223,189.671573 223.671573,189 224.5,189 Z M263.5,189 C264.328427,189 265,189.671573 265,190.5 C265,191.328427 264.328427,192 263.5,192 C262.671573,192 262,191.328427 262,190.5 C262,189.671573 262.671573,189 263.5,189 Z M159.5,189 C160.328427,189 161,189.671573 161,190.5 C161,191.328427 160.328427,192 159.5,192 C158.671573,192 158,191.328427 158,190.5 C158,189.671573 158.671573,189 159.5,189 Z M120.5,189 C121.328427,189 122,189.671573 122,190.5 C122,191.328427 121.328427,192 120.5,192 C119.671573,192 119,191.328427 119,190.5 C119,189.671573 119.671573,189 120.5,189 Z M211.5,176 C212.328427,176 213,176.671573 213,177.5 C213,178.328427 212.328427,179 211.5,179 C210.671573,179 210,178.328427 210,177.5 C210,176.671573 210.671573,176 211.5,176 Z M172.5,176 C173.328427,176 174,176.671573 174,177.5 C174,178.328427 173.328427,179 172.5,179 C171.671573,179 171,178.328427 171,177.5 C171,176.671573 171.671573,176 172.5,176 Z M185.5,176 C186.328427,176 187,176.671573 187,177.5 C187,178.328427 186.328427,179 185.5,179 C184.671573,179 184,178.328427 184,177.5 C184,176.671573 184.671573,176 185.5,176 Z M198.5,176 C199.328427,176 200,176.671573 200,177.5 C200,178.328427 199.328427,179 198.5,179 C197.671573,179 197,178.328427 197,177.5 C197,176.671573 197.671573,176 198.5,176 Z M263.5,176 C264.328427,176 265,176.671573 265,177.5 C265,178.328427 264.328427,179 263.5,179 C262.671573,179 262,178.328427 262,177.5 C262,176.671573 262.671573,176 263.5,176 Z M120.5,176 C121.328427,176 122,176.671573 122,177.5 C122,178.328427 121.328427,179 120.5,179 C119.671573,179 119,178.328427 119,177.5 C119,176.671573 119.671573,176 120.5,176 Z M107.5,176 C108.328427,176 109,176.671573 109,177.5 C109,178.328427 108.328427,179 107.5,179 C106.671573,179 106,178.328427 106,177.5 C106,176.671573 106.671573,176 107.5,176 Z M159.5,176 C160.328427,176 161,176.671573 161,177.5 C161,178.328427 160.328427,179 159.5,179 C158.671573,179 158,178.328427 158,177.5 C158,176.671573 158.671573,176 159.5,176 Z M224.5,176 C225.328427,176 226,176.671573 226,177.5 C226,178.328427 225.328427,179 224.5,179 C223.671573,179 223,178.328427 223,177.5 C223,176.671573 223.671573,176 224.5,176 Z M237.5,176 C238.328427,176 239,176.671573 239,177.5 C239,178.328427 238.328427,179 237.5,179 C236.671573,179 236,178.328427 236,177.5 C236,176.671573 236.671573,176 237.5,176 Z M276.5,176 C277.328427,176 278,176.671573 278,177.5 C278,178.328427 277.328427,179 276.5,179 C275.671573,179 275,178.328427 275,177.5 C275,176.671573 275.671573,176 276.5,176 Z M250.5,176 C251.328427,176 252,176.671573 252,177.5 C252,178.328427 251.328427,179 250.5,179 C249.671573,179 249,178.328427 249,177.5 C249,176.671573 249.671573,176 250.5,176 Z M133.5,176 C134.328427,176 135,176.671573 135,177.5 C135,178.328427 134.328427,179 133.5,179 C132.671573,179 132,178.328427 132,177.5 C132,176.671573 132.671573,176 133.5,176 Z M289.5,176 C290.328427,176 291,176.671573 291,177.5 C291,178.328427 290.328427,179 289.5,179 C288.671573,179 288,178.328427 288,177.5 C288,176.671573 288.671573,176 289.5,176 Z M146.5,176 C147.328427,176 148,176.671573 148,177.5 C148,178.328427 147.328427,179 146.5,179 C145.671573,179 145,178.328427 145,177.5 C145,176.671573 145.671573,176 146.5,176 Z M133.5,163 C134.328427,163 135,163.671573 135,164.5 C135,165.328427 134.328427,166 133.5,166 C132.671573,166 132,165.328427 132,164.5 C132,163.671573 132.671573,163 133.5,163 Z M146.5,163 C147.328427,163 148,163.671573 148,164.5 C148,165.328427 147.328427,166 146.5,166 C145.671573,166 145,165.328427 145,164.5 C145,163.671573 145.671573,163 146.5,163 Z M159.5,163 C160.328427,163 161,163.671573 161,164.5 C161,165.328427 160.328427,166 159.5,166 C158.671573,166 158,165.328427 158,164.5 C158,163.671573 158.671573,163 159.5,163 Z M172.5,163 C173.328427,163 174,163.671573 174,164.5 C174,165.328427 173.328427,166 172.5,166 C171.671573,166 171,165.328427 171,164.5 C171,163.671573 171.671573,163 172.5,163 Z M185.5,163 C186.328427,163 187,163.671573 187,164.5 C187,165.328427 186.328427,166 185.5,166 C184.671573,166 184,165.328427 184,164.5 C184,163.671573 184.671573,163 185.5,163 Z M198.5,163 C199.328427,163 200,163.671573 200,164.5 C200,165.328427 199.328427,166 198.5,166 C197.671573,166 197,165.328427 197,164.5 C197,163.671573 197.671573,163 198.5,163 Z M211.5,163 C212.328427,163 213,163.671573 213,164.5 C213,165.328427 212.328427,166 211.5,166 C210.671573,166 210,165.328427 210,164.5 C210,163.671573 210.671573,163 211.5,163 Z M224.5,163 C225.328427,163 226,163.671573 226,164.5 C226,165.328427 225.328427,166 224.5,166 C223.671573,166 223,165.328427 223,164.5 C223,163.671573 223.671573,163 224.5,163 Z M237.5,163 C238.328427,163 239,163.671573 239,164.5 C239,165.328427 238.328427,166 237.5,166 C236.671573,166 236,165.328427 236,164.5 C236,163.671573 236.671573,163 237.5,163 Z M250.5,163 C251.328427,163 252,163.671573 252,164.5 C252,165.328427 251.328427,166 250.5,166 C249.671573,166 249,165.328427 249,164.5 C249,163.671573 249.671573,163 250.5,163 Z M263.5,163 C264.328427,163 265,163.671573 265,164.5 C265,165.328427 264.328427,166 263.5,166 C262.671573,166 262,165.328427 262,164.5 C262,163.671573 262.671573,163 263.5,163 Z M276.5,163 C277.328427,163 278,163.671573 278,164.5 C278,165.328427 277.328427,166 276.5,166 C275.671573,166 275,165.328427 275,164.5 C275,163.671573 275.671573,163 276.5,163 Z M289.5,163 C290.328427,163 291,163.671573 291,164.5 C291,165.328427 290.328427,166 289.5,166 C288.671573,166 288,165.328427 288,164.5 C288,163.671573 288.671573,163 289.5,163 Z M107.5,163 C108.328427,163 109,163.671573 109,164.5 C109,165.328427 108.328427,166 107.5,166 C106.671573,166 106,165.328427 106,164.5 C106,163.671573 106.671573,163 107.5,163 Z M120.5,163 C121.328427,163 122,163.671573 122,164.5 C122,165.328427 121.328427,166 120.5,166 C119.671573,166 119,165.328427 119,164.5 C119,163.671573 119.671573,163 120.5,163 Z" id="Combined-Shape" fill="#FEE0D4" transform="translate(198.500000, 255.500000) rotate(-10.000000) translate(-198.500000, -255.500000) "></path>
                    <g id="Oval-Copy-6-+-Oval-Copy-7-+-Oval-Copy-8-+-Oval-Copy-9-+-Oval-Copy-10-+-Oval-Copy-11-+-Oval-Copy-12-+-Oval-Copy-13-+-Oval-Copy-14-+-Oval-Copy-15-+-Oval-Copy-16-+-Oval-Copy-17-+-Oval-Copy-18-+-Oval-Copy-19-+-Oval-Copy-20-+-Oval-Copy-21-+-Oval-Copy-22-+-Oval-Copy-23-+-Oval-Copy-24-+-Oval-Copy-25-+-Oval-Copy-26-+-Oval-Copy-27-+-Oval-Copy-28-+-Oval-Copy-29-+-Oval-Copy-30-+-Oval-Copy-31-+-Oval-Copy-32-+-Oval-Copy-33-+-Oval-Copy-34-+-Oval-Copy-35-+-Oval-Copy-36-+-Oval-Copy-37-+-Oval-Copy-38-+-Oval-Copy-39-+-Oval-Copy-40-+-Oval-Copy-41-+-Oval-Copy-42-+-Oval-Copy-43-+-Oval-Copy-44-+-Oval-Copy-45-+-Oval-Copy-46-+-Oval-Copy-47-+-Oval-Copy-48-+-Oval-Copy-49-+-Oval-Copy-50-+-Oval-Copy-51-+-Oval-Copy-52-+-Oval-Copy-53-+-Oval-Copy-54-+-Oval-Copy-55-+-Oval-Copy-56-+-Oval-Copy-57-+-Oval-Copy-58-+-Oval-Copy-59-+-Oval-Copy-60-+-Oval-Copy-61-+-Oval-Copy-62-+-Oval-Copy-63-+-Oval-Copy-64-+-Oval-Copy-65-+-Oval-Copy-66-+-Oval-Copy-67-+-Oval-Copy-68-+-Oval-Copy-69-+-Oval-Copy-70-+-Oval-Copy-71-+-Oval-Copy-72-+-Oval-Copy-73-+-Oval-Copy-74-+-Oval-Copy-75-+-Oval-Copy-76-+-Oval-Copy-77-+-Oval-Copy-78-+-Oval-Copy-79-+-Oval-Copy-80-+-Oval-Copy-81-+-Oval-Copy-82-+-Oval-Copy-230-+-Oval-Copy-229-+-Oval-Copy-228-+-Oval-Copy-227-+-Oval-Copy-226-+-Oval-Copy-225-+-Oval-Copy-224-+-Oval-Copy-223-+-Oval-Copy-222-+-Oval-Copy-221-+-Oval-Copy-220-+-Oval-Copy-219-+-Oval-Copy-218-+-Oval-Copy-217-+-Oval-Copy-216-+-Oval-Copy-215-+-Oval-Copy-214-+-Oval-Copy-213-+-Oval-Copy-212-+-Oval-Copy-211-+-Oval-Copy-210-+-Oval-Copy-209-+-Oval-Copy-208-+-Oval-Copy-207-+-Oval-Copy-206-+-Oval-Copy-205-+-Oval-Copy-204-+-Oval-Copy-203-+-Oval-Copy-202-+-Oval-Copy-201-+-Oval-Copy-200-+-Oval-Copy-199-+-Oval-Copy-198-+-Oval-Copy-197-+-Oval-Copy-196-+-Oval-Copy-195-+-Oval-Copy-194-+-Oval-Copy-193-+-Oval-Copy-192-+-Oval-Copy-191-+-Oval-Copy-190-+-Oval-Copy-189-+-Oval-Copy-188-+-Oval-Copy-187-+-Oval-Copy-186-+-Oval-Copy-185-+-Oval-Copy-184-+-Oval-Copy-183-+-Oval-Copy-182-+-Oval-Copy-181-+-Oval-Copy-180-+-Oval-Copy-179-+-Oval-Copy-178-+-Oval-Copy-177-+-Oval-Copy-176-+-Oval-Copy-175-+-Oval-Copy-174-+-Oval-Copy-173-+-Oval-Copy-172-+-Oval-Copy-171-+-Oval-Copy-170-+-Oval-Copy-169-+-Oval-Copy-168-+-Oval-Copy-167-+-Oval-Copy-166-+-Oval-Copy-165-+-Oval-Copy-164-+-Oval-Copy-163-+-Oval-Copy-162-+-Oval-Copy-161-+-Oval-Copy-160-+-Oval-Copy-159-+-Oval-Copy-158-+-Oval-Copy-157-+-Oval-Copy-156-+-Oval-Copy-155-+-Oval-Copy-154-+-Oval-Copy-153-+-Oval-Copy-152-+-Oval-Copy-151-+-Oval-Copy-150-+-Oval-Copy-149-+-Oval-Copy-148-+-Oval-Copy-147-+-Oval-Copy-146-+-Oval-Copy-145-+-Oval-Copy-144-+-Oval-Copy-143-+-Oval-Copy-142-+-Oval-Copy-141-+-Oval-Copy-140-+-Oval-Copy-139-+-Oval-Copy-138-+-Oval-Copy-137-+-Oval-Copy-136-+-Oval-Copy-135-+-Oval-Copy-134-+-Oval-Copy-133-+-Oval-Copy-132-+-Oval-Copy-131-+-Oval-Copy-130-+-Oval-Copy-129-+-Oval-Copy-128-+-Oval-Copy-127-+-Oval-Copy-126-+-Oval-Copy-125-+-Oval-Copy-124-+-Oval-Copy-123-+-Oval-Copy-122-+-Oval-Copy-121-+-Oval-Copy-120-+-Oval-Copy-119-+-Oval-Copy-118-+-Oval-Copy-117-+-Oval-Copy-116-+-Oval-Copy-115-+-Oval-Copy-114-+-Oval-Copy-113-+-Oval-Copy-112-+-Oval-Copy-111-+-Oval-Copy-110-+-Oval-Copy-109-+-Oval-Copy-108-+-Oval-Copy-107-+-Oval-Copy-106-+-Oval-Copy-105-+-Oval-Copy-104-+-Oval-Copy-103-+-Oval-Copy-102-+-Oval-Copy-101-+-Oval-Copy-100-+-Oval-Copy-99-+-Oval-Copy-98-+-Oval-Copy-97-+-Oval-Copy-96-+-Oval-Copy-95-+-Oval-Copy-94-+-Oval-Copy-93-+-Oval-Copy-92-+-Oval-Copy-91-+-Oval-Copy-90-+-Oval-Copy-89-+-Oval-Copy-88-+-Oval-Copy-87-+-Oval-Copy-86-+-Oval-Copy-85-+-Oval-Copy-84-+-Oval-Copy-83-Mask" opacity="0.25" transform="translate(681.000000, 0.000000)">
                        <mask id="mask-2" fill="white">
                            <use xlink:href="#path-1"></use>
                        </mask>
                        <g id="Mask"></g>
                        <circle id="Oval-Copy-6" fill="#F38E86" mask="url(#mask-2)" cx="-0.5" cy="1.5" r="1.5"></circle>
                        <circle id="Oval-Copy-7" fill="#F38E86" mask="url(#mask-2)" cx="12.5" cy="1.5" r="1.5"></circle>
                        <circle id="Oval-Copy-8" fill="#F38E86" mask="url(#mask-2)" cx="25.5" cy="1.5" r="1.5"></circle>
                        <circle id="Oval-Copy-9" fill="#F38E86" mask="url(#mask-2)" cx="38.5" cy="1.5" r="1.5"></circle>
                        <circle id="Oval-Copy-10" fill="#F38E86" mask="url(#mask-2)" cx="51.5" cy="1.5" r="1.5"></circle>
                        <circle id="Oval-Copy-11" fill="#F38E86" mask="url(#mask-2)" cx="64.5" cy="1.5" r="1.5"></circle>
                        <circle id="Oval-Copy-12" fill="#F38E86" mask="url(#mask-2)" cx="77.5" cy="1.5" r="1.5"></circle>
                        <circle id="Oval-Copy-13" fill="#F38E86" mask="url(#mask-2)" cx="90.5" cy="1.5" r="1.5"></circle>
                        <circle id="Oval-Copy-14" fill="#F38E86" mask="url(#mask-2)" cx="103.5" cy="1.5" r="1.5"></circle>
                        <circle id="Oval-Copy-15" fill="#F38E86" mask="url(#mask-2)" cx="116.5" cy="1.5" r="1.5"></circle>
                        <circle id="Oval-Copy-16" fill="#F38E86" mask="url(#mask-2)" cx="129.5" cy="1.5" r="1.5"></circle>
                        <circle id="Oval-Copy-17" fill="#F38E86" mask="url(#mask-2)" cx="142.5" cy="1.5" r="1.5"></circle>
                        <circle id="Oval-Copy-18" fill="#F38E86" mask="url(#mask-2)" cx="155.5" cy="1.5" r="1.5"></circle>
                        <circle id="Oval-Copy-19" fill="#F38E86" mask="url(#mask-2)" cx="168.5" cy="1.5" r="1.5"></circle>
                        <circle id="Oval-Copy-20" fill="#F38E86" mask="url(#mask-2)" cx="181.5" cy="1.5" r="1.5"></circle>
                        <circle id="Oval-Copy-21" fill="#F38E86" mask="url(#mask-2)" cx="-0.5" cy="14.5" r="1.5"></circle>
                        <circle id="Oval-Copy-22" fill="#F38E86" mask="url(#mask-2)" cx="12.5" cy="14.5" r="1.5"></circle>
                        <circle id="Oval-Copy-23" fill="#F38E86" mask="url(#mask-2)" cx="25.5" cy="14.5" r="1.5"></circle>
                        <circle id="Oval-Copy-24" fill="#F38E86" mask="url(#mask-2)" cx="38.5" cy="14.5" r="1.5"></circle>
                        <circle id="Oval-Copy-25" fill="#F38E86" mask="url(#mask-2)" cx="51.5" cy="14.5" r="1.5"></circle>
                        <circle id="Oval-Copy-26" fill="#F38E86" mask="url(#mask-2)" cx="64.5" cy="14.5" r="1.5"></circle>
                        <circle id="Oval-Copy-27" fill="#F38E86" mask="url(#mask-2)" cx="77.5" cy="14.5" r="1.5"></circle>
                        <circle id="Oval-Copy-28" fill="#F38E86" mask="url(#mask-2)" cx="90.5" cy="14.5" r="1.5"></circle>
                        <circle id="Oval-Copy-29" fill="#F38E86" mask="url(#mask-2)" cx="103.5" cy="14.5" r="1.5"></circle>
                        <circle id="Oval-Copy-30" fill="#F38E86" mask="url(#mask-2)" cx="116.5" cy="14.5" r="1.5"></circle>
                        <circle id="Oval-Copy-31" fill="#F38E86" mask="url(#mask-2)" cx="129.5" cy="14.5" r="1.5"></circle>
                        <circle id="Oval-Copy-32" fill="#F38E86" mask="url(#mask-2)" cx="142.5" cy="14.5" r="1.5"></circle>
                        <circle id="Oval-Copy-33" fill="#F38E86" mask="url(#mask-2)" cx="155.5" cy="14.5" r="1.5"></circle>
                        <circle id="Oval-Copy-34" fill="#F38E86" mask="url(#mask-2)" cx="168.5" cy="14.5" r="1.5"></circle>
                        <circle id="Oval-Copy-35" fill="#F38E86" mask="url(#mask-2)" cx="181.5" cy="14.5" r="1.5"></circle>
                        <circle id="Oval-Copy-36" fill="#F38E86" mask="url(#mask-2)" cx="-0.5" cy="27.5" r="1.5"></circle>
                        <circle id="Oval-Copy-37" fill="#F38E86" mask="url(#mask-2)" cx="12.5" cy="27.5" r="1.5"></circle>
                        <circle id="Oval-Copy-38" fill="#F38E86" mask="url(#mask-2)" cx="25.5" cy="27.5" r="1.5"></circle>
                        <circle id="Oval-Copy-39" fill="#F38E86" mask="url(#mask-2)" cx="38.5" cy="27.5" r="1.5"></circle>
                        <circle id="Oval-Copy-40" fill="#F38E86" mask="url(#mask-2)" cx="51.5" cy="27.5" r="1.5"></circle>
                        <circle id="Oval-Copy-41" fill="#F38E86" mask="url(#mask-2)" cx="64.5" cy="27.5" r="1.5"></circle>
                        <circle id="Oval-Copy-42" fill="#F38E86" mask="url(#mask-2)" cx="77.5" cy="27.5" r="1.5"></circle>
                        <circle id="Oval-Copy-43" fill="#F38E86" mask="url(#mask-2)" cx="90.5" cy="27.5" r="1.5"></circle>
                        <circle id="Oval-Copy-44" fill="#F38E86" mask="url(#mask-2)" cx="103.5" cy="27.5" r="1.5"></circle>
                        <circle id="Oval-Copy-45" fill="#F38E86" mask="url(#mask-2)" cx="116.5" cy="27.5" r="1.5"></circle>
                        <circle id="Oval-Copy-46" fill="#F38E86" mask="url(#mask-2)" cx="129.5" cy="27.5" r="1.5"></circle>
                        <circle id="Oval-Copy-47" fill="#F38E86" mask="url(#mask-2)" cx="142.5" cy="27.5" r="1.5"></circle>
                        <circle id="Oval-Copy-48" fill="#F38E86" mask="url(#mask-2)" cx="155.5" cy="27.5" r="1.5"></circle>
                        <circle id="Oval-Copy-49" fill="#F38E86" mask="url(#mask-2)" cx="168.5" cy="27.5" r="1.5"></circle>
                        <circle id="Oval-Copy-50" fill="#F38E86" mask="url(#mask-2)" cx="181.5" cy="27.5" r="1.5"></circle>
                        <circle id="Oval-Copy-51" fill="#F38E86" mask="url(#mask-2)" cx="-0.5" cy="40.5" r="1.5"></circle>
                        <circle id="Oval-Copy-52" fill="#F38E86" mask="url(#mask-2)" cx="12.5" cy="40.5" r="1.5"></circle>
                        <circle id="Oval-Copy-53" fill="#F38E86" mask="url(#mask-2)" cx="25.5" cy="40.5" r="1.5"></circle>
                        <circle id="Oval-Copy-54" fill="#F38E86" mask="url(#mask-2)" cx="38.5" cy="40.5" r="1.5"></circle>
                        <circle id="Oval-Copy-55" fill="#F38E86" mask="url(#mask-2)" cx="51.5" cy="40.5" r="1.5"></circle>
                        <circle id="Oval-Copy-56" fill="#F38E86" mask="url(#mask-2)" cx="64.5" cy="40.5" r="1.5"></circle>
                        <circle id="Oval-Copy-57" fill="#F38E86" mask="url(#mask-2)" cx="77.5" cy="40.5" r="1.5"></circle>
                        <circle id="Oval-Copy-58" fill="#F38E86" mask="url(#mask-2)" cx="90.5" cy="40.5" r="1.5"></circle>
                        <circle id="Oval-Copy-59" fill="#F38E86" mask="url(#mask-2)" cx="103.5" cy="40.5" r="1.5"></circle>
                        <circle id="Oval-Copy-60" fill="#F38E86" mask="url(#mask-2)" cx="116.5" cy="40.5" r="1.5"></circle>
                        <circle id="Oval-Copy-61" fill="#F38E86" mask="url(#mask-2)" cx="129.5" cy="40.5" r="1.5"></circle>
                        <circle id="Oval-Copy-62" fill="#F38E86" mask="url(#mask-2)" cx="142.5" cy="40.5" r="1.5"></circle>
                        <circle id="Oval-Copy-63" fill="#F38E86" mask="url(#mask-2)" cx="155.5" cy="40.5" r="1.5"></circle>
                        <circle id="Oval-Copy-64" fill="#F38E86" mask="url(#mask-2)" cx="168.5" cy="40.5" r="1.5"></circle>
                        <circle id="Oval-Copy-65" fill="#F38E86" mask="url(#mask-2)" cx="181.5" cy="40.5" r="1.5"></circle>
                        <circle id="Oval-Copy-66" fill="#F38E86" mask="url(#mask-2)" cx="-0.5" cy="53.5" r="1.5"></circle>
                        <circle id="Oval-Copy-67" fill="#F38E86" mask="url(#mask-2)" cx="12.5" cy="53.5" r="1.5"></circle>
                        <circle id="Oval-Copy-68" fill="#F38E86" mask="url(#mask-2)" cx="25.5" cy="53.5" r="1.5"></circle>
                        <circle id="Oval-Copy-69" fill="#F38E86" mask="url(#mask-2)" cx="38.5" cy="53.5" r="1.5"></circle>
                        <circle id="Oval-Copy-70" fill="#F38E86" mask="url(#mask-2)" cx="51.5" cy="53.5" r="1.5"></circle>
                        <circle id="Oval-Copy-71" fill="#F38E86" mask="url(#mask-2)" cx="64.5" cy="53.5" r="1.5"></circle>
                        <circle id="Oval-Copy-72" fill="#F38E86" mask="url(#mask-2)" cx="77.5" cy="53.5" r="1.5"></circle>
                        <circle id="Oval-Copy-73" fill="#F38E86" mask="url(#mask-2)" cx="90.5" cy="53.5" r="1.5"></circle>
                        <circle id="Oval-Copy-74" fill="#F38E86" mask="url(#mask-2)" cx="103.5" cy="53.5" r="1.5"></circle>
                        <circle id="Oval-Copy-75" fill="#F38E86" mask="url(#mask-2)" cx="116.5" cy="53.5" r="1.5"></circle>
                        <circle id="Oval-Copy-76" fill="#F38E86" mask="url(#mask-2)" cx="129.5" cy="53.5" r="1.5"></circle>
                        <circle id="Oval-Copy-77" fill="#F38E86" mask="url(#mask-2)" cx="142.5" cy="53.5" r="1.5"></circle>
                        <circle id="Oval-Copy-78" fill="#F38E86" mask="url(#mask-2)" cx="155.5" cy="53.5" r="1.5"></circle>
                        <circle id="Oval-Copy-79" fill="#F38E86" mask="url(#mask-2)" cx="168.5" cy="53.5" r="1.5"></circle>
                        <circle id="Oval-Copy-80" fill="#F38E86" mask="url(#mask-2)" cx="181.5" cy="53.5" r="1.5"></circle>
                        <circle id="Oval-Copy-81" fill="#F38E86" mask="url(#mask-2)" cx="-0.5" cy="66.5" r="1.5"></circle>
                        <circle id="Oval-Copy-82" fill="#F38E86" mask="url(#mask-2)" cx="12.5" cy="66.5" r="1.5"></circle>
                        <circle id="Oval-Copy-230" fill="#F38E86" mask="url(#mask-2)" cx="181.5" cy="183.5" r="1.5"></circle>
                        <circle id="Oval-Copy-229" fill="#F38E86" mask="url(#mask-2)" cx="168.5" cy="183.5" r="1.5"></circle>
                        <circle id="Oval-Copy-228" fill="#F38E86" mask="url(#mask-2)" cx="155.5" cy="183.5" r="1.5"></circle>
                        <circle id="Oval-Copy-227" fill="#F38E86" mask="url(#mask-2)" cx="142.5" cy="183.5" r="1.5"></circle>
                        <circle id="Oval-Copy-226" fill="#F38E86" mask="url(#mask-2)" cx="129.5" cy="183.5" r="1.5"></circle>
                        <circle id="Oval-Copy-225" fill="#F38E86" mask="url(#mask-2)" cx="116.5" cy="183.5" r="1.5"></circle>
                        <circle id="Oval-Copy-224" fill="#F38E86" mask="url(#mask-2)" cx="103.5" cy="183.5" r="1.5"></circle>
                        <circle id="Oval-Copy-223" fill="#F38E86" mask="url(#mask-2)" cx="90.5" cy="183.5" r="1.5"></circle>
                        <circle id="Oval-Copy-222" fill="#F38E86" mask="url(#mask-2)" cx="77.5" cy="183.5" r="1.5"></circle>
                        <circle id="Oval-Copy-221" fill="#F38E86" mask="url(#mask-2)" cx="64.5" cy="183.5" r="1.5"></circle>
                        <circle id="Oval-Copy-220" fill="#F38E86" mask="url(#mask-2)" cx="51.5" cy="183.5" r="1.5"></circle>
                        <circle id="Oval-Copy-219" fill="#F38E86" mask="url(#mask-2)" cx="38.5" cy="183.5" r="1.5"></circle>
                        <circle id="Oval-Copy-218" fill="#F38E86" mask="url(#mask-2)" cx="25.5" cy="183.5" r="1.5"></circle>
                        <circle id="Oval-Copy-217" fill="#F38E86" mask="url(#mask-2)" cx="12.5" cy="183.5" r="1.5"></circle>
                        <circle id="Oval-Copy-216" fill="#F38E86" mask="url(#mask-2)" cx="-0.5" cy="183.5" r="1.5"></circle>
                        <circle id="Oval-Copy-215" fill="#F38E86" mask="url(#mask-2)" cx="181.5" cy="170.5" r="1.5"></circle>
                        <circle id="Oval-Copy-214" fill="#F38E86" mask="url(#mask-2)" cx="168.5" cy="170.5" r="1.5"></circle>
                        <circle id="Oval-Copy-213" fill="#F38E86" mask="url(#mask-2)" cx="155.5" cy="170.5" r="1.5"></circle>
                        <circle id="Oval-Copy-212" fill="#F38E86" mask="url(#mask-2)" cx="142.5" cy="170.5" r="1.5"></circle>
                        <circle id="Oval-Copy-211" fill="#F38E86" mask="url(#mask-2)" cx="129.5" cy="170.5" r="1.5"></circle>
                        <circle id="Oval-Copy-210" fill="#F38E86" mask="url(#mask-2)" cx="116.5" cy="170.5" r="1.5"></circle>
                        <circle id="Oval-Copy-209" fill="#F38E86" mask="url(#mask-2)" cx="103.5" cy="170.5" r="1.5"></circle>
                        <circle id="Oval-Copy-208" fill="#F38E86" mask="url(#mask-2)" cx="90.5" cy="170.5" r="1.5"></circle>
                        <circle id="Oval-Copy-207" fill="#F38E86" mask="url(#mask-2)" cx="77.5" cy="170.5" r="1.5"></circle>
                        <circle id="Oval-Copy-206" fill="#F38E86" mask="url(#mask-2)" cx="64.5" cy="170.5" r="1.5"></circle>
                        <circle id="Oval-Copy-205" fill="#F38E86" mask="url(#mask-2)" cx="51.5" cy="170.5" r="1.5"></circle>
                        <circle id="Oval-Copy-204" fill="#F38E86" mask="url(#mask-2)" cx="38.5" cy="170.5" r="1.5"></circle>
                        <circle id="Oval-Copy-203" fill="#F38E86" mask="url(#mask-2)" cx="25.5" cy="170.5" r="1.5"></circle>
                        <circle id="Oval-Copy-202" fill="#F38E86" mask="url(#mask-2)" cx="12.5" cy="170.5" r="1.5"></circle>
                        <circle id="Oval-Copy-201" fill="#F38E86" mask="url(#mask-2)" cx="-0.5" cy="170.5" r="1.5"></circle>
                        <circle id="Oval-Copy-200" fill="#F38E86" mask="url(#mask-2)" cx="181.5" cy="157.5" r="1.5"></circle>
                        <circle id="Oval-Copy-199" fill="#F38E86" mask="url(#mask-2)" cx="168.5" cy="157.5" r="1.5"></circle>
                        <circle id="Oval-Copy-198" fill="#F38E86" mask="url(#mask-2)" cx="155.5" cy="157.5" r="1.5"></circle>
                        <circle id="Oval-Copy-197" fill="#F38E86" mask="url(#mask-2)" cx="142.5" cy="157.5" r="1.5"></circle>
                        <circle id="Oval-Copy-196" fill="#F38E86" mask="url(#mask-2)" cx="129.5" cy="157.5" r="1.5"></circle>
                        <circle id="Oval-Copy-195" fill="#F38E86" mask="url(#mask-2)" cx="116.5" cy="157.5" r="1.5"></circle>
                        <circle id="Oval-Copy-194" fill="#F38E86" mask="url(#mask-2)" cx="103.5" cy="157.5" r="1.5"></circle>
                        <circle id="Oval-Copy-193" fill="#F38E86" mask="url(#mask-2)" cx="90.5" cy="157.5" r="1.5"></circle>
                        <circle id="Oval-Copy-192" fill="#F38E86" mask="url(#mask-2)" cx="77.5" cy="157.5" r="1.5"></circle>
                        <circle id="Oval-Copy-191" fill="#F38E86" mask="url(#mask-2)" cx="64.5" cy="157.5" r="1.5"></circle>
                        <circle id="Oval-Copy-190" fill="#F38E86" mask="url(#mask-2)" cx="51.5" cy="157.5" r="1.5"></circle>
                        <circle id="Oval-Copy-189" fill="#F38E86" mask="url(#mask-2)" cx="38.5" cy="157.5" r="1.5"></circle>
                        <circle id="Oval-Copy-188" fill="#F38E86" mask="url(#mask-2)" cx="25.5" cy="157.5" r="1.5"></circle>
                        <circle id="Oval-Copy-187" fill="#F38E86" mask="url(#mask-2)" cx="12.5" cy="157.5" r="1.5"></circle>
                        <circle id="Oval-Copy-186" fill="#F38E86" mask="url(#mask-2)" cx="-0.5" cy="157.5" r="1.5"></circle>
                        <circle id="Oval-Copy-185" fill="#F38E86" mask="url(#mask-2)" cx="181.5" cy="144.5" r="1.5"></circle>
                        <circle id="Oval-Copy-184" fill="#F38E86" mask="url(#mask-2)" cx="168.5" cy="144.5" r="1.5"></circle>
                        <circle id="Oval-Copy-183" fill="#F38E86" mask="url(#mask-2)" cx="155.5" cy="144.5" r="1.5"></circle>
                        <circle id="Oval-Copy-182" fill="#F38E86" mask="url(#mask-2)" cx="142.5" cy="144.5" r="1.5"></circle>
                        <circle id="Oval-Copy-181" fill="#F38E86" mask="url(#mask-2)" cx="129.5" cy="144.5" r="1.5"></circle>
                        <circle id="Oval-Copy-180" fill="#F38E86" mask="url(#mask-2)" cx="116.5" cy="144.5" r="1.5"></circle>
                        <circle id="Oval-Copy-179" fill="#F38E86" mask="url(#mask-2)" cx="103.5" cy="144.5" r="1.5"></circle>
                        <circle id="Oval-Copy-178" fill="#F38E86" mask="url(#mask-2)" cx="90.5" cy="144.5" r="1.5"></circle>
                        <circle id="Oval-Copy-177" fill="#F38E86" mask="url(#mask-2)" cx="77.5" cy="144.5" r="1.5"></circle>
                        <circle id="Oval-Copy-176" fill="#F38E86" mask="url(#mask-2)" cx="64.5" cy="144.5" r="1.5"></circle>
                        <circle id="Oval-Copy-175" fill="#F38E86" mask="url(#mask-2)" cx="51.5" cy="144.5" r="1.5"></circle>
                        <circle id="Oval-Copy-174" fill="#F38E86" mask="url(#mask-2)" cx="38.5" cy="144.5" r="1.5"></circle>
                        <circle id="Oval-Copy-173" fill="#F38E86" mask="url(#mask-2)" cx="25.5" cy="144.5" r="1.5"></circle>
                        <circle id="Oval-Copy-172" fill="#F38E86" mask="url(#mask-2)" cx="12.5" cy="144.5" r="1.5"></circle>
                        <circle id="Oval-Copy-171" fill="#F38E86" mask="url(#mask-2)" cx="-0.5" cy="144.5" r="1.5"></circle>
                        <circle id="Oval-Copy-170" fill="#F38E86" mask="url(#mask-2)" cx="181.5" cy="131.5" r="1.5"></circle>
                        <circle id="Oval-Copy-169" fill="#F38E86" mask="url(#mask-2)" cx="168.5" cy="131.5" r="1.5"></circle>
                        <circle id="Oval-Copy-168" fill="#F38E86" mask="url(#mask-2)" cx="155.5" cy="131.5" r="1.5"></circle>
                        <circle id="Oval-Copy-167" fill="#F38E86" mask="url(#mask-2)" cx="142.5" cy="131.5" r="1.5"></circle>
                        <circle id="Oval-Copy-166" fill="#F38E86" mask="url(#mask-2)" cx="129.5" cy="131.5" r="1.5"></circle>
                        <circle id="Oval-Copy-165" fill="#F38E86" mask="url(#mask-2)" cx="116.5" cy="131.5" r="1.5"></circle>
                        <circle id="Oval-Copy-164" fill="#F38E86" mask="url(#mask-2)" cx="103.5" cy="131.5" r="1.5"></circle>
                        <circle id="Oval-Copy-163" fill="#F38E86" mask="url(#mask-2)" cx="90.5" cy="131.5" r="1.5"></circle>
                        <circle id="Oval-Copy-162" fill="#F38E86" mask="url(#mask-2)" cx="77.5" cy="131.5" r="1.5"></circle>
                        <circle id="Oval-Copy-161" fill="#F38E86" mask="url(#mask-2)" cx="64.5" cy="131.5" r="1.5"></circle>
                        <circle id="Oval-Copy-160" fill="#F38E86" mask="url(#mask-2)" cx="51.5" cy="131.5" r="1.5"></circle>
                        <circle id="Oval-Copy-159" fill="#F38E86" mask="url(#mask-2)" cx="38.5" cy="131.5" r="1.5"></circle>
                        <circle id="Oval-Copy-158" fill="#F38E86" mask="url(#mask-2)" cx="25.5" cy="131.5" r="1.5"></circle>
                        <circle id="Oval-Copy-157" fill="#F38E86" mask="url(#mask-2)" cx="12.5" cy="131.5" r="1.5"></circle>
                        <circle id="Oval-Copy-156" fill="#F38E86" mask="url(#mask-2)" cx="-0.5" cy="131.5" r="1.5"></circle>
                        <circle id="Oval-Copy-155" fill="#F38E86" mask="url(#mask-2)" cx="181.5" cy="118.5" r="1.5"></circle>
                        <circle id="Oval-Copy-154" fill="#F38E86" mask="url(#mask-2)" cx="168.5" cy="118.5" r="1.5"></circle>
                        <circle id="Oval-Copy-153" fill="#F38E86" mask="url(#mask-2)" cx="155.5" cy="118.5" r="1.5"></circle>
                        <circle id="Oval-Copy-152" fill="#F38E86" mask="url(#mask-2)" cx="142.5" cy="118.5" r="1.5"></circle>
                        <circle id="Oval-Copy-151" fill="#F38E86" mask="url(#mask-2)" cx="129.5" cy="118.5" r="1.5"></circle>
                        <circle id="Oval-Copy-150" fill="#F38E86" mask="url(#mask-2)" cx="116.5" cy="118.5" r="1.5"></circle>
                        <circle id="Oval-Copy-149" fill="#F38E86" mask="url(#mask-2)" cx="103.5" cy="118.5" r="1.5"></circle>
                        <circle id="Oval-Copy-148" fill="#F38E86" mask="url(#mask-2)" cx="90.5" cy="118.5" r="1.5"></circle>
                        <circle id="Oval-Copy-147" fill="#F38E86" mask="url(#mask-2)" cx="77.5" cy="118.5" r="1.5"></circle>
                        <circle id="Oval-Copy-146" fill="#F38E86" mask="url(#mask-2)" cx="64.5" cy="118.5" r="1.5"></circle>
                        <circle id="Oval-Copy-145" fill="#F38E86" mask="url(#mask-2)" cx="51.5" cy="118.5" r="1.5"></circle>
                        <circle id="Oval-Copy-144" fill="#F38E86" mask="url(#mask-2)" cx="38.5" cy="118.5" r="1.5"></circle>
                        <circle id="Oval-Copy-143" fill="#F38E86" mask="url(#mask-2)" cx="25.5" cy="118.5" r="1.5"></circle>
                        <circle id="Oval-Copy-142" fill="#F38E86" mask="url(#mask-2)" cx="12.5" cy="118.5" r="1.5"></circle>
                        <circle id="Oval-Copy-141" fill="#F38E86" mask="url(#mask-2)" cx="-0.5" cy="118.5" r="1.5"></circle>
                        <circle id="Oval-Copy-140" fill="#F38E86" mask="url(#mask-2)" cx="181.5" cy="105.5" r="1.5"></circle>
                        <circle id="Oval-Copy-139" fill="#F38E86" mask="url(#mask-2)" cx="168.5" cy="105.5" r="1.5"></circle>
                        <circle id="Oval-Copy-138" fill="#F38E86" mask="url(#mask-2)" cx="155.5" cy="105.5" r="1.5"></circle>
                        <circle id="Oval-Copy-137" fill="#F38E86" mask="url(#mask-2)" cx="142.5" cy="105.5" r="1.5"></circle>
                        <circle id="Oval-Copy-136" fill="#F38E86" mask="url(#mask-2)" cx="129.5" cy="105.5" r="1.5"></circle>
                        <circle id="Oval-Copy-135" fill="#F38E86" mask="url(#mask-2)" cx="116.5" cy="105.5" r="1.5"></circle>
                        <circle id="Oval-Copy-134" fill="#F38E86" mask="url(#mask-2)" cx="103.5" cy="105.5" r="1.5"></circle>
                        <circle id="Oval-Copy-133" fill="#F38E86" mask="url(#mask-2)" cx="90.5" cy="105.5" r="1.5"></circle>
                        <circle id="Oval-Copy-132" fill="#F38E86" mask="url(#mask-2)" cx="77.5" cy="105.5" r="1.5"></circle>
                        <circle id="Oval-Copy-131" fill="#F38E86" mask="url(#mask-2)" cx="64.5" cy="105.5" r="1.5"></circle>
                        <circle id="Oval-Copy-130" fill="#F38E86" mask="url(#mask-2)" cx="51.5" cy="105.5" r="1.5"></circle>
                        <circle id="Oval-Copy-129" fill="#F38E86" mask="url(#mask-2)" cx="38.5" cy="105.5" r="1.5"></circle>
                        <circle id="Oval-Copy-128" fill="#F38E86" mask="url(#mask-2)" cx="25.5" cy="105.5" r="1.5"></circle>
                        <circle id="Oval-Copy-127" fill="#F38E86" mask="url(#mask-2)" cx="12.5" cy="105.5" r="1.5"></circle>
                        <circle id="Oval-Copy-126" fill="#F38E86" mask="url(#mask-2)" cx="-0.5" cy="105.5" r="1.5"></circle>
                        <circle id="Oval-Copy-125" fill="#F38E86" mask="url(#mask-2)" cx="181.5" cy="92.5" r="1.5"></circle>
                        <circle id="Oval-Copy-124" fill="#F38E86" mask="url(#mask-2)" cx="168.5" cy="92.5" r="1.5"></circle>
                        <circle id="Oval-Copy-123" fill="#F38E86" mask="url(#mask-2)" cx="155.5" cy="92.5" r="1.5"></circle>
                        <circle id="Oval-Copy-122" fill="#F38E86" mask="url(#mask-2)" cx="142.5" cy="92.5" r="1.5"></circle>
                        <circle id="Oval-Copy-121" fill="#F38E86" mask="url(#mask-2)" cx="129.5" cy="92.5" r="1.5"></circle>
                        <circle id="Oval-Copy-120" fill="#F38E86" mask="url(#mask-2)" cx="116.5" cy="92.5" r="1.5"></circle>
                        <circle id="Oval-Copy-119" fill="#F38E86" mask="url(#mask-2)" cx="103.5" cy="92.5" r="1.5"></circle>
                        <circle id="Oval-Copy-118" fill="#F38E86" mask="url(#mask-2)" cx="90.5" cy="92.5" r="1.5"></circle>
                        <circle id="Oval-Copy-117" fill="#F38E86" mask="url(#mask-2)" cx="77.5" cy="92.5" r="1.5"></circle>
                        <circle id="Oval-Copy-116" fill="#F38E86" mask="url(#mask-2)" cx="64.5" cy="92.5" r="1.5"></circle>
                        <circle id="Oval-Copy-115" fill="#F38E86" mask="url(#mask-2)" cx="51.5" cy="92.5" r="1.5"></circle>
                        <circle id="Oval-Copy-114" fill="#F38E86" mask="url(#mask-2)" cx="38.5" cy="92.5" r="1.5"></circle>
                        <circle id="Oval-Copy-113" fill="#F38E86" mask="url(#mask-2)" cx="25.5" cy="92.5" r="1.5"></circle>
                        <circle id="Oval-Copy-112" fill="#F38E86" mask="url(#mask-2)" cx="12.5" cy="92.5" r="1.5"></circle>
                        <circle id="Oval-Copy-111" fill="#F38E86" mask="url(#mask-2)" cx="-0.5" cy="92.5" r="1.5"></circle>
                        <circle id="Oval-Copy-110" fill="#F38E86" mask="url(#mask-2)" cx="181.5" cy="79.5" r="1.5"></circle>
                        <circle id="Oval-Copy-109" fill="#F38E86" mask="url(#mask-2)" cx="168.5" cy="79.5" r="1.5"></circle>
                        <circle id="Oval-Copy-108" fill="#F38E86" mask="url(#mask-2)" cx="155.5" cy="79.5" r="1.5"></circle>
                        <circle id="Oval-Copy-107" fill="#F38E86" mask="url(#mask-2)" cx="142.5" cy="79.5" r="1.5"></circle>
                        <circle id="Oval-Copy-106" fill="#F38E86" mask="url(#mask-2)" cx="129.5" cy="79.5" r="1.5"></circle>
                        <circle id="Oval-Copy-105" fill="#F38E86" mask="url(#mask-2)" cx="116.5" cy="79.5" r="1.5"></circle>
                        <circle id="Oval-Copy-104" fill="#F38E86" mask="url(#mask-2)" cx="103.5" cy="79.5" r="1.5"></circle>
                        <circle id="Oval-Copy-103" fill="#F38E86" mask="url(#mask-2)" cx="90.5" cy="79.5" r="1.5"></circle>
                        <circle id="Oval-Copy-102" fill="#F38E86" mask="url(#mask-2)" cx="77.5" cy="79.5" r="1.5"></circle>
                        <circle id="Oval-Copy-101" fill="#F38E86" mask="url(#mask-2)" cx="64.5" cy="79.5" r="1.5"></circle>
                        <circle id="Oval-Copy-100" fill="#F38E86" mask="url(#mask-2)" cx="51.5" cy="79.5" r="1.5"></circle>
                        <circle id="Oval-Copy-99" fill="#F38E86" mask="url(#mask-2)" cx="38.5" cy="79.5" r="1.5"></circle>
                        <circle id="Oval-Copy-98" fill="#F38E86" mask="url(#mask-2)" cx="25.5" cy="79.5" r="1.5"></circle>
                        <circle id="Oval-Copy-97" fill="#F38E86" mask="url(#mask-2)" cx="12.5" cy="79.5" r="1.5"></circle>
                        <circle id="Oval-Copy-96" fill="#F38E86" mask="url(#mask-2)" cx="-0.5" cy="79.5" r="1.5"></circle>
                        <circle id="Oval-Copy-95" fill="#F38E86" mask="url(#mask-2)" cx="181.5" cy="66.5" r="1.5"></circle>
                        <circle id="Oval-Copy-94" fill="#F38E86" mask="url(#mask-2)" cx="168.5" cy="66.5" r="1.5"></circle>
                        <circle id="Oval-Copy-93" fill="#F38E86" mask="url(#mask-2)" cx="155.5" cy="66.5" r="1.5"></circle>
                        <circle id="Oval-Copy-92" fill="#F38E86" mask="url(#mask-2)" cx="142.5" cy="66.5" r="1.5"></circle>
                        <circle id="Oval-Copy-91" fill="#F38E86" mask="url(#mask-2)" cx="129.5" cy="66.5" r="1.5"></circle>
                        <circle id="Oval-Copy-90" fill="#F38E86" mask="url(#mask-2)" cx="116.5" cy="66.5" r="1.5"></circle>
                        <circle id="Oval-Copy-89" fill="#F38E86" mask="url(#mask-2)" cx="103.5" cy="66.5" r="1.5"></circle>
                        <circle id="Oval-Copy-88" fill="#F38E86" mask="url(#mask-2)" cx="90.5" cy="66.5" r="1.5"></circle>
                        <circle id="Oval-Copy-87" fill="#F38E86" mask="url(#mask-2)" cx="77.5" cy="66.5" r="1.5"></circle>
                        <circle id="Oval-Copy-86" fill="#F38E86" mask="url(#mask-2)" cx="64.5" cy="66.5" r="1.5"></circle>
                        <circle id="Oval-Copy-85" fill="#F38E86" mask="url(#mask-2)" cx="51.5" cy="66.5" r="1.5"></circle>
                        <circle id="Oval-Copy-84" fill="#F38E86" mask="url(#mask-2)" cx="38.5" cy="66.5" r="1.5"></circle>
                        <circle id="Oval-Copy-83" fill="#F38E86" mask="url(#mask-2)" cx="25.5" cy="66.5" r="1.5"></circle>
                    </g>
                    <polygon id="Triangle-Copy-5" stroke="#B8DEFC" stroke-width="3" transform="translate(155.127417, 352.349564) rotate(-23.000000) translate(-155.127417, -352.349564) " points="156.892535 340.79137 167.627417 363.907758 142.627417 363.907758"></polygon>
                    <polygon id="Triangle-Copy-8" fill="#FEE0D4" transform="translate(763.500000, 82.500000) rotate(123.000000) translate(-763.500000, -82.500000) " points="763.5 70 776 95 751 95"></polygon>
                    <rect id="Rectangle-Copy-9" stroke="#B8DEFC" stroke-width="3" transform="translate(877.500000, 75.500000) rotate(-45.000000) translate(-877.500000, -75.500000) " x="866.5" y="64.5" width="22" height="22"></rect>
                    <circle id="Oval-Copy-235" stroke="#B8DEFC" stroke-width="3" cx="895.5" cy="11.5" r="6.5"></circle>
                    <circle id="Oval-Copy-233" stroke="#B8DEFC" stroke-width="3" cx="161.5" cy="227.5" r="6.5"></circle>
                    <path d="M792,52 C793.17965,49.4134981 794.547663,47.7800357 796.104038,47.0996128 C798.438601,46.0789785 800,47.4584179 802.971399,46.146265 C804.952329,45.2714963 806.295196,43.5560747 807,41" id="Path-2-Copy" stroke="#B8DEFC" stroke-width="3"></path>
                </g>
            </g>
        </g>
    </g>
</svg>