<?xml version="1.0" encoding="UTF-8"?>
<svg width="199px" height="168px" viewBox="0 0 199 168" version="1.1" xmlns="http://www.w3.org/2000/svg" xmlns:xlink="http://www.w3.org/1999/xlink">
    <!-- Generator: Sketch 57.1 (83088) - https://sketch.com -->
    <title>Group 17</title>
    <desc>Created with Sketch.</desc>
    <g id="Page-1" stroke="none" stroke-width="1" fill="none" fill-rule="evenodd">
        <g id="Final-design" transform="translate(-793.000000, -1185.000000)" fill="#FCF8EF">
            <g id="HOW-IT-WORKS" transform="translate(144.000000, 840.000000)">
                <g id="advantages" transform="translate(0.000000, 258.000000)">
                    <g id="Group-17" transform="translate(643.000000, 0.000000)">
                        <g transform="translate(-86.000000, 11.000000)" id="Group-7">
                            <g transform="translate(199.500000, 183.500000) rotate(-10.000000) translate(-199.500000, -183.500000) translate(107.000000, 91.000000)">
                                <circle id="Oval-Copy-6" cx="1.5" cy="1.5" r="1.5"></circle>
                                <circle id="Oval-Copy-7" cx="14.5" cy="1.5" r="1.5"></circle>
                                <circle id="Oval-Copy-8" cx="27.5" cy="1.5" r="1.5"></circle>
                                <circle id="Oval-Copy-9" cx="40.5" cy="1.5" r="1.5"></circle>
                                <circle id="Oval-Copy-10" cx="53.5" cy="1.5" r="1.5"></circle>
                                <circle id="Oval-Copy-11" cx="66.5" cy="1.5" r="1.5"></circle>
                                <circle id="Oval-Copy-12" cx="79.5" cy="1.5" r="1.5"></circle>
                                <circle id="Oval-Copy-13" cx="92.5" cy="1.5" r="1.5"></circle>
                                <circle id="Oval-Copy-14" cx="105.5" cy="1.5" r="1.5"></circle>
                                <circle id="Oval-Copy-15" cx="118.5" cy="1.5" r="1.5"></circle>
                                <circle id="Oval-Copy-16" cx="131.5" cy="1.5" r="1.5"></circle>
                                <circle id="Oval-Copy-17" cx="144.5" cy="1.5" r="1.5"></circle>
                                <circle id="Oval-Copy-18" cx="157.5" cy="1.5" r="1.5"></circle>
                                <circle id="Oval-Copy-19" cx="170.5" cy="1.5" r="1.5"></circle>
                                <circle id="Oval-Copy-20" cx="183.5" cy="1.5" r="1.5"></circle>
                                <circle id="Oval-Copy-21" cx="1.5" cy="14.5" r="1.5"></circle>
                                <circle id="Oval-Copy-22" cx="14.5" cy="14.5" r="1.5"></circle>
                                <circle id="Oval-Copy-23" cx="27.5" cy="14.5" r="1.5"></circle>
                                <circle id="Oval-Copy-24" cx="40.5" cy="14.5" r="1.5"></circle>
                                <circle id="Oval-Copy-25" cx="53.5" cy="14.5" r="1.5"></circle>
                                <circle id="Oval-Copy-26" cx="66.5" cy="14.5" r="1.5"></circle>
                                <circle id="Oval-Copy-27" cx="79.5" cy="14.5" r="1.5"></circle>
                                <circle id="Oval-Copy-28" cx="92.5" cy="14.5" r="1.5"></circle>
                                <circle id="Oval-Copy-29" cx="105.5" cy="14.5" r="1.5"></circle>
                                <circle id="Oval-Copy-30" cx="118.5" cy="14.5" r="1.5"></circle>
                                <circle id="Oval-Copy-31" cx="131.5" cy="14.5" r="1.5"></circle>
                                <circle id="Oval-Copy-32" cx="144.5" cy="14.5" r="1.5"></circle>
                                <circle id="Oval-Copy-33" cx="157.5" cy="14.5" r="1.5"></circle>
                                <circle id="Oval-Copy-34" cx="170.5" cy="14.5" r="1.5"></circle>
                                <circle id="Oval-Copy-35" cx="183.5" cy="14.5" r="1.5"></circle>
                                <circle id="Oval-Copy-36" cx="1.5" cy="27.5" r="1.5"></circle>
                                <circle id="Oval-Copy-37" cx="14.5" cy="27.5" r="1.5"></circle>
                                <circle id="Oval-Copy-38" cx="27.5" cy="27.5" r="1.5"></circle>
                                <circle id="Oval-Copy-39" cx="40.5" cy="27.5" r="1.5"></circle>
                                <circle id="Oval-Copy-40" cx="53.5" cy="27.5" r="1.5"></circle>
                                <circle id="Oval-Copy-41" cx="66.5" cy="27.5" r="1.5"></circle>
                                <circle id="Oval-Copy-42" cx="79.5" cy="27.5" r="1.5"></circle>
                                <circle id="Oval-Copy-43" cx="92.5" cy="27.5" r="1.5"></circle>
                                <circle id="Oval-Copy-44" cx="105.5" cy="27.5" r="1.5"></circle>
                                <circle id="Oval-Copy-45" cx="118.5" cy="27.5" r="1.5"></circle>
                                <circle id="Oval-Copy-46" cx="131.5" cy="27.5" r="1.5"></circle>
                                <circle id="Oval-Copy-47" cx="144.5" cy="27.5" r="1.5"></circle>
                                <circle id="Oval-Copy-48" cx="157.5" cy="27.5" r="1.5"></circle>
                                <circle id="Oval-Copy-49" cx="170.5" cy="27.5" r="1.5"></circle>
                                <circle id="Oval-Copy-50" cx="183.5" cy="27.5" r="1.5"></circle>
                                <circle id="Oval-Copy-51" cx="1.5" cy="40.5" r="1.5"></circle>
                                <circle id="Oval-Copy-52" cx="14.5" cy="40.5" r="1.5"></circle>
                                <circle id="Oval-Copy-53" cx="27.5" cy="40.5" r="1.5"></circle>
                                <circle id="Oval-Copy-54" cx="40.5" cy="40.5" r="1.5"></circle>
                                <circle id="Oval-Copy-55" cx="53.5" cy="40.5" r="1.5"></circle>
                                <circle id="Oval-Copy-56" cx="66.5" cy="40.5" r="1.5"></circle>
                                <circle id="Oval-Copy-57" cx="79.5" cy="40.5" r="1.5"></circle>
                                <circle id="Oval-Copy-58" cx="92.5" cy="40.5" r="1.5"></circle>
                                <circle id="Oval-Copy-59" cx="105.5" cy="40.5" r="1.5"></circle>
                                <circle id="Oval-Copy-60" cx="118.5" cy="40.5" r="1.5"></circle>
                                <circle id="Oval-Copy-61" cx="131.5" cy="40.5" r="1.5"></circle>
                                <circle id="Oval-Copy-62" cx="144.5" cy="40.5" r="1.5"></circle>
                                <circle id="Oval-Copy-63" cx="157.5" cy="40.5" r="1.5"></circle>
                                <circle id="Oval-Copy-64" cx="170.5" cy="40.5" r="1.5"></circle>
                                <circle id="Oval-Copy-65" cx="183.5" cy="40.5" r="1.5"></circle>
                                <circle id="Oval-Copy-66" cx="1.5" cy="53.5" r="1.5"></circle>
                                <circle id="Oval-Copy-67" cx="14.5" cy="53.5" r="1.5"></circle>
                                <circle id="Oval-Copy-68" cx="27.5" cy="53.5" r="1.5"></circle>
                                <circle id="Oval-Copy-69" cx="40.5" cy="53.5" r="1.5"></circle>
                                <circle id="Oval-Copy-70" cx="53.5" cy="53.5" r="1.5"></circle>
                                <circle id="Oval-Copy-71" cx="66.5" cy="53.5" r="1.5"></circle>
                                <circle id="Oval-Copy-72" cx="79.5" cy="53.5" r="1.5"></circle>
                                <circle id="Oval-Copy-73" cx="92.5" cy="53.5" r="1.5"></circle>
                                <circle id="Oval-Copy-74" cx="105.5" cy="53.5" r="1.5"></circle>
                                <circle id="Oval-Copy-75" cx="118.5" cy="53.5" r="1.5"></circle>
                                <circle id="Oval-Copy-76" cx="131.5" cy="53.5" r="1.5"></circle>
                                <circle id="Oval-Copy-77" cx="144.5" cy="53.5" r="1.5"></circle>
                                <circle id="Oval-Copy-78" cx="157.5" cy="53.5" r="1.5"></circle>
                                <circle id="Oval-Copy-79" cx="170.5" cy="53.5" r="1.5"></circle>
                                <circle id="Oval-Copy-80" cx="183.5" cy="53.5" r="1.5"></circle>
                                <circle id="Oval-Copy-81" cx="1.5" cy="66.5" r="1.5"></circle>
                                <circle id="Oval-Copy-82" cx="14.5" cy="66.5" r="1.5"></circle>
                                <circle id="Oval-Copy-199" cx="170.5" cy="157.5" r="1.5"></circle>
                                <circle id="Oval-Copy-198" cx="157.5" cy="157.5" r="1.5"></circle>
                                <circle id="Oval-Copy-197" cx="144.5" cy="157.5" r="1.5"></circle>
                                <circle id="Oval-Copy-196" cx="131.5" cy="157.5" r="1.5"></circle>
                                <circle id="Oval-Copy-195" cx="118.5" cy="157.5" r="1.5"></circle>
                                <circle id="Oval-Copy-194" cx="105.5" cy="157.5" r="1.5"></circle>
                                <circle id="Oval-Copy-184" cx="170.5" cy="144.5" r="1.5"></circle>
                                <circle id="Oval-Copy-183" cx="157.5" cy="144.5" r="1.5"></circle>
                                <circle id="Oval-Copy-182" cx="144.5" cy="144.5" r="1.5"></circle>
                                <circle id="Oval-Copy-181" cx="131.5" cy="144.5" r="1.5"></circle>
                                <circle id="Oval-Copy-180" cx="118.5" cy="144.5" r="1.5"></circle>
                                <circle id="Oval-Copy-179" cx="105.5" cy="144.5" r="1.5"></circle>
                                <circle id="Oval-Copy-178" cx="92.5" cy="144.5" r="1.5"></circle>
                                <circle id="Oval-Copy-177" cx="79.5" cy="144.5" r="1.5"></circle>
                                <circle id="Oval-Copy-176" cx="66.5" cy="144.5" r="1.5"></circle>
                                <circle id="Oval-Copy-175" cx="53.5" cy="144.5" r="1.5"></circle>
                                <circle id="Oval-Copy-174" cx="40.5" cy="144.5" r="1.5"></circle>
                                <circle id="Oval-Copy-169" cx="170.5" cy="131.5" r="1.5"></circle>
                                <circle id="Oval-Copy-168" cx="157.5" cy="131.5" r="1.5"></circle>
                                <circle id="Oval-Copy-167" cx="144.5" cy="131.5" r="1.5"></circle>
                                <circle id="Oval-Copy-166" cx="131.5" cy="131.5" r="1.5"></circle>
                                <circle id="Oval-Copy-165" cx="118.5" cy="131.5" r="1.5"></circle>
                                <circle id="Oval-Copy-164" cx="105.5" cy="131.5" r="1.5"></circle>
                                <circle id="Oval-Copy-163" cx="92.5" cy="131.5" r="1.5"></circle>
                                <circle id="Oval-Copy-162" cx="79.5" cy="131.5" r="1.5"></circle>
                                <circle id="Oval-Copy-161" cx="66.5" cy="131.5" r="1.5"></circle>
                                <circle id="Oval-Copy-160" cx="53.5" cy="131.5" r="1.5"></circle>
                                <circle id="Oval-Copy-159" cx="40.5" cy="131.5" r="1.5"></circle>
                                <circle id="Oval-Copy-158" cx="27.5" cy="131.5" r="1.5"></circle>
                                <circle id="Oval-Copy-157" cx="14.5" cy="131.5" r="1.5"></circle>
                                <circle id="Oval-Copy-156" cx="1.5" cy="131.5" r="1.5"></circle>
                                <circle id="Oval-Copy-154" cx="170.5" cy="118.5" r="1.5"></circle>
                                <circle id="Oval-Copy-153" cx="157.5" cy="118.5" r="1.5"></circle>
                                <circle id="Oval-Copy-152" cx="144.5" cy="118.5" r="1.5"></circle>
                                <circle id="Oval-Copy-151" cx="131.5" cy="118.5" r="1.5"></circle>
                                <circle id="Oval-Copy-150" cx="118.5" cy="118.5" r="1.5"></circle>
                                <circle id="Oval-Copy-149" cx="105.5" cy="118.5" r="1.5"></circle>
                                <circle id="Oval-Copy-148" cx="92.5" cy="118.5" r="1.5"></circle>
                                <circle id="Oval-Copy-147" cx="79.5" cy="118.5" r="1.5"></circle>
                                <circle id="Oval-Copy-146" cx="66.5" cy="118.5" r="1.5"></circle>
                                <circle id="Oval-Copy-145" cx="53.5" cy="118.5" r="1.5"></circle>
                                <circle id="Oval-Copy-144" cx="40.5" cy="118.5" r="1.5"></circle>
                                <circle id="Oval-Copy-143" cx="27.5" cy="118.5" r="1.5"></circle>
                                <circle id="Oval-Copy-142" cx="14.5" cy="118.5" r="1.5"></circle>
                                <circle id="Oval-Copy-141" cx="1.5" cy="118.5" r="1.5"></circle>
                                <circle id="Oval-Copy-140" cx="183.5" cy="105.5" r="1.5"></circle>
                                <circle id="Oval-Copy-139" cx="170.5" cy="105.5" r="1.5"></circle>
                                <circle id="Oval-Copy-138" cx="157.5" cy="105.5" r="1.5"></circle>
                                <circle id="Oval-Copy-137" cx="144.5" cy="105.5" r="1.5"></circle>
                                <circle id="Oval-Copy-136" cx="131.5" cy="105.5" r="1.5"></circle>
                                <circle id="Oval-Copy-135" cx="118.5" cy="105.5" r="1.5"></circle>
                                <circle id="Oval-Copy-134" cx="105.5" cy="105.5" r="1.5"></circle>
                                <circle id="Oval-Copy-133" cx="92.5" cy="105.5" r="1.5"></circle>
                                <circle id="Oval-Copy-132" cx="79.5" cy="105.5" r="1.5"></circle>
                                <circle id="Oval-Copy-131" cx="66.5" cy="105.5" r="1.5"></circle>
                                <circle id="Oval-Copy-130" cx="53.5" cy="105.5" r="1.5"></circle>
                                <circle id="Oval-Copy-129" cx="40.5" cy="105.5" r="1.5"></circle>
                                <circle id="Oval-Copy-128" cx="27.5" cy="105.5" r="1.5"></circle>
                                <circle id="Oval-Copy-127" cx="14.5" cy="105.5" r="1.5"></circle>
                                <circle id="Oval-Copy-126" cx="1.5" cy="105.5" r="1.5"></circle>
                                <circle id="Oval-Copy-125" cx="183.5" cy="92.5" r="1.5"></circle>
                                <circle id="Oval-Copy-124" cx="170.5" cy="92.5" r="1.5"></circle>
                                <circle id="Oval-Copy-123" cx="157.5" cy="92.5" r="1.5"></circle>
                                <circle id="Oval-Copy-122" cx="144.5" cy="92.5" r="1.5"></circle>
                                <circle id="Oval-Copy-121" cx="131.5" cy="92.5" r="1.5"></circle>
                                <circle id="Oval-Copy-120" cx="118.5" cy="92.5" r="1.5"></circle>
                                <circle id="Oval-Copy-119" cx="105.5" cy="92.5" r="1.5"></circle>
                                <circle id="Oval-Copy-118" cx="92.5" cy="92.5" r="1.5"></circle>
                                <circle id="Oval-Copy-117" cx="79.5" cy="92.5" r="1.5"></circle>
                                <circle id="Oval-Copy-116" cx="66.5" cy="92.5" r="1.5"></circle>
                                <circle id="Oval-Copy-115" cx="53.5" cy="92.5" r="1.5"></circle>
                                <circle id="Oval-Copy-114" cx="40.5" cy="92.5" r="1.5"></circle>
                                <circle id="Oval-Copy-113" cx="27.5" cy="92.5" r="1.5"></circle>
                                <circle id="Oval-Copy-112" cx="14.5" cy="92.5" r="1.5"></circle>
                                <circle id="Oval-Copy-111" cx="1.5" cy="92.5" r="1.5"></circle>
                                <circle id="Oval-Copy-110" cx="183.5" cy="79.5" r="1.5"></circle>
                                <circle id="Oval-Copy-109" cx="170.5" cy="79.5" r="1.5"></circle>
                                <circle id="Oval-Copy-108" cx="157.5" cy="79.5" r="1.5"></circle>
                                <circle id="Oval-Copy-107" cx="144.5" cy="79.5" r="1.5"></circle>
                                <circle id="Oval-Copy-106" cx="131.5" cy="79.5" r="1.5"></circle>
                                <circle id="Oval-Copy-105" cx="118.5" cy="79.5" r="1.5"></circle>
                                <circle id="Oval-Copy-104" cx="105.5" cy="79.5" r="1.5"></circle>
                                <circle id="Oval-Copy-103" cx="92.5" cy="79.5" r="1.5"></circle>
                                <circle id="Oval-Copy-102" cx="79.5" cy="79.5" r="1.5"></circle>
                                <circle id="Oval-Copy-101" cx="66.5" cy="79.5" r="1.5"></circle>
                                <circle id="Oval-Copy-100" cx="53.5" cy="79.5" r="1.5"></circle>
                                <circle id="Oval-Copy-99" cx="40.5" cy="79.5" r="1.5"></circle>
                                <circle id="Oval-Copy-98" cx="27.5" cy="79.5" r="1.5"></circle>
                                <circle id="Oval-Copy-97" cx="14.5" cy="79.5" r="1.5"></circle>
                                <circle id="Oval-Copy-96" cx="1.5" cy="79.5" r="1.5"></circle>
                                <circle id="Oval-Copy-95" cx="183.5" cy="66.5" r="1.5"></circle>
                                <circle id="Oval-Copy-94" cx="170.5" cy="66.5" r="1.5"></circle>
                                <circle id="Oval-Copy-93" cx="157.5" cy="66.5" r="1.5"></circle>
                                <circle id="Oval-Copy-92" cx="144.5" cy="66.5" r="1.5"></circle>
                                <circle id="Oval-Copy-91" cx="131.5" cy="66.5" r="1.5"></circle>
                                <circle id="Oval-Copy-90" cx="118.5" cy="66.5" r="1.5"></circle>
                                <circle id="Oval-Copy-89" cx="105.5" cy="66.5" r="1.5"></circle>
                                <circle id="Oval-Copy-88" cx="92.5" cy="66.5" r="1.5"></circle>
                                <circle id="Oval-Copy-87" cx="79.5" cy="66.5" r="1.5"></circle>
                                <circle id="Oval-Copy-86" cx="66.5" cy="66.5" r="1.5"></circle>
                                <circle id="Oval-Copy-85" cx="53.5" cy="66.5" r="1.5"></circle>
                                <circle id="Oval-Copy-84" cx="40.5" cy="66.5" r="1.5"></circle>
                                <circle id="Oval-Copy-83" cx="27.5" cy="66.5" r="1.5"></circle>
                            </g>
                        </g>
                    </g>
                </g>
            </g>
        </g>
    </g>
</svg>