<?xml version="1.0" encoding="UTF-8"?>
<svg width="20px" height="20px" viewBox="0 0 20 20" version="1.1" xmlns="http://www.w3.org/2000/svg" xmlns:xlink="http://www.w3.org/1999/xlink">
    <!-- Generator: Sketch 57.1 (83088) - https://sketch.com -->
    <title>001-instagram-logo</title>
    <desc>Created with Sketch.</desc>
    <g id="Page-1" stroke="none" stroke-width="1" fill="none" fill-rule="evenodd">
        <g id="Final-design" transform="translate(-752.000000, -5681.000000)" fill="#41719F" fill-rule="nonzero">
            <g id="FOOTER" transform="translate(0.000000, 5301.000000)">
                <g id="social" transform="translate(668.000000, 380.000000)">
                    <g id="001-instagram-logo" transform="translate(84.000000, 0.000000)">
                        <path d="M14.4806047,0 L5.51915865,0 C2.47589642,0 0,2.47601472 0,5.51927695 L0,14.480723 C0,17.5241036 2.47589642,20 5.51915865,20 L14.4806047,20 C17.5241036,20 20,17.5239853 20,14.480723 L20,5.51927695 C20,2.47601472 17.5241036,0 14.4806047,0 Z M18.2256214,14.480723 C18.2256214,16.545646 16.545646,18.2255031 14.480723,18.2255031 L5.51915865,18.2255031 C3.45435402,18.2255031 1.77449693,16.545646 1.77449693,14.480723 L1.77449693,5.51927695 C1.77449693,3.45447232 3.45435402,1.77449693 5.51915865,1.77449693 L14.4806047,1.77449693 C16.5455277,1.77449693 18.2256214,3.45447232 18.2256214,5.51927695 L18.2256214,14.480723 L18.2256214,14.480723 Z" id="Shape"></path>
                        <path d="M9.85915493,4.78873239 C7.06328183,4.78873239 4.78873239,7.06333405 4.78873239,9.85927133 C4.78873239,12.6550922 7.06328183,14.9295775 9.85915493,14.9295775 C12.655028,14.9295775 14.9295775,12.6550922 14.9295775,9.85927133 C14.9295775,7.06333405 12.655028,4.78873239 9.85915493,4.78873239 Z M9.85915493,13.183528 C8.02608364,13.183528 6.53462542,11.6922683 6.53462542,9.85915493 C6.53462542,8.02592517 8.02596725,6.53454911 9.85915493,6.53454911 C11.6923426,6.53454911 13.1836844,8.02592517 13.1836844,9.85915493 C13.1836844,11.6922683 11.6922262,13.183528 9.85915493,13.183528 Z" id="Shape"></path>
                        <path d="M15.3521127,3.38028169 C15.0190781,3.38028169 14.6919206,3.51510883 14.4567222,3.75134443 C14.2203713,3.98642766 14.084507,4.31370038 14.084507,4.64788732 C14.084507,4.98103713 14.2204866,5.30819462 14.4567222,5.54443022 C14.6918054,5.77951344 15.0190781,5.91549296 15.3521127,5.91549296 C15.6862996,5.91549296 16.01242,5.77951344 16.2486556,5.54443022 C16.4848912,5.30819462 16.6197183,4.9809219 16.6197183,4.64788732 C16.6197183,4.31370038 16.4848912,3.98642766 16.2486556,3.75134443 C16.0135723,3.51510883 15.6862996,3.38028169 15.3521127,3.38028169 Z" id="Path"></path>
                    </g>
                </g>
            </g>
        </g>
    </g>
</svg>