<?xml version="1.0" encoding="UTF-8"?>
<svg width="702px" height="700px" viewBox="0 0 702 700" version="1.1" xmlns="http://www.w3.org/2000/svg" xmlns:xlink="http://www.w3.org/1999/xlink">
    <!-- Generator: Sketch 57.1 (83088) - https://sketch.com -->
    <title>background items</title>
    <desc>Created with Sketch.</desc>
    <defs>
        <path d="M127.85868,119.501299 L734.828425,119.822669 C739.243394,119.825007 742.821849,123.403461 742.824188,127.81843 L743.145554,734.494465 C743.147895,738.912742 739.568071,742.496361 735.149793,742.498701 C735.146969,742.498703 735.144144,742.498703 735.14132,742.498701 L128.171575,742.177331 C123.756606,742.174993 120.178151,738.596539 120.175812,734.18157 L119.854446,127.505535 C119.852105,123.087258 123.431929,119.503639 127.850207,119.501299 C127.853031,119.501297 127.855856,119.501297 127.85868,119.501299 Z" id="path-1"></path>
        <radialGradient cx="76.2730683%" cy="48.0351422%" fx="76.2730683%" fy="48.0351422%" r="88.2379983%" gradientTransform="translate(0.762731,0.480351),scale(0.998997,1.000000),rotate(39.801833),scale(1.000000,0.710067),translate(-0.762731,-0.480351)" id="radialGradient-3">
            <stop stop-color="#F38E86" offset="0%"></stop>
            <stop stop-color="#FEE0D4" offset="100%"></stop>
        </radialGradient>
    </defs>
    <g id="Page-1" stroke="none" stroke-width="1" fill="none" fill-rule="evenodd">
        <g id="Final-design" transform="translate(0.000000, -4545.000000)">
            <g id="OUR-TEAM" transform="translate(-622.000000, 4442.000000)">
                <g id="background-items">
                    <g id="Rectangle-Copy-10-+-Rectangle-Copy-16-Mask-Copy-Copy" transform="translate(506.500000, 506.000000) rotate(11.000000) translate(-506.500000, -506.000000) translate(75.000000, 75.000000)">
                        <g id="Group-6" transform="translate(0.000000, 0.000000)">
                            <mask id="mask-2" fill="white">
                                <use xlink:href="#path-1"></use>
                            </mask>
                            <use id="Mask" fill="#FCF8EF" transform="translate(431.500000, 431.000000) rotate(-33.000000) translate(-431.500000, -431.000000) " xlink:href="#path-1"></use>
                            <path d="M636.336714,222.716741 L1089.79929,222.585368 C1094.21757,222.579452 1097.80033,226.160136 1097.80161,230.578414 C1097.80161,230.57996 1097.80161,230.581506 1097.79697,230.58305 L1097.66561,683.574484 C1097.65969,687.99095 1094.07975,691.570883 1089.66329,691.576802 L636.200707,691.708174 C631.78243,691.71409 628.199671,688.133406 628.198391,683.715128 C628.19839,683.713582 628.19839,683.712037 628.203027,683.710492 L628.334395,230.719058 C628.340315,226.302592 631.920249,222.722659 636.336714,222.716741 Z" id="Rectangle-Copy-16" fill="url(#radialGradient-3)" opacity="0.117164249" mask="url(#mask-2)" transform="translate(863.000000, 457.146771) rotate(15.000000) translate(-863.000000, -457.146771) "></path>
                        </g>
                    </g>
                    <circle id="Oval-Copy-248" stroke="#B8DEFC" stroke-width="3" cx="1287" cy="650" r="35"></circle>
                    <path d="M789.612966,768.545936 L801.161662,794.488727 L810.192843,768.545936 L789.612966,768.545936 Z" id="Rectangle-Copy-22" stroke="#B8DEFC" stroke-width="3" transform="translate(799.803313, 782.803313) rotate(226.000000) translate(-799.803313, -782.803313) "></path>
                    <g id="Group-60" opacity="0.25" transform="translate(1067.500000, 359.500000) rotate(-8.000000) translate(-1067.500000, -359.500000) translate(975.000000, 267.000000)">
                        <circle id="Mask" cx="93.5" cy="91.5" r="91.5"></circle>
                        <circle id="Oval-Copy-6" fill="#F38E86" cx="1.5" cy="1.5" r="1.5"></circle>
                        <circle id="Oval-Copy-7" fill="#F38E86" cx="14.5" cy="1.5" r="1.5"></circle>
                        <circle id="Oval-Copy-8" fill="#F38E86" cx="27.5" cy="1.5" r="1.5"></circle>
                        <circle id="Oval-Copy-9" fill="#F38E86" cx="40.5" cy="1.5" r="1.5"></circle>
                        <circle id="Oval-Copy-10" fill="#F38E86" cx="53.5" cy="1.5" r="1.5"></circle>
                        <circle id="Oval-Copy-11" fill="#F38E86" cx="66.5" cy="1.5" r="1.5"></circle>
                        <circle id="Oval-Copy-12" fill="#F38E86" cx="79.5" cy="1.5" r="1.5"></circle>
                        <circle id="Oval-Copy-13" fill="#F38E86" cx="92.5" cy="1.5" r="1.5"></circle>
                        <circle id="Oval-Copy-14" fill="#F38E86" cx="105.5" cy="1.5" r="1.5"></circle>
                        <circle id="Oval-Copy-15" fill="#F38E86" cx="118.5" cy="1.5" r="1.5"></circle>
                        <circle id="Oval-Copy-16" fill="#F38E86" cx="131.5" cy="1.5" r="1.5"></circle>
                        <circle id="Oval-Copy-17" fill="#F38E86" cx="144.5" cy="1.5" r="1.5"></circle>
                        <circle id="Oval-Copy-18" fill="#F38E86" cx="157.5" cy="1.5" r="1.5"></circle>
                        <circle id="Oval-Copy-19" fill="#F38E86" cx="170.5" cy="1.5" r="1.5"></circle>
                        <circle id="Oval-Copy-20" fill="#F38E86" cx="183.5" cy="1.5" r="1.5"></circle>
                        <circle id="Oval-Copy-21" fill="#F38E86" cx="1.5" cy="14.5" r="1.5"></circle>
                        <circle id="Oval-Copy-22" fill="#F38E86" cx="14.5" cy="14.5" r="1.5"></circle>
                        <circle id="Oval-Copy-23" fill="#F38E86" cx="27.5" cy="14.5" r="1.5"></circle>
                        <circle id="Oval-Copy-24" fill="#F38E86" cx="40.5" cy="14.5" r="1.5"></circle>
                        <circle id="Oval-Copy-25" fill="#F38E86" cx="53.5" cy="14.5" r="1.5"></circle>
                        <circle id="Oval-Copy-26" fill="#F38E86" cx="66.5" cy="14.5" r="1.5"></circle>
                        <circle id="Oval-Copy-27" fill="#F38E86" cx="79.5" cy="14.5" r="1.5"></circle>
                        <circle id="Oval-Copy-28" fill="#F38E86" cx="92.5" cy="14.5" r="1.5"></circle>
                        <circle id="Oval-Copy-29" fill="#F38E86" cx="105.5" cy="14.5" r="1.5"></circle>
                        <circle id="Oval-Copy-30" fill="#F38E86" cx="118.5" cy="14.5" r="1.5"></circle>
                        <circle id="Oval-Copy-31" fill="#F38E86" cx="131.5" cy="14.5" r="1.5"></circle>
                        <circle id="Oval-Copy-32" fill="#F38E86" cx="144.5" cy="14.5" r="1.5"></circle>
                        <circle id="Oval-Copy-33" fill="#F38E86" cx="157.5" cy="14.5" r="1.5"></circle>
                        <circle id="Oval-Copy-34" fill="#F38E86" cx="170.5" cy="14.5" r="1.5"></circle>
                        <circle id="Oval-Copy-35" fill="#F38E86" cx="183.5" cy="14.5" r="1.5"></circle>
                        <circle id="Oval-Copy-36" fill="#F38E86" cx="1.5" cy="27.5" r="1.5"></circle>
                        <circle id="Oval-Copy-37" fill="#F38E86" cx="14.5" cy="27.5" r="1.5"></circle>
                        <circle id="Oval-Copy-38" fill="#F38E86" cx="27.5" cy="27.5" r="1.5"></circle>
                        <circle id="Oval-Copy-39" fill="#F38E86" cx="40.5" cy="27.5" r="1.5"></circle>
                        <circle id="Oval-Copy-40" fill="#F38E86" cx="53.5" cy="27.5" r="1.5"></circle>
                        <circle id="Oval-Copy-41" fill="#F38E86" cx="66.5" cy="27.5" r="1.5"></circle>
                        <circle id="Oval-Copy-42" fill="#F38E86" cx="79.5" cy="27.5" r="1.5"></circle>
                        <circle id="Oval-Copy-43" fill="#F38E86" cx="92.5" cy="27.5" r="1.5"></circle>
                        <circle id="Oval-Copy-44" fill="#F38E86" cx="105.5" cy="27.5" r="1.5"></circle>
                        <circle id="Oval-Copy-45" fill="#F38E86" cx="118.5" cy="27.5" r="1.5"></circle>
                        <circle id="Oval-Copy-46" fill="#F38E86" cx="131.5" cy="27.5" r="1.5"></circle>
                        <circle id="Oval-Copy-47" fill="#F38E86" cx="144.5" cy="27.5" r="1.5"></circle>
                        <circle id="Oval-Copy-48" fill="#F38E86" cx="157.5" cy="27.5" r="1.5"></circle>
                        <circle id="Oval-Copy-49" fill="#F38E86" cx="170.5" cy="27.5" r="1.5"></circle>
                        <circle id="Oval-Copy-50" fill="#F38E86" cx="183.5" cy="27.5" r="1.5"></circle>
                        <circle id="Oval-Copy-51" fill="#F38E86" cx="1.5" cy="40.5" r="1.5"></circle>
                        <circle id="Oval-Copy-52" fill="#F38E86" cx="14.5" cy="40.5" r="1.5"></circle>
                        <circle id="Oval-Copy-53" fill="#F38E86" cx="27.5" cy="40.5" r="1.5"></circle>
                        <circle id="Oval-Copy-54" fill="#F38E86" cx="40.5" cy="40.5" r="1.5"></circle>
                        <circle id="Oval-Copy-55" fill="#F38E86" cx="53.5" cy="40.5" r="1.5"></circle>
                        <circle id="Oval-Copy-56" fill="#F38E86" cx="66.5" cy="40.5" r="1.5"></circle>
                        <circle id="Oval-Copy-57" fill="#F38E86" cx="79.5" cy="40.5" r="1.5"></circle>
                        <circle id="Oval-Copy-58" fill="#F38E86" cx="92.5" cy="40.5" r="1.5"></circle>
                        <circle id="Oval-Copy-59" fill="#F38E86" cx="105.5" cy="40.5" r="1.5"></circle>
                        <circle id="Oval-Copy-60" fill="#F38E86" cx="118.5" cy="40.5" r="1.5"></circle>
                        <circle id="Oval-Copy-61" fill="#F38E86" cx="131.5" cy="40.5" r="1.5"></circle>
                        <circle id="Oval-Copy-62" fill="#F38E86" cx="144.5" cy="40.5" r="1.5"></circle>
                        <circle id="Oval-Copy-63" fill="#F38E86" cx="157.5" cy="40.5" r="1.5"></circle>
                        <circle id="Oval-Copy-64" fill="#F38E86" cx="170.5" cy="40.5" r="1.5"></circle>
                        <circle id="Oval-Copy-65" fill="#F38E86" cx="183.5" cy="40.5" r="1.5"></circle>
                        <circle id="Oval-Copy-66" fill="#F38E86" cx="1.5" cy="53.5" r="1.5"></circle>
                        <circle id="Oval-Copy-67" fill="#F38E86" cx="14.5" cy="53.5" r="1.5"></circle>
                        <circle id="Oval-Copy-68" fill="#F38E86" cx="27.5" cy="53.5" r="1.5"></circle>
                        <circle id="Oval-Copy-69" fill="#F38E86" cx="40.5" cy="53.5" r="1.5"></circle>
                        <circle id="Oval-Copy-70" fill="#F38E86" cx="53.5" cy="53.5" r="1.5"></circle>
                        <circle id="Oval-Copy-71" fill="#F38E86" cx="66.5" cy="53.5" r="1.5"></circle>
                        <circle id="Oval-Copy-72" fill="#F38E86" cx="79.5" cy="53.5" r="1.5"></circle>
                        <circle id="Oval-Copy-73" fill="#F38E86" cx="92.5" cy="53.5" r="1.5"></circle>
                        <circle id="Oval-Copy-74" fill="#F38E86" cx="105.5" cy="53.5" r="1.5"></circle>
                        <circle id="Oval-Copy-75" fill="#F38E86" cx="118.5" cy="53.5" r="1.5"></circle>
                        <circle id="Oval-Copy-76" fill="#F38E86" cx="131.5" cy="53.5" r="1.5"></circle>
                        <circle id="Oval-Copy-77" fill="#F38E86" cx="144.5" cy="53.5" r="1.5"></circle>
                        <circle id="Oval-Copy-78" fill="#F38E86" cx="157.5" cy="53.5" r="1.5"></circle>
                        <circle id="Oval-Copy-79" fill="#F38E86" cx="170.5" cy="53.5" r="1.5"></circle>
                        <circle id="Oval-Copy-80" fill="#F38E86" cx="183.5" cy="53.5" r="1.5"></circle>
                        <circle id="Oval-Copy-81" fill="#F38E86" cx="1.5" cy="66.5" r="1.5"></circle>
                        <circle id="Oval-Copy-82" fill="#F38E86" cx="14.5" cy="66.5" r="1.5"></circle>
                        <circle id="Oval-Copy-230" fill="#F38E86" cx="183.5" cy="183.5" r="1.5"></circle>
                        <circle id="Oval-Copy-229" fill="#F38E86" cx="170.5" cy="183.5" r="1.5"></circle>
                        <circle id="Oval-Copy-228" fill="#F38E86" cx="157.5" cy="183.5" r="1.5"></circle>
                        <circle id="Oval-Copy-227" fill="#F38E86" cx="144.5" cy="183.5" r="1.5"></circle>
                        <circle id="Oval-Copy-226" fill="#F38E86" cx="131.5" cy="183.5" r="1.5"></circle>
                        <circle id="Oval-Copy-225" fill="#F38E86" cx="118.5" cy="183.5" r="1.5"></circle>
                        <circle id="Oval-Copy-224" fill="#F38E86" cx="105.5" cy="183.5" r="1.5"></circle>
                        <circle id="Oval-Copy-223" fill="#F38E86" cx="92.5" cy="183.5" r="1.5"></circle>
                        <circle id="Oval-Copy-222" fill="#F38E86" cx="79.5" cy="183.5" r="1.5"></circle>
                        <circle id="Oval-Copy-221" fill="#F38E86" cx="66.5" cy="183.5" r="1.5"></circle>
                        <circle id="Oval-Copy-220" fill="#F38E86" cx="53.5" cy="183.5" r="1.5"></circle>
                        <circle id="Oval-Copy-219" fill="#F38E86" cx="40.5" cy="183.5" r="1.5"></circle>
                        <circle id="Oval-Copy-218" fill="#F38E86" cx="27.5" cy="183.5" r="1.5"></circle>
                        <circle id="Oval-Copy-217" fill="#F38E86" cx="14.5" cy="183.5" r="1.5"></circle>
                        <circle id="Oval-Copy-216" fill="#F38E86" cx="1.5" cy="183.5" r="1.5"></circle>
                        <circle id="Oval-Copy-215" fill="#F38E86" cx="183.5" cy="170.5" r="1.5"></circle>
                        <circle id="Oval-Copy-214" fill="#F38E86" cx="170.5" cy="170.5" r="1.5"></circle>
                        <circle id="Oval-Copy-213" fill="#F38E86" cx="157.5" cy="170.5" r="1.5"></circle>
                        <circle id="Oval-Copy-212" fill="#F38E86" cx="144.5" cy="170.5" r="1.5"></circle>
                        <circle id="Oval-Copy-211" fill="#F38E86" cx="131.5" cy="170.5" r="1.5"></circle>
                        <circle id="Oval-Copy-210" fill="#F38E86" cx="118.5" cy="170.5" r="1.5"></circle>
                        <circle id="Oval-Copy-209" fill="#F38E86" cx="105.5" cy="170.5" r="1.5"></circle>
                        <circle id="Oval-Copy-208" fill="#F38E86" cx="92.5" cy="170.5" r="1.5"></circle>
                        <circle id="Oval-Copy-207" fill="#F38E86" cx="79.5" cy="170.5" r="1.5"></circle>
                        <circle id="Oval-Copy-206" fill="#F38E86" cx="66.5" cy="170.5" r="1.5"></circle>
                        <circle id="Oval-Copy-205" fill="#F38E86" cx="53.5" cy="170.5" r="1.5"></circle>
                        <circle id="Oval-Copy-204" fill="#F38E86" cx="40.5" cy="170.5" r="1.5"></circle>
                        <circle id="Oval-Copy-203" fill="#F38E86" cx="27.5" cy="170.5" r="1.5"></circle>
                        <circle id="Oval-Copy-202" fill="#F38E86" cx="14.5" cy="170.5" r="1.5"></circle>
                        <circle id="Oval-Copy-201" fill="#F38E86" cx="1.5" cy="170.5" r="1.5"></circle>
                        <circle id="Oval-Copy-200" fill="#F38E86" cx="183.5" cy="157.5" r="1.5"></circle>
                        <circle id="Oval-Copy-199" fill="#F38E86" cx="170.5" cy="157.5" r="1.5"></circle>
                        <circle id="Oval-Copy-198" fill="#F38E86" cx="157.5" cy="157.5" r="1.5"></circle>
                        <circle id="Oval-Copy-197" fill="#F38E86" cx="144.5" cy="157.5" r="1.5"></circle>
                        <circle id="Oval-Copy-196" fill="#F38E86" cx="131.5" cy="157.5" r="1.5"></circle>
                        <circle id="Oval-Copy-195" fill="#F38E86" cx="118.5" cy="157.5" r="1.5"></circle>
                        <circle id="Oval-Copy-194" fill="#F38E86" cx="105.5" cy="157.5" r="1.5"></circle>
                        <circle id="Oval-Copy-193" fill="#F38E86" cx="92.5" cy="157.5" r="1.5"></circle>
                        <circle id="Oval-Copy-192" fill="#F38E86" cx="79.5" cy="157.5" r="1.5"></circle>
                        <circle id="Oval-Copy-191" fill="#F38E86" cx="66.5" cy="157.5" r="1.5"></circle>
                        <circle id="Oval-Copy-190" fill="#F38E86" cx="53.5" cy="157.5" r="1.5"></circle>
                        <circle id="Oval-Copy-189" fill="#F38E86" cx="40.5" cy="157.5" r="1.5"></circle>
                        <circle id="Oval-Copy-188" fill="#F38E86" cx="27.5" cy="157.5" r="1.5"></circle>
                        <circle id="Oval-Copy-187" fill="#F38E86" cx="14.5" cy="157.5" r="1.5"></circle>
                        <circle id="Oval-Copy-186" fill="#F38E86" cx="1.5" cy="157.5" r="1.5"></circle>
                        <circle id="Oval-Copy-185" fill="#F38E86" cx="183.5" cy="144.5" r="1.5"></circle>
                        <circle id="Oval-Copy-184" fill="#F38E86" cx="170.5" cy="144.5" r="1.5"></circle>
                        <circle id="Oval-Copy-183" fill="#F38E86" cx="157.5" cy="144.5" r="1.5"></circle>
                        <circle id="Oval-Copy-182" fill="#F38E86" cx="144.5" cy="144.5" r="1.5"></circle>
                        <circle id="Oval-Copy-181" fill="#F38E86" cx="131.5" cy="144.5" r="1.5"></circle>
                        <circle id="Oval-Copy-180" fill="#F38E86" cx="118.5" cy="144.5" r="1.5"></circle>
                        <circle id="Oval-Copy-179" fill="#F38E86" cx="105.5" cy="144.5" r="1.5"></circle>
                        <circle id="Oval-Copy-178" fill="#F38E86" cx="92.5" cy="144.5" r="1.5"></circle>
                        <circle id="Oval-Copy-177" fill="#F38E86" cx="79.5" cy="144.5" r="1.5"></circle>
                        <circle id="Oval-Copy-176" fill="#F38E86" cx="66.5" cy="144.5" r="1.5"></circle>
                        <circle id="Oval-Copy-175" fill="#F38E86" cx="53.5" cy="144.5" r="1.5"></circle>
                        <circle id="Oval-Copy-174" fill="#F38E86" cx="40.5" cy="144.5" r="1.5"></circle>
                        <circle id="Oval-Copy-173" fill="#F38E86" cx="27.5" cy="144.5" r="1.5"></circle>
                        <circle id="Oval-Copy-172" fill="#F38E86" cx="14.5" cy="144.5" r="1.5"></circle>
                        <circle id="Oval-Copy-171" fill="#F38E86" cx="1.5" cy="144.5" r="1.5"></circle>
                        <circle id="Oval-Copy-170" fill="#F38E86" cx="183.5" cy="131.5" r="1.5"></circle>
                        <circle id="Oval-Copy-169" fill="#F38E86" cx="170.5" cy="131.5" r="1.5"></circle>
                        <circle id="Oval-Copy-168" fill="#F38E86" cx="157.5" cy="131.5" r="1.5"></circle>
                        <circle id="Oval-Copy-167" fill="#F38E86" cx="144.5" cy="131.5" r="1.5"></circle>
                        <circle id="Oval-Copy-166" fill="#F38E86" cx="131.5" cy="131.5" r="1.5"></circle>
                        <circle id="Oval-Copy-165" fill="#F38E86" cx="118.5" cy="131.5" r="1.5"></circle>
                        <circle id="Oval-Copy-164" fill="#F38E86" cx="105.5" cy="131.5" r="1.5"></circle>
                        <circle id="Oval-Copy-163" fill="#F38E86" cx="92.5" cy="131.5" r="1.5"></circle>
                        <circle id="Oval-Copy-162" fill="#F38E86" cx="79.5" cy="131.5" r="1.5"></circle>
                        <circle id="Oval-Copy-161" fill="#F38E86" cx="66.5" cy="131.5" r="1.5"></circle>
                        <circle id="Oval-Copy-160" fill="#F38E86" cx="53.5" cy="131.5" r="1.5"></circle>
                        <circle id="Oval-Copy-159" fill="#F38E86" cx="40.5" cy="131.5" r="1.5"></circle>
                        <circle id="Oval-Copy-158" fill="#F38E86" cx="27.5" cy="131.5" r="1.5"></circle>
                        <circle id="Oval-Copy-157" fill="#F38E86" cx="14.5" cy="131.5" r="1.5"></circle>
                        <circle id="Oval-Copy-156" fill="#F38E86" cx="1.5" cy="131.5" r="1.5"></circle>
                        <circle id="Oval-Copy-155" fill="#F38E86" cx="183.5" cy="118.5" r="1.5"></circle>
                        <circle id="Oval-Copy-154" fill="#F38E86" cx="170.5" cy="118.5" r="1.5"></circle>
                        <circle id="Oval-Copy-153" fill="#F38E86" cx="157.5" cy="118.5" r="1.5"></circle>
                        <circle id="Oval-Copy-152" fill="#F38E86" cx="144.5" cy="118.5" r="1.5"></circle>
                        <circle id="Oval-Copy-151" fill="#F38E86" cx="131.5" cy="118.5" r="1.5"></circle>
                        <circle id="Oval-Copy-150" fill="#F38E86" cx="118.5" cy="118.5" r="1.5"></circle>
                        <circle id="Oval-Copy-149" fill="#F38E86" cx="105.5" cy="118.5" r="1.5"></circle>
                        <circle id="Oval-Copy-148" fill="#F38E86" cx="92.5" cy="118.5" r="1.5"></circle>
                        <circle id="Oval-Copy-147" fill="#F38E86" cx="79.5" cy="118.5" r="1.5"></circle>
                        <circle id="Oval-Copy-146" fill="#F38E86" cx="66.5" cy="118.5" r="1.5"></circle>
                        <circle id="Oval-Copy-145" fill="#F38E86" cx="53.5" cy="118.5" r="1.5"></circle>
                        <circle id="Oval-Copy-144" fill="#F38E86" cx="40.5" cy="118.5" r="1.5"></circle>
                        <circle id="Oval-Copy-143" fill="#F38E86" cx="27.5" cy="118.5" r="1.5"></circle>
                        <circle id="Oval-Copy-142" fill="#F38E86" cx="14.5" cy="118.5" r="1.5"></circle>
                        <circle id="Oval-Copy-141" fill="#F38E86" cx="1.5" cy="118.5" r="1.5"></circle>
                        <circle id="Oval-Copy-140" fill="#F38E86" cx="183.5" cy="105.5" r="1.5"></circle>
                        <circle id="Oval-Copy-139" fill="#F38E86" cx="170.5" cy="105.5" r="1.5"></circle>
                        <circle id="Oval-Copy-138" fill="#F38E86" cx="157.5" cy="105.5" r="1.5"></circle>
                        <circle id="Oval-Copy-137" fill="#F38E86" cx="144.5" cy="105.5" r="1.5"></circle>
                        <circle id="Oval-Copy-136" fill="#F38E86" cx="131.5" cy="105.5" r="1.5"></circle>
                        <circle id="Oval-Copy-135" fill="#F38E86" cx="118.5" cy="105.5" r="1.5"></circle>
                        <circle id="Oval-Copy-134" fill="#F38E86" cx="105.5" cy="105.5" r="1.5"></circle>
                        <circle id="Oval-Copy-133" fill="#F38E86" cx="92.5" cy="105.5" r="1.5"></circle>
                        <circle id="Oval-Copy-132" fill="#F38E86" cx="79.5" cy="105.5" r="1.5"></circle>
                        <circle id="Oval-Copy-131" fill="#F38E86" cx="66.5" cy="105.5" r="1.5"></circle>
                        <circle id="Oval-Copy-130" fill="#F38E86" cx="53.5" cy="105.5" r="1.5"></circle>
                        <circle id="Oval-Copy-129" fill="#F38E86" cx="40.5" cy="105.5" r="1.5"></circle>
                        <circle id="Oval-Copy-128" fill="#F38E86" cx="27.5" cy="105.5" r="1.5"></circle>
                        <circle id="Oval-Copy-127" fill="#F38E86" cx="14.5" cy="105.5" r="1.5"></circle>
                        <circle id="Oval-Copy-126" fill="#F38E86" cx="1.5" cy="105.5" r="1.5"></circle>
                        <circle id="Oval-Copy-125" fill="#F38E86" cx="183.5" cy="92.5" r="1.5"></circle>
                        <circle id="Oval-Copy-124" fill="#F38E86" cx="170.5" cy="92.5" r="1.5"></circle>
                        <circle id="Oval-Copy-123" fill="#F38E86" cx="157.5" cy="92.5" r="1.5"></circle>
                        <circle id="Oval-Copy-122" fill="#F38E86" cx="144.5" cy="92.5" r="1.5"></circle>
                        <circle id="Oval-Copy-121" fill="#F38E86" cx="131.5" cy="92.5" r="1.5"></circle>
                        <circle id="Oval-Copy-120" fill="#F38E86" cx="118.5" cy="92.5" r="1.5"></circle>
                        <circle id="Oval-Copy-119" fill="#F38E86" cx="105.5" cy="92.5" r="1.5"></circle>
                        <circle id="Oval-Copy-118" fill="#F38E86" cx="92.5" cy="92.5" r="1.5"></circle>
                        <circle id="Oval-Copy-117" fill="#F38E86" cx="79.5" cy="92.5" r="1.5"></circle>
                        <circle id="Oval-Copy-116" fill="#F38E86" cx="66.5" cy="92.5" r="1.5"></circle>
                        <circle id="Oval-Copy-115" fill="#F38E86" cx="53.5" cy="92.5" r="1.5"></circle>
                        <circle id="Oval-Copy-114" fill="#F38E86" cx="40.5" cy="92.5" r="1.5"></circle>
                        <circle id="Oval-Copy-113" fill="#F38E86" cx="27.5" cy="92.5" r="1.5"></circle>
                        <circle id="Oval-Copy-112" fill="#F38E86" cx="14.5" cy="92.5" r="1.5"></circle>
                        <circle id="Oval-Copy-111" fill="#F38E86" cx="1.5" cy="92.5" r="1.5"></circle>
                        <circle id="Oval-Copy-110" fill="#F38E86" cx="183.5" cy="79.5" r="1.5"></circle>
                        <circle id="Oval-Copy-109" fill="#F38E86" cx="170.5" cy="79.5" r="1.5"></circle>
                        <circle id="Oval-Copy-108" fill="#F38E86" cx="157.5" cy="79.5" r="1.5"></circle>
                        <circle id="Oval-Copy-107" fill="#F38E86" cx="144.5" cy="79.5" r="1.5"></circle>
                        <circle id="Oval-Copy-106" fill="#F38E86" cx="131.5" cy="79.5" r="1.5"></circle>
                        <circle id="Oval-Copy-105" fill="#F38E86" cx="118.5" cy="79.5" r="1.5"></circle>
                        <circle id="Oval-Copy-104" fill="#F38E86" cx="105.5" cy="79.5" r="1.5"></circle>
                        <circle id="Oval-Copy-103" fill="#F38E86" cx="92.5" cy="79.5" r="1.5"></circle>
                        <circle id="Oval-Copy-102" fill="#F38E86" cx="79.5" cy="79.5" r="1.5"></circle>
                        <circle id="Oval-Copy-101" fill="#F38E86" cx="66.5" cy="79.5" r="1.5"></circle>
                        <circle id="Oval-Copy-100" fill="#F38E86" cx="53.5" cy="79.5" r="1.5"></circle>
                        <circle id="Oval-Copy-99" fill="#F38E86" cx="40.5" cy="79.5" r="1.5"></circle>
                        <circle id="Oval-Copy-98" fill="#F38E86" cx="27.5" cy="79.5" r="1.5"></circle>
                        <circle id="Oval-Copy-97" fill="#F38E86" cx="14.5" cy="79.5" r="1.5"></circle>
                        <circle id="Oval-Copy-96" fill="#F38E86" cx="1.5" cy="79.5" r="1.5"></circle>
                        <circle id="Oval-Copy-95" fill="#F38E86" cx="183.5" cy="66.5" r="1.5"></circle>
                        <circle id="Oval-Copy-94" fill="#F38E86" cx="170.5" cy="66.5" r="1.5"></circle>
                        <circle id="Oval-Copy-93" fill="#F38E86" cx="157.5" cy="66.5" r="1.5"></circle>
                        <circle id="Oval-Copy-92" fill="#F38E86" cx="144.5" cy="66.5" r="1.5"></circle>
                        <circle id="Oval-Copy-91" fill="#F38E86" cx="131.5" cy="66.5" r="1.5"></circle>
                        <circle id="Oval-Copy-90" fill="#F38E86" cx="118.5" cy="66.5" r="1.5"></circle>
                        <circle id="Oval-Copy-89" fill="#F38E86" cx="105.5" cy="66.5" r="1.5"></circle>
                        <circle id="Oval-Copy-88" fill="#F38E86" cx="92.5" cy="66.5" r="1.5"></circle>
                        <circle id="Oval-Copy-87" fill="#F38E86" cx="79.5" cy="66.5" r="1.5"></circle>
                        <circle id="Oval-Copy-86" fill="#F38E86" cx="66.5" cy="66.5" r="1.5"></circle>
                        <circle id="Oval-Copy-85" fill="#F38E86" cx="53.5" cy="66.5" r="1.5"></circle>
                        <circle id="Oval-Copy-84" fill="#F38E86" cx="40.5" cy="66.5" r="1.5"></circle>
                        <circle id="Oval-Copy-83" fill="#F38E86" cx="27.5" cy="66.5" r="1.5"></circle>
                    </g>
                </g>
            </g>
        </g>
    </g>
</svg>