<?xml version="1.0" encoding="UTF-8"?>
<svg width="327px" height="276px" viewBox="0 0 327 276" version="1.1" xmlns="http://www.w3.org/2000/svg" xmlns:xlink="http://www.w3.org/1999/xlink">
    <!-- Generator: Sketch 57.1 (83088) - https://sketch.com -->
    <title>background items</title>
    <desc>Created with Sketch.</desc>
    <g id="Page-1" stroke="none" stroke-width="1" fill="none" fill-rule="evenodd" opacity="0.25609189">
        <g id="Final-design" transform="translate(-229.000000, -3926.000000)">
            <g id="REVIEWS" transform="translate(221.657174, 3921.000000)">
                <g id="background-items" transform="translate(184.887618, 140.407649) rotate(-190.000000) translate(-184.887618, -140.407649) translate(17.387618, 27.907649)">
                    <circle id="Oval-Copy-6" fill="#F38E86" cx="151.5" cy="1.5" r="1.5"></circle>
                    <circle id="Oval-Copy-7" fill="#F38E86" cx="164.5" cy="1.5" r="1.5"></circle>
                    <circle id="Oval-Copy-8" fill="#F38E86" cx="177.5" cy="1.5" r="1.5"></circle>
                    <circle id="Oval-Copy-9" fill="#F38E86" cx="190.5" cy="1.5" r="1.5"></circle>
                    <circle id="Oval-Copy-10" fill="#F38E86" cx="203.5" cy="1.5" r="1.5"></circle>
                    <circle id="Oval-Copy-11" fill="#F38E86" cx="216.5" cy="1.5" r="1.5"></circle>
                    <circle id="Oval-Copy-12" fill="#F38E86" cx="229.5" cy="1.5" r="1.5"></circle>
                    <circle id="Oval-Copy-13" fill="#F38E86" cx="242.5" cy="1.5" r="1.5"></circle>
                    <circle id="Oval-Copy-14" fill="#F38E86" cx="255.5" cy="1.5" r="1.5"></circle>
                    <circle id="Oval-Copy-15" fill="#F38E86" cx="268.5" cy="1.5" r="1.5"></circle>
                    <circle id="Oval-Copy-16" fill="#F38E86" cx="281.5" cy="1.5" r="1.5"></circle>
                    <circle id="Oval-Copy-17" fill="#F38E86" cx="294.5" cy="1.5" r="1.5"></circle>
                    <circle id="Oval-Copy-18" fill="#F38E86" cx="307.5" cy="1.5" r="1.5"></circle>
                    <circle id="Oval-Copy-19" fill="#F38E86" cx="320.5" cy="1.5" r="1.5"></circle>
                    <circle id="Oval-Copy-20" fill="#F38E86" cx="333.5" cy="1.5" r="1.5"></circle>
                    <circle id="Oval-Copy-21" fill="#F38E86" cx="151.5" cy="14.5" r="1.5"></circle>
                    <circle id="Oval-Copy-22" fill="#F38E86" cx="164.5" cy="14.5" r="1.5"></circle>
                    <circle id="Oval-Copy-23" fill="#F38E86" cx="177.5" cy="14.5" r="1.5"></circle>
                    <circle id="Oval-Copy-24" fill="#F38E86" cx="190.5" cy="14.5" r="1.5"></circle>
                    <circle id="Oval-Copy-25" fill="#F38E86" cx="203.5" cy="14.5" r="1.5"></circle>
                    <circle id="Oval-Copy-26" fill="#F38E86" cx="216.5" cy="14.5" r="1.5"></circle>
                    <circle id="Oval-Copy-27" fill="#F38E86" cx="229.5" cy="14.5" r="1.5"></circle>
                    <circle id="Oval-Copy-28" fill="#F38E86" cx="242.5" cy="14.5" r="1.5"></circle>
                    <circle id="Oval-Copy-29" fill="#F38E86" cx="255.5" cy="14.5" r="1.5"></circle>
                    <circle id="Oval-Copy-30" fill="#F38E86" cx="268.5" cy="14.5" r="1.5"></circle>
                    <circle id="Oval-Copy-31" fill="#F38E86" cx="281.5" cy="14.5" r="1.5"></circle>
                    <circle id="Oval-Copy-32" fill="#F38E86" cx="294.5" cy="14.5" r="1.5"></circle>
                    <circle id="Oval-Copy-33" fill="#F38E86" cx="307.5" cy="14.5" r="1.5"></circle>
                    <circle id="Oval-Copy-34" fill="#F38E86" cx="320.5" cy="14.5" r="1.5"></circle>
                    <circle id="Oval-Copy-35" fill="#F38E86" cx="333.5" cy="14.5" r="1.5"></circle>
                    <circle id="Oval-Copy-36" fill="#F38E86" cx="151.5" cy="27.5" r="1.5"></circle>
                    <circle id="Oval-Copy-37" fill="#F38E86" cx="164.5" cy="27.5" r="1.5"></circle>
                    <circle id="Oval-Copy-38" fill="#F38E86" cx="177.5" cy="27.5" r="1.5"></circle>
                    <circle id="Oval-Copy-39" fill="#F38E86" cx="190.5" cy="27.5" r="1.5"></circle>
                    <circle id="Oval-Copy-40" fill="#F38E86" cx="203.5" cy="27.5" r="1.5"></circle>
                    <circle id="Oval-Copy-41" fill="#F38E86" cx="216.5" cy="27.5" r="1.5"></circle>
                    <circle id="Oval-Copy-42" fill="#F38E86" cx="229.5" cy="27.5" r="1.5"></circle>
                    <circle id="Oval-Copy-43" fill="#F38E86" cx="242.5" cy="27.5" r="1.5"></circle>
                    <circle id="Oval-Copy-44" fill="#F38E86" cx="255.5" cy="27.5" r="1.5"></circle>
                    <circle id="Oval-Copy-45" fill="#F38E86" cx="268.5" cy="27.5" r="1.5"></circle>
                    <circle id="Oval-Copy-46" fill="#F38E86" cx="281.5" cy="27.5" r="1.5"></circle>
                    <circle id="Oval-Copy-47" fill="#F38E86" cx="294.5" cy="27.5" r="1.5"></circle>
                    <circle id="Oval-Copy-48" fill="#F38E86" cx="307.5" cy="27.5" r="1.5"></circle>
                    <circle id="Oval-Copy-49" fill="#F38E86" cx="320.5" cy="27.5" r="1.5"></circle>
                    <circle id="Oval-Copy-50" fill="#F38E86" cx="333.5" cy="27.5" r="1.5"></circle>
                    <circle id="Oval-Copy-51" fill="#F38E86" cx="151.5" cy="40.5" r="1.5"></circle>
                    <circle id="Oval-Copy-52" fill="#F38E86" cx="164.5" cy="40.5" r="1.5"></circle>
                    <circle id="Oval-Copy-53" fill="#F38E86" cx="177.5" cy="40.5" r="1.5"></circle>
                    <circle id="Oval-Copy-54" fill="#F38E86" cx="190.5" cy="40.5" r="1.5"></circle>
                    <circle id="Oval-Copy-55" fill="#F38E86" cx="203.5" cy="40.5" r="1.5"></circle>
                    <circle id="Oval-Copy-56" fill="#F38E86" cx="216.5" cy="40.5" r="1.5"></circle>
                    <circle id="Oval-Copy-57" fill="#F38E86" cx="229.5" cy="40.5" r="1.5"></circle>
                    <circle id="Oval-Copy-58" fill="#F38E86" cx="242.5" cy="40.5" r="1.5"></circle>
                    <circle id="Oval-Copy-59" fill="#F38E86" cx="255.5" cy="40.5" r="1.5"></circle>
                    <circle id="Oval-Copy-60" fill="#F38E86" cx="268.5" cy="40.5" r="1.5"></circle>
                    <circle id="Oval-Copy-61" fill="#F38E86" cx="281.5" cy="40.5" r="1.5"></circle>
                    <circle id="Oval-Copy-62" fill="#F38E86" cx="294.5" cy="40.5" r="1.5"></circle>
                    <circle id="Oval-Copy-63" fill="#F38E86" cx="307.5" cy="40.5" r="1.5"></circle>
                    <circle id="Oval-Copy-64" fill="#F38E86" cx="320.5" cy="40.5" r="1.5"></circle>
                    <circle id="Oval-Copy-65" fill="#F38E86" cx="333.5" cy="40.5" r="1.5"></circle>
                    <circle id="Oval-Copy-66" fill="#F38E86" cx="151.5" cy="53.5" r="1.5"></circle>
                    <circle id="Oval-Copy-67" fill="#F38E86" cx="164.5" cy="53.5" r="1.5"></circle>
                    <circle id="Oval-Copy-68" fill="#F38E86" cx="177.5" cy="53.5" r="1.5"></circle>
                    <circle id="Oval-Copy-69" fill="#F38E86" cx="190.5" cy="53.5" r="1.5"></circle>
                    <circle id="Oval-Copy-70" fill="#F38E86" cx="203.5" cy="53.5" r="1.5"></circle>
                    <circle id="Oval-Copy-71" fill="#F38E86" cx="216.5" cy="53.5" r="1.5"></circle>
                    <circle id="Oval-Copy-72" fill="#F38E86" cx="229.5" cy="53.5" r="1.5"></circle>
                    <circle id="Oval-Copy-73" fill="#F38E86" cx="242.5" cy="53.5" r="1.5"></circle>
                    <circle id="Oval-Copy-74" fill="#F38E86" cx="255.5" cy="53.5" r="1.5"></circle>
                    <circle id="Oval-Copy-75" fill="#F38E86" cx="268.5" cy="53.5" r="1.5"></circle>
                    <circle id="Oval-Copy-76" fill="#F38E86" cx="281.5" cy="53.5" r="1.5"></circle>
                    <circle id="Oval-Copy-77" fill="#F38E86" cx="294.5" cy="53.5" r="1.5"></circle>
                    <circle id="Oval-Copy-78" fill="#F38E86" cx="307.5" cy="53.5" r="1.5"></circle>
                    <circle id="Oval-Copy-79" fill="#F38E86" cx="320.5" cy="53.5" r="1.5"></circle>
                    <circle id="Oval-Copy-80" fill="#F38E86" cx="333.5" cy="53.5" r="1.5"></circle>
                    <circle id="Oval-Copy-81" fill="#F38E86" cx="151.5" cy="66.5" r="1.5"></circle>
                    <circle id="Oval-Copy-82" fill="#F38E86" cx="164.5" cy="66.5" r="1.5"></circle>
                    <circle id="Oval-Copy-230" fill="#F38E86" cx="333.5" cy="183.5" r="1.5"></circle>
                    <circle id="Oval-Copy-229" fill="#F38E86" cx="320.5" cy="183.5" r="1.5"></circle>
                    <circle id="Oval-Copy-228" fill="#F38E86" cx="307.5" cy="183.5" r="1.5"></circle>
                    <circle id="Oval-Copy-227" fill="#F38E86" cx="294.5" cy="183.5" r="1.5"></circle>
                    <circle id="Oval-Copy-226" fill="#F38E86" cx="281.5" cy="183.5" r="1.5"></circle>
                    <circle id="Oval-Copy-225" fill="#F38E86" cx="268.5" cy="183.5" r="1.5"></circle>
                    <circle id="Oval-Copy-224" fill="#F38E86" cx="255.5" cy="183.5" r="1.5"></circle>
                    <circle id="Oval-Copy-223" fill="#F38E86" cx="242.5" cy="183.5" r="1.5"></circle>
                    <circle id="Oval-Copy-222" fill="#F38E86" cx="229.5" cy="183.5" r="1.5"></circle>
                    <circle id="Oval-Copy-221" fill="#F38E86" cx="216.5" cy="183.5" r="1.5"></circle>
                    <circle id="Oval-Copy-220" fill="#F38E86" cx="203.5" cy="183.5" r="1.5"></circle>
                    <circle id="Oval-Copy-219" fill="#F38E86" cx="190.5" cy="183.5" r="1.5"></circle>
                    <circle id="Oval-Copy-218" fill="#F38E86" cx="177.5" cy="183.5" r="1.5"></circle>
                    <circle id="Oval-Copy-217" fill="#F38E86" cx="164.5" cy="183.5" r="1.5"></circle>
                    <circle id="Oval-Copy-216" fill="#F38E86" cx="151.5" cy="183.5" r="1.5"></circle>
                    <circle id="Oval-Copy-215" fill="#F38E86" cx="333.5" cy="170.5" r="1.5"></circle>
                    <circle id="Oval-Copy-214" fill="#F38E86" cx="320.5" cy="170.5" r="1.5"></circle>
                    <circle id="Oval-Copy-213" fill="#F38E86" cx="307.5" cy="170.5" r="1.5"></circle>
                    <circle id="Oval-Copy-212" fill="#F38E86" cx="294.5" cy="170.5" r="1.5"></circle>
                    <circle id="Oval-Copy-211" fill="#F38E86" cx="281.5" cy="170.5" r="1.5"></circle>
                    <circle id="Oval-Copy-210" fill="#F38E86" cx="268.5" cy="170.5" r="1.5"></circle>
                    <circle id="Oval-Copy-209" fill="#F38E86" cx="255.5" cy="170.5" r="1.5"></circle>
                    <circle id="Oval-Copy-208" fill="#F38E86" cx="242.5" cy="170.5" r="1.5"></circle>
                    <circle id="Oval-Copy-207" fill="#F38E86" cx="229.5" cy="170.5" r="1.5"></circle>
                    <circle id="Oval-Copy-206" fill="#F38E86" cx="216.5" cy="170.5" r="1.5"></circle>
                    <circle id="Oval-Copy-205" fill="#F38E86" cx="203.5" cy="170.5" r="1.5"></circle>
                    <circle id="Oval-Copy-204" fill="#F38E86" cx="190.5" cy="170.5" r="1.5"></circle>
                    <circle id="Oval-Copy-203" fill="#F38E86" cx="177.5" cy="170.5" r="1.5"></circle>
                    <circle id="Oval-Copy-202" fill="#F38E86" cx="164.5" cy="170.5" r="1.5"></circle>
                    <circle id="Oval-Copy-201" fill="#F38E86" cx="151.5" cy="170.5" r="1.5"></circle>
                    <circle id="Oval-Copy-200" fill="#F38E86" cx="333.5" cy="157.5" r="1.5"></circle>
                    <circle id="Oval-Copy-199" fill="#F38E86" cx="320.5" cy="157.5" r="1.5"></circle>
                    <circle id="Oval-Copy-198" fill="#F38E86" cx="307.5" cy="157.5" r="1.5"></circle>
                    <circle id="Oval-Copy-197" fill="#F38E86" cx="294.5" cy="157.5" r="1.5"></circle>
                    <circle id="Oval-Copy-196" fill="#F38E86" cx="281.5" cy="157.5" r="1.5"></circle>
                    <circle id="Oval-Copy-195" fill="#F38E86" cx="268.5" cy="157.5" r="1.5"></circle>
                    <circle id="Oval-Copy-194" fill="#F38E86" cx="255.5" cy="157.5" r="1.5"></circle>
                    <circle id="Oval-Copy-193" fill="#F38E86" cx="242.5" cy="157.5" r="1.5"></circle>
                    <circle id="Oval-Copy-192" fill="#F38E86" cx="229.5" cy="157.5" r="1.5"></circle>
                    <circle id="Oval-Copy-191" fill="#F38E86" cx="216.5" cy="157.5" r="1.5"></circle>
                    <circle id="Oval-Copy-190" fill="#F38E86" cx="203.5" cy="157.5" r="1.5"></circle>
                    <circle id="Oval-Copy-189" fill="#F38E86" cx="190.5" cy="157.5" r="1.5"></circle>
                    <circle id="Oval-Copy-188" fill="#F38E86" cx="177.5" cy="157.5" r="1.5"></circle>
                    <circle id="Oval-Copy-187" fill="#F38E86" cx="164.5" cy="157.5" r="1.5"></circle>
                    <circle id="Oval-Copy-186" fill="#F38E86" cx="151.5" cy="157.5" r="1.5"></circle>
                    <circle id="Oval-Copy-185" fill="#F38E86" cx="333.5" cy="144.5" r="1.5"></circle>
                    <circle id="Oval-Copy-184" fill="#F38E86" cx="320.5" cy="144.5" r="1.5"></circle>
                    <circle id="Oval-Copy-183" fill="#F38E86" cx="307.5" cy="144.5" r="1.5"></circle>
                    <circle id="Oval-Copy-182" fill="#F38E86" cx="294.5" cy="144.5" r="1.5"></circle>
                    <circle id="Oval-Copy-181" fill="#F38E86" cx="281.5" cy="144.5" r="1.5"></circle>
                    <circle id="Oval-Copy-180" fill="#F38E86" cx="268.5" cy="144.5" r="1.5"></circle>
                    <circle id="Oval-Copy-179" fill="#F38E86" cx="255.5" cy="144.5" r="1.5"></circle>
                    <circle id="Oval-Copy-178" fill="#F38E86" cx="242.5" cy="144.5" r="1.5"></circle>
                    <circle id="Oval-Copy-177" fill="#F38E86" cx="229.5" cy="144.5" r="1.5"></circle>
                    <circle id="Oval-Copy-176" fill="#F38E86" cx="216.5" cy="144.5" r="1.5"></circle>
                    <circle id="Oval-Copy-175" fill="#F38E86" cx="203.5" cy="144.5" r="1.5"></circle>
                    <circle id="Oval-Copy-174" fill="#F38E86" cx="190.5" cy="144.5" r="1.5"></circle>
                    <circle id="Oval-Copy-173" fill="#F38E86" cx="177.5" cy="144.5" r="1.5"></circle>
                    <circle id="Oval-Copy-172" fill="#F38E86" cx="164.5" cy="144.5" r="1.5"></circle>
                    <circle id="Oval-Copy-171" fill="#F38E86" cx="151.5" cy="144.5" r="1.5"></circle>
                    <circle id="Oval-Copy-170" fill="#F38E86" cx="333.5" cy="131.5" r="1.5"></circle>
                    <circle id="Oval-Copy-169" fill="#F38E86" cx="320.5" cy="131.5" r="1.5"></circle>
                    <circle id="Oval-Copy-168" fill="#F38E86" cx="307.5" cy="131.5" r="1.5"></circle>
                    <circle id="Oval-Copy-167" fill="#F38E86" cx="294.5" cy="131.5" r="1.5"></circle>
                    <circle id="Oval-Copy-166" fill="#F38E86" cx="281.5" cy="131.5" r="1.5"></circle>
                    <circle id="Oval-Copy-165" fill="#F38E86" cx="268.5" cy="131.5" r="1.5"></circle>
                    <circle id="Oval-Copy-164" fill="#F38E86" cx="255.5" cy="131.5" r="1.5"></circle>
                    <circle id="Oval-Copy-163" fill="#F38E86" cx="242.5" cy="131.5" r="1.5"></circle>
                    <circle id="Oval-Copy-162" fill="#F38E86" cx="229.5" cy="131.5" r="1.5"></circle>
                    <circle id="Oval-Copy-161" fill="#F38E86" cx="216.5" cy="131.5" r="1.5"></circle>
                    <circle id="Oval-Copy-160" fill="#F38E86" cx="203.5" cy="131.5" r="1.5"></circle>
                    <circle id="Oval-Copy-159" fill="#F38E86" cx="190.5" cy="131.5" r="1.5"></circle>
                    <circle id="Oval-Copy-158" fill="#F38E86" cx="177.5" cy="131.5" r="1.5"></circle>
                    <circle id="Oval-Copy-157" fill="#F38E86" cx="164.5" cy="131.5" r="1.5"></circle>
                    <circle id="Oval-Copy-156" fill="#F38E86" cx="151.5" cy="131.5" r="1.5"></circle>
                    <circle id="Oval-Copy-155" fill="#F38E86" cx="333.5" cy="118.5" r="1.5"></circle>
                    <circle id="Oval-Copy-154" fill="#F38E86" cx="320.5" cy="118.5" r="1.5"></circle>
                    <circle id="Oval-Copy-153" fill="#F38E86" cx="307.5" cy="118.5" r="1.5"></circle>
                    <circle id="Oval-Copy-152" fill="#F38E86" cx="294.5" cy="118.5" r="1.5"></circle>
                    <circle id="Oval-Copy-151" fill="#F38E86" cx="281.5" cy="118.5" r="1.5"></circle>
                    <circle id="Oval-Copy-150" fill="#F38E86" cx="268.5" cy="118.5" r="1.5"></circle>
                    <circle id="Oval-Copy-149" fill="#F38E86" cx="255.5" cy="118.5" r="1.5"></circle>
                    <circle id="Oval-Copy-148" fill="#F38E86" cx="242.5" cy="118.5" r="1.5"></circle>
                    <circle id="Oval-Copy-147" fill="#F38E86" cx="229.5" cy="118.5" r="1.5"></circle>
                    <circle id="Oval-Copy-146" fill="#F38E86" cx="216.5" cy="118.5" r="1.5"></circle>
                    <circle id="Oval-Copy-145" fill="#F38E86" cx="203.5" cy="118.5" r="1.5"></circle>
                    <circle id="Oval-Copy-144" fill="#F38E86" cx="190.5" cy="118.5" r="1.5"></circle>
                    <circle id="Oval-Copy-143" fill="#F38E86" cx="177.5" cy="118.5" r="1.5"></circle>
                    <circle id="Oval-Copy-142" fill="#F38E86" cx="164.5" cy="118.5" r="1.5"></circle>
                    <circle id="Oval-Copy-141" fill="#F38E86" cx="151.5" cy="118.5" r="1.5"></circle>
                    <circle id="Oval-Copy-140" fill="#F38E86" cx="333.5" cy="105.5" r="1.5"></circle>
                    <circle id="Oval-Copy-139" fill="#F38E86" cx="320.5" cy="105.5" r="1.5"></circle>
                    <circle id="Oval-Copy-138" fill="#F38E86" cx="307.5" cy="105.5" r="1.5"></circle>
                    <circle id="Oval-Copy-137" fill="#F38E86" cx="294.5" cy="105.5" r="1.5"></circle>
                    <circle id="Oval-Copy-136" fill="#F38E86" cx="281.5" cy="105.5" r="1.5"></circle>
                    <circle id="Oval-Copy-135" fill="#F38E86" cx="268.5" cy="105.5" r="1.5"></circle>
                    <circle id="Oval-Copy-134" fill="#F38E86" cx="255.5" cy="105.5" r="1.5"></circle>
                    <circle id="Oval-Copy-133" fill="#F38E86" cx="242.5" cy="105.5" r="1.5"></circle>
                    <circle id="Oval-Copy-132" fill="#F38E86" cx="229.5" cy="105.5" r="1.5"></circle>
                    <circle id="Oval-Copy-131" fill="#F38E86" cx="216.5" cy="105.5" r="1.5"></circle>
                    <circle id="Oval-Copy-130" fill="#F38E86" cx="203.5" cy="105.5" r="1.5"></circle>
                    <circle id="Oval-Copy-129" fill="#F38E86" cx="190.5" cy="105.5" r="1.5"></circle>
                    <circle id="Oval-Copy-128" fill="#F38E86" cx="177.5" cy="105.5" r="1.5"></circle>
                    <circle id="Oval-Copy-127" fill="#F38E86" cx="164.5" cy="105.5" r="1.5"></circle>
                    <circle id="Oval-Copy-126" fill="#F38E86" cx="151.5" cy="105.5" r="1.5"></circle>
                    <circle id="Oval-Copy-125" fill="#F38E86" cx="333.5" cy="92.5" r="1.5"></circle>
                    <circle id="Oval-Copy-124" fill="#F38E86" cx="320.5" cy="92.5" r="1.5"></circle>
                    <circle id="Oval-Copy-123" fill="#F38E86" cx="307.5" cy="92.5" r="1.5"></circle>
                    <circle id="Oval-Copy-122" fill="#F38E86" cx="294.5" cy="92.5" r="1.5"></circle>
                    <circle id="Oval-Copy-121" fill="#F38E86" cx="281.5" cy="92.5" r="1.5"></circle>
                    <circle id="Oval-Copy-120" fill="#F38E86" cx="268.5" cy="92.5" r="1.5"></circle>
                    <circle id="Oval-Copy-119" fill="#F38E86" cx="255.5" cy="92.5" r="1.5"></circle>
                    <circle id="Oval-Copy-118" fill="#F38E86" cx="242.5" cy="92.5" r="1.5"></circle>
                    <circle id="Oval-Copy-117" fill="#F38E86" cx="229.5" cy="92.5" r="1.5"></circle>
                    <circle id="Oval-Copy-116" fill="#F38E86" cx="216.5" cy="92.5" r="1.5"></circle>
                    <circle id="Oval-Copy-115" fill="#F38E86" cx="203.5" cy="92.5" r="1.5"></circle>
                    <circle id="Oval-Copy-114" fill="#F38E86" cx="190.5" cy="92.5" r="1.5"></circle>
                    <circle id="Oval-Copy-113" fill="#F38E86" cx="177.5" cy="92.5" r="1.5"></circle>
                    <circle id="Oval-Copy-112" fill="#F38E86" cx="164.5" cy="92.5" r="1.5"></circle>
                    <circle id="Oval-Copy-111" fill="#F38E86" cx="151.5" cy="92.5" r="1.5"></circle>
                    <circle id="Oval-Copy-110" fill="#F38E86" cx="333.5" cy="79.5" r="1.5"></circle>
                    <circle id="Oval-Copy-109" fill="#F38E86" cx="320.5" cy="79.5" r="1.5"></circle>
                    <circle id="Oval-Copy-108" fill="#F38E86" cx="307.5" cy="79.5" r="1.5"></circle>
                    <circle id="Oval-Copy-107" fill="#F38E86" cx="294.5" cy="79.5" r="1.5"></circle>
                    <circle id="Oval-Copy-106" fill="#F38E86" cx="281.5" cy="79.5" r="1.5"></circle>
                    <circle id="Oval-Copy-105" fill="#F38E86" cx="268.5" cy="79.5" r="1.5"></circle>
                    <circle id="Oval-Copy-104" fill="#F38E86" cx="255.5" cy="79.5" r="1.5"></circle>
                    <circle id="Oval-Copy-103" fill="#F38E86" cx="242.5" cy="79.5" r="1.5"></circle>
                    <circle id="Oval-Copy-102" fill="#F38E86" cx="229.5" cy="79.5" r="1.5"></circle>
                    <circle id="Oval-Copy-101" fill="#F38E86" cx="216.5" cy="79.5" r="1.5"></circle>
                    <circle id="Oval-Copy-100" fill="#F38E86" cx="203.5" cy="79.5" r="1.5"></circle>
                    <circle id="Oval-Copy-99" fill="#F38E86" cx="190.5" cy="79.5" r="1.5"></circle>
                    <circle id="Oval-Copy-98" fill="#F38E86" cx="177.5" cy="79.5" r="1.5"></circle>
                    <circle id="Oval-Copy-97" fill="#F38E86" cx="164.5" cy="79.5" r="1.5"></circle>
                    <circle id="Oval-Copy-96" fill="#F38E86" cx="151.5" cy="79.5" r="1.5"></circle>
                    <circle id="Oval-Copy-95" fill="#F38E86" cx="333.5" cy="66.5" r="1.5"></circle>
                    <circle id="Oval-Copy-94" fill="#F38E86" cx="320.5" cy="66.5" r="1.5"></circle>
                    <circle id="Oval-Copy-93" fill="#F38E86" cx="307.5" cy="66.5" r="1.5"></circle>
                    <circle id="Oval-Copy-92" fill="#F38E86" cx="294.5" cy="66.5" r="1.5"></circle>
                    <circle id="Oval-Copy-91" fill="#F38E86" cx="281.5" cy="66.5" r="1.5"></circle>
                    <circle id="Oval-Copy-90" fill="#F38E86" cx="268.5" cy="66.5" r="1.5"></circle>
                    <circle id="Oval-Copy-89" fill="#F38E86" cx="255.5" cy="66.5" r="1.5"></circle>
                    <circle id="Oval-Copy-88" fill="#F38E86" cx="242.5" cy="66.5" r="1.5"></circle>
                    <circle id="Oval-Copy-87" fill="#F38E86" cx="229.5" cy="66.5" r="1.5"></circle>
                    <circle id="Oval-Copy-86" fill="#F38E86" cx="216.5" cy="66.5" r="1.5"></circle>
                    <circle id="Oval-Copy-85" fill="#F38E86" cx="203.5" cy="66.5" r="1.5"></circle>
                    <circle id="Oval-Copy-84" fill="#F38E86" cx="190.5" cy="66.5" r="1.5"></circle>
                    <circle id="Oval-Copy-83" fill="#F38E86" cx="177.5" cy="66.5" r="1.5"></circle>
                    <polygon id="Triangle-Copy-12" fill="#FCF0E6" transform="translate(72.228933, 56.017991) rotate(-57.000000) translate(-72.228933, -56.017991) " points="72.2289335 43.5179906 84.7289335 68.5179906 59.7289335 68.5179906"></polygon>
                    <rect id="Rectangle-Copy-13" fill="#FCF0E6" transform="translate(297.904236, 121.309618) rotate(-225.000000) translate(-297.904236, -121.309618) " x="275.404236" y="98.8096178" width="45" height="45"></rect>
                    <circle id="Oval-Copy-240" stroke-opacity="0.36451049" stroke="#8ECCFD" stroke-width="3" transform="translate(163.856359, 58.730596) rotate(-180.000000) translate(-163.856359, -58.730596) " cx="163.856359" cy="58.7305962" r="6.5"></circle>
                    <circle id="Oval-Copy-241" stroke-opacity="0.36451049" stroke="#8ECCFD" stroke-width="3" transform="translate(56.752660, 101.786348) rotate(-180.000000) translate(-56.752660, -101.786348) " cx="56.7526603" cy="101.786348" r="6.5"></circle>
                    <circle id="Oval-Copy-242" stroke-opacity="0.36451049" stroke="#8ECCFD" stroke-width="3" transform="translate(223.219420, 206.117074) rotate(-180.000000) translate(-223.219420, -206.117074) " cx="223.21942" cy="206.117074" r="10"></circle>
                    <rect id="Rectangle-Copy-14" fill-opacity="0.325338724" fill="#FEE0D4" transform="translate(23.265546, 201.565845) rotate(-225.000000) translate(-23.265546, -201.565845) " x="7.26554569" y="185.565845" width="32" height="32"></rect>
                    <path d="M74.1729873,197.193739 C75.3526373,194.607238 76.72065,192.973775 78.2770253,192.293352 C80.6115882,191.272718 82.1729873,192.652157 85.1443866,191.340004 C87.1253163,190.465236 88.4681832,188.749814 89.1729873,186.193739" id="Path-2-Copy-4" stroke-opacity="0.33" stroke="#8ECCFD" stroke-width="3" transform="translate(81.672987, 191.693739) rotate(-210.000000) translate(-81.672987, -191.693739) "></path>
                    <polygon id="Triangle-Copy-13" stroke-opacity="0.36451049" stroke="#8ECCFD" stroke-width="3" transform="translate(313.151347, 186.017604) rotate(-203.000000) translate(-313.151347, -186.017604) " points="314.916465 174.459411 325.651347 197.575798 300.651347 197.575798"></polygon>
                </g>
            </g>
        </g>
    </g>
</svg>